<svg width="4" height="7" viewBox="0 0 4 7" fill="none" xmlns="http://www.w3.org/2000/svg">
<path d="M0.15296 0.154081C0.0550197 0.252768 0 0.3866 0 0.526144C0 0.665688 0.0550197 0.79952 0.15296 0.898207L2.73897 3.50318L0.15296 6.10815C0.0577953 6.2074 0.0051374 6.34033 0.00632771 6.47832C0.00751802 6.6163 0.0624612 6.74829 0.159323 6.84586C0.256186 6.94344 0.387217 6.99878 0.524195 6.99998C0.661174 7.00118 0.79314 6.94814 0.891671 6.85227L3.84704 3.87524C3.94498 3.77655 4 3.64272 4 3.50318C4 3.36363 3.94498 3.2298 3.84704 3.13111L0.891671 0.154081C0.793701 0.0554229 0.660844 0 0.522315 0C0.383786 0 0.250929 0.0554229 0.15296 0.154081Z" fill="#DFE1FF"/>
</svg>
