<svg width="24" height="24" viewBox="0 0 24 24" fill="none" xmlns="http://www.w3.org/2000/svg">
<path d="M5 5C4.73478 5 4.48043 5.10536 4.29289 5.29289C4.10536 5.48043 4 5.73478 4 6C4 6.26522 4.10536 6.51957 4.29289 6.70711C4.48043 6.89464 4.73478 7 5 7H19C19.2652 7 19.5196 6.89464 19.7071 6.70711C19.8946 6.51957 20 6.26522 20 6C20 5.73478 19.8946 5.48043 19.7071 5.29289C19.5196 5.10536 19.2652 5 19 5H5ZM4.33333 0C3.18406 0 2.08186 0.456546 1.2692 1.2692C0.456546 2.08186 0 3.18406 0 4.33333V19.6667C0 20.8159 0.456546 21.9181 1.2692 22.7308C2.08186 23.5435 3.18406 24 4.33333 24H19.6667C20.8159 24 21.9181 23.5435 22.7308 22.7308C23.5435 21.9181 24 20.8159 24 19.6667V4.33333C24 3.18406 23.5435 2.08186 22.7308 1.2692C21.9181 0.456546 20.8159 0 19.6667 0H4.33333ZM2 4.33333C2 3.04533 3.04533 2 4.33333 2H19.6667C20.9547 2 22 3.04533 22 4.33333V19.6667C22 20.2855 21.7542 20.879 21.3166 21.3166C20.879 21.7542 20.2855 22 19.6667 22H4.33333C3.71449 22 3.121 21.7542 2.68342 21.3166C2.24583 20.879 2 20.2855 2 19.6667V4.33333Z" fill="#C0C0C0"/>
</svg>
