<svg width="258" height="247" viewBox="0 0 258 247" fill="none" xmlns="http://www.w3.org/2000/svg">
<g clip-path="url(#clip0_23_2820)">
<path d="M239.514 166.868C215.589 222.767 151.856 254.083 96.5866 245.636C87.5935 244.261 62.9379 240.166 41.1083 220.85C-0.913605 183.664 -9.90038 110.031 23.9973 58.1433C48.6699 20.3763 92.8971 -1.03276 134.922 0.0382287C143.973 0.269312 178.664 1.69048 209.152 26.6351C213.63 30.2995 223.507 39.006 232.408 52.8177C253.31 85.2512 255.107 130.438 239.514 166.868Z" fill="url(#paint0_linear_23_2820)"/>
<path d="M181.427 131.235C181.427 131.235 180.753 103.141 193.795 95.6206C206.837 88.1006 231.632 83.3999 232.561 43.0589C233.106 19.4412 233.694 9.11443 234.089 4.61185C234.125 4.2031 234.065 3.79167 233.914 3.40975C233.763 3.02782 233.525 2.68576 233.218 2.41033C232.912 2.1349 232.545 1.93357 232.147 1.82209C231.749 1.71061 231.331 1.69201 230.924 1.76774C218.573 4.07858 178.449 13.5797 170.037 40.7534C160.065 72.9691 181.427 131.235 181.427 131.235Z" fill="#91B3FA"/>
<path d="M221.372 12.9887C207.814 24.9873 192.137 46.2203 183.781 67.4551C182.706 70.9543 179.571 78.396 178.208 91.6194C176.991 102.646 177.597 114.3 179.072 122.016C179.118 122.249 179.255 122.455 179.453 122.588C179.652 122.721 179.895 122.771 180.131 122.727C180.976 122.568 180.863 121.666 180.856 121.694C179.17 108.515 179.871 92.1109 183.731 77.31C188.665 59.1388 199.673 41.5187 211.048 26.5747L212.219 25.1028C221.036 13.8668 222.893 13.7842 222.072 13.0012C221.978 12.9121 221.854 12.8613 221.725 12.859C221.595 12.8567 221.469 12.903 221.372 12.9887Z" fill="#7D97F4"/>
<path d="M158.589 151.167C156.708 151.742 178.572 131.835 189.971 96.9787C195.345 80.5539 198.733 59.4524 209.698 52.8319C218.822 47.3214 245.534 55.884 254.237 58.9103C254.481 58.9949 254.696 59.1466 254.856 59.3477C255.016 59.5489 255.115 59.7911 255.142 60.046C255.169 60.301 255.122 60.5583 255.007 60.7878C254.891 61.0173 254.713 61.2095 254.492 61.342C249.624 64.2501 239.085 71.259 235.338 79.3976C230.396 90.1226 218.51 95.5806 208.577 96.0054C198.644 96.4303 192.991 97.4666 185.873 112.004C178.755 126.54 163.924 149.532 158.589 151.167Z" fill="#BDD0FB"/>
<path d="M240.876 61.6816C229.366 60.3671 216.269 63.6218 208.498 72.355L207.762 73.1896C206.061 75.1449 195.909 89.3858 189.6 101.518C189.562 101.59 189.555 101.675 189.58 101.753C189.605 101.83 189.66 101.895 189.733 101.933C189.805 101.968 189.887 101.975 189.964 101.952C190.04 101.93 190.106 101.879 190.146 101.811C194.274 95.0456 200.008 86.5471 204.505 80.2243C209.346 73.3149 212.709 68.6479 221.812 65.099C231.917 61.3243 240.861 62.1731 240.833 62.174C240.899 62.1791 240.964 62.1583 241.014 62.1161C241.064 62.0738 241.096 62.0136 241.101 61.9486C241.107 61.8835 241.086 61.8189 241.044 61.7689C241.002 61.7189 240.941 61.6875 240.876 61.6816Z" fill="#91B3FA"/>
<path d="M177.303 108.813H247.398V216.094C247.398 216.56 247.212 217.006 246.88 217.336C246.548 217.665 246.098 217.85 245.629 217.85H177.303V108.813Z" fill="url(#paint1_linear_23_2820)"/>
<path d="M248.919 108.371H241.72V217.195H248.919V108.371Z" fill="url(#paint2_linear_23_2820)"/>
<path d="M248.967 178.732H242.117C241.407 178.732 240.832 179.302 240.832 180.006V216.718C240.832 217.422 241.407 217.993 242.117 217.993H248.967C249.676 217.993 250.251 217.422 250.251 216.718V180.006C250.251 179.302 249.676 178.732 248.967 178.732Z" fill="url(#paint3_linear_23_2820)"/>
<path d="M251.17 206.629H240.885C240.528 206.629 240.239 206.916 240.239 207.27V218.468C240.239 218.822 240.528 219.109 240.885 219.109H251.17C251.526 219.109 251.816 218.822 251.816 218.468V207.27C251.816 206.916 251.526 206.629 251.17 206.629Z" fill="url(#paint4_linear_23_2820)"/>
<g opacity="0.89">
<path opacity="0.89" d="M200.361 140.718H209.85C209.905 140.718 209.95 140.674 209.95 140.619V123.523C209.95 123.468 209.905 123.424 209.85 123.424H200.361C200.305 123.424 200.26 123.468 200.26 123.523V140.619C200.26 140.674 200.305 140.718 200.361 140.718Z" fill="white"/>
<path opacity="0.89" d="M205.537 139.783H209.188C209.218 139.783 209.243 139.759 209.243 139.728V124.413C209.243 124.382 209.218 124.358 209.188 124.358H205.537C205.506 124.358 205.481 124.382 205.481 124.413V139.728C205.481 139.759 205.506 139.783 205.537 139.783Z" fill="url(#paint5_linear_23_2820)"/>
<path opacity="0.89" d="M201.023 139.783H204.674C204.705 139.783 204.729 139.759 204.729 139.728V124.413C204.729 124.382 204.705 124.358 204.674 124.358H201.023C200.992 124.358 200.967 124.382 200.967 124.413V139.728C200.967 139.759 200.992 139.783 201.023 139.783Z" fill="url(#paint6_linear_23_2820)"/>
<path opacity="0.89" d="M209.849 129.19H200.26V129.683H209.849V129.19Z" fill="white"/>
<path opacity="0.89" d="M209.849 134.534H200.26V135.028H209.849V134.534Z" fill="white"/>
</g>
<g opacity="0.89">
<path opacity="0.89" d="M200.441 166.794H209.93C209.985 166.794 210.03 166.75 210.03 166.695V149.599C210.03 149.544 209.985 149.499 209.93 149.499H200.441C200.385 149.499 200.34 149.544 200.34 149.599V166.695C200.34 166.75 200.385 166.794 200.441 166.794Z" fill="white"/>
<path opacity="0.89" d="M205.618 165.86H209.269C209.299 165.86 209.324 165.836 209.324 165.805V150.49C209.324 150.459 209.299 150.435 209.269 150.435H205.618C205.587 150.435 205.562 150.459 205.562 150.49V165.805C205.562 165.836 205.587 165.86 205.618 165.86Z" fill="url(#paint7_linear_23_2820)"/>
<path opacity="0.89" d="M201.103 165.86H204.754C204.785 165.86 204.81 165.836 204.81 165.805V150.49C204.81 150.459 204.785 150.435 204.754 150.435H201.103C201.072 150.435 201.048 150.459 201.048 150.49V165.805C201.048 165.836 201.072 165.86 201.103 165.86Z" fill="url(#paint8_linear_23_2820)"/>
<path opacity="0.89" d="M209.93 155.266H200.341V155.759H209.93V155.266Z" fill="white"/>
<path opacity="0.89" d="M209.93 160.609H200.341V161.103H209.93V160.609Z" fill="white"/>
</g>
<g opacity="0.89">
<path opacity="0.89" d="M200.521 194.305H210.01C210.065 194.305 210.11 194.26 210.11 194.205V177.11C210.11 177.055 210.065 177.01 210.01 177.01H200.521C200.465 177.01 200.42 177.055 200.42 177.11V194.205C200.42 194.26 200.465 194.305 200.521 194.305Z" fill="white"/>
<path opacity="0.89" d="M205.697 193.371H209.348C209.378 193.371 209.403 193.346 209.403 193.316V178C209.403 177.97 209.378 177.945 209.348 177.945H205.697C205.666 177.945 205.641 177.97 205.641 178V193.316C205.641 193.346 205.666 193.371 205.697 193.371Z" fill="url(#paint9_linear_23_2820)"/>
<path opacity="0.89" d="M201.183 193.371H204.834C204.865 193.371 204.89 193.346 204.89 193.316V178C204.89 177.97 204.865 177.945 204.834 177.945H201.183C201.152 177.945 201.128 177.97 201.128 178V193.316C201.128 193.346 201.152 193.371 201.183 193.371Z" fill="url(#paint10_linear_23_2820)"/>
<path opacity="0.89" d="M210.01 182.777H200.42V183.27H210.01V182.777Z" fill="white"/>
<path opacity="0.89" d="M210.01 188.12H200.42V188.613H210.01V188.12Z" fill="white"/>
</g>
<g opacity="0.89">
<path opacity="0.89" d="M224.075 140.442H233.565C233.62 140.442 233.665 140.397 233.665 140.342V123.247C233.665 123.192 233.62 123.147 233.565 123.147H224.075C224.02 123.147 223.975 123.192 223.975 123.247V140.342C223.975 140.397 224.02 140.442 224.075 140.442Z" fill="white"/>
<path opacity="0.89" d="M229.252 139.508H232.902C232.933 139.508 232.958 139.483 232.958 139.453V124.137C232.958 124.107 232.933 124.082 232.902 124.082H229.252C229.221 124.082 229.196 124.107 229.196 124.137V139.453C229.196 139.483 229.221 139.508 229.252 139.508Z" fill="url(#paint11_linear_23_2820)"/>
<path opacity="0.89" d="M224.738 139.508H228.389C228.419 139.508 228.444 139.483 228.444 139.453V124.137C228.444 124.107 228.419 124.082 228.389 124.082H224.738C224.707 124.082 224.682 124.107 224.682 124.137V139.453C224.682 139.483 224.707 139.508 224.738 139.508Z" fill="url(#paint12_linear_23_2820)"/>
<path opacity="0.89" d="M233.564 128.914H223.975V129.407H233.564V128.914Z" fill="white"/>
<path opacity="0.89" d="M233.564 134.257H223.975V134.75H233.564V134.257Z" fill="white"/>
</g>
<g opacity="0.89">
<path opacity="0.89" d="M224.155 166.811H233.644C233.699 166.811 233.744 166.767 233.744 166.712V149.616C233.744 149.561 233.699 149.516 233.644 149.516H224.155C224.099 149.516 224.054 149.561 224.054 149.616V166.712C224.054 166.767 224.099 166.811 224.155 166.811Z" fill="white"/>
<path opacity="0.89" d="M229.332 165.876H232.983C233.013 165.876 233.038 165.852 233.038 165.821V150.506C233.038 150.475 233.013 150.451 232.983 150.451H229.332C229.301 150.451 229.276 150.475 229.276 150.506V165.821C229.276 165.852 229.301 165.876 229.332 165.876Z" fill="url(#paint13_linear_23_2820)"/>
<path opacity="0.89" d="M224.817 165.876H228.468C228.499 165.876 228.523 165.852 228.523 165.821V150.506C228.523 150.475 228.499 150.451 228.468 150.451H224.817C224.786 150.451 224.761 150.475 224.761 150.506V165.821C224.761 165.852 224.786 165.876 224.817 165.876Z" fill="url(#paint14_linear_23_2820)"/>
<path opacity="0.89" d="M233.644 155.283H224.055V155.776H233.644V155.283Z" fill="white"/>
<path opacity="0.89" d="M233.644 160.626H224.055V161.119H233.644V160.626Z" fill="white"/>
</g>
<g opacity="0.89">
<path opacity="0.89" d="M224.236 194.322H233.725C233.78 194.322 233.825 194.277 233.825 194.222V177.126C233.825 177.072 233.78 177.027 233.725 177.027H224.236C224.18 177.027 224.135 177.072 224.135 177.126V194.222C224.135 194.277 224.18 194.322 224.236 194.322Z" fill="white"/>
<path opacity="0.89" d="M229.412 193.387H233.063C233.093 193.387 233.118 193.362 233.118 193.332V178.016C233.118 177.986 233.093 177.961 233.063 177.961H229.412C229.381 177.961 229.356 177.986 229.356 178.016V193.332C229.356 193.362 229.381 193.387 229.412 193.387Z" fill="url(#paint15_linear_23_2820)"/>
<path opacity="0.89" d="M224.898 193.387H228.549C228.58 193.387 228.604 193.362 228.604 193.332V178.016C228.604 177.986 228.58 177.961 228.549 177.961H224.898C224.867 177.961 224.842 177.986 224.842 178.016V193.332C224.842 193.362 224.867 193.387 224.898 193.387Z" fill="url(#paint16_linear_23_2820)"/>
<path opacity="0.89" d="M233.724 182.793H224.135V183.287H233.724V182.793Z" fill="white"/>
<path opacity="0.89" d="M233.724 188.137H224.135V188.63H233.724V188.137Z" fill="white"/>
</g>
<path d="M254.819 112.698H181.662L141.892 84.9971H239.155L257.697 110.374C258.678 111.461 257.14 112.698 254.819 112.698Z" fill="url(#paint17_linear_23_2820)"/>
<path d="M239.542 86.3524L144.477 87.7078L141.947 83.2736L232.879 82.4115C236.29 82.4115 239.059 83.4834 239.059 84.805L239.542 86.3524Z" fill="url(#paint18_linear_23_2820)"/>
<path d="M80.6973 218.714H12.3699C11.9007 218.714 11.4507 218.529 11.1189 218.199C10.7872 217.87 10.6008 217.424 10.6008 216.958L10.6008 109.749L80.6973 109.749L80.6973 218.714Z" fill="url(#paint19_linear_23_2820)"/>
<path d="M9.08137 218.979H16.2803L16.2803 109.307H9.08137L9.08137 218.979Z" fill="url(#paint20_linear_23_2820)"/>
<path d="M8.45976 219.784H16.4568C16.8496 219.784 17.168 219.468 17.168 219.078L17.168 180.922C17.168 180.532 16.8496 180.216 16.4568 180.216H8.45976C8.06698 180.216 7.74856 180.532 7.74856 180.922L7.74856 219.078C7.74856 219.468 8.06698 219.784 8.45976 219.784Z" fill="url(#paint21_linear_23_2820)"/>
<path d="M6.83024 220.91H17.1149C17.4716 220.91 17.7607 220.623 17.7607 220.269V208.973C17.7607 208.619 17.4716 208.332 17.1149 208.332H6.83024C6.47356 208.332 6.18442 208.619 6.18442 208.973L6.18442 220.269C6.18442 220.623 6.47356 220.91 6.83024 220.91Z" fill="url(#paint22_linear_23_2820)"/>
<g opacity="0.89">
<path opacity="0.89" d="M57.6384 124.359H48.1491C48.0937 124.359 48.0488 124.404 48.0488 124.459V141.555C48.0488 141.61 48.0937 141.654 48.1491 141.654H57.6384C57.6938 141.654 57.7387 141.61 57.7387 141.555V124.459C57.7387 124.404 57.6938 124.359 57.6384 124.359Z" fill="white"/>
<path opacity="0.89" d="M52.4624 125.295H48.8114C48.7807 125.295 48.7559 125.319 48.7559 125.35V140.665C48.7559 140.696 48.7807 140.72 48.8114 140.72H52.4624C52.493 140.72 52.5179 140.696 52.5179 140.665V125.35C52.5179 125.319 52.493 125.295 52.4624 125.295Z" fill="url(#paint23_linear_23_2820)"/>
<path opacity="0.89" d="M56.976 125.295H53.3251C53.2944 125.295 53.2695 125.319 53.2695 125.35V140.665C53.2695 140.696 53.2944 140.72 53.3251 140.72H56.976C57.0067 140.72 57.0316 140.696 57.0316 140.665V125.35C57.0316 125.319 57.0067 125.295 56.976 125.295Z" fill="url(#paint24_linear_23_2820)"/>
<path opacity="0.89" d="M48.1487 130.62H57.7383V130.127H48.1487V130.62Z" fill="white"/>
<path opacity="0.89" d="M48.1487 135.964H57.7383V135.47H48.1487V135.964Z" fill="white"/>
</g>
<g opacity="0.89">
<path opacity="0.89" d="M57.5593 150.435H48.07C48.0146 150.435 47.9697 150.48 47.9697 150.535V167.631C47.9697 167.686 48.0146 167.73 48.07 167.73H57.5593C57.6147 167.73 57.6596 167.686 57.6596 167.631V150.535C57.6596 150.48 57.6147 150.435 57.5593 150.435Z" fill="white"/>
<path opacity="0.89" d="M52.3833 151.37H48.7323C48.7016 151.37 48.6768 151.395 48.6768 151.426V166.741C48.6768 166.772 48.7016 166.796 48.7323 166.796H52.3833C52.4139 166.796 52.4388 166.772 52.4388 166.741V151.426C52.4388 151.395 52.4139 151.37 52.3833 151.37Z" fill="url(#paint25_linear_23_2820)"/>
<path opacity="0.89" d="M56.8969 151.37H53.246C53.2153 151.37 53.1904 151.395 53.1904 151.426V166.741C53.1904 166.772 53.2153 166.796 53.246 166.796H56.8969C56.9276 166.796 56.9525 166.772 56.9525 166.741V151.426C56.9525 151.395 56.9276 151.37 56.8969 151.37Z" fill="url(#paint26_linear_23_2820)"/>
<path opacity="0.89" d="M48.0696 156.695H57.6592V156.202H48.0696V156.695Z" fill="white"/>
<path opacity="0.89" d="M48.0696 162.039H57.6592V161.546H48.0696V162.039Z" fill="white"/>
</g>
<g opacity="0.89">
<path opacity="0.89" d="M57.4783 177.946H47.989C47.9336 177.946 47.8887 177.991 47.8887 178.046V195.141C47.8887 195.196 47.9336 195.241 47.989 195.241H57.4783C57.5337 195.241 57.5786 195.196 57.5786 195.141V178.046C57.5786 177.991 57.5337 177.946 57.4783 177.946Z" fill="white"/>
<path opacity="0.89" d="M52.3022 178.881H48.6512C48.6206 178.881 48.5957 178.906 48.5957 178.936V194.252C48.5957 194.282 48.6206 194.307 48.6512 194.307H52.3022C52.3329 194.307 52.3577 194.282 52.3577 194.252V178.936C52.3577 178.906 52.3329 178.881 52.3022 178.881Z" fill="url(#paint27_linear_23_2820)"/>
<path opacity="0.89" d="M56.8159 178.881H53.1649C53.1342 178.881 53.1094 178.906 53.1094 178.936V194.252C53.1094 194.282 53.1342 194.307 53.1649 194.307H56.8159C56.8465 194.307 56.8714 194.282 56.8714 194.252V178.936C56.8714 178.906 56.8465 178.881 56.8159 178.881Z" fill="url(#paint28_linear_23_2820)"/>
<path opacity="0.89" d="M47.9885 184.206H57.5781V183.713H47.9885V184.206Z" fill="white"/>
<path opacity="0.89" d="M47.9885 189.55H57.5781V189.057H47.9885V189.55Z" fill="white"/>
</g>
<g opacity="0.89">
<path opacity="0.89" d="M33.9245 124.083H24.4353C24.3799 124.083 24.335 124.128 24.335 124.183V141.278C24.335 141.333 24.3799 141.378 24.4353 141.378H33.9245C33.9799 141.378 34.0248 141.333 34.0248 141.278V124.183C34.0248 124.128 33.9799 124.083 33.9245 124.083Z" fill="white"/>
<path opacity="0.89" d="M28.7485 125.018H25.0975C25.0669 125.018 25.042 125.043 25.042 125.073V140.389C25.042 140.419 25.0669 140.444 25.0975 140.444H28.7485C28.7792 140.444 28.804 140.419 28.804 140.389V125.073C28.804 125.043 28.7792 125.018 28.7485 125.018Z" fill="url(#paint29_linear_23_2820)"/>
<path opacity="0.89" d="M33.2631 125.018H29.6122C29.5815 125.018 29.5566 125.043 29.5566 125.073V140.389C29.5566 140.419 29.5815 140.444 29.6122 140.444H33.2631C33.2938 140.444 33.3187 140.419 33.3187 140.389V125.073C33.3187 125.043 33.2938 125.018 33.2631 125.018Z" fill="url(#paint30_linear_23_2820)"/>
<path opacity="0.89" d="M24.4358 130.343H34.0254V129.849H24.4358V130.343Z" fill="white"/>
<path opacity="0.89" d="M24.4358 135.687H34.0254V135.194H24.4358V135.687Z" fill="white"/>
</g>
<g opacity="0.89">
<path opacity="0.89" d="M33.8445 150.453H24.3552C24.2998 150.453 24.2549 150.497 24.2549 150.552V167.648C24.2549 167.703 24.2998 167.747 24.3552 167.747H33.8445C33.8999 167.747 33.9448 167.703 33.9448 167.648V150.552C33.9448 150.497 33.8999 150.453 33.8445 150.453Z" fill="white"/>
<path opacity="0.89" d="M28.6684 151.387H25.0174C24.9868 151.387 24.9619 151.412 24.9619 151.443V166.758C24.9619 166.788 24.9868 166.813 25.0174 166.813H28.6684C28.6991 166.813 28.7239 166.788 28.7239 166.758V151.443C28.7239 151.412 28.6991 151.387 28.6684 151.387Z" fill="url(#paint31_linear_23_2820)"/>
<path opacity="0.89" d="M33.1821 151.387H29.5311C29.5005 151.387 29.4756 151.412 29.4756 151.443V166.758C29.4756 166.788 29.5005 166.813 29.5311 166.813H33.1821C33.2128 166.813 33.2376 166.788 33.2376 166.758V151.443C33.2376 151.412 33.2128 151.387 33.1821 151.387Z" fill="url(#paint32_linear_23_2820)"/>
<path opacity="0.89" d="M24.3557 156.712H33.9453V156.219H24.3557V156.712Z" fill="white"/>
<path opacity="0.89" d="M24.3557 162.055H33.9453V161.562H24.3557V162.055Z" fill="white"/>
</g>
<g opacity="0.89">
<path opacity="0.89" d="M33.7644 177.963H24.2751C24.2197 177.963 24.1748 178.007 24.1748 178.062V195.158C24.1748 195.213 24.2197 195.258 24.2751 195.258H33.7644C33.8198 195.258 33.8647 195.213 33.8647 195.158V178.062C33.8647 178.007 33.8198 177.963 33.7644 177.963Z" fill="white"/>
<path opacity="0.89" d="M28.5883 178.898H24.9374C24.9067 178.898 24.8818 178.923 24.8818 178.953V194.269C24.8818 194.299 24.9067 194.324 24.9374 194.324H28.5883C28.619 194.324 28.6439 194.299 28.6439 194.269V178.953C28.6439 178.923 28.619 178.898 28.5883 178.898Z" fill="url(#paint33_linear_23_2820)"/>
<path opacity="0.89" d="M33.103 178.898H29.452C29.4213 178.898 29.3965 178.923 29.3965 178.953V194.269C29.3965 194.299 29.4213 194.324 29.452 194.324H33.103C33.1337 194.324 33.1585 194.299 33.1585 194.269V178.953C33.1585 178.923 33.1337 178.898 33.103 178.898Z" fill="url(#paint34_linear_23_2820)"/>
<path opacity="0.89" d="M24.2756 184.223H33.8652V183.729H24.2756V184.223Z" fill="white"/>
<path opacity="0.89" d="M24.2756 189.566H33.8652V189.073H24.2756V189.566Z" fill="white"/>
</g>
<path d="M3.18092 113.637H76.3381L116.108 88.1362H18.8444L0.29849 111.498C-0.677846 112.496 0.860107 113.637 3.18092 113.637Z" fill="url(#paint35_linear_23_2820)"/>
<path d="M17.7988 88.0881L112.864 89.4435L115.394 85.0093L24.4621 84.1472C21.0512 84.1472 18.2861 85.2191 18.2861 86.5407L17.7988 88.0881Z" fill="url(#paint36_linear_23_2820)"/>
<path d="M186.94 110.576H68.0762V218.714H186.94V110.576Z" fill="url(#paint37_linear_23_2820)"/>
<path d="M190.937 109.334H183.738V218.249H190.937V109.334Z" fill="url(#paint38_linear_23_2820)"/>
<path d="M190.986 179.753H184.135C183.426 179.753 182.851 180.324 182.851 181.027V217.772C182.851 218.476 183.426 219.047 184.135 219.047H190.986C191.695 219.047 192.27 218.476 192.27 217.772V181.027C192.27 180.324 191.695 179.753 190.986 179.753Z" fill="url(#paint39_linear_23_2820)"/>
<path d="M193.189 207.674H182.905C182.548 207.674 182.259 207.961 182.259 208.315V219.524C182.259 219.878 182.548 220.165 182.905 220.165H193.189C193.546 220.165 193.835 219.878 193.835 219.524V208.315C193.835 207.961 193.546 207.674 193.189 207.674Z" fill="url(#paint40_linear_23_2820)"/>
<path d="M63.246 110.175L193.185 110.62C194.11 110.62 194.467 109.425 193.687 108.931L130.609 68.847L62.8492 108.735C62.1666 109.133 62.4479 110.173 63.246 110.175Z" fill="url(#paint41_linear_23_2820)"/>
<path d="M68.0762 110.855L186.941 110.576L130.608 74.0623L68.0762 110.855Z" fill="url(#paint42_linear_23_2820)"/>
<path d="M75.2751 109.334H68.0762V217.851H75.2751V109.334Z" fill="url(#paint43_linear_23_2820)"/>
<path d="M75.6477 179.355H68.1487C67.6184 179.355 67.1885 179.781 67.1885 180.308V217.696C67.1885 218.222 67.6184 218.649 68.1487 218.649H75.6477C76.178 218.649 76.6079 218.222 76.6079 217.696V180.308C76.6079 179.781 76.178 179.355 75.6477 179.355Z" fill="url(#paint44_linear_23_2820)"/>
<path d="M77.5271 207.276H67.2425C66.8858 207.276 66.5967 207.563 66.5967 207.917V219.126C66.5967 219.48 66.8858 219.767 67.2425 219.767H77.5271C77.8838 219.767 78.1729 219.48 78.1729 219.126V207.917C78.1729 207.563 77.8838 207.276 77.5271 207.276Z" fill="url(#paint45_linear_23_2820)"/>
<path d="M112.778 112.511H105.579V221.426H112.778V112.511Z" fill="url(#paint46_linear_23_2820)"/>
<path d="M113.428 182.93H105.374C104.997 182.93 104.691 183.234 104.691 183.608V221.547C104.691 221.921 104.997 222.224 105.374 222.224H113.428C113.805 222.224 114.111 221.921 114.111 221.547V183.608C114.111 183.234 113.805 182.93 113.428 182.93Z" fill="url(#paint47_linear_23_2820)"/>
<path d="M115.029 210.851H104.744C104.388 210.851 104.099 211.138 104.099 211.492V222.702C104.099 223.055 104.388 223.342 104.744 223.342H115.029C115.386 223.342 115.675 223.055 115.675 222.702V211.492C115.675 211.138 115.386 210.851 115.029 210.851Z" fill="url(#paint48_linear_23_2820)"/>
<path d="M157.336 111.997H150.137V220.912H157.336V111.997Z" fill="url(#paint49_linear_23_2820)"/>
<path d="M158.046 182.417H149.87C149.526 182.417 149.248 182.694 149.248 183.034V221.095C149.248 221.435 149.526 221.711 149.87 221.711H158.046C158.389 221.711 158.668 221.435 158.668 221.095V183.034C158.668 182.694 158.389 182.417 158.046 182.417Z" fill="url(#paint50_linear_23_2820)"/>
<path d="M159.587 210.339H149.302C148.945 210.339 148.656 210.626 148.656 210.979V222.189C148.656 222.543 148.945 222.83 149.302 222.83H159.587C159.943 222.83 160.232 222.543 160.232 222.189V210.979C160.232 210.626 159.943 210.339 159.587 210.339Z" fill="url(#paint51_linear_23_2820)"/>
<g opacity="0.89">
<path opacity="0.89" d="M86.2434 194.596H95.7327C95.7881 194.596 95.833 194.552 95.833 194.497V175.638C95.833 175.583 95.7881 175.538 95.7327 175.538H86.2434C86.188 175.538 86.1431 175.583 86.1431 175.638V194.497C86.1431 194.552 86.188 194.596 86.2434 194.596Z" fill="white"/>
<path opacity="0.89" d="M91.4205 193.566H95.0714C95.1021 193.566 95.127 193.542 95.127 193.511V176.624C95.127 176.594 95.1021 176.569 95.0714 176.569H91.4205C91.3898 176.569 91.3649 176.594 91.3649 176.624V193.511C91.3649 193.542 91.3898 193.566 91.4205 193.566Z" fill="url(#paint52_linear_23_2820)"/>
<path opacity="0.89" d="M86.9058 193.566H90.5568C90.5874 193.566 90.6123 193.542 90.6123 193.511V176.624C90.6123 176.594 90.5874 176.569 90.5568 176.569H86.9058C86.8751 176.569 86.8503 176.594 86.8503 176.624V193.511C86.8503 193.542 86.8751 193.566 86.9058 193.566Z" fill="url(#paint53_linear_23_2820)"/>
<path opacity="0.89" d="M95.7322 181.892H86.1426V182.436H95.7322V181.892Z" fill="white"/>
<path opacity="0.89" d="M95.7322 187.781H86.1426V188.325H95.7322V187.781Z" fill="white"/>
</g>
<g opacity="0.89">
<path opacity="0.89" d="M86.0139 168.755H95.5032C95.5586 168.755 95.6035 168.711 95.6035 168.656V149.796C95.6035 149.742 95.5586 149.697 95.5032 149.697H86.0139C85.9585 149.697 85.9136 149.742 85.9136 149.796V168.656C85.9136 168.711 85.9585 168.755 86.0139 168.755Z" fill="white"/>
<path opacity="0.89" d="M91.1919 167.725H94.8429C94.8736 167.725 94.8984 167.7 94.8984 167.67V150.783C94.8984 150.752 94.8736 150.728 94.8429 150.728H91.1919C91.1613 150.728 91.1364 150.752 91.1364 150.783V167.67C91.1364 167.7 91.1613 167.725 91.1919 167.725Z" fill="url(#paint54_linear_23_2820)"/>
<path opacity="0.89" d="M86.6773 167.725H90.3283C90.3589 167.725 90.3838 167.7 90.3838 167.67V150.783C90.3838 150.752 90.3589 150.728 90.3283 150.728H86.6773C86.6466 150.728 86.6218 150.752 86.6218 150.783V167.67C86.6218 167.7 86.6466 167.725 86.6773 167.725Z" fill="url(#paint55_linear_23_2820)"/>
<path opacity="0.89" d="M95.5046 156.052H85.915V156.596H95.5046V156.052Z" fill="white"/>
<path opacity="0.89" d="M95.5046 161.941H85.915V162.485H95.5046V161.941Z" fill="white"/>
</g>
<g opacity="0.89">
<path opacity="0.89" d="M166.333 194.192H175.823C175.878 194.192 175.923 194.148 175.923 194.093V175.234C175.923 175.179 175.878 175.134 175.823 175.134H166.333C166.278 175.134 166.233 175.179 166.233 175.234V194.093C166.233 194.148 166.278 194.192 166.333 194.192Z" fill="white"/>
<path opacity="0.89" d="M171.51 193.162H175.161C175.192 193.162 175.217 193.137 175.217 193.107V176.22C175.217 176.19 175.192 176.165 175.161 176.165H171.51C171.48 176.165 171.455 176.19 171.455 176.22V193.107C171.455 193.137 171.48 193.162 171.51 193.162Z" fill="url(#paint56_linear_23_2820)"/>
<path opacity="0.89" d="M166.996 193.162H170.647C170.677 193.162 170.702 193.137 170.702 193.107V176.22C170.702 176.19 170.677 176.165 170.647 176.165H166.996C166.965 176.165 166.94 176.19 166.94 176.22V193.107C166.94 193.137 166.965 193.162 166.996 193.162Z" fill="url(#paint57_linear_23_2820)"/>
<path opacity="0.89" d="M175.823 181.489H166.233V182.033H175.823V181.489Z" fill="white"/>
<path opacity="0.89" d="M175.823 187.377H166.233V187.921H175.823V187.377Z" fill="white"/>
</g>
<g opacity="0.89">
<path opacity="0.89" d="M166.105 168.352H175.594C175.649 168.352 175.694 168.307 175.694 168.252V149.393C175.694 149.338 175.649 149.293 175.594 149.293H166.105C166.049 149.293 166.005 149.338 166.005 149.393V168.252C166.005 168.307 166.049 168.352 166.105 168.352Z" fill="white"/>
<path opacity="0.89" d="M171.282 167.322H174.933C174.963 167.322 174.988 167.297 174.988 167.266V150.38C174.988 150.349 174.963 150.324 174.933 150.324H171.282C171.251 150.324 171.227 150.349 171.227 150.38V167.266C171.227 167.297 171.251 167.322 171.282 167.322Z" fill="url(#paint58_linear_23_2820)"/>
<path opacity="0.89" d="M166.767 167.322H170.418C170.449 167.322 170.474 167.297 170.474 167.266V150.38C170.474 150.349 170.449 150.324 170.418 150.324H166.767C166.736 150.324 166.712 150.349 166.712 150.38V167.266C166.712 167.297 166.736 167.322 166.767 167.322Z" fill="url(#paint59_linear_23_2820)"/>
<path opacity="0.89" d="M175.594 155.648H166.005V156.192H175.594V155.648Z" fill="white"/>
<path opacity="0.89" d="M175.594 161.536H166.005V162.08H175.594V161.536Z" fill="white"/>
</g>
<path d="M130.636 100.608C134.153 100.608 137.005 97.7792 137.005 94.2892C137.005 90.7992 134.153 87.97 130.636 87.97C127.119 87.97 124.268 90.7992 124.268 94.2892C124.268 97.7792 127.119 100.608 130.636 100.608Z" fill="url(#paint60_linear_23_2820)"/>
<path d="M130.636 99.6824C133.638 99.6824 136.072 97.2678 136.072 94.2893C136.072 91.3107 133.638 88.8961 130.636 88.8961C127.635 88.8961 125.201 91.3107 125.201 94.2893C125.201 97.2678 127.635 99.6824 130.636 99.6824Z" fill="url(#paint61_linear_23_2820)"/>
<path d="M143.063 217.533H120.562V186.116C122.59 173.792 142.347 174.223 143.063 186.116V217.533Z" fill="url(#paint62_linear_23_2820)"/>
<path d="M141.584 217.533H122.032V187.744C123.795 176.059 140.962 176.468 141.584 187.744V217.533Z" fill="url(#paint63_linear_23_2820)"/>
<path d="M119.918 213.856H143.804C143.841 213.856 143.878 213.864 143.913 213.878C143.947 213.892 143.978 213.913 144.005 213.939C144.031 213.965 144.052 213.996 144.066 214.03C144.081 214.064 144.088 214.101 144.088 214.138V216.815H119.635V214.138C119.635 214.064 119.665 213.992 119.718 213.939C119.771 213.886 119.843 213.857 119.918 213.856Z" fill="url(#paint64_linear_23_2820)"/>
<path d="M119.918 215.739H143.804C143.841 215.739 143.878 215.746 143.913 215.76C143.947 215.774 143.978 215.795 144.005 215.821C144.031 215.847 144.052 215.879 144.066 215.913C144.081 215.947 144.088 215.984 144.088 216.021V218.698H119.635V216.021C119.635 215.946 119.665 215.874 119.718 215.822C119.771 215.769 119.843 215.739 119.918 215.739Z" fill="url(#paint65_linear_23_2820)"/>
<path d="M166.023 142.892H175.381C175.403 142.892 175.424 142.887 175.444 142.879C175.465 142.871 175.483 142.859 175.498 142.844C175.514 142.828 175.526 142.81 175.535 142.79C175.543 142.77 175.547 142.749 175.547 142.727V123.834C175.446 117.857 166.265 117.71 165.857 123.834V142.727C165.857 142.771 165.875 142.813 165.906 142.843C165.937 142.874 165.979 142.892 166.023 142.892Z" fill="white"/>
<path d="M171.133 141.861H174.784C174.815 141.861 174.84 141.837 174.84 141.806V124.919C174.84 124.889 174.815 124.864 174.784 124.864H171.133C171.103 124.864 171.078 124.889 171.078 124.919V141.806C171.078 141.837 171.103 141.861 171.133 141.861Z" fill="url(#paint66_linear_23_2820)"/>
<path d="M166.62 141.861H170.271C170.301 141.861 170.326 141.837 170.326 141.806V124.919C170.326 124.889 170.301 124.864 170.271 124.864H166.62C166.589 124.864 166.564 124.889 166.564 124.919V141.806C166.564 141.837 166.589 141.861 166.62 141.861Z" fill="url(#paint67_linear_23_2820)"/>
<path d="M175.447 130.188H165.857V130.732H175.447V130.188Z" fill="white"/>
<path d="M175.447 136.076H165.857V136.62H175.447V136.076Z" fill="white"/>
<path d="M166.61 124.331C166.832 118.77 174.678 118.465 174.9 124.331H166.61Z" fill="url(#paint68_linear_23_2820)"/>
<path d="M117.025 142.892H126.383C126.405 142.892 126.426 142.887 126.446 142.879C126.467 142.871 126.485 142.859 126.5 142.844C126.516 142.828 126.528 142.81 126.537 142.79C126.545 142.77 126.549 142.749 126.549 142.727V123.834C126.448 117.857 117.267 117.71 116.859 123.834V142.727C116.859 142.749 116.864 142.77 116.872 142.79C116.88 142.81 116.893 142.828 116.908 142.843C116.923 142.859 116.942 142.871 116.962 142.879C116.982 142.887 117.003 142.892 117.025 142.892Z" fill="white"/>
<path d="M122.136 141.861H125.787C125.818 141.861 125.843 141.837 125.843 141.806V124.919C125.843 124.889 125.818 124.864 125.787 124.864H122.136C122.106 124.864 122.081 124.889 122.081 124.919V141.806C122.081 141.837 122.106 141.861 122.136 141.861Z" fill="url(#paint69_linear_23_2820)"/>
<path d="M117.622 141.861H121.273C121.303 141.861 121.328 141.837 121.328 141.806V124.919C121.328 124.889 121.303 124.864 121.273 124.864H117.622C117.591 124.864 117.566 124.889 117.566 124.919V141.806C117.566 141.837 117.591 141.861 117.622 141.861Z" fill="url(#paint70_linear_23_2820)"/>
<path d="M126.449 130.188H116.859V130.732H126.449V130.188Z" fill="white"/>
<path d="M126.449 136.076H116.859V136.62H126.449V136.076Z" fill="white"/>
<path d="M117.612 124.331C117.834 118.77 125.68 118.465 125.902 124.331H117.612Z" fill="url(#paint71_linear_23_2820)"/>
<path d="M135.085 142.892H144.442C144.464 142.892 144.486 142.887 144.506 142.879C144.526 142.871 144.545 142.859 144.56 142.844C144.576 142.828 144.588 142.81 144.596 142.79C144.605 142.77 144.609 142.749 144.609 142.727V123.834C144.508 117.857 135.327 117.71 134.919 123.834V142.727C134.919 142.771 134.936 142.813 134.967 142.843C134.999 142.874 135.041 142.892 135.085 142.892Z" fill="white"/>
<path d="M140.196 141.861H143.847C143.877 141.861 143.902 141.837 143.902 141.806V124.919C143.902 124.889 143.877 124.864 143.847 124.864H140.196C140.165 124.864 140.14 124.889 140.14 124.919V141.806C140.14 141.837 140.165 141.861 140.196 141.861Z" fill="url(#paint72_linear_23_2820)"/>
<path d="M135.68 141.861H139.331C139.362 141.861 139.387 141.837 139.387 141.806V124.919C139.387 124.889 139.362 124.864 139.331 124.864H135.68C135.65 124.864 135.625 124.889 135.625 124.919V141.806C135.625 141.837 135.65 141.861 135.68 141.861Z" fill="url(#paint73_linear_23_2820)"/>
<path d="M144.509 130.188H134.919V130.732H144.509V130.188Z" fill="white"/>
<path d="M144.509 136.076H134.919V136.62H144.509V136.076Z" fill="white"/>
<path d="M135.672 124.331C135.894 118.77 143.74 118.465 143.962 124.331H135.672Z" fill="url(#paint74_linear_23_2820)"/>
<path d="M86.3834 142.892H95.741C95.785 142.892 95.8273 142.874 95.8585 142.843C95.8897 142.813 95.9074 142.771 95.9076 142.727V123.834C95.8064 117.857 86.6252 117.71 86.2168 123.834V142.727C86.2168 142.749 86.2211 142.77 86.2295 142.79C86.2379 142.81 86.2502 142.828 86.2657 142.844C86.2811 142.859 86.2995 142.871 86.3197 142.879C86.3399 142.887 86.3616 142.892 86.3834 142.892Z" fill="white"/>
<path d="M91.4947 141.861H95.1456C95.1763 141.861 95.2012 141.837 95.2012 141.806V124.919C95.2012 124.889 95.1763 124.864 95.1456 124.864H91.4947C91.464 124.864 91.4392 124.889 91.4392 124.919V141.806C91.4392 141.837 91.464 141.861 91.4947 141.861Z" fill="url(#paint75_linear_23_2820)"/>
<path d="M86.98 141.861H90.631C90.6617 141.861 90.6865 141.837 90.6865 141.806V124.919C90.6865 124.889 90.6617 124.864 90.631 124.864H86.98C86.9494 124.864 86.9245 124.889 86.9245 124.919V141.806C86.9245 141.837 86.9494 141.861 86.98 141.861Z" fill="url(#paint76_linear_23_2820)"/>
<path d="M95.8064 130.188H86.2168V130.732H95.8064V130.188Z" fill="white"/>
<path d="M95.8064 136.076H86.2168V136.62H95.8064V136.076Z" fill="white"/>
<path d="M86.9707 124.331C87.1928 118.77 95.0376 118.465 95.2598 124.331H86.9707Z" fill="url(#paint77_linear_23_2820)"/>
<path d="M62.2382 112.253H194.114V116.12C194.114 116.505 193.96 116.874 193.686 117.145C193.412 117.417 193.041 117.57 192.653 117.57H63.6982C63.3108 117.57 62.9392 117.417 62.6652 117.145C62.3912 116.874 62.2373 116.505 62.2373 116.12V112.253H62.2382Z" fill="url(#paint78_linear_23_2820)"/>
<path d="M194.7 109.334H62.2681C62.0025 109.334 61.7871 109.547 61.7871 109.811V112.36C61.7871 112.624 62.0025 112.837 62.2681 112.837H194.7C194.965 112.837 195.181 112.624 195.181 112.36V109.811C195.181 109.547 194.965 109.334 194.7 109.334Z" fill="url(#paint79_linear_23_2820)"/>
<path d="M32.2491 81.0036L9.04004 77.9187L15.989 92.3943C16.7208 93.8892 18.1388 94.842 19.597 94.818C32.9576 94.602 44.5079 91.6335 52.6787 83.5456C53.423 82.8079 53.8153 81.7138 53.7679 80.5459L53.0244 64.1212C53.0244 64.1212 32.5581 81.0339 32.2491 81.0036Z" fill="url(#paint80_linear_23_2820)"/>
<path d="M0.478835 75.1163L28.2462 56.5168C28.4737 56.3177 61.5751 53.9838 61.5751 53.9838C62.8479 54.0549 63.4651 55.8929 62.4869 56.6999L35.6081 79.4118C34.7774 80.1138 33.8088 80.637 32.7638 80.9485C31.7188 81.26 30.62 81.3529 29.5369 81.2214L1.3656 77.8067C0.133086 77.6858 -0.446445 75.9251 0.478835 75.1163Z" fill="url(#paint81_linear_23_2820)"/>
<path d="M60.0557 64.3203C60.0557 64.3203 56.608 75.6425 64.7734 79.3407C65.0672 79.4731 65.3735 79.2954 65.4165 78.9603L66.1233 73.4499C66.6482 69.3597 60.0557 64.3203 60.0557 64.3203Z" fill="url(#paint82_linear_23_2820)"/>
<path d="M60.5355 65.7886L59.8718 66.0143L57.7588 59.912L58.8668 59.0614L60.5355 65.7886Z" fill="url(#paint83_linear_23_2820)"/>
<path d="M30.7171 79.3355C30.5223 79.3356 30.3277 79.3256 30.134 79.3053L0.651313 76.239C0.56971 76.2305 0.494816 76.1903 0.442966 76.1272C0.391116 76.0641 0.366517 75.9832 0.374535 75.9021C0.377952 75.8615 0.389634 75.8219 0.408877 75.7859C0.428119 75.7498 0.454524 75.718 0.486498 75.6923C0.518472 75.6666 0.555353 75.6477 0.594917 75.6365C0.634482 75.6254 0.675909 75.6223 0.716701 75.6275L30.202 78.6911C30.8739 78.758 31.5525 78.6917 32.1983 78.4961C32.8442 78.3005 33.4444 77.9795 33.9641 77.5517L61.1546 55.0157C61.2185 54.9681 61.2984 54.9466 61.3778 54.9558C61.4572 54.965 61.5301 55.0041 61.5812 55.065C61.6324 55.126 61.6581 55.2041 61.6528 55.2832C61.6476 55.3624 61.6119 55.4365 61.5532 55.4903L34.3636 78.0263C33.3392 78.8715 32.0493 79.3346 30.7171 79.3355Z" fill="#BDD0FB"/>
<path d="M57.9072 240.06C57.9072 240.06 57.5426 242.105 57.3644 244.133C57.3484 244.32 57.3708 244.509 57.4304 244.688C57.49 244.867 57.5854 245.032 57.7109 245.173C57.8365 245.314 57.9896 245.429 58.1609 245.51C58.3323 245.59 58.5184 245.636 58.708 245.644C61.4265 245.757 67.2424 245.975 69.3295 245.883C69.4023 245.879 69.4733 245.859 69.5364 245.822C69.5996 245.786 69.6531 245.736 69.6925 245.675C69.732 245.614 69.7562 245.545 69.7631 245.473C69.7701 245.4 69.7596 245.328 69.7325 245.261C69.6351 245.018 69.4476 244.822 69.2085 244.712L59.6037 240.327L57.9072 240.06Z" fill="url(#paint84_linear_23_2820)"/>
<path d="M57.6113 238.854L57.9033 241.302C57.9033 241.302 59.5864 242.08 60.7356 241.204L60.0387 238.476L57.6113 238.854Z" fill="url(#paint85_linear_23_2820)"/>
<path d="M57.8283 192.831C57.702 193.47 57.1502 224.732 60.5154 238.742C60.5431 238.853 60.53 238.969 60.4785 239.07C60.4271 239.172 60.3407 239.252 60.2351 239.295C59.3585 239.632 58.4309 239.819 57.4915 239.849C57.3087 239.854 57.1291 239.8 56.981 239.693C56.8328 239.587 56.7244 239.435 56.6728 239.26C55.7108 236.01 51.0978 219.725 50.4923 204.168C49.8196 186.784 50.4923 203.576 50.4923 203.576L50.8864 192.83L57.8283 192.831Z" fill="url(#paint86_linear_23_2820)"/>
<path d="M46.8561 241.127C46.8561 241.127 46.2766 242.161 45.715 244.906C45.6907 245.023 45.6914 245.143 45.717 245.26C45.7427 245.376 45.7927 245.486 45.8639 245.582C45.9351 245.679 46.0259 245.759 46.1303 245.818C46.2347 245.877 46.3505 245.914 46.4701 245.925C47.3658 246.014 48.7497 246.125 49.8568 246.118C49.9773 246.118 50.0965 246.092 50.2063 246.043C50.3162 245.994 50.4144 245.922 50.4944 245.833C50.5744 245.743 50.6344 245.638 50.6706 245.524C50.7067 245.41 50.7182 245.29 50.7042 245.171C50.5815 244.169 50.1999 242.525 49.0193 241.243L46.8561 241.127Z" fill="url(#paint87_linear_23_2820)"/>
<path d="M46.3477 237.975L47.0311 241.678C47.0311 241.678 47.7074 242.176 49.0456 241.815L48.7186 237.832L46.3477 237.975Z" fill="url(#paint88_linear_23_2820)"/>
<path d="M44.4998 193.791C41.7454 210.285 45.0972 234.557 46.2276 239.308C46.2608 239.45 46.3358 239.579 46.4431 239.68C46.5504 239.78 46.6852 239.846 46.8304 239.87C47.3347 239.954 48.166 240.021 48.9846 239.781C49.1219 239.742 49.2431 239.66 49.3314 239.549C49.4196 239.437 49.4703 239.301 49.4764 239.159C49.6287 235.319 49.3555 211.739 51.9217 202.421C52.0516 201.949 52.3426 201.536 52.7449 201.253L57.726 197.739L58.1076 192.06L44.4998 193.791Z" fill="url(#paint89_linear_23_2820)"/>
<path d="M62.0501 162.538C53.796 162.402 44.6884 164.688 44.6884 164.688C42.2278 178.933 44.2575 195.364 44.2575 195.364C50.6485 197.027 57.8563 194.348 57.8563 194.348C58.9187 188.394 63.8747 171.636 63.8747 171.636C67.9054 171.14 71.2294 169.985 73.9659 168.459C71.8788 166.059 70.8944 163.004 70.4672 161.198C67.5534 162.099 64.5975 162.58 62.0501 162.538Z" fill="url(#paint90_linear_23_2820)"/>
<path d="M86.4322 150.471C85.6261 149.5 84.5951 149.959 84.5951 149.959C83.3805 155.05 77.0119 159.178 70.4678 161.196C70.895 163.002 71.8794 166.056 73.9665 168.456C84.8253 162.4 86.4322 150.471 86.4322 150.471Z" fill="url(#paint91_linear_23_2820)"/>
<path d="M86.2353 150.721C86.3195 150.987 85.3395 151.396 84.7591 150.301C84.7385 149.777 84.417 147.529 84.7332 147.102C86.4153 144.825 89.6775 141.973 89.6775 141.973C90.2293 142.512 89.7752 143.039 89.7752 143.039L88.1924 144.674C88.523 145.268 88.9269 145.769 89.1159 146.487C89.2546 147.035 89.1758 147.615 88.8956 148.107C88.617 148.603 88.2381 149.249 87.8798 149.754C87.2018 150.714 86.2353 150.721 86.2353 150.721Z" fill="url(#paint92_linear_23_2820)"/>
<path d="M87.5004 145.74L86.0582 146.952L85.6104 148.16L86.8958 149.576C86.8958 149.576 87.3284 147.176 87.6491 146.661C87.9698 146.145 87.7969 145.891 87.5004 145.74Z" fill="url(#paint93_linear_23_2820)"/>
<path d="M47.8541 172.619L44.6886 164.692C44.6886 164.692 36.9783 169.89 35.71 176.48C37.1673 176.587 39.8177 176.963 42.4126 178.263C42.9832 175.147 47.8541 172.619 47.8541 172.619Z" fill="url(#paint94_linear_23_2820)"/>
<path d="M54.5913 180.082C54.5913 180.082 45.935 184.935 43.014 180.793C42.4076 179.931 42.2625 179.077 42.4121 178.261C39.8145 176.961 37.1668 176.585 35.7094 176.479C35.3278 178.465 35.5303 180.579 36.7064 182.714C41.8227 192.001 55.7369 182.201 55.7369 182.201L54.5913 180.082Z" fill="url(#paint95_linear_23_2820)"/>
<path d="M58.9045 170.682L75.3195 169.387L73.4815 167.482L58.0518 169.519L58.9045 170.682Z" fill="white"/>
<path d="M54.0664 186.857L58.7913 170.486C58.8172 170.396 58.8697 170.314 58.9421 170.253C59.0145 170.192 59.1035 170.153 59.198 170.142C60.0534 170.044 62.5336 169.766 65.3981 169.526C68.8476 169.236 72.8532 169.001 75.2511 169.2C75.3297 169.206 75.4056 169.232 75.4722 169.274C75.5388 169.316 75.594 169.373 75.633 169.441C75.6719 169.509 75.6935 169.586 75.6958 169.664C75.6981 169.742 75.681 169.82 75.6461 169.89C74.2846 172.622 68.6854 183.738 65.8827 187.38C65.837 187.439 65.778 187.487 65.7104 187.52C65.6428 187.553 65.5684 187.57 65.4931 187.57L54.5313 187.468C54.4564 187.468 54.3827 187.451 54.3157 187.418C54.2488 187.385 54.1905 187.337 54.1454 187.277C54.1003 187.218 54.0698 187.149 54.056 187.076C54.0423 187.003 54.0459 186.928 54.0664 186.857Z" fill="url(#paint96_linear_23_2820)"/>
<path d="M57.4717 169.224L73.4075 167.26C73.511 167.247 73.6161 167.262 73.712 167.303C73.808 167.343 73.8914 167.408 73.9539 167.491C73.9737 167.517 73.9862 167.548 73.9902 167.58C73.9942 167.613 73.9895 167.645 73.9765 167.675C73.9636 167.705 73.943 167.731 73.9167 167.751C73.8904 167.77 73.8593 167.783 73.8267 167.786L57.8273 169.758L57.4717 169.224Z" fill="url(#paint97_linear_23_2820)"/>
<path d="M59.1982 170.142L54.2073 187.346L52.4248 186.26C52.3314 186.204 52.2596 186.118 52.2207 186.016C52.1818 185.914 52.178 185.803 52.2098 185.699L57.2258 169.324C57.2332 169.3 57.2458 169.278 57.2627 169.259C57.2797 169.241 57.3006 169.226 57.3239 169.217C57.3472 169.207 57.3724 169.203 57.3975 169.204C57.4227 169.206 57.4473 169.212 57.4695 169.224L59.1982 170.142Z" fill="url(#paint98_linear_23_2820)"/>
<path d="M52.5645 184.08C52.2662 183.972 53.0643 180.332 53.6994 179.514C54.3067 178.73 54.6363 177.563 56.3507 177.835C58.0651 178.107 60.0868 178.824 60.0868 178.824C60.0868 178.824 59.9846 180.068 58.6823 179.664L59.4884 180.286C59.4884 180.286 59.3729 181.28 58.272 180.749L59.0235 181.572C59.0235 181.572 58.6473 182.199 57.7409 181.865C53.6779 180.361 54.8611 184.404 52.5645 184.08Z" fill="url(#paint99_linear_23_2820)"/>
<path d="M53.6891 155.893L51.0619 163.43C51.0409 163.49 51.0419 163.556 51.0648 163.616C51.0878 163.675 51.1311 163.725 51.1873 163.757C51.9039 164.149 54.4827 165.284 57.5909 163.329C57.7512 163.229 57.8874 163.096 57.9899 162.938C58.0924 162.78 58.1586 162.602 58.1838 162.415L59.0348 155.893H53.6891Z" fill="url(#paint100_linear_23_2820)"/>
<path d="M59.4022 148.909C59.4022 148.909 62.2855 154.296 61.9164 156.472C61.5474 158.648 57.9753 158.492 54.851 156.724L52.6699 150.908L59.4022 148.909Z" fill="url(#paint101_linear_23_2820)"/>
<path d="M54.9908 153.868C55.0205 153.855 55.0471 153.836 55.0685 153.812C55.09 153.787 55.1059 153.759 55.1152 153.728C55.1245 153.697 55.1269 153.665 55.1223 153.633C55.1177 153.601 55.1061 153.57 55.0885 153.543C54.8574 153.193 54.4239 152.477 54.2823 151.855C54.2823 151.855 53.7637 151.525 55.6017 151.089C57.4397 150.652 60.1815 149.974 60.7575 148.422C61.3191 146.911 59.8429 143.102 57.4881 146.135C57.4674 146.162 57.4403 146.185 57.4092 146.2C57.3781 146.216 57.3438 146.224 57.309 146.224C57.2741 146.224 57.2398 146.216 57.2087 146.2C57.1776 146.185 57.1506 146.162 57.1298 146.135C56.7438 145.636 55.7289 144.601 54.3199 145.229C53.0014 145.816 52.8528 146.775 52.8707 147.258C52.8721 147.291 52.8659 147.324 52.8526 147.355C52.8393 147.385 52.8193 147.412 52.7939 147.434C52.7686 147.456 52.7387 147.471 52.7064 147.48C52.6741 147.489 52.6402 147.49 52.6073 147.484C51.9409 147.358 50.3412 147.249 49.5941 148.877C48.9788 150.219 49.3792 150.978 49.7428 151.349C49.77 151.376 49.7895 151.41 49.7996 151.447C49.8096 151.484 49.8098 151.523 49.8001 151.56C49.7905 151.597 49.7713 151.631 49.7445 151.659C49.7176 151.686 49.684 151.706 49.647 151.717C49.209 151.849 48.6438 152.218 48.7002 153.237C48.7781 154.645 50.3653 154.521 50.8168 154.457C50.8531 154.451 50.8903 154.455 50.925 154.467C50.9597 154.479 50.9908 154.499 51.0156 154.526C51.4026 154.951 53.1474 156.757 55.0365 156.975C55.0743 156.979 55.1124 156.973 55.1473 156.959C55.1823 156.944 55.213 156.921 55.2365 156.891C55.2601 156.862 55.2758 156.827 55.2822 156.79C55.2885 156.753 55.2854 156.715 55.273 156.679L54.4561 154.322C54.4376 154.269 54.4397 154.212 54.4621 154.16C54.4845 154.109 54.5255 154.068 54.577 154.046L54.9908 153.868Z" fill="url(#paint102_linear_23_2820)"/>
<path d="M55.3199 154.204C55.3199 154.204 53.2659 152.806 53.1164 153.983C52.9668 155.159 54.9651 155.688 55.9558 155.249L55.3199 154.204Z" fill="url(#paint103_linear_23_2820)"/>
<path d="M123.757 239.069H247.71V214.45H123.757C126.41 214.453 126.41 239.069 123.757 239.069Z" fill="#91B3FA"/>
<path d="M247.71 232.909V221.644C247.71 217.673 245.26 214.453 242.238 214.453H124.28C123.139 214.453 122.046 214.003 121.239 213.203C120.433 212.403 119.98 211.318 119.98 210.187C119.98 209.842 120.118 209.512 120.363 209.269C120.608 209.026 120.941 208.889 121.288 208.889H250.205C253.161 208.889 257.855 213.502 257.855 219.192V234.923C257.855 240.288 253.298 244.637 250.51 244.637H121.962C121.436 244.637 120.931 244.429 120.559 244.06C120.186 243.691 119.977 243.19 119.977 242.667C119.977 241.713 120.358 240.799 121.038 240.124C121.718 239.45 122.639 239.07 123.601 239.07H243.026C245.611 239.069 247.71 236.311 247.71 232.909Z" fill="url(#paint104_linear_23_2820)"/>
<path d="M244.272 219.813H128.049C127.966 219.813 127.886 219.78 127.827 219.722C127.768 219.663 127.735 219.584 127.735 219.502C127.735 219.419 127.768 219.34 127.827 219.282C127.886 219.224 127.966 219.191 128.049 219.191H244.272C244.356 219.191 244.435 219.224 244.494 219.282C244.553 219.34 244.586 219.419 244.586 219.502C244.586 219.584 244.553 219.663 244.494 219.722C244.435 219.78 244.356 219.813 244.272 219.813Z" fill="url(#paint105_linear_23_2820)"/>
<path d="M244.272 223.467H128.049C127.966 223.467 127.886 223.434 127.827 223.376C127.768 223.317 127.735 223.238 127.735 223.156C127.735 223.073 127.768 222.994 127.827 222.936C127.886 222.877 127.966 222.845 128.049 222.845H244.272C244.356 222.845 244.435 222.877 244.494 222.936C244.553 222.994 244.586 223.073 244.586 223.156C244.586 223.238 244.553 223.317 244.494 223.376C244.435 223.434 244.356 223.467 244.272 223.467Z" fill="url(#paint106_linear_23_2820)"/>
<path d="M244.272 227.121H128.049C127.969 227.116 127.894 227.082 127.839 227.025C127.784 226.967 127.754 226.891 127.754 226.812C127.754 226.733 127.784 226.656 127.839 226.599C127.894 226.542 127.969 226.507 128.049 226.503H244.272C244.352 226.507 244.427 226.542 244.482 226.599C244.537 226.656 244.567 226.733 244.567 226.812C244.567 226.891 244.537 226.967 244.482 227.025C244.427 227.082 244.352 227.116 244.272 227.121Z" fill="url(#paint107_linear_23_2820)"/>
<path d="M244.272 230.774H128.049C127.969 230.77 127.894 230.736 127.839 230.678C127.784 230.621 127.754 230.545 127.754 230.465C127.754 230.386 127.784 230.31 127.839 230.253C127.894 230.195 127.969 230.161 128.049 230.157H244.272C244.352 230.161 244.427 230.195 244.482 230.253C244.537 230.31 244.567 230.386 244.567 230.465C244.567 230.545 244.537 230.621 244.482 230.678C244.427 230.736 244.352 230.77 244.272 230.774Z" fill="url(#paint108_linear_23_2820)"/>
<path d="M244.272 234.428H128.049C127.966 234.428 127.886 234.395 127.827 234.337C127.768 234.279 127.735 234.2 127.735 234.117C127.735 234.035 127.768 233.955 127.827 233.897C127.886 233.839 127.966 233.806 128.049 233.806H244.272C244.356 233.806 244.435 233.839 244.494 233.897C244.553 233.955 244.586 234.035 244.586 234.117C244.586 234.2 244.553 234.279 244.494 234.337C244.435 234.395 244.356 234.428 244.272 234.428Z" fill="url(#paint109_linear_23_2820)"/>
<path d="M148.588 210.979H246.914C247.617 210.979 248.187 210.413 248.187 209.716V188.082C248.187 187.384 247.617 186.819 246.914 186.819H148.588C147.885 186.819 147.315 187.384 147.315 188.082V209.716C147.315 210.413 147.885 210.979 148.588 210.979Z" fill="url(#paint110_linear_23_2820)"/>
<path d="M234.533 189.595H227.192C225.947 189.595 224.938 190.597 224.938 191.832V205.965C224.938 207.2 225.947 208.202 227.192 208.202H234.533C235.779 208.202 236.788 207.2 236.788 205.965V191.832C236.788 190.597 235.779 189.595 234.533 189.595Z" fill="#7D97F4"/>
<path d="M222.051 189.595H219.891C219.26 189.595 218.748 190.103 218.748 190.729V207.068C218.748 207.694 219.26 208.202 219.891 208.202H222.051C222.683 208.202 223.194 207.694 223.194 207.068V190.729C223.194 190.103 222.683 189.595 222.051 189.595Z" fill="#7D97F4"/>
<path d="M180.911 138.364C180.911 138.364 180.911 139.342 184.112 139.285C185.895 139.251 189.201 138.865 191.07 141.632C192.033 143.061 193.79 143.714 195.438 143.181C199.543 141.855 206.413 140.881 210.687 146.976C213.949 151.627 212.34 154.815 209.97 156.824C208.232 158.299 207.885 160.873 209.297 162.661C210.65 164.374 211.196 166.866 208.752 170.273C203.277 177.91 189.143 168.477 189.143 168.477L175.946 146.265L180.911 138.364Z" fill="url(#paint111_linear_23_2820)"/>
<path d="M207.409 154.386C207.367 154.386 207.325 154.376 207.288 154.356C207.279 154.351 207.272 154.343 207.269 154.333C207.266 154.323 207.267 154.313 207.272 154.303C207.277 154.295 207.285 154.288 207.294 154.285C207.304 154.282 207.315 154.283 207.324 154.287C207.503 154.376 207.693 154.157 207.778 154.012C208.934 152.038 208.684 149.281 207.171 147.308C206.265 146.126 205.043 145.328 203.73 145.059C202.798 144.868 201.839 144.945 200.936 145.04C199.409 145.201 197.871 145.437 196.368 145.745L196.002 145.821C195.117 146.005 194.201 146.195 193.283 146.198H193.267C192.091 146.198 191.06 145.859 190.363 145.242C189.93 144.858 189.608 144.354 189.296 143.875C188.922 143.294 188.535 142.693 187.953 142.31C187.949 142.308 187.945 142.304 187.942 142.3C187.939 142.296 187.937 142.291 187.936 142.286C187.935 142.281 187.935 142.276 187.936 142.271C187.937 142.266 187.939 142.261 187.942 142.257C187.945 142.253 187.948 142.249 187.953 142.246C187.957 142.244 187.962 142.242 187.967 142.241C187.972 142.24 187.977 142.24 187.982 142.241C187.987 142.242 187.992 142.244 187.996 142.246C188.587 142.638 188.981 143.246 189.357 143.834C189.666 144.312 189.984 144.807 190.411 145.185C191.093 145.789 192.105 146.121 193.263 146.121H193.279C194.189 146.121 195.1 145.929 195.981 145.745L196.348 145.669C197.856 145.361 199.393 145.123 200.927 144.963C201.835 144.867 202.799 144.791 203.744 144.984C205.075 145.256 206.313 146.064 207.231 147.261C208.763 149.258 209.015 152.05 207.843 154.05C207.738 154.232 207.574 154.386 207.409 154.386Z" fill="#BDD0FB"/>
<path d="M207.429 153.435H207.423C207.418 153.434 207.413 153.433 207.408 153.43C207.404 153.427 207.4 153.424 207.397 153.42C207.394 153.415 207.392 153.41 207.39 153.405C207.389 153.4 207.389 153.395 207.39 153.39C207.638 152.084 207.537 150.868 207.097 149.874C206.585 148.714 205.575 147.862 204.466 147.652C204.461 147.651 204.456 147.649 204.451 147.646C204.447 147.644 204.443 147.64 204.44 147.636C204.437 147.631 204.435 147.627 204.434 147.622C204.433 147.617 204.433 147.611 204.434 147.606C204.437 147.596 204.443 147.588 204.451 147.582C204.46 147.576 204.47 147.574 204.48 147.576C205.616 147.792 206.646 148.661 207.167 149.844C207.615 150.853 207.716 152.085 207.465 153.407C207.462 153.414 207.458 153.421 207.451 153.427C207.445 153.432 207.437 153.435 207.429 153.435Z" fill="#BDD0FB"/>
<path d="M144.722 208.148C144.754 208.135 162.285 177.673 164.653 174.807C164.849 174.57 165.102 174.385 165.389 174.271C165.676 174.157 165.987 174.116 166.293 174.153L171.189 174.735L176.937 187.074L167.36 181.54C168.308 188.043 156.006 197.707 151.786 201.233C151.685 201.318 151.602 201.422 151.543 201.54C151.484 201.657 151.45 201.786 151.443 201.917C151.436 202.048 151.456 202.18 151.502 202.303C151.548 202.426 151.619 202.539 151.71 202.634L153.394 204.384C150.629 207.165 147.439 208.951 143.837 209.777L144.722 208.148Z" fill="url(#paint112_linear_23_2820)"/>
<path d="M152.418 203.435C152.418 203.435 153.492 203.78 153.856 204.73C153.935 204.955 153.938 205.199 153.864 205.426C153.789 205.652 153.642 205.848 153.444 205.983C151.674 207.241 145.83 211.304 143.143 212.1C143.093 212.114 143.039 212.115 142.988 212.103C142.937 212.091 142.89 212.065 142.851 212.029C142.813 211.994 142.784 211.949 142.769 211.899C142.753 211.849 142.751 211.796 142.762 211.745C142.901 211.123 143.348 209.878 144.789 208.067L144.659 208.326C144.623 208.398 144.612 208.478 144.626 208.556C144.64 208.634 144.678 208.706 144.736 208.761C144.794 208.816 144.868 208.851 144.948 208.861C145.027 208.871 145.108 208.856 145.177 208.817C146.977 207.806 150.648 205.597 152.418 203.435Z" fill="url(#paint113_linear_23_2820)"/>
<path d="M151.549 215.624C151.579 215.605 154.209 209.318 154.237 209.3C156.648 194.731 162.532 182.253 164.269 178.971C164.412 178.699 164.622 178.468 164.88 178.298C165.137 178.129 165.433 178.027 165.741 178.001L170.651 177.585L178.802 188.511L168.294 185.014C170.549 191.192 160.472 203.127 157.059 207.428C156.977 207.531 156.917 207.65 156.883 207.777C156.85 207.904 156.842 208.036 156.862 208.166C156.882 208.296 156.928 208.421 156.998 208.532C157.068 208.644 157.161 208.74 157.27 208.814L159.275 210.197C157.134 213.476 154.374 215.866 151.016 217.396L151.549 215.624Z" fill="url(#paint114_linear_23_2820)"/>
<path d="M158.125 209.464C158.125 209.464 159.249 209.586 159.799 210.442C159.922 210.646 159.974 210.885 159.948 211.121C159.921 211.358 159.817 211.579 159.651 211.751C158.174 213.338 153.284 218.49 150.808 219.81C150.761 219.835 150.709 219.847 150.656 219.845C150.603 219.844 150.551 219.828 150.506 219.801C150.461 219.773 150.424 219.734 150.398 219.688C150.373 219.642 150.36 219.59 150.36 219.538C150.369 218.902 150.555 217.597 151.596 215.53L151.522 215.81C151.502 215.887 151.506 215.968 151.536 216.042C151.565 216.116 151.618 216.179 151.686 216.221C151.754 216.263 151.834 216.282 151.913 216.276C151.993 216.27 152.069 216.238 152.129 216.186C153.689 214.837 156.834 211.936 158.125 209.464Z" fill="url(#paint115_linear_23_2820)"/>
<path d="M193.634 175.283C193.634 175.283 198.075 181.838 198.439 184.828C198.804 187.818 197.211 188.852 192.562 189.233C178.729 190.368 171.909 186.254 171.909 186.254C170.962 180.267 170.29 178.744 162.386 175.488C162.386 175.488 172.382 176.276 174.395 175.502C176.407 174.728 193.634 175.283 193.634 175.283Z" fill="url(#paint116_linear_23_2820)"/>
<path d="M181.622 174.415C181.622 174.415 176.449 169.526 173.904 166.291C173.226 165.428 172.766 164.417 172.563 163.342C172.359 162.267 172.417 161.159 172.732 160.111C173.897 156.225 175.957 152.201 176.148 151.574C176.437 150.614 182.239 150.654 182.239 150.654C182.239 150.654 193.651 158.003 198.135 170.452L193.099 172.008C193.099 172.008 190.12 167.048 187.176 163.893C187.176 163.893 192.27 170.572 192.45 173.305L181.622 174.415Z" fill="url(#paint117_linear_23_2820)"/>
<path d="M175.446 146.205C175.506 146.404 177.02 151.384 177.138 151.487C177.257 151.59 180.458 151.761 181.965 150.739L178.89 143.985L175.446 146.205Z" fill="url(#paint118_linear_23_2820)"/>
<path d="M171.768 176.344L175.654 172.148L180.142 173.347C180.142 173.347 185.375 174.152 188.37 173.347L191.365 172.547L198.132 170.456L199.196 173.437C199.326 173.805 199.333 174.206 199.213 174.578C199.094 174.95 198.856 175.274 198.535 175.499C197.95 175.912 197.263 176.366 196.826 176.556C195.934 176.943 176.295 176.678 176.295 176.678L171.768 176.344Z" fill="url(#paint119_linear_23_2820)"/>
<path d="M184.632 178.004H184.591L166.714 177.984C166.507 177.977 166.31 177.891 166.166 177.742C166.021 177.594 165.94 177.396 165.94 177.19C165.94 176.984 166.021 176.786 166.166 176.638C166.31 176.489 166.507 176.403 166.714 176.396L184.591 176.415C184.8 176.415 185 176.496 185.15 176.64C185.3 176.785 185.387 176.982 185.392 177.189C185.397 177.397 185.32 177.598 185.178 177.75C185.035 177.902 184.839 177.992 184.63 178.002L184.632 178.004Z" fill="url(#paint120_linear_23_2820)"/>
<path d="M150.645 161.9H165.532C166.07 161.9 166.597 162.051 167.051 162.337C167.506 162.623 167.869 163.031 168.098 163.514L174.981 177.995H156.48C156.134 177.995 155.796 177.892 155.51 177.698C155.224 177.505 155.003 177.231 154.877 176.912L149.539 163.513C149.468 163.334 149.442 163.141 149.463 162.949C149.485 162.758 149.553 162.575 149.662 162.416C149.771 162.257 149.918 162.127 150.089 162.037C150.26 161.947 150.451 161.9 150.645 161.9Z" fill="url(#paint121_linear_23_2820)"/>
<path d="M161.133 169.324C161.455 170.319 161.217 171.285 160.601 171.482C159.985 171.679 159.222 171.032 158.899 170.038C158.576 169.043 158.815 168.077 159.431 167.881C160.047 167.684 160.811 168.33 161.133 169.324Z" fill="#7D97F4"/>
<path d="M172.587 139.45C172.587 139.45 171.228 141.867 172.133 145.837C173.039 149.807 175.123 150.353 176.559 149.537C177.996 148.721 179.906 147.198 180.474 143.739C181.043 140.281 174.429 136.405 172.587 139.45Z" fill="url(#paint122_linear_23_2820)"/>
<path d="M177.882 143.251C177.882 143.251 176.07 137.819 172.234 140.708L171.827 142.019C171.827 142.019 168.582 140.741 169.985 137.841C171.387 134.942 174.794 133.805 178.17 136.109C181.546 138.413 183.32 140.331 182.851 143.046C182.381 145.761 180.411 144.619 180.411 144.619C180.411 144.619 180.217 142.569 179.283 142.115C178.349 141.661 178.215 143.181 178.215 143.181L177.882 143.251Z" fill="url(#paint123_linear_23_2820)"/>
<path d="M178.68 144.018C178.68 144.018 177.732 141.231 179.448 141.305C181.164 141.379 180.2 143.971 179.761 144.914L178.68 144.018Z" fill="url(#paint124_linear_23_2820)"/>
</g>
<defs>
<linearGradient id="paint0_linear_23_2820" x1="270.976" y1="250.343" x2="87.1001" y2="88.1953" gradientUnits="userSpaceOnUse">
<stop stop-color="#DAE3FE"/>
<stop offset="1" stop-color="#E9EFFD"/>
</linearGradient>
<linearGradient id="paint1_linear_23_2820" x1="259.098" y1="49.5897" x2="195.808" y2="205.025" gradientUnits="userSpaceOnUse">
<stop stop-color="#FF928E"/>
<stop offset="1" stop-color="#FE7062"/>
</linearGradient>
<linearGradient id="paint2_linear_23_2820" x1="18762.1" y1="214063" x2="6926.87" y2="214697" gradientUnits="userSpaceOnUse">
<stop stop-color="#FF928E"/>
<stop offset="1" stop-color="#FE7062"/>
</linearGradient>
<linearGradient id="paint3_linear_23_2820" x1="24383" y1="92403.9" x2="47543.1" y2="88751" gradientUnits="userSpaceOnUse">
<stop stop-color="#FF928E"/>
<stop offset="1" stop-color="#FE7062"/>
</linearGradient>
<linearGradient id="paint4_linear_23_2820" x1="30842.2" y1="30944.4" x2="51374.1" y2="18424.3" gradientUnits="userSpaceOnUse">
<stop stop-color="#FF928E"/>
<stop offset="1" stop-color="#FE7062"/>
</linearGradient>
<linearGradient id="paint5_linear_23_2820" x1="10525.7" y1="27475.3" x2="8991.98" y2="32157.2" gradientUnits="userSpaceOnUse">
<stop stop-color="#FF928E"/>
<stop offset="1" stop-color="#FE7062"/>
</linearGradient>
<linearGradient id="paint6_linear_23_2820" x1="10333" y1="27403.6" x2="8799.26" y2="32085.3" gradientUnits="userSpaceOnUse">
<stop stop-color="#FF928E"/>
<stop offset="1" stop-color="#FE7062"/>
</linearGradient>
<linearGradient id="paint7_linear_23_2820" x1="10529.2" y1="32027.3" x2="8995.96" y2="36709.4" gradientUnits="userSpaceOnUse">
<stop stop-color="#FF928E"/>
<stop offset="1" stop-color="#FE7062"/>
</linearGradient>
<linearGradient id="paint8_linear_23_2820" x1="10336.5" y1="31955.5" x2="8803.22" y2="36637.6" gradientUnits="userSpaceOnUse">
<stop stop-color="#FF928E"/>
<stop offset="1" stop-color="#FE7062"/>
</linearGradient>
<linearGradient id="paint9_linear_23_2820" x1="10532.6" y1="36829.6" x2="8998.91" y2="41511.3" gradientUnits="userSpaceOnUse">
<stop stop-color="#FF928E"/>
<stop offset="1" stop-color="#FE7062"/>
</linearGradient>
<linearGradient id="paint10_linear_23_2820" x1="10339.9" y1="36757.7" x2="8806.12" y2="41439.6" gradientUnits="userSpaceOnUse">
<stop stop-color="#FF928E"/>
<stop offset="1" stop-color="#FE7062"/>
</linearGradient>
<linearGradient id="paint11_linear_23_2820" x1="11545.5" y1="27427.3" x2="10011.8" y2="32109" gradientUnits="userSpaceOnUse">
<stop stop-color="#FF928E"/>
<stop offset="1" stop-color="#FE7062"/>
</linearGradient>
<linearGradient id="paint12_linear_23_2820" x1="11352.8" y1="27355.4" x2="9819.04" y2="32037.3" gradientUnits="userSpaceOnUse">
<stop stop-color="#FF928E"/>
<stop offset="1" stop-color="#FE7062"/>
</linearGradient>
<linearGradient id="paint13_linear_23_2820" x1="11549" y1="32030.3" x2="10015.7" y2="36712.4" gradientUnits="userSpaceOnUse">
<stop stop-color="#FF928E"/>
<stop offset="1" stop-color="#FE7062"/>
</linearGradient>
<linearGradient id="paint14_linear_23_2820" x1="11356.1" y1="31958.4" x2="9822.41" y2="36640.3" gradientUnits="userSpaceOnUse">
<stop stop-color="#FF928E"/>
<stop offset="1" stop-color="#FE7062"/>
</linearGradient>
<linearGradient id="paint15_linear_23_2820" x1="11552.3" y1="36832.6" x2="10018.6" y2="41514.3" gradientUnits="userSpaceOnUse">
<stop stop-color="#FF928E"/>
<stop offset="1" stop-color="#FE7062"/>
</linearGradient>
<linearGradient id="paint16_linear_23_2820" x1="11359.6" y1="36760.7" x2="9825.88" y2="41442.5" gradientUnits="userSpaceOnUse">
<stop stop-color="#FF928E"/>
<stop offset="1" stop-color="#FE7062"/>
</linearGradient>
<linearGradient id="paint17_linear_23_2820" x1="279.43" y1="139.655" x2="114.209" y2="40.4475" gradientUnits="userSpaceOnUse">
<stop stop-color="#E1473D"/>
<stop offset="1" stop-color="#E9605A"/>
</linearGradient>
<linearGradient id="paint18_linear_23_2820" x1="251701" y1="7041.12" x2="251819" y2="766.258" gradientUnits="userSpaceOnUse">
<stop stop-color="#E1473D"/>
<stop offset="1" stop-color="#E9605A"/>
</linearGradient>
<linearGradient id="paint19_linear_23_2820" x1="491338" y1="105857" x2="504213" y2="412831" gradientUnits="userSpaceOnUse">
<stop stop-color="#FF928E"/>
<stop offset="1" stop-color="#FE7062"/>
</linearGradient>
<linearGradient id="paint20_linear_23_2820" x1="48704.7" y1="267420" x2="60625.8" y2="268054" gradientUnits="userSpaceOnUse">
<stop stop-color="#FF928E"/>
<stop offset="1" stop-color="#FE7062"/>
</linearGradient>
<linearGradient id="paint21_linear_23_2820" x1="64039.6" y1="111957" x2="40376.6" y2="108254" gradientUnits="userSpaceOnUse">
<stop stop-color="#FF928E"/>
<stop offset="1" stop-color="#FE7062"/>
</linearGradient>
<linearGradient id="paint22_linear_23_2820" x1="77878.1" y1="37160.6" x2="57190.5" y2="24643.5" gradientUnits="userSpaceOnUse">
<stop stop-color="#FF928E"/>
<stop offset="1" stop-color="#FE7062"/>
</linearGradient>
<linearGradient id="paint23_linear_23_2820" x1="26062.1" y1="27598.7" x2="27595.4" y2="32280.9" gradientUnits="userSpaceOnUse">
<stop stop-color="#FF928E"/>
<stop offset="1" stop-color="#FE7062"/>
</linearGradient>
<linearGradient id="paint24_linear_23_2820" x1="26245.8" y1="27527" x2="27779.1" y2="32209.2" gradientUnits="userSpaceOnUse">
<stop stop-color="#FF928E"/>
<stop offset="1" stop-color="#FE7062"/>
</linearGradient>
<linearGradient id="paint25_linear_23_2820" x1="26058.8" y1="32150.6" x2="27592.5" y2="36832.3" gradientUnits="userSpaceOnUse">
<stop stop-color="#FF928E"/>
<stop offset="1" stop-color="#FE7062"/>
</linearGradient>
<linearGradient id="paint26_linear_23_2820" x1="26242.5" y1="32078.8" x2="27776.3" y2="36760.6" gradientUnits="userSpaceOnUse">
<stop stop-color="#FF928E"/>
<stop offset="1" stop-color="#FE7062"/>
</linearGradient>
<linearGradient id="paint27_linear_23_2820" x1="26055.6" y1="36952.5" x2="27588.8" y2="41634.5" gradientUnits="userSpaceOnUse">
<stop stop-color="#FF928E"/>
<stop offset="1" stop-color="#FE7062"/>
</linearGradient>
<linearGradient id="paint28_linear_23_2820" x1="26239.2" y1="36880.8" x2="27772.5" y2="41562.8" gradientUnits="userSpaceOnUse">
<stop stop-color="#FF928E"/>
<stop offset="1" stop-color="#FE7062"/>
</linearGradient>
<linearGradient id="paint29_linear_23_2820" x1="25089.8" y1="27550" x2="26623.1" y2="32232" gradientUnits="userSpaceOnUse">
<stop stop-color="#FF928E"/>
<stop offset="1" stop-color="#FE7062"/>
</linearGradient>
<linearGradient id="paint30_linear_23_2820" x1="25273.5" y1="27478.3" x2="26806.7" y2="32160.3" gradientUnits="userSpaceOnUse">
<stop stop-color="#FF928E"/>
<stop offset="1" stop-color="#FE7062"/>
</linearGradient>
<linearGradient id="paint31_linear_23_2820" x1="25086.5" y1="32153" x2="26620.2" y2="36834.8" gradientUnits="userSpaceOnUse">
<stop stop-color="#FF928E"/>
<stop offset="1" stop-color="#FE7062"/>
</linearGradient>
<linearGradient id="paint32_linear_23_2820" x1="25270.5" y1="32081.2" x2="26804.1" y2="36762.9" gradientUnits="userSpaceOnUse">
<stop stop-color="#FF928E"/>
<stop offset="1" stop-color="#FE7062"/>
</linearGradient>
<linearGradient id="paint33_linear_23_2820" x1="25083.3" y1="36955.2" x2="26616.5" y2="41637.4" gradientUnits="userSpaceOnUse">
<stop stop-color="#FF928E"/>
<stop offset="1" stop-color="#FE7062"/>
</linearGradient>
<linearGradient id="paint34_linear_23_2820" x1="25267" y1="36883.5" x2="26800.2" y2="41565.5" gradientUnits="userSpaceOnUse">
<stop stop-color="#FF928E"/>
<stop offset="1" stop-color="#FE7062"/>
</linearGradient>
<linearGradient id="paint35_linear_23_2820" x1="732402" y1="52223.3" x2="766927" y2="-41434" gradientUnits="userSpaceOnUse">
<stop stop-color="#E1473D"/>
<stop offset="1" stop-color="#E9605A"/>
</linearGradient>
<linearGradient id="paint36_linear_23_2820" x1="118689" y1="7013" x2="118889" y2="-373.384" gradientUnits="userSpaceOnUse">
<stop stop-color="#E1473D"/>
<stop offset="1" stop-color="#E9605A"/>
</linearGradient>
<linearGradient id="paint37_linear_23_2820" x1="193891" y1="-45912.7" x2="176084" y2="169401" gradientUnits="userSpaceOnUse">
<stop stop-color="#FF928E"/>
<stop offset="1" stop-color="#FE7062"/>
</linearGradient>
<linearGradient id="paint38_linear_23_2820" x1="14043.3" y1="215491" x2="2198.74" y2="216125" gradientUnits="userSpaceOnUse">
<stop stop-color="#FF928E"/>
<stop offset="1" stop-color="#FE7062"/>
</linearGradient>
<linearGradient id="paint39_linear_23_2820" x1="18226.5" y1="92944.3" x2="41402.5" y2="89291.9" gradientUnits="userSpaceOnUse">
<stop stop-color="#FF928E"/>
<stop offset="1" stop-color="#FE7062"/>
</linearGradient>
<linearGradient id="paint40_linear_23_2820" x1="23290.6" y1="31119.6" x2="43839.6" y2="18599.6" gradientUnits="userSpaceOnUse">
<stop stop-color="#FF928E"/>
<stop offset="1" stop-color="#FE7062"/>
</linearGradient>
<linearGradient id="paint41_linear_23_2820" x1="236526" y1="-13838.1" x2="236802" y2="20740.2" gradientUnits="userSpaceOnUse">
<stop stop-color="#E1473D"/>
<stop offset="1" stop-color="#E9605A"/>
</linearGradient>
<linearGradient id="paint42_linear_23_2820" x1="212310" y1="-12368.6" x2="209657" y2="25124.9" gradientUnits="userSpaceOnUse">
<stop stop-color="#FF928E"/>
<stop offset="1" stop-color="#FE7062"/>
</linearGradient>
<linearGradient id="paint43_linear_23_2820" x1="4636.08" y1="214412" x2="-7168.12" y2="215046" gradientUnits="userSpaceOnUse">
<stop stop-color="#FF928E"/>
<stop offset="1" stop-color="#FE7062"/>
</linearGradient>
<linearGradient id="paint44_linear_23_2820" x1="5933.31" y1="92807.3" x2="29311" y2="89123.1" gradientUnits="userSpaceOnUse">
<stop stop-color="#FF928E"/>
<stop offset="1" stop-color="#FE7062"/>
</linearGradient>
<linearGradient id="paint45_linear_23_2820" x1="8226.45" y1="31063.2" x2="28775.3" y2="18543.7" gradientUnits="userSpaceOnUse">
<stop stop-color="#FF928E"/>
<stop offset="1" stop-color="#FE7062"/>
</linearGradient>
<linearGradient id="paint46_linear_23_2820" x1="7683.6" y1="219388" x2="-4161.04" y2="220022" gradientUnits="userSpaceOnUse">
<stop stop-color="#FF928E"/>
<stop offset="1" stop-color="#FE7062"/>
</linearGradient>
<linearGradient id="paint47_linear_23_2820" x1="9901.99" y1="94426.5" x2="33452.5" y2="90715.1" gradientUnits="userSpaceOnUse">
<stop stop-color="#FF928E"/>
<stop offset="1" stop-color="#FE7062"/>
</linearGradient>
<linearGradient id="paint48_linear_23_2820" x1="13110.9" y1="31569.3" x2="33659.7" y2="19049.5" gradientUnits="userSpaceOnUse">
<stop stop-color="#FF928E"/>
<stop offset="1" stop-color="#FE7062"/>
</linearGradient>
<linearGradient id="paint49_linear_23_2820" x1="11309.4" y1="218759" x2="-535.466" y2="219393" gradientUnits="userSpaceOnUse">
<stop stop-color="#FF928E"/>
<stop offset="1" stop-color="#FE7062"/>
</linearGradient>
<linearGradient id="paint50_linear_23_2820" x1="14629.6" y1="94206.7" x2="38218.6" y2="90489.2" gradientUnits="userSpaceOnUse">
<stop stop-color="#FF928E"/>
<stop offset="1" stop-color="#FE7062"/>
</linearGradient>
<linearGradient id="paint51_linear_23_2820" x1="18913.7" y1="31496.8" x2="39462.5" y2="18977.2" gradientUnits="userSpaceOnUse">
<stop stop-color="#FF928E"/>
<stop offset="1" stop-color="#FE7062"/>
</linearGradient>
<linearGradient id="paint52_linear_23_2820" x1="5623.72" y1="40163.1" x2="3616.95" y2="45722.4" gradientUnits="userSpaceOnUse">
<stop stop-color="#FF928E"/>
<stop offset="1" stop-color="#FE7062"/>
</linearGradient>
<linearGradient id="paint53_linear_23_2820" x1="5431.11" y1="40076.1" x2="3424.85" y2="45636" gradientUnits="userSpaceOnUse">
<stop stop-color="#FF928E"/>
<stop offset="1" stop-color="#FE7062"/>
</linearGradient>
<linearGradient id="paint54_linear_23_2820" x1="5613.9" y1="35196.1" x2="3607.61" y2="40755.9" gradientUnits="userSpaceOnUse">
<stop stop-color="#FF928E"/>
<stop offset="1" stop-color="#FE7062"/>
</linearGradient>
<linearGradient id="paint55_linear_23_2820" x1="5421.32" y1="35109.1" x2="3414.48" y2="40668.7" gradientUnits="userSpaceOnUse">
<stop stop-color="#FF928E"/>
<stop offset="1" stop-color="#FE7062"/>
</linearGradient>
<linearGradient id="paint56_linear_23_2820" x1="9067.59" y1="40085.8" x2="7061.33" y2="45645.6" gradientUnits="userSpaceOnUse">
<stop stop-color="#FF928E"/>
<stop offset="1" stop-color="#FE7062"/>
</linearGradient>
<linearGradient id="paint57_linear_23_2820" x1="8875.33" y1="39998.8" x2="6868.59" y2="45558.2" gradientUnits="userSpaceOnUse">
<stop stop-color="#FF928E"/>
<stop offset="1" stop-color="#FE7062"/>
</linearGradient>
<linearGradient id="paint58_linear_23_2820" x1="9057.15" y1="35118.3" x2="7050.79" y2="40677.9" gradientUnits="userSpaceOnUse">
<stop stop-color="#FF928E"/>
<stop offset="1" stop-color="#FE7062"/>
</linearGradient>
<linearGradient id="paint59_linear_23_2820" x1="8865.19" y1="35031.2" x2="6858.39" y2="40590.6" gradientUnits="userSpaceOnUse">
<stop stop-color="#FF928E"/>
<stop offset="1" stop-color="#FE7062"/>
</linearGradient>
<linearGradient id="paint60_linear_23_2820" x1="131.012" y1="91.1527" x2="135.101" y2="56.544" gradientUnits="userSpaceOnUse">
<stop stop-color="#FEBBBA"/>
<stop offset="1" stop-color="#FF928E"/>
</linearGradient>
<linearGradient id="paint61_linear_23_2820" x1="16903.9" y1="9663.34" x2="15233.5" y2="13091.8" gradientUnits="userSpaceOnUse">
<stop stop-color="#E1473D"/>
<stop offset="1" stop-color="#E9605A"/>
</linearGradient>
<linearGradient id="paint62_linear_23_2820" x1="40199.1" y1="140501" x2="56212" y2="77958.3" gradientUnits="userSpaceOnUse">
<stop stop-color="#FEBBBA"/>
<stop offset="1" stop-color="#FF928E"/>
</linearGradient>
<linearGradient id="paint63_linear_23_2820" x1="59039" y1="56823.9" x2="10782.6" y2="83961.9" gradientUnits="userSpaceOnUse">
<stop stop-color="#FF928E"/>
<stop offset="1" stop-color="#FE7062"/>
</linearGradient>
<linearGradient id="paint64_linear_23_2820" x1="35969.7" y1="7122.82" x2="35974.4" y2="7697.39" gradientUnits="userSpaceOnUse">
<stop stop-color="#FF928E"/>
<stop offset="1" stop-color="#FE7062"/>
</linearGradient>
<linearGradient id="paint65_linear_23_2820" x1="36073.9" y1="7373.43" x2="36078.6" y2="7948.01" gradientUnits="userSpaceOnUse">
<stop stop-color="#FF928E"/>
<stop offset="1" stop-color="#FE7062"/>
</linearGradient>
<linearGradient id="paint66_linear_23_2820" x1="9051.41" y1="30223.8" x2="7045.15" y2="35783.6" gradientUnits="userSpaceOnUse">
<stop stop-color="#FF928E"/>
<stop offset="1" stop-color="#FE7062"/>
</linearGradient>
<linearGradient id="paint67_linear_23_2820" x1="8858.83" y1="30136.8" x2="6852.04" y2="35696.1" gradientUnits="userSpaceOnUse">
<stop stop-color="#FF928E"/>
<stop offset="1" stop-color="#FE7062"/>
</linearGradient>
<linearGradient id="paint68_linear_23_2820" x1="19553.4" y1="7753.63" x2="19453.1" y2="8533.49" gradientUnits="userSpaceOnUse">
<stop stop-color="#FF928E"/>
<stop offset="1" stop-color="#FE7062"/>
</linearGradient>
<linearGradient id="paint69_linear_23_2820" x1="6944.52" y1="30223.8" x2="4938.27" y2="35783.6" gradientUnits="userSpaceOnUse">
<stop stop-color="#FF928E"/>
<stop offset="1" stop-color="#FE7062"/>
</linearGradient>
<linearGradient id="paint70_linear_23_2820" x1="6751.97" y1="30136.8" x2="4745.19" y2="35696.1" gradientUnits="userSpaceOnUse">
<stop stop-color="#FF928E"/>
<stop offset="1" stop-color="#FE7062"/>
</linearGradient>
<linearGradient id="paint71_linear_23_2820" x1="14969.6" y1="7753.63" x2="14869.3" y2="8533.49" gradientUnits="userSpaceOnUse">
<stop stop-color="#FF928E"/>
<stop offset="1" stop-color="#FE7062"/>
</linearGradient>
<linearGradient id="paint72_linear_23_2820" x1="7721.07" y1="30223.8" x2="5714.81" y2="35783.6" gradientUnits="userSpaceOnUse">
<stop stop-color="#FF928E"/>
<stop offset="1" stop-color="#FE7062"/>
</linearGradient>
<linearGradient id="paint73_linear_23_2820" x1="7528.49" y1="30136.8" x2="5521.7" y2="35696.1" gradientUnits="userSpaceOnUse">
<stop stop-color="#FF928E"/>
<stop offset="1" stop-color="#FE7062"/>
</linearGradient>
<linearGradient id="paint74_linear_23_2820" x1="16658.8" y1="7753.63" x2="16558.5" y2="8533.49" gradientUnits="userSpaceOnUse">
<stop stop-color="#FF928E"/>
<stop offset="1" stop-color="#FE7062"/>
</linearGradient>
<linearGradient id="paint75_linear_23_2820" x1="5626.91" y1="30223.8" x2="3620.11" y2="35783.1" gradientUnits="userSpaceOnUse">
<stop stop-color="#FF928E"/>
<stop offset="1" stop-color="#FE7062"/>
</linearGradient>
<linearGradient id="paint76_linear_23_2820" x1="5434.3" y1="30136.8" x2="3428.04" y2="35696.5" gradientUnits="userSpaceOnUse">
<stop stop-color="#FF928E"/>
<stop offset="1" stop-color="#FE7062"/>
</linearGradient>
<linearGradient id="paint77_linear_23_2820" x1="12101.9" y1="7753.63" x2="12001.6" y2="8533.49" gradientUnits="userSpaceOnUse">
<stop stop-color="#FF928E"/>
<stop offset="1" stop-color="#FE7062"/>
</linearGradient>
<linearGradient id="paint78_linear_23_2820" x1="189692" y1="6277.61" x2="189678" y2="12700" gradientUnits="userSpaceOnUse">
<stop stop-color="#FF928E"/>
<stop offset="1" stop-color="#FE7062"/>
</linearGradient>
<linearGradient id="paint79_linear_23_2820" x1="185916" y1="4842.21" x2="185875" y2="8710.27" gradientUnits="userSpaceOnUse">
<stop stop-color="#FF928E"/>
<stop offset="1" stop-color="#FE7062"/>
</linearGradient>
<linearGradient id="paint80_linear_23_2820" x1="13.7247" y1="-1.11096" x2="29.0647" y2="63.8212" gradientUnits="userSpaceOnUse">
<stop stop-color="#4F52FF"/>
<stop offset="1" stop-color="#4042E2"/>
</linearGradient>
<linearGradient id="paint81_linear_23_2820" x1="22054.8" y1="54761.7" x2="8208.16" y2="89358.5" gradientUnits="userSpaceOnUse">
<stop stop-color="#4F52FF"/>
<stop offset="1" stop-color="#4042E2"/>
</linearGradient>
<linearGradient id="paint82_linear_23_2820" x1="61.2703" y1="55.2254" x2="64.0962" y2="87.117" gradientUnits="userSpaceOnUse">
<stop stop-color="#09005D"/>
<stop offset="1" stop-color="#1A0F91"/>
</linearGradient>
<linearGradient id="paint83_linear_23_2820" x1="1870.75" y1="4398.67" x2="2406.09" y2="6793.39" gradientUnits="userSpaceOnUse">
<stop stop-color="#09005D"/>
<stop offset="1" stop-color="#1A0F91"/>
</linearGradient>
<linearGradient id="paint84_linear_23_2820" x1="-766.334" y1="18499.7" x2="-2446.64" y2="22379.2" gradientUnits="userSpaceOnUse">
<stop stop-color="#09005D"/>
<stop offset="1" stop-color="#1A0F91"/>
</linearGradient>
<linearGradient id="paint85_linear_23_2820" x1="57.6095" y1="240.048" x2="60.7338" y2="240.048" gradientUnits="userSpaceOnUse">
<stop stop-color="#A22B25"/>
<stop offset="1" stop-color="#C0423C"/>
</linearGradient>
<linearGradient id="paint86_linear_23_2820" x1="-2790.03" y1="136035" x2="-1597.64" y2="136035" gradientUnits="userSpaceOnUse">
<stop stop-color="#09005D"/>
<stop offset="1" stop-color="#1A0F91"/>
</linearGradient>
<linearGradient id="paint87_linear_23_2820" x1="-661.484" y1="15431.5" x2="-2621.27" y2="17572.2" gradientUnits="userSpaceOnUse">
<stop stop-color="#09005D"/>
<stop offset="1" stop-color="#1A0F91"/>
</linearGradient>
<linearGradient id="paint88_linear_23_2820" x1="-840.484" y1="13214.2" x2="-759.222" y2="13214.2" gradientUnits="userSpaceOnUse">
<stop stop-color="#A22B25"/>
<stop offset="1" stop-color="#C0423C"/>
</linearGradient>
<linearGradient id="paint89_linear_23_2820" x1="9156.88" y1="169747" x2="24435.3" y2="160194" gradientUnits="userSpaceOnUse">
<stop stop-color="#09005D"/>
<stop offset="1" stop-color="#1A0F91"/>
</linearGradient>
<linearGradient id="paint90_linear_23_2820" x1="-65474.3" y1="91672" x2="-73927.2" y2="81073.1" gradientUnits="userSpaceOnUse">
<stop stop-color="#4F52FF"/>
<stop offset="1" stop-color="#4042E2"/>
</linearGradient>
<linearGradient id="paint91_linear_23_2820" x1="-35280.1" y1="45273.9" x2="-29415.8" y2="40266.1" gradientUnits="userSpaceOnUse">
<stop stop-color="#A22B25"/>
<stop offset="1" stop-color="#C0423C"/>
</linearGradient>
<linearGradient id="paint92_linear_23_2820" x1="-11846.4" y1="21922.3" x2="-9320.66" y2="20434.4" gradientUnits="userSpaceOnUse">
<stop stop-color="#A22B25"/>
<stop offset="1" stop-color="#C0423C"/>
</linearGradient>
<linearGradient id="paint93_linear_23_2820" x1="-4156.23" y1="8020.51" x2="-4223.24" y2="8415.19" gradientUnits="userSpaceOnUse">
<stop stop-color="#A22B25"/>
<stop offset="1" stop-color="#C0423C"/>
</linearGradient>
<linearGradient id="paint94_linear_23_2820" x1="-27023.9" y1="36780.7" x2="-30315.1" y2="32577.6" gradientUnits="userSpaceOnUse">
<stop stop-color="#4F52FF"/>
<stop offset="1" stop-color="#4042E2"/>
</linearGradient>
<linearGradient id="paint95_linear_23_2820" x1="-49807.5" y1="25481.7" x2="-47025" y2="28124.3" gradientUnits="userSpaceOnUse">
<stop stop-color="#A22B25"/>
<stop offset="1" stop-color="#C0423C"/>
</linearGradient>
<linearGradient id="paint96_linear_23_2820" x1="33561.3" y1="35819.4" x2="30820.7" y2="39756.1" gradientUnits="userSpaceOnUse">
<stop stop-color="#09005D"/>
<stop offset="1" stop-color="#1A0F91"/>
</linearGradient>
<linearGradient id="paint97_linear_23_2820" x1="-33405.8" y1="6129.71" x2="-34541.8" y2="4526.49" gradientUnits="userSpaceOnUse">
<stop stop-color="#09005D"/>
<stop offset="1" stop-color="#1A0F91"/>
</linearGradient>
<linearGradient id="paint98_linear_23_2820" x1="-17067.4" y1="41786.6" x2="-14956.2" y2="42602.3" gradientUnits="userSpaceOnUse">
<stop stop-color="#09005D"/>
<stop offset="1" stop-color="#1A0F91"/>
</linearGradient>
<linearGradient id="paint99_linear_23_2820" x1="-17659.2" y1="15694.6" x2="-16956.3" y2="16170.1" gradientUnits="userSpaceOnUse">
<stop stop-color="#A22B25"/>
<stop offset="1" stop-color="#C0423C"/>
</linearGradient>
<linearGradient id="paint100_linear_23_2820" x1="8189.34" y1="19933.8" x2="8568.22" y2="18399.8" gradientUnits="userSpaceOnUse">
<stop stop-color="#A22B25"/>
<stop offset="1" stop-color="#C0423C"/>
</linearGradient>
<linearGradient id="paint101_linear_23_2820" x1="-20117.7" y1="21029.3" x2="-19199.6" y2="22071.4" gradientUnits="userSpaceOnUse">
<stop stop-color="#A22B25"/>
<stop offset="1" stop-color="#C0423C"/>
</linearGradient>
<linearGradient id="paint102_linear_23_2820" x1="-65824.1" y1="35126.7" x2="-64296.1" y2="36345.8" gradientUnits="userSpaceOnUse">
<stop stop-color="#09005D"/>
<stop offset="1" stop-color="#1A0F91"/>
</linearGradient>
<linearGradient id="paint103_linear_23_2820" x1="-6328.93" y1="4280.31" x2="-6004.48" y2="4068.61" gradientUnits="userSpaceOnUse">
<stop stop-color="#A22B25"/>
<stop offset="1" stop-color="#C0423C"/>
</linearGradient>
<linearGradient id="paint104_linear_23_2820" x1="369850" y1="9292.39" x2="369074" y2="60649.9" gradientUnits="userSpaceOnUse">
<stop stop-color="#4F52FF"/>
<stop offset="1" stop-color="#4042E2"/>
</linearGradient>
<linearGradient id="paint105_linear_23_2820" x1="215239" y1="2038.79" x2="367668" y2="2038.79" gradientUnits="userSpaceOnUse">
<stop stop-color="#DAE3FE"/>
<stop offset="1" stop-color="#E9EFFD"/>
</linearGradient>
<linearGradient id="paint106_linear_23_2820" x1="215239" y1="2068.06" x2="367668" y2="2068.06" gradientUnits="userSpaceOnUse">
<stop stop-color="#DAE3FE"/>
<stop offset="1" stop-color="#E9EFFD"/>
</linearGradient>
<linearGradient id="paint107_linear_23_2820" x1="215171" y1="2083.86" x2="367552" y2="2083.86" gradientUnits="userSpaceOnUse">
<stop stop-color="#DAE3FE"/>
<stop offset="1" stop-color="#E9EFFD"/>
</linearGradient>
<linearGradient id="paint108_linear_23_2820" x1="215171" y1="2112.96" x2="367552" y2="2112.96" gradientUnits="userSpaceOnUse">
<stop stop-color="#DAE3FE"/>
<stop offset="1" stop-color="#E9EFFD"/>
</linearGradient>
<linearGradient id="paint109_linear_23_2820" x1="215239" y1="2155.72" x2="367668" y2="2155.72" gradientUnits="userSpaceOnUse">
<stop stop-color="#DAE3FE"/>
<stop offset="1" stop-color="#E9EFFD"/>
</linearGradient>
<linearGradient id="paint110_linear_23_2820" x1="266000" y1="54964.8" x2="265682" y2="98320" gradientUnits="userSpaceOnUse">
<stop stop-color="#4F52FF"/>
<stop offset="1" stop-color="#4042E2"/>
</linearGradient>
<linearGradient id="paint111_linear_23_2820" x1="188472" y1="64623.7" x2="206193" y2="89518.3" gradientUnits="userSpaceOnUse">
<stop stop-color="#09005D"/>
<stop offset="1" stop-color="#1A0F91"/>
</linearGradient>
<linearGradient id="paint112_linear_23_2820" x1="-504782" y1="89618" x2="-494212" y2="95221.7" gradientUnits="userSpaceOnUse">
<stop stop-color="#FEBBBA"/>
<stop offset="1" stop-color="#FF928E"/>
</linearGradient>
<linearGradient id="paint113_linear_23_2820" x1="-63221.2" y1="10747.7" x2="-61980" y2="13658.4" gradientUnits="userSpaceOnUse">
<stop stop-color="#09005D"/>
<stop offset="1" stop-color="#1A0F91"/>
</linearGradient>
<linearGradient id="paint114_linear_23_2820" x1="64152.8" y1="105664" x2="74822.5" y2="103835" gradientUnits="userSpaceOnUse">
<stop stop-color="#FEBBBA"/>
<stop offset="1" stop-color="#FF928E"/>
</linearGradient>
<linearGradient id="paint115_linear_23_2820" x1="-57779" y1="-6517.78" x2="-55698.9" y2="-3363.37" gradientUnits="userSpaceOnUse">
<stop stop-color="#09005D"/>
<stop offset="1" stop-color="#1A0F91"/>
</linearGradient>
<linearGradient id="paint116_linear_23_2820" x1="328266" y1="180297" x2="340737" y2="199981" gradientUnits="userSpaceOnUse">
<stop stop-color="#09005D"/>
<stop offset="1" stop-color="#1A0F91"/>
</linearGradient>
<linearGradient id="paint117_linear_23_2820" x1="59487.1" y1="50463" x2="65901.2" y2="58484.6" gradientUnits="userSpaceOnUse">
<stop stop-color="#4F52FF"/>
<stop offset="1" stop-color="#4042E2"/>
</linearGradient>
<linearGradient id="paint118_linear_23_2820" x1="-41132.3" y1="16702.6" x2="-41315.6" y2="15691.2" gradientUnits="userSpaceOnUse">
<stop stop-color="#FEBBBA"/>
<stop offset="1" stop-color="#FF928E"/>
</linearGradient>
<linearGradient id="paint119_linear_23_2820" x1="-173015" y1="15367" x2="-164553" y2="15367" gradientUnits="userSpaceOnUse">
<stop stop-color="#FEBBBA"/>
<stop offset="1" stop-color="#FF928E"/>
</linearGradient>
<linearGradient id="paint120_linear_23_2820" x1="-123968" y1="9741.99" x2="-124202" y2="10684.1" gradientUnits="userSpaceOnUse">
<stop stop-color="#4F52FF"/>
<stop offset="1" stop-color="#4042E2"/>
</linearGradient>
<linearGradient id="paint121_linear_23_2820" x1="-167138" y1="37194.4" x2="-168756" y2="39907" gradientUnits="userSpaceOnUse">
<stop stop-color="#09005D"/>
<stop offset="1" stop-color="#1A0F91"/>
</linearGradient>
<linearGradient id="paint122_linear_23_2820" x1="-2073.15" y1="-22453.1" x2="-2479.7" y2="-25120.7" gradientUnits="userSpaceOnUse">
<stop stop-color="#FEBBBA"/>
<stop offset="1" stop-color="#FF928E"/>
</linearGradient>
<linearGradient id="paint123_linear_23_2820" x1="67421.9" y1="19140.8" x2="71995.2" y2="27304.8" gradientUnits="userSpaceOnUse">
<stop stop-color="#09005D"/>
<stop offset="1" stop-color="#1A0F91"/>
</linearGradient>
<linearGradient id="paint124_linear_23_2820" x1="-1111.4" y1="-6532.96" x2="-1122" y2="-7305.63" gradientUnits="userSpaceOnUse">
<stop stop-color="#FEBBBA"/>
<stop offset="1" stop-color="#FF928E"/>
</linearGradient>
<clipPath id="clip0_23_2820">
<rect width="258" height="247" fill="white"/>
</clipPath>
</defs>
</svg>
