<svg width="258" height="258" viewBox="0 0 258 258" fill="none" xmlns="http://www.w3.org/2000/svg">
<path d="M127.606 0.0567063C64.2441 -1.85952 9.3602 45.2239 1.06824 107.003C-7.99856 174.55 41.9009 235.326 103.299 245.06C179.67 257.168 253.743 187.122 247.092 111.136C242.081 53.8855 192.014 2.00394 127.606 0.0567063Z" fill="#F4F7FA"/>
<path d="M154.733 241.786C153.069 241.231 151.582 240.248 150.422 238.936C149.262 237.624 148.471 236.031 148.128 234.317L143.218 210.118L101.22 211.603L96.0515 236.813C95.3273 240.343 98.2247 243.886 101.563 245.185L119.134 252.033C122.398 253.305 125.913 253.812 129.406 253.516L166.541 250.352C167.07 250.304 167.566 250.076 167.946 249.706C168.325 249.335 168.565 248.846 168.623 248.32C168.75 247.229 169.513 246.005 168.475 245.662L154.733 241.786Z" fill="#97A6B7"/>
<path d="M155.154 240.315C153.498 239.774 152.016 238.807 150.857 237.512C149.698 236.216 148.904 234.638 148.555 232.939L143.651 209.045L102.668 210.513L97.5079 235.407C97.1574 237.095 97.4197 238.852 98.248 240.366C99.0763 241.879 100.417 243.051 102.032 243.673L119.585 250.434C122.85 251.691 126.36 252.192 129.848 251.898L166.944 248.774C167.47 248.73 167.965 248.506 168.344 248.14C168.723 247.774 168.963 247.289 169.025 246.767C169.086 246.245 168.964 245.717 168.679 245.275C168.395 244.832 167.965 244.5 167.463 244.337L155.154 240.315Z" fill="url(#paint0_linear_18_467)"/>
<path d="M15.4025 226.202C10.8477 226.472 7.12207 223.53 7.12207 219.641V79.4901C7.12207 75.6018 10.8477 72.5995 15.4025 72.7961L226.945 87.3826C230.288 87.5261 232.082 84.8383 232.082 88.1454V207.34C232.082 210.647 229.375 213.499 226.033 213.698L15.4025 226.202Z" fill="#97A6B7"/>
<path d="M17.2955 226.202C12.7408 226.472 9.01514 223.53 9.01514 219.641V79.4901C9.01514 75.6018 12.7408 72.5995 17.2955 72.7961L227.923 81.8865C231.266 82.0309 233.973 84.8383 233.973 88.1454V207.34C233.973 210.647 231.265 213.499 227.923 213.698L17.2955 226.202Z" fill="white"/>
<g style="mix-blend-mode:multiply" opacity="0.3">
<path d="M227.923 84.6921L17.299 76.0634C14.8641 75.9633 12.8848 77.5694 12.8848 79.6416V219.43C12.8848 221.506 14.8641 223.076 17.299 222.936L227.923 210.892C229.715 210.79 231.164 209.269 231.164 207.494V88.0373C231.16 86.2629 229.711 84.7657 227.923 84.6921Z" fill="#D8DEE8"/>
</g>
<path d="M226.354 200.807L19.5792 210.972C17.4086 211.079 15.6445 209.65 15.6445 207.783V81.478C15.6445 79.6088 17.4086 78.1585 19.5792 78.2382L226.354 85.8819C227.14 85.9152 227.882 86.2478 228.429 86.8108C228.975 87.3738 229.283 88.1243 229.29 88.9073V197.746C229.281 198.531 228.973 199.284 228.428 199.853C227.883 200.421 227.142 200.762 226.354 200.807V200.807Z" fill="url(#paint1_linear_18_467)"/>
<g style="mix-blend-mode:soft-light" opacity="0.6">
<path d="M71.1615 91.5764L23.938 90.1935V85.71L71.1615 87.2311V91.5764Z" fill="white"/>
</g>
<g style="mix-blend-mode:soft-light" opacity="0.36">
<path d="M93.4 90.9882L82.4917 90.6595V87.5961L93.4 87.9469V90.9882Z" fill="white"/>
</g>
<g style="mix-blend-mode:soft-light" opacity="0.36">
<path d="M93.4 95.2123L82.4917 94.9155V91.8521L93.4 92.1719V95.2123Z" fill="white"/>
</g>
<path d="M147.764 96.6944L105.442 95.5409V92.5253L147.764 93.7664V96.6944Z" fill="url(#paint2_linear_18_467)"/>
<path opacity="0.5" d="M154.704 100.932L112.803 99.9102V96.9097L154.704 98.0179V100.932Z" fill="url(#paint3_linear_18_467)"/>
<path opacity="0.5" d="M154.704 104.98L112.803 104.079V101.079L154.704 102.067V104.98Z" fill="url(#paint4_linear_18_467)"/>
<g style="mix-blend-mode:soft-light" opacity="0.6">
<path d="M154.704 109.028L112.803 108.249V105.248L154.704 106.115V109.028Z" fill="white"/>
</g>
<g style="mix-blend-mode:soft-light" opacity="0.36">
<path d="M93.4 99.4372L82.4917 99.1714V96.1079L93.4 96.3967V99.4372Z" fill="white"/>
</g>
<g style="mix-blend-mode:soft-light" opacity="0.36">
<path d="M93.4 103.662L82.4917 103.427V100.365L93.4 100.622V103.662Z" fill="white"/>
</g>
<g style="mix-blend-mode:soft-light" opacity="0.36">
<path d="M93.4 107.887L82.4917 107.684V104.621L93.4 104.847V107.887Z" fill="white"/>
</g>
<g style="mix-blend-mode:soft-light" opacity="0.36">
<path d="M93.4 112.112L82.4917 111.94V108.877L93.4 109.071V112.112Z" fill="white"/>
</g>
<g style="mix-blend-mode:soft-light" opacity="0.6">
<path d="M122.632 112.572L95.7803 112.149V109.113L122.632 109.591V112.572Z" fill="white"/>
</g>
<g style="mix-blend-mode:soft-light" opacity="0.36">
<path d="M93.4 116.336L82.4917 116.196V113.132L93.4 113.295V116.336Z" fill="white"/>
</g>
<g style="mix-blend-mode:soft-light" opacity="0.36">
<path d="M93.4 120.561L82.4917 120.452V117.389L93.4 117.52V120.561Z" fill="white"/>
</g>
<g style="mix-blend-mode:soft-light" opacity="0.36">
<path d="M93.4 124.786L82.4917 124.709V121.645L93.4 121.745V124.786Z" fill="white"/>
</g>
<path opacity="0.5" d="M135.213 116.875L105.442 116.491V113.475L135.213 113.92V116.875Z" fill="url(#paint5_linear_18_467)"/>
<g style="mix-blend-mode:soft-light" opacity="0.6">
<path d="M150.679 121.133L112.803 120.755V117.754L150.679 118.211V121.133Z" fill="white"/>
</g>
<path d="M150.679 125.192L112.803 124.924V121.923L150.679 122.271V125.192Z" fill="url(#paint6_linear_18_467)"/>
<g style="mix-blend-mode:soft-light" opacity="0.36">
<path d="M93.4 129.011L82.4917 128.965V125.901L93.4 125.97V129.011Z" fill="white"/>
</g>
<g style="mix-blend-mode:soft-light" opacity="0.36">
<path d="M93.4 133.236L82.4917 133.22V130.157L93.4 130.195V133.236Z" fill="white"/>
</g>
<g style="mix-blend-mode:soft-light" opacity="0.36">
<path d="M93.4 137.461L82.4917 137.477V134.414L93.4 134.419V137.461Z" fill="white"/>
</g>
<g style="mix-blend-mode:soft-light" opacity="0.36">
<path d="M93.4 141.685L82.4917 141.733V138.67L93.4 138.644V141.685Z" fill="white"/>
</g>
<g style="mix-blend-mode:soft-light" opacity="0.36">
<path d="M93.4 145.909L82.4917 145.989V142.926L93.4 142.869V145.909Z" fill="white"/>
</g>
<g style="mix-blend-mode:soft-light" opacity="0.36">
<path d="M93.4 150.134L82.4917 150.245V147.182L93.4 147.094V150.134Z" fill="white"/>
</g>
<g style="mix-blend-mode:soft-light" opacity="0.36">
<path d="M93.4 154.359L82.4917 154.502V151.438L93.4 151.319V154.359Z" fill="white"/>
</g>
<g style="mix-blend-mode:soft-light" opacity="0.36">
<path d="M93.4 158.584L82.4917 158.758V155.694L93.4 155.543V158.584Z" fill="white"/>
</g>
<g style="mix-blend-mode:soft-light" opacity="0.36">
<path d="M93.4 162.809L82.4917 163.013V159.95L93.4 159.768V162.809Z" fill="white"/>
</g>
<g style="mix-blend-mode:soft-light" opacity="0.36">
<path d="M93.4 167.033L82.4917 167.27V164.207L93.4 163.993V167.033Z" fill="white"/>
</g>
<g style="mix-blend-mode:soft-light" opacity="0.36">
<path d="M93.4 171.258L82.4917 171.526V168.463L93.4 168.217V171.258Z" fill="white"/>
</g>
<g style="mix-blend-mode:soft-light" opacity="0.36">
<path d="M93.4 175.483L82.4917 175.782V172.719L93.4 172.442V175.483Z" fill="white"/>
</g>
<g style="mix-blend-mode:soft-light" opacity="0.36">
<path d="M93.4 179.708L82.4917 180.038V176.975L93.4 176.667V179.708Z" fill="white"/>
</g>
<g style="mix-blend-mode:soft-light" opacity="0.36">
<path d="M93.4 183.933L82.4917 184.295V181.231L93.4 180.891V183.933Z" fill="white"/>
</g>
<g style="mix-blend-mode:soft-light" opacity="0.36">
<path d="M93.4 188.158L82.4917 188.551V185.487L93.4 185.116V188.158Z" fill="white"/>
</g>
<g style="mix-blend-mode:soft-light" opacity="0.36">
<path d="M93.4 192.382L82.4917 192.807V189.743L93.4 189.341V192.382Z" fill="white"/>
</g>
<g style="mix-blend-mode:soft-light" opacity="0.36">
<path d="M93.4 196.606L82.4917 197.063V194L93.4 193.566V196.606Z" fill="white"/>
</g>
<g style="mix-blend-mode:soft-light" opacity="0.36">
<path d="M93.4 200.831L82.4917 201.319V198.256L93.4 197.791V200.831Z" fill="white"/>
</g>
<path opacity="0.5" d="M125.458 91.9539L95.7065 91.0573V88.0214L125.458 88.9799V91.9539Z" fill="url(#paint7_linear_18_467)"/>
<g style="mix-blend-mode:soft-light" opacity="0.6">
<path d="M147.764 178.059L105.442 179.343V176.327L147.764 175.131V178.059Z" fill="white"/>
</g>
<path opacity="0.5" d="M154.704 181.897L112.803 183.289V180.288L154.704 178.983V181.897Z" fill="url(#paint8_linear_18_467)"/>
<path opacity="0.5" d="M154.704 185.945L112.803 187.457V184.456L154.704 183.032V185.945Z" fill="url(#paint9_linear_18_467)"/>
<path opacity="0.5" d="M172.76 189.29L131.944 190.88V187.919L172.76 186.413V189.29Z" fill="url(#paint10_linear_18_467)"/>
<path d="M172.76 193.286L131.944 194.994V192.033L172.76 190.409V193.286Z" fill="url(#paint11_linear_18_467)"/>
<g style="mix-blend-mode:soft-light" opacity="0.6">
<path d="M172.76 197.282L131.944 199.107V196.147L172.76 194.406V197.282Z" fill="white"/>
</g>
<path opacity="0.5" d="M125.458 174.603L95.7065 175.42V172.384L125.458 171.629V174.603Z" fill="url(#paint12_linear_18_467)"/>
<path opacity="0.5" d="M147.764 133.308L105.442 133.251V130.236L147.764 130.38V133.308Z" fill="url(#paint13_linear_18_467)"/>
<g style="mix-blend-mode:soft-light" opacity="0.6">
<path d="M154.704 137.366L112.803 137.43V134.43L154.704 134.453V137.366Z" fill="white"/>
</g>
<path opacity="0.5" d="M154.704 141.414L112.803 141.599V138.599L154.704 138.5V141.414Z" fill="url(#paint14_linear_18_467)"/>
<path opacity="0.5" d="M154.704 145.463L112.803 145.768V142.768L154.704 142.549V145.463Z" fill="url(#paint15_linear_18_467)"/>
<path opacity="0.5" d="M122.632 149.837L95.7803 150.11V147.074L122.632 146.857V149.837Z" fill="url(#paint16_linear_18_467)"/>
<g style="mix-blend-mode:soft-light" opacity="0.6">
<path d="M135.213 153.814L105.442 154.203V151.186L135.213 150.86V153.814Z" fill="white"/>
</g>
<path d="M150.679 157.672L112.803 158.275V155.274L150.679 154.75V157.672Z" fill="url(#paint17_linear_18_467)"/>
<path opacity="0.5" d="M150.679 161.732L112.803 162.444V159.443L150.679 158.809V161.732Z" fill="url(#paint18_linear_18_467)"/>
<path opacity="0.5" d="M159.076 165.609L121.655 166.421V163.439L159.076 162.704V165.609Z" fill="url(#paint19_linear_18_467)"/>
<path opacity="0.5" d="M159.076 169.645L121.655 170.564V167.581L159.076 166.74V169.645Z" fill="url(#paint20_linear_18_467)"/>
<path d="M125.458 129.146L95.7065 129.02V125.984L125.458 126.172V129.146Z" fill="url(#paint21_linear_18_467)"/>
<g style="mix-blend-mode:soft-light">
<path d="M71.1614 98.3679L44.1318 97.699V93.2739L71.1614 94.0216V98.3679Z" fill="white"/>
</g>
<g style="mix-blend-mode:soft-light" opacity="0.6">
<path d="M37.1406 97.5263L42.2318 97.6521V93.2217L37.1406 93.0808V97.5263Z" fill="white"/>
</g>
<g style="mix-blend-mode:soft-light" opacity="0.6">
<path d="M71.1614 104.614L44.1318 104.06V99.6348L71.1614 100.269V104.614Z" fill="white"/>
</g>
<g style="mix-blend-mode:soft-light" opacity="0.6">
<path d="M37.1406 103.916L42.2318 104.021V99.5904L37.1406 99.4708V103.916Z" fill="white"/>
</g>
<g style="mix-blend-mode:soft-light" opacity="0.6">
<path d="M71.1614 110.862L44.1318 110.421V105.996L71.1614 106.517V110.862Z" fill="white"/>
</g>
<g style="mix-blend-mode:soft-light" opacity="0.6">
<path d="M37.1406 110.306L42.2318 110.39V105.959L37.1406 105.861V110.306Z" fill="white"/>
</g>
<g style="mix-blend-mode:soft-light">
<path d="M71.1615 155.207L23.938 155.841V151.358L71.1615 150.861V155.207Z" fill="white"/>
</g>
<g style="mix-blend-mode:soft-light" opacity="0.6">
<path d="M71.1614 161.997L44.1318 162.484V158.059L71.1614 157.652V161.997Z" fill="white"/>
</g>
<g style="mix-blend-mode:soft-light" opacity="0.6">
<path d="M37.1406 162.61L42.2318 162.517V158.087L37.1406 158.164V162.61Z" fill="white"/>
</g>
<g style="mix-blend-mode:soft-light" opacity="0.6">
<path d="M71.1614 168.245L44.1318 168.845V164.42L71.1614 163.899V168.245Z" fill="white"/>
</g>
<g style="mix-blend-mode:soft-light" opacity="0.6">
<path d="M37.1406 169L42.2318 168.886V164.456L37.1406 164.554V169Z" fill="white"/>
</g>
<g style="mix-blend-mode:soft-light" opacity="0.6">
<path d="M71.1614 174.492L44.1318 175.204V170.78L71.1614 170.146V174.492Z" fill="white"/>
</g>
<g style="mix-blend-mode:soft-light" opacity="0.6">
<path d="M37.1406 175.39L42.2318 175.255V170.825L37.1406 170.944V175.39Z" fill="white"/>
</g>
<g style="mix-blend-mode:soft-light">
<path d="M71.1615 117.152L23.938 116.58V112.096L71.1615 112.806V117.152Z" fill="white"/>
</g>
<g style="mix-blend-mode:soft-light" opacity="0.6">
<path d="M71.1614 123.942L44.1318 123.738V119.313L71.1614 119.596V123.942Z" fill="white"/>
</g>
<g style="mix-blend-mode:soft-light" opacity="0.6">
<path d="M37.1406 123.684L42.2318 123.723V119.293L37.1406 119.24V123.684Z" fill="white"/>
</g>
<g style="mix-blend-mode:soft-light" opacity="0.6">
<path d="M71.1614 130.19L44.1318 130.099V125.673L71.1614 125.844V130.19Z" fill="white"/>
</g>
<g style="mix-blend-mode:soft-light" opacity="0.6">
<path d="M37.1406 130.075L42.2318 130.092V125.662L37.1406 125.63V130.075Z" fill="white"/>
</g>
<g style="mix-blend-mode:soft-light" opacity="0.6">
<path d="M71.1614 142.765L44.1318 142.903V138.477L71.1614 138.419V142.765Z" fill="white"/>
</g>
<g style="mix-blend-mode:soft-light" opacity="0.6">
<path d="M37.1406 142.938L42.2318 142.912V138.482L37.1406 138.493V142.938Z" fill="white"/>
</g>
<g style="mix-blend-mode:soft-light" opacity="0.6">
<path d="M71.1614 149.013L44.1318 149.263V144.838L71.1614 144.666V149.013Z" fill="white"/>
</g>
<g style="mix-blend-mode:soft-light" opacity="0.6">
<path d="M37.1406 149.328L42.2318 149.281V144.851L37.1406 144.883V149.328Z" fill="white"/>
</g>
<g style="mix-blend-mode:soft-light" opacity="0.6">
<path d="M71.1614 136.437L44.1318 136.459V132.034L71.1614 132.091V136.437Z" fill="white"/>
</g>
<g style="mix-blend-mode:soft-light" opacity="0.6">
<path d="M37.1406 136.465L42.2318 136.461V132.031L37.1406 132.02V136.465Z" fill="white"/>
</g>
<g style="mix-blend-mode:soft-light">
<path d="M71.1615 180.737L23.938 182.181V177.697L71.1615 176.392V180.737Z" fill="white"/>
</g>
<g style="mix-blend-mode:soft-light" opacity="0.6">
<path d="M71.1614 187.528L44.1318 188.477V184.052L71.1614 183.182V187.528Z" fill="white"/>
</g>
<g style="mix-blend-mode:soft-light" opacity="0.6">
<path d="M37.1406 188.723L42.2318 188.544V184.113L37.1406 184.278V188.723Z" fill="white"/>
</g>
<g style="mix-blend-mode:soft-light" opacity="0.6">
<path d="M71.1614 193.775L44.1318 194.838V190.413L71.1614 189.43V193.775Z" fill="white"/>
</g>
<g style="mix-blend-mode:soft-light" opacity="0.6">
<path d="M37.1406 195.113L42.2318 194.913V190.482L37.1406 190.667V195.113Z" fill="white"/>
</g>
<g style="mix-blend-mode:soft-light" opacity="0.6">
<path d="M71.1614 200.023L44.1318 201.199V196.774L71.1614 195.676V200.023Z" fill="white"/>
</g>
<g style="mix-blend-mode:soft-light" opacity="0.6">
<path d="M37.1406 201.503L42.2318 201.281V196.851L37.1406 197.057V201.503Z" fill="white"/>
</g>
<g style="mix-blend-mode:soft-light" opacity="0.6">
<path d="M76.8993 199.795L75.8594 199.84V87.3826L76.8993 87.4162V199.795Z" fill="white"/>
</g>
<g style="mix-blend-mode:soft-light" opacity="0.6">
<path d="M205.932 205.023C160.082 205.978 149.77 212.497 136.742 204.685C118.841 193.951 126.993 174.856 109.551 164.841C87.6228 152.249 62.3404 175.31 50.8957 164.067C39.4982 152.871 61.0282 126.519 48.565 97.1444C43.5627 85.3565 35.043 77.7005 29.1628 73.3134L17.2955 72.8014C12.7408 72.6047 9.01514 75.6071 9.01514 79.4953V219.646C9.01514 223.535 12.7408 226.478 17.2955 226.207L227.923 213.697C231.266 213.499 233.973 210.647 233.973 207.34V205.221C227.656 204.999 217.88 204.771 205.932 205.023Z" fill="white"/>
</g>
<path d="M200.191 109.587C211.463 119.769 225.818 122.457 233.048 115.986H233.052L233.08 115.954C233.378 115.69 233.663 115.411 233.932 115.117C234.27 114.745 234.584 114.354 234.874 113.944L243.615 104.141L245.431 102.104L232.346 90.6419C230.319 87.5307 227.892 84.6968 225.127 82.2125C221.872 79.273 218.359 76.9599 214.838 75.3068L201.74 63.8405L191.503 76.5604C191.466 76.602 191.424 76.6401 191.387 76.6809C191.005 77.0978 190.654 77.5419 190.337 78.0097C189.834 78.747 189.412 79.5355 189.077 80.3618C185.801 88.3997 190.137 100.499 200.191 109.587Z" fill="url(#paint22_linear_18_467)"/>
<path style="mix-blend-mode:multiply" opacity="0.3" d="M200.11 109.672C203.156 112.555 206.609 114.988 210.354 116.641C214.198 118.333 219.626 119.874 223.876 119.519C230.946 118.93 234.284 114.469 238.604 109.674C240.269 107.828 242.057 106.083 243.622 104.148C239.517 103.627 234.188 104.965 230.338 106.314C227.011 107.479 223.844 109.377 220.317 109.898C212.542 111.05 204.237 106.244 200.348 99.6577C197.972 95.633 198.918 90.4106 195.867 86.6827C193.894 84.273 190.844 82.9548 189.075 80.3644C189.391 80.8286 188.287 84.1215 188.208 84.8214C188.023 86.4303 188.042 88.056 188.264 89.6602C188.793 93.4112 190.399 96.9504 192.386 100.15C194.543 103.639 197.139 106.838 200.11 109.672Z" fill="url(#paint23_linear_18_467)"/>
<path d="M191.627 55.0123L237.066 65.1374L256.614 107.223L257.869 108.231L257.432 108.77L210.187 98.2545L189.874 54.495L190.311 53.9554L191.627 55.0123Z" fill="url(#paint24_linear_18_467)"/>
<path d="M237.668 64.3949L258 108.169L210.738 97.6378L190.406 53.8641L237.668 64.3949Z" fill="url(#paint25_linear_18_467)"/>
<path d="M239.593 129.919C239.766 129.945 239.943 129.905 240.088 129.806C240.232 129.707 240.334 129.558 240.372 129.387L245.502 106.111C245.522 106.018 245.523 105.923 245.505 105.83C245.486 105.738 245.449 105.65 245.394 105.572L225.888 77.7164C225.783 77.5672 225.624 77.4655 225.444 77.4336C225.264 77.4017 225.079 77.4423 224.929 77.5464C224.779 77.6504 224.677 77.8095 224.645 77.9886C224.613 78.1677 224.654 78.3522 224.758 78.5014L244.092 106.11L239.026 129.093C238.987 129.271 239.02 129.456 239.119 129.609C239.217 129.763 239.372 129.871 239.55 129.91L239.593 129.919Z" fill="url(#paint26_linear_18_467)"/>
<path d="M241.169 128.818L240.756 127.909C240.679 127.74 240.557 127.595 240.404 127.489C240.25 127.383 240.071 127.32 239.885 127.307C239.699 127.294 239.513 127.331 239.346 127.414C239.18 127.497 239.038 127.624 238.938 127.78L238.447 128.646C238.312 128.853 238.294 129.096 238.273 129.342L237.602 136.928C237.588 137.091 238.214 137.282 239.086 137.355C239.958 137.428 240.607 137.355 240.623 137.192L241.294 129.585C241.32 129.323 241.277 129.059 241.169 128.818V128.818Z" fill="url(#paint27_linear_18_467)"/>
<path d="M193.235 165.483C191.064 163.174 197.077 154.498 200.294 150.697C203.106 147.376 205.996 143.964 209.546 144.394C212.66 144.774 215.693 148.046 215.875 151.181C216.359 159.618 196.323 168.766 193.235 165.483Z" fill="url(#paint28_linear_18_467)"/>
<path d="M219.313 254.633C219.722 254.964 219.797 255.791 219.847 256.33C219.869 256.572 219.88 256.692 219.853 256.777C219.655 257.398 218.445 257.465 216.546 257.658C213.546 257.964 212.652 258.198 212.418 257.754C212.198 257.337 212.73 256.655 212.79 256.58C213.112 256.175 213.508 256.028 214.273 255.777C215.689 255.313 216.645 255.059 216.935 254.98C218.743 254.502 219.044 254.416 219.313 254.633Z" fill="url(#paint29_linear_18_467)"/>
<path d="M217.528 251.901L217.229 255.306C217.317 255.471 218.33 255.964 219.137 255.541L219.909 252.194L217.528 251.901Z" fill="#D8DEE8"/>
<path d="M195.517 254.195C196.006 254.734 196.118 255.727 195.695 256.215C195.272 256.703 194.646 256.335 192.86 256.392C190.947 256.449 190.447 256.899 189.148 256.542C188.622 256.397 187.694 256.047 187.712 255.673C187.724 255.407 188.197 255.275 189.774 254.748C192.013 254.001 192.003 253.96 192.478 253.882C193.674 253.681 194.869 253.484 195.517 254.195Z" fill="url(#paint30_linear_18_467)"/>
<path d="M194.291 251.087L193.331 254.267C193.403 254.437 194.379 255.006 195.216 254.645L196.639 251.56L194.291 251.087Z" fill="#D8DEE8"/>
<path d="M202.817 181.472C202.663 193.428 201.786 205.365 200.191 217.217C198.613 228.942 196.335 240.563 193.369 252.017L197.041 253.002C200.147 250.117 204.069 245.577 205.956 239.16C207.13 235.174 206.739 233.132 207.484 228.233C208.669 220.437 211.069 216.348 213.551 210.059C215.78 204.408 218.416 196.113 219.829 185.027L202.817 181.472Z" fill="url(#paint31_linear_18_467)"/>
<path d="M213.868 180.448C214.617 194.034 215.228 207.872 215.7 221.96C216.051 232.529 216.311 242.963 216.48 253.263L220.232 253.725C221.95 250.547 223.265 247.169 224.146 243.668C225.48 238.335 225.173 235.168 225.758 229.642C226.415 223.441 227.37 222.093 229.061 214.273C232.492 198.404 234.208 190.469 230.38 185.534C229.137 183.931 225.241 179.912 213.868 180.448Z" fill="url(#paint32_linear_18_467)"/>
<path d="M232.096 146.301C228.024 145.16 223.841 144.464 219.618 144.225C212.12 143.804 208.371 143.593 205.715 145.371C199.576 149.477 204.329 158.955 201.817 182.452C201.461 185.807 201.378 189.185 201.119 192.552C200.688 198.122 200.59 198.425 200.979 198.989C203.42 202.533 212.526 197.19 225.874 199.3C233.341 200.481 236.727 203.198 238.773 201.24C241.159 198.951 239.113 192.796 237.35 187.498C235.328 181.416 234.079 181.338 232.93 176.758C231.731 171.974 232.456 169.505 232.643 161.956C232.768 156.731 232.586 151.504 232.096 146.301V146.301Z" fill="url(#paint33_linear_18_467)"/>
<g style="mix-blend-mode:multiply" opacity="0.3">
<path style="mix-blend-mode:multiply" opacity="0.3" d="M213.946 190.41C217.435 190.138 219.698 192.103 222.709 190.572C226.838 188.473 228.164 181.942 227.902 177.32C227.502 170.298 223.475 168.447 224.166 163.908C224.541 161.453 226.301 158.193 232.617 154.864C232.7 157.666 232.684 160.055 232.637 161.951C232.45 169.5 231.725 171.962 232.925 176.753C234.073 181.333 235.322 181.411 237.344 187.494C239.106 192.792 241.153 198.947 238.768 201.235C236.721 203.198 233.335 200.477 225.868 199.296C214.368 197.477 206.02 201.186 202.368 199.983C206.786 192.723 210.79 190.656 213.946 190.41Z" fill="url(#paint34_linear_18_467)"/>
</g>
<path d="M227.337 146.781C229.828 144.744 234.838 147.047 236.178 147.667C243.645 151.107 250.35 160.376 248.689 170.169C248.44 171.638 247.285 178.51 241.442 181.84C236.169 184.844 229.049 184.072 223.346 179.816L221.007 177.751L218.706 175.27C220.516 173.769 222.597 172.626 224.837 171.904C228.63 170.685 231.391 172.872 233.151 171.209C234.365 170.062 234.368 168.035 234.068 166.807C233.464 164.331 231.273 163.635 229.442 161.878C225.146 157.759 224.354 149.224 227.337 146.781Z" fill="url(#paint35_linear_18_467)"/>
<path d="M191.533 178.762L224.928 178.265L216.048 182.533L191.448 180.929L191.533 178.762Z" fill="url(#paint36_linear_18_467)"/>
<path d="M226.107 179.149C226.107 179.452 226.013 179.749 225.838 179.998C225.663 180.246 225.415 180.436 225.128 180.54L214.458 184.703L214.409 181.815L224.928 178.263C225.066 178.223 225.211 178.216 225.352 178.242C225.493 178.268 225.625 178.327 225.74 178.413C225.854 178.498 225.947 178.61 226.011 178.737C226.074 178.865 226.107 179.006 226.107 179.149Z" fill="url(#paint37_linear_18_467)"/>
<path d="M220.964 177.18C221.169 177.135 219.966 174.747 219.021 175.023C218.076 175.299 213.455 177.965 213.036 179.063L212.616 180.161C212.616 180.161 214.632 180.318 215.881 179.9C217.131 179.482 219.294 177.551 220.964 177.18Z" fill="white"/>
<path d="M213.522 161.553L215.877 182.897C215.958 183.633 214.923 184.73 214.18 184.696L179.648 182.584C179.373 182.571 179.11 182.465 178.904 182.283C178.697 182.101 178.559 181.855 178.512 181.584L174.178 160.97C174.048 160.219 175.403 159.445 176.166 159.464L212.355 160.475C212.648 160.484 212.927 160.598 213.141 160.796C213.356 160.994 213.491 161.263 213.522 161.553V161.553Z" fill="url(#paint38_linear_18_467)"/>
<path d="M212.733 162.176L215.087 183.519C215.106 183.692 215.088 183.867 215.032 184.033C214.977 184.198 214.886 184.349 214.766 184.476C214.646 184.603 214.5 184.703 214.338 184.768C214.176 184.834 214.001 184.863 213.827 184.855L178.858 183.206C178.583 183.193 178.32 183.087 178.114 182.905C177.907 182.723 177.77 182.477 177.723 182.206L174.15 161.498C174.12 161.322 174.129 161.142 174.177 160.97C174.225 160.798 174.311 160.638 174.428 160.504C174.546 160.369 174.692 160.262 174.856 160.19C175.02 160.118 175.198 160.083 175.377 160.088L211.564 161.102C211.856 161.11 212.136 161.223 212.351 161.421C212.566 161.618 212.701 161.886 212.733 162.176Z" fill="url(#paint39_linear_18_467)"/>
<path style="mix-blend-mode:multiply" opacity="0.3" d="M192.201 178.205C195.254 176.916 194.177 174.459 197.782 171.396C202.538 167.357 207.39 169.109 209.08 165.977C209.608 165.003 209.861 163.485 208.94 161.028L211.561 161.102C211.853 161.11 212.133 161.223 212.348 161.421C212.563 161.618 212.698 161.886 212.73 162.176L215.084 183.519C215.103 183.692 215.084 183.868 215.029 184.033C214.974 184.198 214.883 184.35 214.763 184.477C214.643 184.604 214.497 184.703 214.335 184.769C214.173 184.834 213.998 184.863 213.823 184.855L178.855 183.206C178.58 183.193 178.317 183.087 178.111 182.905C177.904 182.723 177.766 182.477 177.72 182.206L177.226 179.349C178.417 178.682 179.704 178.203 181.042 177.928C186.168 176.892 188.685 179.689 192.201 178.205Z" fill="url(#paint40_linear_18_467)"/>
<path d="M176.656 180.222C176.643 180.182 176.64 180.14 176.646 180.099C176.652 180.058 176.668 180.019 176.692 179.985C176.715 179.95 176.746 179.922 176.783 179.902C176.819 179.881 176.86 179.87 176.901 179.867C177.641 179.83 179.354 179.815 180.3 180.392C181.53 181.141 183.12 182.51 181.781 183.2L180.535 183.845C180.479 183.875 180.414 183.883 180.352 183.87C179.907 183.773 178.039 183.359 177.834 183.257C177.644 183.159 176.932 181.053 176.656 180.222Z" fill="white"/>
<path d="M219.058 136.066C219.038 137.801 219.193 139.533 219.522 141.237C219.789 142.615 219.984 142.971 220.234 143.26C220.605 143.694 221.169 144.057 224.355 144.845C226.088 145.273 226.312 145.262 226.35 145.433C226.536 146.268 221.813 149.116 216.927 148.43C213.938 148.01 211.219 146.313 211.386 145.418C211.552 144.523 214.539 145.002 215.429 143.38C216.052 142.251 215.354 140.648 214.534 139.32C215.326 137.839 218.263 137.548 219.058 136.066Z" fill="white"/>
<path d="M213.512 136.941C212.806 136.008 212.763 134.379 213.576 133.35C214.275 132.464 215.375 132.337 216.034 132.261C217.944 132.042 220.353 132.836 221.194 134.586C221.691 135.622 220.617 137.775 220.449 138.165C220.257 138.602 219.915 138.753 219.593 139.084C219.148 139.543 218.458 140.274 217.326 141.495C217.219 141.053 217.074 140.622 216.892 140.205C216.656 139.663 216.351 139.154 215.986 138.689C214.987 137.481 214.18 137.825 213.512 136.941Z" fill="url(#paint41_linear_18_467)"/>
<path d="M218.938 140.468C218.938 140.468 217.683 142.519 215.184 142.357C212.947 142.212 212.619 137.219 214.048 136.156C214.525 135.801 215.479 135.655 216.256 135.871C216.714 136 216.87 136.189 217.623 136.384C218.318 136.561 218.513 136.487 218.724 136.662C218.991 136.882 219.178 137.421 218.741 138.882C219.168 138.452 219.68 138.286 220.043 138.457C220.167 138.524 220.271 138.624 220.341 138.746C220.651 139.316 220.128 140.045 218.938 140.468Z" fill="white"/>
<path d="M218.823 136.363C218.715 136.443 219.045 136.844 219.069 137.411C219.117 138.512 218.002 139.835 216.856 139.946C216.181 140.013 215.995 139.608 214.879 139.49C214.335 139.434 213.785 139.466 213.25 139.584C212.9 140.792 213.23 141.996 214.04 142.555C214.914 143.157 216.029 142.792 216.495 142.639C216.807 142.537 217.806 142.212 218.328 141.299C218.873 140.349 218.338 139.774 218.962 139.131C219.277 138.807 219.691 138.667 220.094 138.039C220.18 137.904 220.256 137.762 220.321 137.616C219.744 137.006 218.979 136.247 218.823 136.363Z" fill="url(#paint42_linear_18_467)"/>
<path d="M214.063 140.031C214.063 140.031 214.546 140.283 215.381 140.236C215.422 140.236 215.47 140.246 215.47 140.267C215.489 140.346 214.953 140.699 214.459 140.561C214.11 140.463 213.837 140.132 213.884 140.048C213.905 140.011 213.985 140.018 214.063 140.031Z" fill="white"/>
<path d="M39.3511 148.806C38.7578 149.029 29.7088 152.615 27.8486 162.018C27.6983 162.777 26.2473 170.858 31.7477 176.566C37.918 182.968 49.7995 182.809 54.5162 177.458C55.6157 176.21 56.1957 174.826 56.5213 173.665L55.2759 170.377C53.7636 168.554 51.6952 168.122 50.5921 167.852C47.8744 167.185 45.8221 168.39 44.2653 167.084C43.4042 166.362 43.2334 165.323 43.0803 164.395C42.559 161.232 44.3516 159.286 44.4824 157.335C44.5802 155.877 45.0926 152.682 43.1818 150.602C41.9746 149.28 40.2977 148.921 39.3511 148.806Z" fill="url(#paint43_linear_18_467)"/>
<path d="M35.8247 253.624C35.7197 253.044 33.8417 252.521 32.9121 253.296C32.4504 253.681 32.1328 254.462 32.3997 254.814C32.4967 254.943 32.099 255.169 32.4798 255.169C33.7448 255.187 35.9296 254.199 35.8247 253.624Z" fill="url(#paint44_linear_18_467)"/>
<path d="M33.8571 253.835L31.9258 253.563C32.8207 252.49 32.6553 249.074 32.6553 249.074L34.7085 249.531C34.7085 249.531 34.4745 250.468 34.0768 251.851C33.9407 252.325 33.8793 253.066 33.8571 253.835Z" fill="url(#paint45_linear_18_467)"/>
<path d="M34.0286 253.597C34.0286 253.597 31.7032 253.065 31.4487 253.524C31.1943 253.982 31.0039 255.212 32.4762 255.172C33.9485 255.132 34.1594 253.987 34.0286 253.597Z" fill="url(#paint46_linear_18_467)"/>
<path d="M62.3214 255.799C62.1355 255.24 60.2024 254.983 59.3911 255.881C58.9881 256.324 58.7826 257.143 59.0966 257.455C59.2114 257.568 58.8485 257.848 59.2265 257.799C60.4809 257.632 62.5056 256.35 62.3214 255.799Z" fill="url(#paint47_linear_18_467)"/>
<path d="M60.4019 256.278H58.4546C59.1894 255.091 58.5435 251.731 58.5435 251.731L60.6412 251.897C60.6412 251.897 60.5416 252.858 60.3414 254.284C60.272 254.771 60.3165 255.513 60.4019 256.278Z" fill="url(#paint48_linear_18_467)"/>
<path d="M65.4565 182.834C66.8258 187.342 67.8371 191.95 68.4811 196.616C70.8501 213.776 65.8123 214.323 66.7553 233.339C67.056 239.408 61.4746 253.405 60.9836 253.715C60.7271 253.741 60.4691 253.751 60.2114 253.745C59.5449 253.721 58.8844 253.612 58.2463 253.419C57.362 253.267 54.1746 244.67 54.9138 239.559C55.436 235.941 55.2848 232.059 54.9814 224.294C54.9325 223.036 51.6997 199.815 51.6997 199.815C50.7211 208.409 49.586 215.713 48.6057 221.375C45.4547 239.565 35.2136 250.573 34.6799 250.75C34.574 250.792 33.6123 251.14 32.8277 250.624C32.6251 250.496 32.4626 250.314 32.3589 250.099C32.0849 249.884 32.4398 231.937 35.5614 218.429C40.0984 198.823 38.1217 194.236 39.5575 185.478C40.8021 177.903 65.4565 182.834 65.4565 182.834Z" fill="url(#paint49_linear_18_467)"/>
<path d="M66.6706 185.796C63.9476 187.188 56.9357 189.68 48.578 188.442C45.4968 187.982 42.5137 187.015 39.7505 185.581L39.5574 185.484C41.7289 178.946 40.028 175.447 39.2247 172.223C38.0789 167.626 38.0629 167.97 37.119 164.319C35.5649 158.295 35.3105 152.134 36.378 150.876C39.2576 147.478 44.4484 147.355 47.1421 147.274C50.1525 147.185 57.0736 146.129 60.8829 149.543C60.9487 149.602 60.1712 150.017 60.5537 150.467C61.5693 151.662 62.4697 152.949 63.243 154.312C64.0436 155.739 64.7749 157.404 65.5061 159.881C66.4351 163.051 67.0331 166.308 67.2907 169.6C67.3298 170.137 67.3657 170.656 67.3983 171.158C67.9045 179.215 67.2613 183.103 66.6706 185.796Z" fill="url(#paint50_linear_18_467)"/>
<path d="M60.5378 256.019C60.5378 256.019 58.1617 255.815 57.9767 256.305C57.7917 256.795 57.7721 258.039 59.2221 257.794C60.6721 257.55 60.7229 256.387 60.5378 256.019Z" fill="url(#paint51_linear_18_467)"/>
<path d="M55.8065 143.443C56.6267 141.812 56.0867 140.052 55.9657 139.672C55.4613 138.077 55.2985 137.845 54.972 137.523L54.5148 137.104L54.4569 137.069C54.1465 136.886 53.0158 136.634 52.7756 136.638C52.0087 136.653 50.6468 139.489 50.0516 143.754C49.9894 143.909 49.9289 144.066 49.8684 144.223C49.4938 145.208 49.1816 146.172 48.9201 147.109C43.7897 147.906 43.1154 148.555 43.1172 148.905C43.1172 149.642 46.1205 150.285 48.3543 150.453C53.2275 150.821 58.0972 149.213 58.0109 148.314C57.9744 147.925 56.9798 147.483 52.8512 147.235C52.9004 146.554 52.9488 145.874 52.9962 145.193C53.3254 145.097 55.2015 144.644 55.8065 143.443Z" fill="url(#paint52_linear_18_467)"/>
<path d="M56.2725 136.202C56.0145 137.509 55.1249 138.787 54.7655 138.948C54.5518 139.058 54.3574 139.202 54.1899 139.374C54.1489 139.416 54.1136 139.463 54.0849 139.514C53.6401 140.283 54.7655 141.506 54.4408 141.826C54.205 142.059 53.3795 141.529 53.2282 141.738C53.077 141.947 53.7415 142.53 53.5779 142.768C53.4533 142.945 53.0307 142.679 52.6883 142.927C52.5157 143.049 52.5344 143.176 52.2933 143.606C52.1681 143.833 52.0222 144.049 51.8574 144.249C51.2542 144.93 49.9145 144.963 49.7268 144.609C49.6743 144.51 49.7472 144.449 49.733 144.148C49.7151 143.936 49.6681 143.727 49.5933 143.528C49.4154 143.037 48.8309 142.599 48.274 142.01C47.2412 140.919 47.0571 140.123 47.0073 139.856C46.9895 139.761 46.9806 139.69 46.9743 139.64C46.8498 138.616 47.1229 137.199 47.7269 136.412C48.7384 135.093 50.249 136.102 51.876 134.915C53.7522 133.547 53.2692 131.089 54.1605 131C55.1382 130.899 56.7493 133.781 56.2725 136.202Z" fill="#26264F"/>
<path d="M54.0271 141.428C53.7904 140.926 53.1446 141.231 53.0307 141.8C52.9169 142.37 53.3572 143.069 53.9203 143.059C54.4834 143.05 54.3455 142.103 54.0271 141.428Z" fill="url(#paint53_linear_18_467)"/>
<path d="M40.5186 181.433H40.4999C40.4541 181.428 40.4123 181.404 40.3834 181.369C40.3546 181.333 40.3408 181.287 40.3451 181.241C40.7009 178.069 40.0382 175.761 39.4555 173.725C39.3123 173.226 39.1735 172.743 39.0552 172.265C38.4067 169.661 38.1229 168.655 37.8222 167.589C37.6238 166.89 37.4228 166.172 37.1105 164.969C37.0996 164.924 37.1066 164.877 37.13 164.837C37.1534 164.798 37.1914 164.768 37.2359 164.756C37.2582 164.75 37.2815 164.748 37.3044 164.751C37.3272 164.754 37.3493 164.762 37.3692 164.774C37.3891 164.785 37.4065 164.801 37.4203 164.819C37.434 164.838 37.444 164.859 37.4494 164.881C37.7635 166.082 37.9654 166.797 38.1611 167.495C38.4627 168.563 38.7474 169.572 39.3959 172.181C39.5142 172.655 39.6521 173.135 39.7935 173.629C40.3851 175.696 41.0559 178.039 40.6947 181.279C40.6891 181.322 40.6681 181.361 40.6357 181.389C40.6033 181.418 40.5617 181.433 40.5186 181.433Z" fill="url(#paint54_linear_18_467)"/>
<path style="mix-blend-mode:multiply" opacity="0.3" d="M66.6706 185.796C63.9476 187.187 56.9357 189.68 48.578 188.442C45.4968 187.981 42.5137 187.015 39.7505 185.581C40.7202 184.83 41.9149 183.572 43.8898 181.433C46.2828 178.845 49.0868 179.81 50.7397 180.786C51.3234 181.129 51.9868 181.314 52.6644 181.324C53.3421 181.333 54.0105 181.166 54.6035 180.839C55.1965 180.513 55.6937 180.038 56.0457 179.461C56.3978 178.884 56.5927 178.226 56.611 177.551C56.6267 176.829 56.597 176.107 56.5221 175.389C55.9572 169.501 64.1477 169.001 64.1477 169.001C65.3042 168.403 66.4002 169.368 67.3992 171.16C67.9045 179.215 67.2613 183.103 66.6706 185.796Z" fill="url(#paint55_linear_18_467)"/>
<path d="M95.3044 159.568C94.9752 159.599 94.5758 159.932 94.2956 160.09C93.897 160.315 93.4949 160.533 93.0901 160.748C92.3055 161.154 91.4746 161.456 90.5779 161.439C90.6052 161.31 90.6455 161.184 90.698 161.063C90.8492 160.709 91.0538 160.403 90.9302 160.297C90.7594 160.142 90.0059 160.46 89.3111 161.124C89.0113 161.406 88.7526 161.729 88.5425 162.083C88.1867 162.685 88.2471 163.014 87.9509 163.473C87.5061 163.867 87.1787 163.953 87.1787 163.953V164.079L87.2285 164.233C86.8675 164.493 86.466 164.694 86.04 164.825C86.6539 164.989 87.2535 165.157 87.8646 165.324L88.289 166.033C88.289 166.033 90.6019 165.55 91.9995 164.704C92.6525 164.308 92.8775 163.818 92.9327 163.413C92.9616 163.196 92.9492 162.976 92.8962 162.763C92.8669 162.657 92.8411 162.592 92.8411 162.592C92.8411 162.592 94.7475 161.804 95.501 160.098C95.6148 159.839 95.6255 159.537 95.3044 159.568Z" fill="url(#paint56_linear_18_467)"/>
<path d="M87.2277 163.244C88.3166 164.002 88.9001 165.033 89.2026 165.69C88.402 167.561 86.5872 171.035 82.8304 173.594C76.6699 177.791 67.6378 177.935 61.3457 173.151C53.8294 167.432 52.5733 156.466 55.7305 151.77C56.0943 151.228 57.2891 149.451 59.1439 149.247C60.3155 149.118 61.9097 149.602 64.429 152.537C69.6777 158.657 67.8237 162.478 70.9231 164.269C75.5757 166.95 82.4861 159.944 87.2277 163.244Z" fill="url(#paint57_linear_18_467)"/>
<path d="M165.317 45.8033C163.388 45.2425 160.809 48.7711 158.665 51.7035C155.463 56.0914 151.711 61.2181 152.72 67.3743C153.714 73.4313 158.928 78.1488 160.413 77.4737C161.684 76.897 159.241 72.8227 161.113 67.3743C162.626 62.9784 165.126 62.9767 166.807 58.6667C168.888 53.3176 167.691 46.4943 165.317 45.8033Z" fill="url(#paint58_linear_18_467)"/>
<path d="M164.362 73.7015C154.424 76.1041 147.879 79.9614 144.056 82.6891C141.984 84.1677 141.032 85.0899 140.51 86.4339C137.567 94.0943 152.691 105.676 154.299 106.889C155.004 105.254 155.708 103.62 156.411 101.984C154.848 93.4423 152.247 90.7624 150.069 89.9651C149.461 89.7419 148.437 89.5027 148.458 89.2165C148.504 88.537 154.249 89.5044 159.739 87.504C165.214 85.5099 170.713 80.4628 169.731 77.1256C169.556 76.5161 168.804 74.7558 164.362 73.7015Z" fill="url(#paint59_linear_18_467)"/>
<path d="M154.726 129.69C154.726 129.69 155.651 130.019 155.655 130.747C155.658 131.475 154.718 134.685 153.698 135.825C152.677 136.965 152.585 135.264 152.648 134.168C152.711 133.073 152.979 130.619 153.232 130.145C153.484 129.67 154.726 129.69 154.726 129.69Z" fill="url(#paint60_linear_18_467)"/>
<path style="mix-blend-mode:multiply" opacity="0.3" d="M151.756 84.9004C149.951 84.8649 145.72 84.5301 144.593 86.6128C143.653 88.3501 145.3 90.9839 146.312 92.6042C149.065 97.009 151.739 97.459 153.618 100.165C154.347 101.213 155.006 102.676 155.22 104.766L156.417 101.984C154.854 93.4423 152.253 90.7624 150.075 89.9651C149.467 89.7419 148.444 89.5027 148.464 89.2165C148.51 88.537 154.255 89.5044 159.745 87.5041C164.735 85.6862 169.73 81.3346 169.833 78.0514C161.929 83.6955 155.981 84.9828 151.756 84.9004Z" fill="url(#paint61_linear_18_467)"/>
<path d="M155.261 126.595C155.206 127.717 155.11 128.656 155.024 129.353C154.834 130.895 154.657 131.505 154.417 132.061C154.207 132.545 153.683 133.602 153.433 133.529C153.183 133.455 153.441 132.288 153.639 129.028C153.667 128.556 153.755 127.052 153.755 127.052L155.261 126.595Z" fill="url(#paint62_linear_18_467)"/>
<path d="M170.093 74.3438C165.676 76.9814 161.75 80.3598 158.489 84.3298C155.938 87.4464 152.057 92.186 150.652 99.2538C149.903 103.021 150.272 106.4 151.039 113.005C151.645 118.235 152.55 123.426 153.75 128.553L155.07 129.084C156.25 126.927 157.792 123.511 158.346 119.142C159.25 111.997 156.567 109.725 157.855 104.658C158.97 100.267 162.205 97.5706 168.673 92.1914C173.988 87.768 178.888 85.1431 180.708 79.6256C181.016 78.6892 181.279 77.5393 180.775 76.4868C179.69 74.2154 175.538 73.4243 170.093 74.3438Z" fill="url(#paint63_linear_18_467)"/>
<path d="M174.664 46.2126C173.177 45.8945 170.733 45.9574 168.403 44.1298C167.702 43.5796 165.216 41.6315 165.518 38.8427C165.785 36.3878 168.12 35.0687 168.406 34.9119C170.061 34.0056 171.71 34.2032 173.539 34.4557C175.909 34.779 176.697 35.424 178.342 35.866C182.419 36.9601 183.797 34.6763 187.901 34.8694C193.15 35.1157 193.6 38.9729 198.013 39.0695C202.968 39.1776 203.917 34.3485 208.809 33.5308C215.599 32.395 225.872 39.6737 225.666 48.065C225.545 52.9118 221.922 58.4656 217.294 60.1337C214.595 61.1082 211.684 60.7964 210.853 62.5443C210.261 63.7846 211.591 64.7449 211.466 66.9118C211.304 69.7051 208.886 71.6647 208.499 71.981C204.879 74.9195 196.764 73.4348 191.223 69.2781C181.232 61.7851 182.744 47.9436 174.664 46.2126Z" fill="url(#paint64_linear_18_467)"/>
<path d="M186.142 45.2186C182.305 44.7476 178.444 44.4853 174.578 44.4328C165.462 44.3097 164.157 45.4614 163.822 46.3136C163.2 47.902 164.267 48.6976 163.661 51.4678C163.299 53.1236 163.641 53.8784 162.942 55.6582C162.259 57.3919 162.794 58.3239 163.397 62.3911C164.168 67.5914 164.524 70.2341 163.064 72.3302C162.049 73.7866 160.913 73.9097 161.018 74.6016C161.248 76.0749 166.365 75.2625 172.845 78.0921C174.72 78.9107 176.447 79.9206 177.894 80.7667C181.284 82.7494 181.912 83.5068 183.481 84.4051C188.446 87.24 195.903 87.5182 199.812 84.0835C201.269 82.8034 202.331 80.9208 201.854 80.2316C201.202 79.2943 198.295 81.4249 195.622 80.1253C193.853 79.2642 194.189 77.8706 192.144 76.2273C189.682 74.2526 187.971 75.2873 186.295 74.0019C183.682 71.9971 184.872 67.1963 185.604 59.1478C186.025 54.5171 186.205 49.8678 186.142 45.2186V45.2186Z" fill="url(#paint65_linear_18_467)"/>
<path d="M176.277 43.3467C177.522 44.1148 179.53 45.1186 179.752 45.3914C179.973 45.6643 173.663 46.7389 169.737 44.766C169.737 44.766 169.128 44.4293 171.495 43.958C172 43.857 171.901 42.8807 171.833 41.8699L172.307 40.9946C172.307 40.9946 175.034 42.5778 176.277 43.3467Z" fill="url(#paint66_linear_18_467)"/>
<path d="M173.141 40.4002C173.141 40.4002 173.629 42.46 171.807 43.4788C170.175 44.3904 167.415 40.6527 167.93 39.2636C168.102 38.8002 168.716 38.2005 169.358 38.0038C169.81 37.8629 171.519 37.9152 172.251 39.3504C172.443 38.9314 172.784 38.7116 173.017 38.7807C173.309 38.8693 173.352 39.4009 173.362 39.5187C173.382 39.8283 173.305 40.1365 173.141 40.4002Z" fill="url(#paint67_linear_18_467)"/>
<path style="mix-blend-mode:multiply" opacity="0.3" d="M170.315 73.4287C172.192 74.2039 172.45 75.8783 175.042 76.828C177.518 77.7342 178.348 76.5985 180.818 77.3515C184.527 78.4811 185.946 82.0468 186.511 81.7093C187.026 81.401 186.532 77.9885 184.148 75.7826C181.41 73.2453 178.46 74.4068 176.709 71.7729C176.027 70.748 175.502 69.1152 176.096 67.851C176.902 66.143 179.007 66.7357 180.122 65.3235C182.126 62.7863 177.437 58.2097 178.722 54.3382C179.234 52.795 180.868 50.8593 186.135 49.5641C186.063 53.4417 185.839 56.6824 185.615 59.1434C184.881 67.1919 183.692 71.9891 186.306 73.9975C187.981 75.2829 189.693 74.2482 192.154 76.2229C194.2 77.8645 193.863 79.258 195.632 80.1209C198.301 81.4205 201.213 79.2899 201.864 80.2272C202.342 80.9164 201.28 82.7963 199.822 84.0791C195.914 87.5138 188.456 87.24 183.491 84.4007C181.922 83.5024 181.295 82.7449 177.904 80.7623C176.457 79.9162 174.73 78.9019 172.855 78.0877C168.307 76.1015 164.434 75.9093 162.447 75.4628C166.388 72.8431 168.791 72.7997 170.315 73.4287Z" fill="url(#paint68_linear_18_467)"/>
<path d="M152.197 76.059L176.012 77.2106C176.174 77.2186 176.331 77.2654 176.471 77.347C176.61 77.4286 176.727 77.5426 176.813 77.6793L177.471 78.7326C177.546 78.8513 177.586 78.9879 177.588 79.1278C177.59 79.2676 177.554 79.4054 177.484 79.5264C177.413 79.6473 177.311 79.7469 177.188 79.8143C177.065 79.8817 176.926 79.9145 176.785 79.9091L151.559 78.9523L152.197 76.059Z" fill="url(#paint69_linear_18_467)"/>
<path d="M130.334 62.9563L154.938 63.4311C155.296 63.4379 155.646 63.5372 155.953 63.7194C156.261 63.9016 156.516 64.1604 156.692 64.4703L165.213 79.3978L139.23 78.3675C138.879 78.3536 138.537 78.2528 138.235 78.0741C137.933 77.8955 137.68 77.6446 137.5 77.3443L129.606 64.2116C129.529 64.0848 129.489 63.9398 129.487 63.7919C129.486 63.644 129.525 63.4985 129.599 63.3704C129.673 63.2424 129.781 63.1365 129.91 63.0636C130.039 62.9908 130.186 62.9538 130.334 62.9563Z" fill="url(#paint70_linear_18_467)"/>
<path style="mix-blend-mode:multiply" opacity="0.3" d="M156.693 64.4703C156.516 64.1604 156.261 63.9016 155.954 63.7194C155.646 63.5372 155.296 63.4379 154.938 63.4312L154.399 63.4205C154.319 64.2116 154.075 64.9346 153.589 65.5193C152.072 67.3424 149.552 66.2182 147.673 68.1477C145.609 70.2677 147.515 72.7917 145.67 74.7646C143.728 76.8411 140.588 75.1508 136.977 76.4797L137.497 77.3443C137.678 77.6447 137.93 77.8955 138.232 78.0742C138.535 78.2528 138.877 78.3537 139.228 78.3676L165.213 79.3979L156.693 64.4703Z" fill="url(#paint71_linear_18_467)"/>
<path d="M172.112 76.0713L171.306 73.9539C174.272 73.1442 178.374 71.9474 182.581 70.4502C183.621 70.0807 184.005 69.6023 184.28 69.2347C186.437 66.3856 180.947 61.3598 181.046 54.8378C181.114 50.3196 183.866 45.1459 186.295 45.0874C191.224 44.9678 202.093 65.7974 192.939 74.6875C188.392 79.1002 179.904 79.6123 172.112 76.0713Z" fill="url(#paint72_linear_18_467)"/>
<path d="M171.306 73.9539C169.444 72.9688 167.214 73.9787 167.071 74.0425C166.471 74.3264 165.928 74.7149 165.465 75.1898C165.397 75.2784 164.589 76.3964 164.884 76.7534C165.119 77.0396 166.033 76.803 167.131 76.1226C167.782 76.031 168.442 76.015 169.097 76.0748C170.604 76.213 171.294 76.687 171.841 76.2777C172.242 75.9782 172.375 75.3448 172.234 74.8744C172.08 74.3721 171.621 74.1205 171.306 73.9539Z" fill="url(#paint73_linear_18_467)"/>
<path d="M95.066 252.05C93.607 244.874 94.2351 239.101 94.8979 235.617C95.6985 231.389 97.3363 222.797 104.196 218.006C104.736 217.629 110.102 213.953 112.512 215.779C113.757 216.721 114.039 218.994 113.496 220.789C112.092 225.422 105.766 224.908 103.664 230.18C102.964 231.936 102.834 234.078 103.322 234.281C103.923 234.529 105.635 231.909 105.801 231.659C107.329 229.323 107.343 228 108.508 227.642C109.22 227.422 110.167 227.628 110.589 228.191C111.549 229.473 109.652 232.392 109.121 233.209C107.734 235.344 106.575 235.828 106.293 237.646C106.172 238.429 106.193 239.586 106.659 239.766C107.29 240.01 108.494 238.375 109.266 237.326C111.341 234.506 111.562 232.866 112.594 232.748C113.556 232.639 114.64 233.92 114.92 234.697C115.681 236.834 112.624 241.37 95.066 252.05Z" fill="url(#paint74_linear_18_467)"/>
<g style="mix-blend-mode:soft-light" opacity="0.28">
<path d="M95.2841 250.819C95.0661 244.147 96.1506 238.859 97.1327 235.387C98.395 230.927 100.77 222.535 107.433 218.904C107.907 218.646 111.39 216.748 112.364 217.765C113.013 218.442 112.437 220.303 111.484 221.534C109.855 223.636 107.98 222.803 105.321 224.866C102.935 226.718 102.097 229.212 101.887 229.864C101.109 232.285 101.513 234.36 101.62 235.124C102.045 238.029 101.188 242.786 95.2841 250.819Z" fill="white"/>
</g>
<g style="mix-blend-mode:soft-light" opacity="0.28">
<path d="M97.6626 249.155C101.399 245.823 102.263 243.093 102.329 241.177C102.38 239.684 101.973 237.913 103.121 236.267C103.854 235.214 104.407 235.381 105.674 234.251C108.322 231.883 108.65 228.691 109.196 228.815C109.5 228.883 109.657 229.93 109.463 230.919C109.057 232.956 107.454 233.173 105.854 235.653C104.761 237.348 104.381 238.995 104.181 239.862C103.693 241.977 104.025 242.719 103.741 243.895C103.369 245.417 102.039 247.383 97.6626 249.155Z" fill="white"/>
</g>
<path d="M97.3107 253.21C103.788 253.579 105.713 253.966 108.765 252.931C111.633 251.956 114.575 250.04 114.317 249.16C114.131 248.53 112.331 248.54 111.255 248.54C108.369 248.554 105.99 249.434 104.316 250.285C105.757 249.312 107.198 248.337 108.638 247.361C110.241 246.799 111.685 245.865 112.853 244.636C113.797 243.63 115.967 240.905 115.15 239.597C114.299 238.23 110.257 238.506 107.922 240.445C106.803 241.375 106.801 242.087 105.302 243.712C104.209 244.89 102.942 245.895 101.543 246.691C102.857 245.061 103.923 243.248 104.709 241.309C106.197 237.621 107.32 231.785 105.427 230.725C104.172 230.021 101.683 231.471 100.438 233.189C99.4279 234.583 99.5267 235.751 98.8363 240.228C98.5348 242.177 98.2385 243.741 98.0464 244.713C96.1204 240.506 95.5608 236.966 95.4487 234.364C95.3037 231.02 95.8588 228.401 94.5752 227.704C93.4302 227.084 91.3868 228.295 90.3504 229.432C86.1551 234.034 91.6902 244.834 92.2755 245.949C90.1332 244.338 88.2117 242.454 86.5598 240.346C84.3625 237.539 83.4347 235.449 82.3182 235.636C81.2018 235.823 80.475 238.178 80.5577 240C80.7908 245.082 87.4548 248.066 88.1656 248.374C87.2934 248.516 86.4029 248.506 85.5341 248.344C83.0495 247.872 82.2746 246.372 79.7517 245.864C78.7883 245.67 76.816 245.468 76.5741 246.062C76.1373 247.125 81.1164 251.137 87.1603 252.664C89.3728 253.23 88.8426 252.727 97.3107 253.21Z" fill="url(#paint75_linear_18_467)"/>
<g style="mix-blend-mode:soft-light" opacity="0.28">
<path d="M101.586 249.534C104.534 248.228 104.134 246.453 107.359 244.255C109.425 242.847 109.905 243.36 112.119 242.015C113.228 241.339 114.245 240.523 115.143 239.586C115.148 239.592 115.152 239.597 115.156 239.603C115.971 240.912 113.803 243.636 112.859 244.642C111.691 245.871 110.246 246.806 108.644 247.367C107.203 248.341 105.763 249.315 104.322 250.291C105.993 249.44 108.373 248.56 111.261 248.546C112.199 248.542 113.687 248.535 114.176 248.952C113.477 249.393 112.705 249.705 111.895 249.874C110.449 250.168 109.541 249.838 108.289 250.59C107.285 251.193 107.369 251.705 106.485 252.031C105.653 252.338 105.228 252.014 103.175 251.676C101.177 251.35 100.162 251.197 99.3555 251.702C98.7452 252.084 98.4214 252.713 98.2426 253.267L97.6074 253.229C97.784 252.487 98.1322 251.797 98.6242 251.214C99.5085 250.18 100.482 250.022 101.586 249.534Z" fill="white"/>
</g>
<g style="mix-blend-mode:soft-light" opacity="0.28">
<path d="M93.1826 251.791C92.7164 251.679 92.494 252.011 91.8482 252.095C90.6464 252.25 90.1953 251.263 88.7818 250.793C87.1093 250.237 86.685 251.271 85.0188 250.757C83.6995 250.349 83.8694 249.672 82.1463 248.684C80.3119 247.631 79.5353 248.064 78.1876 247.195C77.6418 246.838 77.1678 246.383 76.79 245.853C77.3825 245.533 78.9331 245.704 79.7533 245.869C82.2744 246.379 83.0448 247.878 85.5356 248.35C86.4044 248.512 87.2949 248.522 88.1671 248.379C87.4554 248.072 80.7923 245.087 80.5592 240.005C80.4827 238.315 81.1072 236.168 82.0849 235.717C81.9865 236.702 81.9481 237.693 81.9701 238.683C82.012 240.519 82.0449 241.453 82.6276 242.218C83.6399 243.547 84.8729 242.855 86.5551 244.236C88.0861 245.494 87.5532 246.47 89.1501 247.729C90.5289 248.816 91.3456 248.42 92.6426 249.301C93.4566 249.854 94.4449 250.901 95.0383 253.092C94.7678 253.08 94.5093 253.069 94.2626 253.059C94.025 252.438 93.6825 251.91 93.1826 251.791Z" fill="white"/>
</g>
<g style="mix-blend-mode:soft-light" opacity="0.28">
<path d="M94.6372 244.865C93.8303 242.676 92.4292 242.901 91.8447 240.974C91.2603 239.046 92.5351 238.461 92.2112 235.686C91.9684 233.607 91.1802 233.302 91.1277 231.877C91.0886 230.829 91.4595 229.402 93.1738 227.633C93.6933 227.496 94.1844 227.496 94.5723 227.706C95.8559 228.403 95.3008 231.023 95.4458 234.366C95.5579 236.968 96.1175 240.508 98.0435 244.716C98.2356 243.741 98.5319 242.177 98.8335 240.23C99.5282 235.754 99.4295 234.585 100.435 233.192C101.68 231.473 104.171 230.024 105.425 230.727C105.496 230.767 105.564 230.815 105.626 230.869C104.979 231.304 104.407 231.843 103.936 232.464C102.28 234.661 103.225 236.236 101.721 240.57C100.277 244.739 98.8121 244.999 97.6503 248.598C97.1755 250.083 96.9088 251.626 96.8576 253.184C96.4333 253.161 96.0339 253.14 95.6558 253.121C95.2772 251.896 95.0332 250.634 94.9281 249.356C94.7422 246.985 95.1825 246.344 94.6372 244.865Z" fill="white"/>
</g>
<path d="M110.813 10.7328C120.154 11.0181 127.996 16.6968 129.525 23.8851L129.531 23.9134C129.614 24.3067 129.678 24.7054 129.721 25.1067C129.721 25.1333 129.727 25.1599 129.73 25.1865C129.75 25.3743 129.765 25.563 129.775 25.7526L129.781 25.8553C129.79 26.0493 129.796 26.2433 129.796 26.4382C129.796 34.7915 121.234 41.1222 110.813 40.5854C110.536 40.57 110.261 40.5505 109.986 40.5269L109.905 40.5207C109.647 40.4971 109.389 40.4693 109.132 40.4374L109.012 40.4232C108.764 40.3913 108.518 40.3556 108.273 40.316L108.134 40.2939C107.897 40.2543 107.658 40.2109 107.417 40.1637L107.273 40.1344C107.036 40.0854 106.801 40.0337 106.569 39.9794L106.435 39.9466C106.204 39.8899 105.974 39.8314 105.746 39.7694L105.625 39.734C105.419 39.6764 105.216 39.6162 105.014 39.5524L104.86 39.5054C104.656 39.4393 104.453 39.3705 104.252 39.299L104.12 39.2547C97.1928 36.7662 92.3223 31.1655 92.3223 24.903C92.324 16.7632 100.542 10.4192 110.813 10.7328Z" fill="url(#paint76_linear_18_467)"/>
<path d="M90.3467 24.8994C90.3467 33.0365 98.5648 40.0556 108.836 40.5854C119.258 41.1222 127.818 34.7915 127.818 26.4382C127.818 18.085 119.258 11.0518 108.836 10.7328C98.5648 10.4192 90.3467 16.7632 90.3467 24.8994Z" fill="url(#paint77_linear_18_467)"/>
<g style="mix-blend-mode:multiply" opacity="0.3">
<path style="mix-blend-mode:multiply" opacity="0.3" d="M104.302 36.5615C106.551 32.2701 104.278 28.0567 107.32 25.3441C110.424 22.5738 114.478 25.4327 118.867 23.2383C120.572 22.386 122.471 20.6993 123.886 17.1255C126.35 19.754 127.818 22.9876 127.818 26.4382C127.818 34.7914 119.258 41.1221 108.836 40.5853C106.551 40.4717 104.296 40.0239 102.143 39.2564C103.027 38.5025 103.76 37.588 104.302 36.5615V36.5615Z" fill="url(#paint78_linear_18_467)"/>
</g>
<path d="M99.4374 21.6136C98.6362 21.6136 98.0165 21.9225 97.5782 22.5402C97.1399 23.158 96.9214 24.0221 96.9225 25.1324C96.9225 27.4423 97.7608 28.6108 99.4374 28.6379C100.145 28.6498 101.005 28.4802 102.017 28.1294V29.9898C101.134 30.3398 100.188 30.5036 99.2382 30.4709C97.7792 30.4419 96.6672 29.9639 95.9022 29.0366C95.1371 28.1093 94.7552 26.7964 94.7564 25.0978C94.7564 24.0259 94.9438 23.0874 95.3186 22.2824C95.6584 21.5136 96.2237 20.865 96.9403 20.422C97.6479 19.9909 98.4802 19.775 99.4374 19.7744C100.417 19.7744 101.404 20.0201 102.4 20.5115L101.704 22.3108C101.333 22.1268 100.951 21.9632 100.562 21.8209C100.202 21.6873 99.8215 21.6172 99.4374 21.6136V21.6136Z" fill="white"/>
<path d="M111.035 27.6067C111.035 28.567 110.695 29.3168 110.014 29.856C109.333 30.3952 108.392 30.6524 107.191 30.6276C106.089 30.6058 105.117 30.3758 104.274 29.9375V27.8698C104.842 28.1479 105.431 28.3808 106.035 28.5661C106.466 28.6955 106.912 28.7681 107.361 28.7823C107.843 28.79 108.214 28.7014 108.472 28.5165C108.731 28.3317 108.86 28.0538 108.86 27.6829C108.863 27.4842 108.803 27.2898 108.689 27.1265C108.552 26.9406 108.382 26.7804 108.188 26.6535C107.755 26.3836 107.306 26.1395 106.844 25.9226C106.213 25.6125 105.738 25.3172 105.421 25.0367C105.111 24.7618 104.856 24.4312 104.669 24.0622C104.475 23.6584 104.379 23.2146 104.389 22.767C104.389 21.8385 104.697 21.1089 105.313 20.5779C105.928 20.0469 106.785 19.7812 107.882 19.7806C108.404 19.7782 108.925 19.8438 109.431 19.9755C109.961 20.1197 110.479 20.3048 110.98 20.5292L110.268 22.2735C109.819 22.0777 109.357 21.9137 108.885 21.7827C108.537 21.6918 108.178 21.6442 107.818 21.641C107.403 21.641 107.084 21.7387 106.861 21.9342C106.69 22.0964 106.577 22.3108 106.541 22.5436C106.506 22.7765 106.548 23.0146 106.663 23.2206C106.775 23.3906 106.921 23.5364 107.091 23.6493C107.287 23.7875 107.752 24.038 108.486 24.4006C109.46 24.8825 110.129 25.3639 110.493 25.8446C110.856 26.3254 111.037 26.9127 111.035 27.6067Z" fill="white"/>
<path d="M120.015 27.7352C120.015 28.7097 119.663 29.4715 118.96 30.0208C118.256 30.5701 117.285 30.8308 116.045 30.8031C114.906 30.7812 113.902 30.5473 113.033 30.1014V28C113.62 28.2836 114.228 28.5205 114.852 28.7088C115.297 28.8403 115.757 28.9144 116.221 28.9294C116.719 28.9376 117.101 28.849 117.368 28.6636C117.635 28.4781 117.769 28.1958 117.769 27.8167C117.771 27.6143 117.709 27.4164 117.591 27.2514C117.448 27.0619 117.272 26.8991 117.072 26.7704C116.845 26.6162 116.382 26.3682 115.685 26.0271C115.033 25.7123 114.545 25.412 114.221 25.1261C113.901 24.8469 113.638 24.5099 113.444 24.133C113.243 23.7235 113.144 23.2722 113.154 22.8166C113.154 21.8716 113.472 21.1304 114.108 20.5929C114.744 20.0555 115.628 19.785 116.761 19.7815C117.301 19.7787 117.839 19.8454 118.362 19.9799C118.909 20.1264 119.445 20.3145 119.963 20.5425L119.222 22.3187C118.76 22.1194 118.284 21.9527 117.799 21.8199C117.438 21.7271 117.067 21.6786 116.694 21.6755C116.263 21.6755 115.934 21.7747 115.706 21.9732C115.528 22.136 115.411 22.354 115.374 22.5914C115.337 22.8289 115.382 23.0719 115.501 23.2808C115.618 23.4543 115.769 23.6022 115.946 23.7158C116.147 23.8563 116.628 24.1112 117.386 24.4803C118.394 24.9699 119.085 25.459 119.459 25.9474C119.832 26.4358 120.018 27.0317 120.015 27.7352Z" fill="white"/>
<path d="M69.9465 34.8296C80.3388 35.1468 89.0667 41.4651 90.7632 49.4639C90.7632 49.4737 90.7632 49.4843 90.7694 49.4949C90.8607 49.9326 90.9313 50.3755 90.9811 50.8238C90.9811 50.853 90.9882 50.8823 90.9909 50.9124C91.0123 51.1215 91.0292 51.3314 91.0416 51.5423L91.047 51.6566C91.0567 51.8718 91.0639 52.088 91.0639 52.305C91.0639 61.6 81.538 68.6439 69.9421 68.0459C69.6334 68.0299 69.3274 68.0078 69.0222 67.9812L68.9333 67.9741C68.645 67.9484 68.3577 67.9165 68.073 67.8855L67.9396 67.8696C67.6629 67.8341 67.3889 67.7943 67.1158 67.7509L66.9619 67.7252C66.695 67.6809 66.4282 67.6366 66.1613 67.5808L66.0012 67.548C65.7343 67.4939 65.4772 67.4372 65.2183 67.3708L65.068 67.3345C64.8109 67.2716 64.5547 67.206 64.302 67.136L64.1659 67.0979C63.9382 67.0333 63.7113 66.9659 63.4871 66.8951L63.3163 66.8428C63.0877 66.7693 62.8626 66.6922 62.6385 66.6133C62.5904 66.5965 62.5406 66.5814 62.4926 66.5637C54.7842 63.7953 49.3647 57.5629 49.3647 50.5943C49.3736 41.5395 58.5178 34.4797 69.9465 34.8296Z" fill="url(#paint79_linear_18_467)"/>
<path d="M47.1733 50.5926C47.1733 59.6457 56.3175 67.4559 67.7463 68.045C79.3422 68.643 88.8681 61.5991 88.8681 52.3042C88.8681 43.0092 79.3422 35.184 67.7463 34.8296C56.3193 34.4797 47.1733 41.5395 47.1733 50.5926Z" fill="url(#paint80_linear_18_467)"/>
<g style="mix-blend-mode:multiply" opacity="0.3">
<path style="mix-blend-mode:multiply" opacity="0.3" d="M62.7017 63.5684C65.2042 58.7934 62.6741 54.1078 66.06 51.0869C69.5143 48.0039 74.0246 51.1852 78.9085 48.7436C80.8042 47.7957 82.9179 45.9185 84.4925 41.9425C87.2351 44.866 88.8684 48.4646 88.8684 52.3077C88.8684 61.6026 79.3426 68.6465 67.7466 68.0485C65.2048 67.9213 62.6957 67.4222 60.2998 66.5673C61.284 65.7282 62.0991 64.7106 62.7017 63.5684Z" fill="url(#paint81_linear_18_467)"/>
</g>
<path d="M60.8396 56.1746L52.5156 52.1419V50.8946L60.8396 46.5979V48.7321L55.0741 51.4651L60.8422 54.0493L60.8396 56.1746Z" fill="white"/>
<path d="M69.7871 44.9803L64.9913 58.1016L62.5894 58.0307L67.3327 44.9803H69.7871Z" fill="white"/>
<path d="M71.5771 54.2699L77.7937 51.8035L71.5771 48.8233V46.636L80.6591 51.2782V52.607L71.5771 56.4457V54.2699Z" fill="white"/>
<path d="M107.356 66.4619C116.697 66.7472 124.54 72.4258 126.068 79.6141C126.068 79.6239 126.068 79.6327 126.074 79.6425C126.157 80.0358 126.221 80.4336 126.264 80.8358C126.264 80.8624 126.271 80.889 126.273 80.9155C126.293 81.1034 126.308 81.2918 126.319 81.4808C126.319 81.5153 126.319 81.5499 126.323 81.5844C126.333 81.7775 126.339 81.9716 126.339 82.1673C126.339 90.5206 117.778 96.8513 107.356 96.3136C107.079 96.2994 106.804 96.2802 106.53 96.256L106.449 96.2489C106.19 96.2259 105.932 96.1975 105.676 96.1665L105.555 96.1515C105.307 96.1205 105.061 96.0841 104.815 96.0452L104.677 96.023C104.436 95.9823 104.198 95.9344 103.96 95.8919L103.816 95.8627C103.579 95.8148 103.344 95.7634 103.113 95.7085L102.978 95.6749C102.747 95.619 102.517 95.5597 102.289 95.4977L102.167 95.4631C101.962 95.4055 101.759 95.3444 101.558 95.2815C101.506 95.2656 101.454 95.2505 101.404 95.2337C101.199 95.1681 100.996 95.099 100.794 95.0281L100.664 94.9838C93.7353 92.4953 88.8647 86.8946 88.8647 80.6321C88.8665 72.4923 97.0847 66.1474 107.356 66.4619Z" fill="url(#paint82_linear_18_467)"/>
<path d="M86.8887 80.6285C86.8887 88.7647 95.1077 95.7846 105.378 96.3091C115.8 96.8468 124.361 90.5161 124.361 82.1629C124.361 73.8096 115.8 66.7755 105.378 66.4574C95.1059 66.1474 86.8887 72.4923 86.8887 80.6285Z" fill="url(#paint83_linear_18_467)"/>
<g style="mix-blend-mode:multiply" opacity="0.3">
<path style="mix-blend-mode:multiply" opacity="0.3" d="M100.845 92.2905C103.094 87.9991 100.82 83.7858 103.862 81.0731C106.967 78.302 111.021 81.1617 115.41 78.9664C117.114 78.1151 119.014 76.4283 120.428 72.8536C122.893 75.4812 124.361 78.7157 124.361 82.1663C124.361 90.5196 115.8 96.8503 105.378 96.3125C103.094 96.1984 100.839 95.7506 98.6855 94.9836C99.5699 94.2301 100.303 93.3162 100.845 92.2905V92.2905Z" fill="url(#paint84_linear_18_467)"/>
</g>
<path d="M96.4509 77.8786C95.7179 77.8848 95.1548 78.2064 94.7607 78.8389C94.3666 79.4714 94.1718 80.345 94.1718 81.463C94.1718 83.7956 94.9235 84.9942 96.4527 85.0598C97.1048 85.0872 97.9028 84.9331 98.8546 84.592V86.5171C98.0377 86.8492 97.1549 86.9892 96.2748 86.9264C94.9466 86.8511 93.9476 86.3346 93.2644 85.3814C92.5812 84.4281 92.2529 83.1187 92.2529 81.416C92.2529 80.3435 92.4178 79.4032 92.7475 78.5953C93.0773 77.7873 93.5586 77.158 94.1914 76.7074C94.8283 76.2574 95.5836 76.0211 96.4572 75.9987C97.361 75.9783 98.2808 76.2104 99.2149 76.7012L98.5602 78.5731C98.2143 78.3879 97.8578 78.2229 97.4927 78.0788C97.1616 77.9459 96.8079 77.8779 96.4509 77.8786V77.8786Z" fill="white"/>
<path d="M103.614 82.5039L100.958 82.4427V80.7976L103.614 80.8286V77.8449L105.161 77.8307V80.8428L107.978 80.8756V82.604L105.161 82.5384V85.5151L103.614 85.4486V82.5039Z" fill="white"/>
<path d="M113.08 82.7236L110.071 82.6536V80.9039L113.08 80.9393V77.7607L114.836 77.7456V80.9597L118.039 80.9969V82.8387L114.836 82.7643V85.9368L113.08 85.8606V82.7236Z" fill="white"/>
<path d="M63.463 132.991C61.6446 130.723 60.5967 128.06 60.5967 125.212C60.5967 116.929 69.4535 110.213 80.3778 110.213C91.3021 110.213 100.159 116.929 100.159 125.212C100.159 133.495 91.303 140.209 80.3778 140.209C76.2856 140.209 72.4799 139.266 69.3237 137.651C67.2375 138.005 63.9994 138.601 62.2905 138.918C62.1759 138.939 62.0578 138.929 61.9483 138.89C61.8387 138.851 61.7415 138.783 61.6668 138.694C61.592 138.605 61.5424 138.498 61.5228 138.384C61.5033 138.269 61.5146 138.152 61.5557 138.043L63.463 132.991Z" fill="url(#paint85_linear_18_467)"/>
<g style="mix-blend-mode:multiply" opacity="0.2">
<path style="mix-blend-mode:multiply" opacity="0.2" d="M69.5533 128.385C73.9888 126.525 78.8665 130.448 81.9187 127.714C84.9922 124.958 81.6714 119.509 84.6159 115.626C86.0197 113.775 88.378 112.899 91.0762 112.593C96.5419 115.261 100.162 119.916 100.162 125.212C100.162 133.495 91.3057 140.209 80.3805 140.209C76.2884 140.209 72.4827 139.266 69.3264 137.651C67.6806 137.931 65.3179 138.36 63.5547 138.685C64.8526 131.969 67.2447 129.352 69.5533 128.385Z" fill="url(#paint86_linear_18_467)"/>
</g>
<path d="M92.4646 119.653H67.9472C67.5414 119.653 67.2124 119.98 67.2124 120.384V120.499C67.2124 120.903 67.5414 121.231 67.9472 121.231H92.4646C92.8704 121.231 93.1994 120.903 93.1994 120.499V120.384C93.1994 119.98 92.8704 119.653 92.4646 119.653Z" fill="white"/>
<path d="M92.4646 124.071H67.9472C67.5414 124.071 67.2124 124.398 67.2124 124.803V124.917C67.2124 125.321 67.5414 125.649 67.9472 125.649H92.4646C92.8704 125.649 93.1994 125.321 93.1994 124.917V124.803C93.1994 124.398 92.8704 124.071 92.4646 124.071Z" fill="white"/>
<path d="M80.084 128.489H67.9686C67.5509 128.489 67.2124 128.826 67.2124 129.242V129.314C67.2124 129.73 67.5509 130.067 67.9686 130.067H80.084C80.5016 130.067 80.8402 129.73 80.8402 129.314V129.242C80.8402 128.826 80.5016 128.489 80.084 128.489Z" fill="white"/>
<defs>
<linearGradient id="paint0_linear_18_467" x1="132.677" y1="285.746" x2="133.277" y2="234.561" gradientUnits="userSpaceOnUse">
<stop offset="0.49" stop-color="#EBEFF2"/>
<stop offset="1" stop-color="white"/>
</linearGradient>
<linearGradient id="paint1_linear_18_467" x1="107.262" y1="120.563" x2="206.174" y2="302.736" gradientUnits="userSpaceOnUse">
<stop stop-color="#444B8C"/>
<stop offset="1" stop-color="#26264F"/>
</linearGradient>
<linearGradient id="paint2_linear_18_467" x1="122.099" y1="67.3131" x2="139.825" y2="175.805" gradientUnits="userSpaceOnUse">
<stop stop-color="#E38DDD"/>
<stop offset="1" stop-color="#9571F6"/>
</linearGradient>
<linearGradient id="paint3_linear_18_467" x1="112.803" y1="98.9207" x2="154.704" y2="98.9207" gradientUnits="userSpaceOnUse">
<stop stop-color="#FF9085"/>
<stop offset="1" stop-color="#FB6FBB"/>
</linearGradient>
<linearGradient id="paint4_linear_18_467" x1="53244.2" y1="4638.51" x2="72980" y2="4638.51" gradientUnits="userSpaceOnUse">
<stop stop-color="#FF9085"/>
<stop offset="1" stop-color="#FB6FBB"/>
</linearGradient>
<linearGradient id="paint5_linear_18_467" x1="35391.8" y1="4532.71" x2="45354.5" y2="4532.71" gradientUnits="userSpaceOnUse">
<stop stop-color="#FF9085"/>
<stop offset="1" stop-color="#FB6FBB"/>
</linearGradient>
<linearGradient id="paint6_linear_18_467" x1="52261.3" y1="2608.19" x2="52314.6" y2="6368.18" gradientUnits="userSpaceOnUse">
<stop stop-color="#E38DDD"/>
<stop offset="1" stop-color="#9571F6"/>
</linearGradient>
<linearGradient id="paint7_linear_18_467" x1="32103.9" y1="4082.53" x2="42054.1" y2="4082.53" gradientUnits="userSpaceOnUse">
<stop stop-color="#FF9085"/>
<stop offset="1" stop-color="#FB6FBB"/>
</linearGradient>
<linearGradient id="paint8_linear_18_467" x1="53244.2" y1="8982.16" x2="72980" y2="8982.16" gradientUnits="userSpaceOnUse">
<stop stop-color="#FF9085"/>
<stop offset="1" stop-color="#FB6FBB"/>
</linearGradient>
<linearGradient id="paint9_linear_18_467" x1="53244.2" y1="9435.94" x2="72980" y2="9435.94" gradientUnits="userSpaceOnUse">
<stop stop-color="#FF9085"/>
<stop offset="1" stop-color="#FB6FBB"/>
</linearGradient>
<linearGradient id="paint10_linear_18_467" x1="60669.4" y1="9697.99" x2="79396.1" y2="9697.99" gradientUnits="userSpaceOnUse">
<stop stop-color="#FF9085"/>
<stop offset="1" stop-color="#FB6FBB"/>
</linearGradient>
<linearGradient id="paint11_linear_18_467" x1="62156.3" y1="4770.19" x2="62232.2" y2="8888.52" gradientUnits="userSpaceOnUse">
<stop stop-color="#E38DDD"/>
<stop offset="1" stop-color="#9571F6"/>
</linearGradient>
<linearGradient id="paint12_linear_18_467" x1="32103.9" y1="7596.56" x2="42054.1" y2="7596.56" gradientUnits="userSpaceOnUse">
<stop stop-color="#FF9085"/>
<stop offset="1" stop-color="#FB6FBB"/>
</linearGradient>
<linearGradient id="paint13_linear_18_467" x1="50268.7" y1="4700.1" x2="70402.9" y2="4700.1" gradientUnits="userSpaceOnUse">
<stop stop-color="#FF9085"/>
<stop offset="1" stop-color="#FB6FBB"/>
</linearGradient>
<linearGradient id="paint14_linear_18_467" x1="53244.2" y1="5037.44" x2="72980" y2="5037.44" gradientUnits="userSpaceOnUse">
<stop stop-color="#FF9085"/>
<stop offset="1" stop-color="#FB6FBB"/>
</linearGradient>
<linearGradient id="paint15_linear_18_467" x1="53244.2" y1="5381.12" x2="72980" y2="5381.12" gradientUnits="userSpaceOnUse">
<stop stop-color="#FF9085"/>
<stop offset="1" stop-color="#FB6FBB"/>
</linearGradient>
<linearGradient id="paint16_linear_18_467" x1="29006.2" y1="5599.19" x2="37111.1" y2="5599.19" gradientUnits="userSpaceOnUse">
<stop stop-color="#FF9085"/>
<stop offset="1" stop-color="#FB6FBB"/>
</linearGradient>
<linearGradient id="paint17_linear_18_467" x1="50413" y1="3097.22" x2="50469.2" y2="6777.73" gradientUnits="userSpaceOnUse">
<stop stop-color="#E38DDD"/>
<stop offset="1" stop-color="#9571F6"/>
</linearGradient>
<linearGradient id="paint18_linear_18_467" x1="48141.1" y1="6749.52" x2="64267.9" y2="6749.52" gradientUnits="userSpaceOnUse">
<stop stop-color="#FF9085"/>
<stop offset="1" stop-color="#FB6FBB"/>
</linearGradient>
<linearGradient id="paint19_linear_18_467" x1="51296.1" y1="7066.1" x2="67037.2" y2="7066.1" gradientUnits="userSpaceOnUse">
<stop stop-color="#FF9085"/>
<stop offset="1" stop-color="#FB6FBB"/>
</linearGradient>
<linearGradient id="paint20_linear_18_467" x1="51296.1" y1="7447.44" x2="67037.2" y2="7447.44" gradientUnits="userSpaceOnUse">
<stop stop-color="#FF9085"/>
<stop offset="1" stop-color="#FB6FBB"/>
</linearGradient>
<linearGradient id="paint21_linear_18_467" x1="33909.2" y1="2626.67" x2="33973" y2="6284.59" gradientUnits="userSpaceOnUse">
<stop stop-color="#E38DDD"/>
<stop offset="1" stop-color="#9571F6"/>
</linearGradient>
<linearGradient id="paint22_linear_18_467" x1="254.881" y1="29.3142" x2="210.287" y2="104.276" gradientUnits="userSpaceOnUse">
<stop stop-color="#AA80F9"/>
<stop offset="1" stop-color="#6165D7"/>
</linearGradient>
<linearGradient id="paint23_linear_18_467" x1="28989.6" y1="64743.6" x2="29384.5" y2="49196.6" gradientUnits="userSpaceOnUse">
<stop stop-color="#AA80F9"/>
<stop offset="1" stop-color="#6165D7"/>
</linearGradient>
<linearGradient id="paint24_linear_18_467" x1="135136" y1="38851.4" x2="120612" y2="61539.9" gradientUnits="userSpaceOnUse">
<stop stop-color="#AA80F9"/>
<stop offset="1" stop-color="#6165D7"/>
</linearGradient>
<linearGradient id="paint25_linear_18_467" x1="139411" y1="33354.4" x2="105470" y2="81499.3" gradientUnits="userSpaceOnUse">
<stop stop-color="#AA80F9"/>
<stop offset="1" stop-color="#6165D7"/>
</linearGradient>
<linearGradient id="paint26_linear_18_467" x1="233.786" y1="130.003" x2="236.047" y2="78.2197" gradientUnits="userSpaceOnUse">
<stop stop-color="#FFC444"/>
<stop offset="1" stop-color="#F36F56"/>
</linearGradient>
<linearGradient id="paint27_linear_18_467" x1="23227.7" y1="29242.4" x2="24463.4" y2="26066.7" gradientUnits="userSpaceOnUse">
<stop stop-color="#FFC444"/>
<stop offset="1" stop-color="#F36F56"/>
</linearGradient>
<linearGradient id="paint28_linear_18_467" x1="-62045" y1="41578.8" x2="-56242.6" y2="71057.4" gradientUnits="userSpaceOnUse">
<stop stop-color="#FF9085"/>
<stop offset="1" stop-color="#FB6FBB"/>
</linearGradient>
<linearGradient id="paint29_linear_18_467" x1="212.067" y1="256.251" x2="219.543" y2="256.476" gradientUnits="userSpaceOnUse">
<stop stop-color="#311944"/>
<stop offset="1" stop-color="#893976"/>
</linearGradient>
<linearGradient id="paint30_linear_18_467" x1="245.08" y1="11457.8" x2="951.431" y2="11657.3" gradientUnits="userSpaceOnUse">
<stop stop-color="#311944"/>
<stop offset="1" stop-color="#893976"/>
</linearGradient>
<linearGradient id="paint31_linear_18_467" x1="-73469.1" y1="224826" x2="-50864.1" y2="205977" gradientUnits="userSpaceOnUse">
<stop stop-color="#311944"/>
<stop offset="1" stop-color="#893976"/>
</linearGradient>
<linearGradient id="paint32_linear_18_467" x1="-69983.2" y1="238547" x2="-48421.5" y2="229416" gradientUnits="userSpaceOnUse">
<stop stop-color="#311944"/>
<stop offset="1" stop-color="#893976"/>
</linearGradient>
<linearGradient id="paint33_linear_18_467" x1="-101384" y1="109149" x2="-78404.3" y2="183468" gradientUnits="userSpaceOnUse">
<stop stop-color="#FF9085"/>
<stop offset="1" stop-color="#FB6FBB"/>
</linearGradient>
<linearGradient id="paint34_linear_18_467" x1="-88085.5" y1="142763" x2="-94228.2" y2="119523" gradientUnits="userSpaceOnUse">
<stop stop-color="#FF9085"/>
<stop offset="1" stop-color="#FB6FBB"/>
</linearGradient>
<linearGradient id="paint35_linear_18_467" x1="-72522.9" y1="69482.9" x2="-59634" y2="119054" gradientUnits="userSpaceOnUse">
<stop stop-color="#FF9085"/>
<stop offset="1" stop-color="#FB6FBB"/>
</linearGradient>
<linearGradient id="paint36_linear_18_467" x1="-88265.2" y1="11198.8" x2="-88237.5" y2="10582.4" gradientUnits="userSpaceOnUse">
<stop stop-color="#E38DDD"/>
<stop offset="1" stop-color="#9571F6"/>
</linearGradient>
<linearGradient id="paint37_linear_18_467" x1="-28416.9" y1="15748.7" x2="-28477.5" y2="16504.5" gradientUnits="userSpaceOnUse">
<stop stop-color="#E38DDD"/>
<stop offset="1" stop-color="#9571F6"/>
</linearGradient>
<linearGradient id="paint38_linear_18_467" x1="-115533" y1="61078.3" x2="-113822" y2="57061.8" gradientUnits="userSpaceOnUse">
<stop stop-color="#E38DDD"/>
<stop offset="1" stop-color="#9571F6"/>
</linearGradient>
<linearGradient id="paint39_linear_18_467" x1="-106494" y1="65110.6" x2="-109805" y2="53986.3" gradientUnits="userSpaceOnUse">
<stop stop-color="#E38DDD"/>
<stop offset="1" stop-color="#9571F6"/>
</linearGradient>
<linearGradient id="paint40_linear_18_467" x1="-94845.7" y1="56626.9" x2="-110963" y2="56626.9" gradientUnits="userSpaceOnUse">
<stop stop-color="#E38DDD"/>
<stop offset="1" stop-color="#9571F6"/>
</linearGradient>
<linearGradient id="paint41_linear_18_467" x1="221.829" y1="147.319" x2="216.269" y2="132.982" gradientUnits="userSpaceOnUse">
<stop stop-color="#311944"/>
<stop offset="1" stop-color="#6B3976"/>
</linearGradient>
<linearGradient id="paint42_linear_18_467" x1="-2731.7" y1="12733.7" x2="-3118.14" y2="11651.4" gradientUnits="userSpaceOnUse">
<stop stop-color="#311944"/>
<stop offset="1" stop-color="#6B3976"/>
</linearGradient>
<linearGradient id="paint43_linear_18_467" x1="44.3329" y1="179.807" x2="36.5752" y2="148.648" gradientUnits="userSpaceOnUse">
<stop stop-color="#6165D7"/>
<stop offset="1" stop-color="#AA80F9"/>
</linearGradient>
<linearGradient id="paint44_linear_18_467" x1="-5673.9" y1="6934.83" x2="-5780.71" y2="7045.97" gradientUnits="userSpaceOnUse">
<stop stop-color="#444B8C"/>
<stop offset="1" stop-color="#26264F"/>
</linearGradient>
<linearGradient id="paint45_linear_18_467" x1="-3495.9" y1="15678.8" x2="-3447.68" y2="15336.4" gradientUnits="userSpaceOnUse">
<stop stop-color="#FFC444"/>
<stop offset="1" stop-color="#F36F56"/>
</linearGradient>
<linearGradient id="paint46_linear_18_467" x1="-4498" y1="5677.84" x2="-4584.94" y2="5766.14" gradientUnits="userSpaceOnUse">
<stop stop-color="#444B8C"/>
<stop offset="1" stop-color="#26264F"/>
</linearGradient>
<linearGradient id="paint47_linear_18_467" x1="-4650.83" y1="8507.92" x2="-4754.57" y2="8632.38" gradientUnits="userSpaceOnUse">
<stop stop-color="#444B8C"/>
<stop offset="1" stop-color="#26264F"/>
</linearGradient>
<linearGradient id="paint48_linear_18_467" x1="-1113.4" y1="15354.2" x2="-1113.4" y2="15024" gradientUnits="userSpaceOnUse">
<stop stop-color="#FFC444"/>
<stop offset="1" stop-color="#F36F56"/>
</linearGradient>
<linearGradient id="paint49_linear_18_467" x1="30958.7" y1="243392" x2="-2301.22" y2="175154" gradientUnits="userSpaceOnUse">
<stop stop-color="#444B8C"/>
<stop offset="1" stop-color="#26264F"/>
</linearGradient>
<linearGradient id="paint50_linear_18_467" x1="40848.7" y1="105997" x2="15505.1" y2="92542.9" gradientUnits="userSpaceOnUse">
<stop stop-color="#6165D7"/>
<stop offset="1" stop-color="#AA80F9"/>
</linearGradient>
<linearGradient id="paint51_linear_18_467" x1="-3731.98" y1="6320.2" x2="-3806.85" y2="6418.34" gradientUnits="userSpaceOnUse">
<stop stop-color="#444B8C"/>
<stop offset="1" stop-color="#26264F"/>
</linearGradient>
<linearGradient id="paint52_linear_18_467" x1="-20960.8" y1="27136.8" x2="-23743.6" y2="31503.8" gradientUnits="userSpaceOnUse">
<stop stop-color="#FFC444"/>
<stop offset="1" stop-color="#F36F56"/>
</linearGradient>
<linearGradient id="paint53_linear_18_467" x1="-1644.45" y1="3726.53" x2="-2050.37" y2="4129.16" gradientUnits="userSpaceOnUse">
<stop stop-color="#FFC444"/>
<stop offset="1" stop-color="#F36F56"/>
</linearGradient>
<linearGradient id="paint54_linear_18_467" x1="3008.29" y1="39728.1" x2="3161.5" y2="39728.1" gradientUnits="userSpaceOnUse">
<stop stop-color="#6165D7"/>
<stop offset="1" stop-color="#AA80F9"/>
</linearGradient>
<linearGradient id="paint55_linear_18_467" x1="23271.8" y1="48772.2" x2="31978.8" y2="48772.2" gradientUnits="userSpaceOnUse">
<stop stop-color="#6165D7"/>
<stop offset="1" stop-color="#AA80F9"/>
</linearGradient>
<linearGradient id="paint56_linear_18_467" x1="13329.7" y1="14545.4" x2="13675.6" y2="15187.1" gradientUnits="userSpaceOnUse">
<stop stop-color="#FFC444"/>
<stop offset="1" stop-color="#F36F56"/>
</linearGradient>
<linearGradient id="paint57_linear_18_467" x1="63131.9" y1="70990.5" x2="43989.4" y2="54011.2" gradientUnits="userSpaceOnUse">
<stop stop-color="#6165D7"/>
<stop offset="1" stop-color="#AA80F9"/>
</linearGradient>
<linearGradient id="paint58_linear_18_467" x1="-42866.8" y1="35444.6" x2="-40226.8" y2="35444.6" gradientUnits="userSpaceOnUse">
<stop stop-color="#FFC444"/>
<stop offset="1" stop-color="#F36F56"/>
</linearGradient>
<linearGradient id="paint59_linear_18_467" x1="-62826.7" y1="47757.6" x2="-52900.4" y2="47757.6" gradientUnits="userSpaceOnUse">
<stop stop-color="#AA80F9"/>
<stop offset="1" stop-color="#6165D7"/>
</linearGradient>
<linearGradient id="paint60_linear_18_467" x1="-12032.3" y1="9519.34" x2="-11741.2" y2="11185" gradientUnits="userSpaceOnUse">
<stop stop-color="#E38DDD"/>
<stop offset="1" stop-color="#9571F6"/>
</linearGradient>
<linearGradient id="paint61_linear_18_467" x1="-49877.1" y1="38797.7" x2="-41352" y2="38797.7" gradientUnits="userSpaceOnUse">
<stop stop-color="#AA80F9"/>
<stop offset="1" stop-color="#6165D7"/>
</linearGradient>
<linearGradient id="paint62_linear_18_467" x1="153.328" y1="130.063" x2="155.261" y2="130.063" gradientUnits="userSpaceOnUse">
<stop stop-color="#311944"/>
<stop offset="1" stop-color="#A03976"/>
</linearGradient>
<linearGradient id="paint63_linear_18_467" x1="-59664.9" y1="67833.1" x2="-44025.9" y2="78457.3" gradientUnits="userSpaceOnUse">
<stop stop-color="#AA80F9"/>
<stop offset="1" stop-color="#6165D7"/>
</linearGradient>
<linearGradient id="paint64_linear_18_467" x1="-61684.6" y1="29216.8" x2="-76381.2" y2="49746.9" gradientUnits="userSpaceOnUse">
<stop stop-color="#444B8C"/>
<stop offset="1" stop-color="#26264F"/>
</linearGradient>
<linearGradient id="paint65_linear_18_467" x1="-54496.4" y1="52345.4" x2="-68015.9" y2="40539.6" gradientUnits="userSpaceOnUse">
<stop stop-color="#FFC444"/>
<stop offset="1" stop-color="#F36F56"/>
</linearGradient>
<linearGradient id="paint66_linear_18_467" x1="23329.5" y1="4522.1" x2="24474" y2="4522.1" gradientUnits="userSpaceOnUse">
<stop stop-color="#311944"/>
<stop offset="1" stop-color="#A03976"/>
</linearGradient>
<linearGradient id="paint67_linear_18_467" x1="12866.2" y1="6852.67" x2="12851.9" y2="5583.74" gradientUnits="userSpaceOnUse">
<stop stop-color="#311944"/>
<stop offset="1" stop-color="#A03976"/>
</linearGradient>
<linearGradient id="paint68_linear_18_467" x1="-53015.1" y1="46407.5" x2="-64985.4" y2="34917.4" gradientUnits="userSpaceOnUse">
<stop stop-color="#FFC444"/>
<stop offset="1" stop-color="#F36F56"/>
</linearGradient>
<linearGradient id="paint69_linear_18_467" x1="-37617.2" y1="5073.77" x2="-45233.6" y2="5073.77" gradientUnits="userSpaceOnUse">
<stop stop-color="#E38DDD"/>
<stop offset="1" stop-color="#9571F6"/>
</linearGradient>
<linearGradient id="paint70_linear_18_467" x1="-56623.6" y1="20138.5" x2="-70972.1" y2="20138.5" gradientUnits="userSpaceOnUse">
<stop stop-color="#E38DDD"/>
<stop offset="1" stop-color="#9571F6"/>
</linearGradient>
<linearGradient id="paint71_linear_18_467" x1="-4098.22" y1="17869.5" x2="-1459.86" y2="22495" gradientUnits="userSpaceOnUse">
<stop stop-color="#E38DDD"/>
<stop offset="1" stop-color="#9571F6"/>
</linearGradient>
<linearGradient id="paint72_linear_18_467" x1="-36831.5" y1="41293.1" x2="-28991" y2="35461.6" gradientUnits="userSpaceOnUse">
<stop stop-color="#FFC444"/>
<stop offset="1" stop-color="#F36F56"/>
</linearGradient>
<linearGradient id="paint73_linear_18_467" x1="16900.8" y1="4313.43" x2="17528.1" y2="4313.43" gradientUnits="userSpaceOnUse">
<stop stop-color="#311944"/>
<stop offset="1" stop-color="#A03976"/>
</linearGradient>
<linearGradient id="paint74_linear_18_467" x1="1474.51" y1="107457" x2="10892.2" y2="113805" gradientUnits="userSpaceOnUse">
<stop stop-color="#E38DDD"/>
<stop offset="1" stop-color="#9571F6"/>
</linearGradient>
<linearGradient id="paint75_linear_18_467" x1="1019.92" y1="85360.5" x2="1143.86" y2="80200.7" gradientUnits="userSpaceOnUse">
<stop stop-color="#AA80F9"/>
<stop offset="1" stop-color="#6165D7"/>
</linearGradient>
<linearGradient id="paint76_linear_18_467" x1="53394.4" y1="19645.5" x2="64990.2" y2="23078.9" gradientUnits="userSpaceOnUse">
<stop stop-color="#311944"/>
<stop offset="1" stop-color="#893976"/>
</linearGradient>
<linearGradient id="paint77_linear_18_467" x1="72752.8" y1="17058" x2="65653.3" y2="33562.6" gradientUnits="userSpaceOnUse">
<stop stop-color="#E38DDD"/>
<stop offset="1" stop-color="#9571F6"/>
</linearGradient>
<linearGradient id="paint78_linear_18_467" x1="51837.8" y1="14199.5" x2="45888.7" y2="27247.6" gradientUnits="userSpaceOnUse">
<stop stop-color="#E38DDD"/>
<stop offset="1" stop-color="#9571F6"/>
</linearGradient>
<linearGradient id="paint79_linear_18_467" x1="68327.9" y1="24092.8" x2="48582.4" y2="38893.2" gradientUnits="userSpaceOnUse">
<stop stop-color="#311944"/>
<stop offset="1" stop-color="#893976"/>
</linearGradient>
<linearGradient id="paint80_linear_18_467" x1="62117.7" y1="28167.9" x2="53328.4" y2="48601.5" gradientUnits="userSpaceOnUse">
<stop stop-color="#FF9085"/>
<stop offset="1" stop-color="#FB6FBB"/>
</linearGradient>
<linearGradient id="paint81_linear_18_467" x1="45051.5" y1="23125.6" x2="37685.1" y2="39281.3" gradientUnits="userSpaceOnUse">
<stop stop-color="#FF9085"/>
<stop offset="1" stop-color="#FB6FBB"/>
</linearGradient>
<linearGradient id="paint82_linear_18_467" x1="51935.9" y1="38506.4" x2="63531.9" y2="41940" gradientUnits="userSpaceOnUse">
<stop stop-color="#FFC444"/>
<stop offset="1" stop-color="#F36F56"/>
</linearGradient>
<linearGradient id="paint83_linear_18_467" x1="71301.7" y1="35918.2" x2="64202.8" y2="52422.6" gradientUnits="userSpaceOnUse">
<stop stop-color="#FFC444"/>
<stop offset="1" stop-color="#F36F56"/>
</linearGradient>
<linearGradient id="paint84_linear_18_467" x1="50843.5" y1="29031.5" x2="44895" y2="42079.4" gradientUnits="userSpaceOnUse">
<stop stop-color="#FFC444"/>
<stop offset="1" stop-color="#F36F56"/>
</linearGradient>
<linearGradient id="paint85_linear_18_467" x1="51033.8" y1="52395" x2="51701.8" y2="78111.1" gradientUnits="userSpaceOnUse">
<stop stop-color="#E38DDD"/>
<stop offset="1" stop-color="#9571F6"/>
</linearGradient>
<linearGradient id="paint86_linear_18_467" x1="-11514.3" y1="47446.1" x2="-21058.5" y2="64107.6" gradientUnits="userSpaceOnUse">
<stop stop-color="#E38DDD"/>
<stop offset="1" stop-color="#9571F6"/>
</linearGradient>
</defs>
</svg>
