<svg width="102" height="119" viewBox="0 0 102 119" fill="none" xmlns="http://www.w3.org/2000/svg">
<g filter="url(#filter0_d_41_3763)">
<path d="M14 12C14 5.37257 19.3726 0 26 0H51H76C82.6274 0 88 5.37258 88 12V61.7778C88 68.4052 82.6274 73.7778 76 73.7778H69.5H64.7298C63.8033 73.7778 62.8813 73.9065 61.9903 74.1604L60.6977 74.5285C58.894 75.0424 57.2711 76.053 56.0144 77.4452L51.7423 82.1777C51.3452 82.6176 50.6548 82.6176 50.2577 82.1777L46.1067 77.5794C44.7742 76.1032 43.0319 75.0579 41.1023 74.577L39.0869 74.0746C38.2958 73.8775 37.4836 73.7778 36.6684 73.7778H32.5H26C19.3726 73.7778 14 68.4052 14 61.7778V12Z" fill="url(#paint0_linear_41_3763)"/>
</g>
<defs>
<filter id="filter0_d_41_3763" x="0" y="0" width="102" height="118.508" filterUnits="userSpaceOnUse" color-interpolation-filters="sRGB">
<feFlood flood-opacity="0" result="BackgroundImageFix"/>
<feColorMatrix in="SourceAlpha" type="matrix" values="0 0 0 0 0 0 0 0 0 0 0 0 0 0 0 0 0 0 127 0" result="hardAlpha"/>
<feMorphology radius="10" operator="erode" in="SourceAlpha" result="effect1_dropShadow_41_3763"/>
<feOffset dy="22"/>
<feGaussianBlur stdDeviation="12"/>
<feComposite in2="hardAlpha" operator="out"/>
<feColorMatrix type="matrix" values="0 0 0 0 0 0 0 0 0 0 0 0 0 0 0 0 0 0 0.2 0"/>
<feBlend mode="normal" in2="BackgroundImageFix" result="effect1_dropShadow_41_3763"/>
<feBlend mode="normal" in="SourceGraphic" in2="effect1_dropShadow_41_3763" result="shape"/>
</filter>
<linearGradient id="paint0_linear_41_3763" x1="16.4667" y1="4.70333" x2="78.7408" y2="73.7912" gradientUnits="userSpaceOnUse">
<stop stop-color="#8FCDFD"/>
<stop offset="1" stop-color="#7075F4"/>
</linearGradient>
</defs>
</svg>
