<svg width="304" height="195" viewBox="0 0 304 195" fill="none" xmlns="http://www.w3.org/2000/svg">
<path d="M296.983 38.0432C289.319 22.7934 272.496 11.3208 256.105 14.84C246.297 16.9471 236.547 24.0149 227.142 20.4663C220.363 17.9091 216.537 10.6551 210.839 6.10364C202.068 -0.901012 189.619 -0.820363 178.931 2.31905C168.242 5.45846 158.458 11.2299 147.899 14.7975C129.901 20.8784 109.815 20.2229 92.2353 12.9675C84.518 9.78559 77.2949 5.39247 69.4383 2.59032C61.5817 -0.211836 52.6723 -1.29985 45.0884 2.20027C37.5046 5.7004 32.063 14.8752 34.6951 22.9635C35.22 24.5765 36.0426 26.166 35.9356 27.8625C35.7626 30.584 33.1994 32.5767 30.6055 33.1809C28.0116 33.785 25.3106 33.392 22.6507 33.4609C10.7191 33.7703 0.0559893 44.9291 0.00026884 57.1627C-0.0466537 67.3082 6.05767 76.225 11.2763 84.8455C16.495 93.466 21.1858 103.81 18.0757 113.439C16.2325 119.158 11.9083 123.62 9.07538 128.888C1.73054 142.547 5.6559 160.631 15.9129 172.145C26.1698 183.658 41.5282 189.301 56.6886 190.646C71.8489 191.99 87.0504 189.472 102.071 186.98C117.093 184.487 132.307 182.012 147.459 183.439L146.645 182.985C176.305 190.486 207.121 192.277 237.45 188.264C243.78 187.423 251.048 185.615 253.727 179.673C255.986 174.657 253.957 168.778 254.422 163.274C255.092 155.342 260.898 148.845 267.23 144.233C273.562 139.622 280.744 136.189 286.446 130.787C297.605 120.216 301.392 103.855 303.055 88.375C304.881 71.3289 304.649 53.296 296.983 38.0432Z" fill="url(#paint0_linear_22_2352)"/>
<path d="M84.1478 192.325H81.9322C81.9322 192.325 78.023 186.009 78.218 175.022C78.413 164.035 76.1959 151.282 72.1562 142.018C68.1164 132.754 64.3348 122.146 65.5078 115.526C66.6809 108.905 73.9803 111.53 75.6754 129.182C77.3705 146.833 77.1417 153.628 81.9322 163.388C88.5791 176.944 84.1478 192.325 84.1478 192.325Z" fill="#BDD0FB"/>
<path d="M78.6144 192.325H81.2215C81.2215 192.325 82.2641 179.051 78.6144 173.762C74.9647 168.473 69.881 160.712 67.2738 140.345C64.6667 119.977 60.1049 118.187 55.4112 116.413C50.7175 114.638 45.7657 123.634 52.5446 129.89C59.3234 136.145 65.8471 145.603 68.3809 156.907C70.9147 168.211 68.9674 178.893 78.6144 192.325Z" fill="#BDD0FB"/>
<path d="M73.531 192.324H76.2687C76.2687 192.324 72.2451 184.179 73.531 175.901C74.817 167.624 75.3552 156.273 72.6175 149.402C69.8799 142.531 59.4528 135.271 55.1521 140.139C50.8513 145.007 57.3677 147.292 63.1025 154.362C68.8373 161.433 70.7934 164.04 68.3168 170.818C65.8401 177.595 72.097 190.37 73.531 192.324Z" fill="#91B3FA"/>
<path d="M215.141 191.03H217.357C217.357 191.03 221.264 184.713 221.071 173.727C220.877 162.741 223.091 149.987 227.133 140.723C231.174 131.458 234.954 120.854 233.781 114.229C232.608 107.604 225.307 110.233 223.613 127.885C221.92 145.537 222.147 152.332 217.357 162.09C210.701 175.649 215.141 191.03 215.141 191.03Z" fill="#BDD0FB"/>
<path d="M220.668 191.03H218.061C218.061 191.03 217.019 177.756 220.668 172.466C224.318 167.175 229.402 159.416 232.009 139.05C234.616 118.684 239.178 116.895 243.87 115.118C248.562 113.341 253.516 122.339 246.738 128.595C239.961 134.85 233.434 144.308 230.902 155.612C228.369 166.916 230.314 177.604 220.668 191.03Z" fill="#BDD0FB"/>
<path d="M225.752 191.03H223.015C223.015 191.03 227.037 182.884 225.752 174.607C224.468 166.329 223.927 154.98 226.664 148.109C229.402 141.238 239.829 133.978 244.131 138.846C248.433 143.714 241.916 145.999 236.179 153.069C230.443 160.14 228.49 162.747 230.967 169.525C233.443 176.302 227.186 189.075 225.752 191.03Z" fill="#91B3FA"/>
<path d="M220.844 119.137C220.844 119.202 220.837 119.268 220.835 119.332C220.825 120.388 221.492 121.032 221.966 121.895C222.312 122.524 222.652 123.158 222.959 123.801C223.503 124.933 223.9 126.128 224.14 127.36C224.661 130.132 224.598 133.201 223.061 135.651C222.045 137.274 220.453 138.877 218.892 139.982C218.629 140.17 218.449 140.453 218.392 140.771C218.336 141.09 218.406 141.418 218.589 141.685C220.857 144.972 226.841 155.762 216.124 165.824C215.995 165.944 215.894 166.092 215.827 166.255C215.76 166.419 215.73 166.595 215.737 166.772C215.744 166.948 215.79 167.121 215.87 167.279C215.95 167.436 216.063 167.574 216.202 167.684C219.247 170.096 226.34 177.491 216.548 188.528C215.836 189.328 214.964 189.967 213.987 190.405C213.01 190.843 211.952 191.069 210.882 191.068H134.34C132.386 191.07 130.508 190.316 129.098 188.964C127.688 187.613 126.855 185.768 126.773 183.817L123.555 106.723C123.444 104.068 123.943 101.423 125.014 98.9917C126.086 96.56 127.7 94.4063 129.734 92.6962C139.851 84.1915 158.53 67.5194 162.085 57.4032C167.012 43.3807 178.12 24.204 186.836 39.3673C195.178 53.8723 192.521 75.4654 181.981 85.2634C181.874 85.3658 181.801 85.4971 181.769 85.641C181.737 85.7849 181.748 85.9351 181.8 86.0728C181.851 86.2133 181.942 86.3359 182.061 86.4255C182.181 86.5152 182.324 86.5679 182.473 86.5773H203.669C205.483 86.6246 207.291 86.7985 209.08 87.0978C209.307 87.1427 209.538 87.1692 209.77 87.177H209.779C216.433 88.3794 226.243 91.6478 227.054 100.452C227.105 101.521 227.095 102.606 227.095 103.632C227.095 103.744 227.07 103.877 227.07 103.994V104.009C226.777 108.892 224.454 112.575 221.872 116.545C221.366 117.322 220.915 118.197 220.844 119.137Z" fill="url(#paint1_linear_22_2352)"/>
<path d="M208.898 124.763C208.898 124.82 208.898 124.879 208.89 124.938C208.89 125.884 209.433 126.461 209.823 127.236C210.116 127.8 210.389 128.368 210.641 128.95C211.093 129.971 211.42 131.043 211.616 132.142C212.046 134.627 211.994 137.38 210.728 139.578C209.831 141.073 208.665 142.389 207.289 143.46C207.069 143.641 206.923 143.896 206.876 144.176C206.83 144.457 206.888 144.745 207.038 144.987C208.908 147.936 213.843 157.611 205.004 166.634C204.897 166.747 204.813 166.881 204.758 167.027C204.703 167.173 204.679 167.329 204.686 167.485C204.69 167.64 204.727 167.793 204.792 167.934C204.858 168.075 204.952 168.201 205.069 168.304C207.581 170.466 213.427 177.102 205.362 186.996C204.802 187.699 204.091 188.268 203.283 188.662C202.475 189.056 201.588 189.264 200.689 189.271H137.549C134.2 189.271 131.446 186.408 131.308 182.771L128.653 113.641C128.467 108.821 130.352 104.164 133.75 101.062C142.108 93.4367 157.504 78.4801 160.437 69.4123C164.5 56.8371 173.662 39.6385 180.851 53.2314C187.721 66.2348 183.652 80.2089 174.964 88.9951C174.785 89.1755 171.367 96.1948 176.697 95.1244C176.955 95.0731 177.006 95.5878 177.253 95.5878H194.73C196.227 95.6525 197.718 95.8191 199.192 96.0863C199.379 96.1367 199.57 96.1711 199.762 96.1889H199.77C205.258 97.0893 213.349 100.148 214.018 108.05C214.059 109.009 213.964 109.956 213.964 110.882C213.964 110.981 213.855 111.08 213.855 111.185V111.198C213.562 115.577 211.785 118.88 209.656 122.441C209.223 123.144 208.963 123.94 208.898 124.763Z" fill="url(#paint2_linear_22_2352)"/>
<path d="M113.602 94.0863H81.1019C78.7995 94.0863 76.9331 95.9527 76.9331 98.2551V186.905C76.9331 189.207 78.7995 191.074 81.1019 191.074H113.602C115.904 191.074 117.77 189.207 117.77 186.905V98.2551C117.77 95.9527 115.904 94.0863 113.602 94.0863Z" fill="url(#paint3_linear_22_2352)"/>
<path d="M113.866 108.313C113.866 106.267 112.457 104.595 110.576 104.595H84.0514C82.1701 104.595 80.5322 106.267 80.5322 108.313V187.085C80.5322 189.129 82.1716 190.773 84.0514 190.773H110.576C112.457 190.773 113.866 189.129 113.866 187.085V108.313Z" fill="url(#paint4_linear_22_2352)"/>
<path d="M185.246 76.5344C185.196 76.5337 185.147 76.5248 185.1 76.508C185.044 76.4882 184.993 76.4577 184.949 76.4182C184.905 76.3786 184.869 76.3308 184.844 76.2774C184.818 76.224 184.803 76.1661 184.8 76.1071C184.797 76.048 184.806 75.9889 184.826 75.9332C188.949 64.3492 190.813 48.3662 182.497 41.4305C180.575 39.8278 177.599 38.9641 175.632 40.4143C175.584 40.4518 175.53 40.4794 175.472 40.4955C175.413 40.5115 175.352 40.5157 175.292 40.5077C175.232 40.4997 175.175 40.4797 175.123 40.4489C175.071 40.4181 175.025 40.3772 174.99 40.3285C174.954 40.2798 174.928 40.2245 174.914 40.1657C174.9 40.1068 174.898 40.0458 174.908 39.9862C174.918 39.9266 174.94 39.8697 174.973 39.8188C175.005 39.7679 175.048 39.724 175.098 39.6899C177.548 37.8834 180.95 38.967 183.073 40.7383C187.295 44.2575 189.367 50.0202 189.232 57.8695C189.095 65.8067 186.698 73.3568 185.675 76.2352C185.643 76.3234 185.585 76.3996 185.508 76.4532C185.432 76.5069 185.34 76.5352 185.246 76.5344Z" fill="#91B3FA"/>
<path d="M219.876 109.764C219.816 109.764 219.756 109.752 219.7 109.728C219.592 109.681 219.506 109.593 219.461 109.483C219.417 109.373 219.417 109.25 219.463 109.141C221.391 104.62 221.545 100.897 219.919 98.0747C217.426 93.7358 211.474 92.9572 211.414 92.9499C211.299 92.9314 211.196 92.8691 211.126 92.7759C211.055 92.6827 211.024 92.566 211.039 92.4503C211.053 92.3346 211.111 92.2289 211.202 92.1556C211.293 92.0822 211.408 92.0468 211.524 92.0569C211.785 92.0877 217.976 92.8912 220.696 97.6186C222.475 100.698 222.338 104.697 220.291 109.496C220.256 109.576 220.198 109.644 220.124 109.692C220.05 109.739 219.964 109.765 219.876 109.764Z" fill="#91B3FA"/>
<path d="M113.866 98.5908H92.8496C92.7302 98.5908 92.6157 98.5433 92.5313 98.4589C92.4468 98.3745 92.3994 98.26 92.3994 98.1406C92.3994 98.0212 92.4468 97.9067 92.5313 97.8223C92.6157 97.7379 92.7302 97.6904 92.8496 97.6904H113.866C113.986 97.6904 114.1 97.7379 114.185 97.8223C114.269 97.9067 114.317 98.0212 114.317 98.1406C114.317 98.26 114.269 98.3745 114.185 98.4589C114.1 98.5433 113.986 98.5908 113.866 98.5908Z" fill="#91B3FA"/>
<path d="M234.697 33.9522C235.714 30.7795 233.966 27.3832 230.794 26.3664C227.621 25.3496 224.225 27.0973 223.208 30.27C222.191 33.4427 223.939 36.8389 227.111 37.8557C230.284 38.8725 233.68 37.1249 234.697 33.9522Z" fill="#7D97F4"/>
<path d="M227.386 29.8289H226.147C225.992 29.8289 225.866 29.9549 225.866 30.1104V34.6516C225.866 34.8071 225.992 34.9331 226.147 34.9331H227.386C227.542 34.9331 227.668 34.8071 227.668 34.6516V30.1104C227.668 29.9549 227.542 29.8289 227.386 29.8289Z" fill="url(#paint5_linear_22_2352)"/>
<path d="M230.944 29.829H230.064V28.6207C230.064 28.2307 229.715 28.0268 229.331 28.0268H229.306C229.216 28.0206 229.126 28.0328 229.041 28.0626C228.957 28.0924 228.879 28.1392 228.812 28.2002C228.746 28.2611 228.693 28.3349 228.657 28.4171C228.62 28.4992 228.6 28.5879 228.599 28.6779L228.315 29.8685C228.159 29.8685 227.969 29.9668 227.969 30.1222V34.7397C227.969 34.8951 228.224 34.9332 228.379 34.9332H230.944C231.53 34.9332 231.872 34.5476 231.872 33.964V30.8979C231.872 30.3143 231.528 29.829 230.944 29.829Z" fill="url(#paint6_linear_22_2352)"/>
<path d="M93.9573 67.0513C95.6394 63.5514 94.1658 59.3505 90.6659 57.6684C87.166 55.9863 82.9652 57.4599 81.2831 60.9598C79.6009 64.4597 81.0745 68.6605 84.5744 70.3426C88.0743 72.0248 92.2752 70.5512 93.9573 67.0513Z" fill="#7D97F4"/>
<path d="M85.9124 61.3579H84.4681C84.2867 61.3579 84.1396 61.505 84.1396 61.6864V67.0355C84.1396 67.2169 84.2867 67.364 84.4681 67.364H85.9124C86.0938 67.364 86.2409 67.2169 86.2409 67.0355V61.6864C86.2409 61.505 86.0938 61.3579 85.9124 61.3579Z" fill="url(#paint7_linear_22_2352)"/>
<path d="M89.9463 61.3578H88.9433V59.9414C88.9433 59.4868 88.5196 59.2551 88.0635 59.2551H88.0342C87.5797 59.2551 87.2101 59.5484 87.2101 60.0103L86.9169 61.3974C86.7365 61.3974 86.5459 61.5103 86.5459 61.6907V67.0736C86.5459 67.254 86.7805 67.3669 86.9609 67.3669H89.9463C90.6267 67.3669 91.046 66.8537 91.046 66.1733V62.5954C91.046 61.9151 90.6267 61.3578 89.9463 61.3578Z" fill="url(#paint8_linear_22_2352)"/>
<path d="M132.647 46.6595C132.647 47.5615 132.38 48.4433 131.879 49.1932C131.378 49.9432 130.665 50.5277 129.832 50.8728C128.999 51.2179 128.082 51.3081 127.197 51.1321C126.312 50.956 125.5 50.5215 124.862 49.8836C124.224 49.2457 123.79 48.433 123.614 47.5483C123.439 46.6636 123.529 45.7466 123.874 44.9134C124.22 44.0801 124.805 43.368 125.555 42.8671C126.305 42.3662 127.187 42.099 128.089 42.0992C129.298 42.0996 130.457 42.5803 131.312 43.4354C132.167 44.2906 132.647 45.4503 132.647 46.6595Z" fill="#7D97F4"/>
<path d="M127.166 44.8425H126.09C125.973 44.8425 125.877 44.9377 125.877 45.0551V48.5333C125.877 48.6507 125.973 48.7459 126.09 48.7459H127.166C127.284 48.7459 127.379 48.6507 127.379 48.5333V45.0551C127.379 44.9377 127.284 44.8425 127.166 44.8425Z" fill="url(#paint9_linear_22_2352)"/>
<path d="M129.596 44.8425H128.88V44.0228C128.88 43.7296 128.672 43.6416 128.376 43.6416H128.356C128.063 43.6416 127.823 43.8044 127.823 44.0991L127.623 44.9789C127.506 44.9789 127.378 45.0361 127.378 45.1534V48.6432C127.378 48.762 127.54 48.7415 127.657 48.7415H129.596C130.035 48.7415 130.38 48.4981 130.38 48.0567V45.7502C130.387 45.3103 130.037 44.8425 129.596 44.8425Z" fill="url(#paint10_linear_22_2352)"/>
<path d="M31.0231 57.3866C32.7322 52.0537 29.7946 46.3452 24.4618 44.6361C19.129 42.927 13.4204 45.8646 11.7113 51.1974C10.0022 56.5302 12.9398 62.2388 18.2726 63.9479C23.6054 65.657 29.314 62.7194 31.0231 57.3866Z" fill="#7D97F4"/>
<path d="M18.5067 50.5481H16.7515C16.4899 50.5481 16.2778 50.7601 16.2778 51.0217V58.4824C16.2778 58.744 16.4899 58.956 16.7515 58.956H18.5067C18.7682 58.956 18.9803 58.744 18.9803 58.4824V51.0217C18.9803 50.7601 18.7682 50.5481 18.5067 50.5481Z" fill="url(#paint11_linear_22_2352)"/>
<path d="M24.721 50.548H23.1843V48.4292C23.1859 48.2741 23.1567 48.1203 23.0984 47.9767C23.0401 47.833 22.954 47.7023 22.8449 47.5921C22.7358 47.4819 22.606 47.3945 22.4629 47.3348C22.3198 47.2751 22.1663 47.2444 22.0112 47.2444H21.9702C21.8142 47.2442 21.6597 47.2747 21.5156 47.3342C21.3714 47.3937 21.2403 47.4811 21.1299 47.5912C21.0195 47.7014 20.9318 47.8322 20.872 47.9762C20.8121 48.1203 20.7812 48.2747 20.781 48.4306L20.2355 50.4835C19.9745 50.4835 19.5845 50.6932 19.5845 50.9557V58.7169C19.5845 58.9794 20.1519 59.258 20.4129 59.258H24.724C25.7064 59.258 26.4909 58.3943 26.4909 57.4134V52.2563C26.4879 51.2753 25.7035 50.548 24.721 50.548Z" fill="url(#paint12_linear_22_2352)"/>
<path d="M281.386 52.7947C282.556 47.3183 279.065 41.9303 273.588 40.7603C268.112 39.5903 262.724 43.0812 261.554 48.5576C260.384 54.034 263.875 59.422 269.351 60.5921C274.828 61.7621 280.216 58.2711 281.386 52.7947Z" fill="#7D97F4"/>
<path d="M268.632 46.9438H266.876C266.615 46.9438 266.403 47.1559 266.403 47.4175V54.8782C266.403 55.1397 266.615 55.3518 266.876 55.3518H268.632C268.893 55.3518 269.105 55.1397 269.105 54.8782V47.4175C269.105 47.1559 268.893 46.9438 268.632 46.9438Z" fill="url(#paint13_linear_22_2352)"/>
<path d="M274.846 46.9438H273.309V44.8249C273.311 44.67 273.281 44.5164 273.223 44.3729C273.165 44.2294 273.078 44.0988 272.969 43.9888C272.86 43.8788 272.731 43.7915 272.588 43.7319C272.445 43.6723 272.291 43.6416 272.136 43.6416H272.094C271.938 43.6414 271.783 43.672 271.639 43.7315C271.495 43.791 271.364 43.8784 271.254 43.9885C271.144 44.0987 271.056 44.2295 270.996 44.3736C270.937 44.5176 270.906 44.672 270.906 44.8279L270.361 46.8807C270.098 46.8807 269.709 47.0919 269.709 47.3529V55.1156C269.709 55.3766 270.277 55.6567 270.538 55.6567H274.849C275.831 55.6567 276.609 54.793 276.609 53.8121V48.6535C276.613 47.6711 275.829 46.9438 274.846 46.9438Z" fill="url(#paint14_linear_22_2352)"/>
<path d="M213.936 59.1924C215.494 56.6719 214.714 53.3656 212.193 51.8077C209.673 50.2497 206.367 51.0301 204.809 53.5506C203.251 56.0712 204.031 59.3775 206.552 60.9354C209.072 62.4933 212.379 61.713 213.936 59.1924Z" fill="#7D97F4"/>
<path d="M207.901 54.4515H206.901C206.763 54.4515 206.65 54.5638 206.65 54.7023V58.7054C206.65 58.8438 206.763 58.9561 206.901 58.9561H207.901C208.04 58.9561 208.152 58.8438 208.152 58.7054V54.7023C208.152 54.5638 208.04 54.4515 207.901 54.4515Z" fill="url(#paint15_linear_22_2352)"/>
<path d="M211.14 54.4515H210.26V53.2623C210.26 52.9147 210.059 52.6493 209.712 52.6493H209.69C209.608 52.6484 209.526 52.6637 209.45 52.6944C209.374 52.7251 209.304 52.7706 209.246 52.8283C209.187 52.886 209.141 52.9547 209.109 53.0304C209.077 53.1062 209.061 53.1875 209.061 53.2696L208.788 54.3503C208.649 54.3503 208.458 54.4588 208.458 54.5966V58.7024C208.458 58.8417 208.728 58.9531 208.866 58.9531H211.147C211.269 58.9525 211.39 58.9277 211.502 58.8799C211.615 58.8322 211.717 58.7625 211.802 58.675C211.887 58.5875 211.954 58.4839 211.999 58.3703C212.043 58.2567 212.065 58.1353 212.062 58.0132V55.2814C212.062 54.7682 211.659 54.4515 211.14 54.4515Z" fill="url(#paint16_linear_22_2352)"/>
<path d="M50.1525 32.8899C50.9178 29.6473 48.9096 26.3983 45.667 25.633C42.4245 24.8677 39.1754 26.8759 38.4101 30.1185C37.6448 33.361 39.653 36.61 42.8956 37.3753C46.1381 38.1407 49.3871 36.1325 50.1525 32.8899Z" fill="#7D97F4"/>
<path d="M42.7213 29.229H41.4822C41.3267 29.229 41.2007 29.3551 41.2007 29.5105V34.0518C41.2007 34.2072 41.3267 34.3333 41.4822 34.3333H42.7213C42.8768 34.3333 43.0028 34.2072 43.0028 34.0518V29.5105C43.0028 29.3551 42.8768 29.229 42.7213 29.229Z" fill="url(#paint17_linear_22_2352)"/>
<path d="M46.2789 29.2291H45.3991V28.0208C45.3991 27.6308 45.0487 27.4343 44.6586 27.4343H44.6337C44.544 27.4279 44.454 27.4399 44.3691 27.4695C44.2843 27.4992 44.2064 27.5458 44.1402 27.6066C44.074 27.6675 44.021 27.7412 43.9843 27.8232C43.9476 27.9053 43.9281 27.994 43.9269 28.0839L43.6424 29.276C43.487 29.276 43.2964 29.3728 43.2964 29.5297V34.1471C43.2964 34.3026 43.553 34.3407 43.7084 34.3407H46.2789C46.8655 34.3407 47.2056 33.9551 47.2056 33.37V30.3054C47.2056 29.713 46.8625 29.2291 46.2789 29.2291Z" fill="url(#paint18_linear_22_2352)"/>
<path d="M116.073 160.219C116.073 160.102 116.084 159.993 116.087 159.899C116.092 159.769 116.069 159.638 116.018 159.518C115.967 159.397 115.89 159.289 115.793 159.202C114.647 158.153 110.352 154.555 104.247 153.39C104.101 153.361 103.949 153.375 103.81 153.432C103.672 153.488 103.553 153.584 103.469 153.707C104.181 153.811 104.885 153.962 105.577 154.16C108.598 154.981 112.974 157.135 116.073 160.219Z" fill="url(#paint19_linear_22_2352)"/>
<path d="M105.582 154.16C104.89 153.962 104.185 153.811 103.473 153.707C103.386 153.83 103.337 153.976 103.332 154.127C103.327 154.277 103.366 154.426 103.445 154.555C103.557 154.738 103.679 154.914 103.812 155.083C104.758 156.289 112.419 164.297 112.419 164.297C112.419 164.297 114.872 164.62 115.628 164.191C115.871 164.045 116.016 161.504 116.067 160.219C112.973 157.135 108.598 154.981 105.582 154.16Z" fill="url(#paint20_linear_22_2352)"/>
<path d="M115.703 168.46L115.746 163.732C115.749 163.537 115.69 163.345 115.577 163.186C115.464 163.026 115.304 162.906 115.118 162.844C114.532 162.65 113.634 162.467 112.81 162.766C112.574 162.856 112.369 163.011 112.218 163.213C112.066 163.415 111.975 163.655 111.955 163.907L111.562 168.319L115.703 168.46Z" fill="url(#paint21_linear_22_2352)"/>
<path d="M96.9955 164.102C96.9448 163.923 96.8429 163.762 96.7023 163.64C95.7081 163.828 93.6362 164.356 89.3897 165.81C84.4658 167.498 83.0156 168.998 82.5947 169.805C84.6916 170.439 89.4615 171.418 96.3298 170.148L97.6906 169.525C97.6906 169.525 97.6187 166.221 96.9955 164.102Z" fill="url(#paint22_linear_22_2352)"/>
<path d="M89.3819 165.81C93.6342 164.356 95.7003 163.828 96.6945 163.64C96.5844 163.546 96.4545 163.479 96.3146 163.443C96.1746 163.406 96.0283 163.402 95.8865 163.431C93.4451 163.914 86.0621 165.58 82.1866 168.665C82.0985 168.735 82.0308 168.826 81.9909 168.931C81.9509 169.036 81.9401 169.149 81.9597 169.26C81.9793 169.37 82.0285 169.473 82.102 169.558C82.1755 169.642 82.2707 169.705 82.3772 169.74L82.5869 169.805C83.0077 168.998 84.4579 167.498 89.3819 165.81Z" fill="url(#paint23_linear_22_2352)"/>
<path d="M100.193 172.403L97.3396 168.922C97.2044 168.756 97.0223 168.634 96.8171 168.573C96.6118 168.511 96.3929 168.513 96.1886 168.577C95.5442 168.792 94.966 169.17 94.5096 169.673C94.3742 169.82 94.2869 170.005 94.2593 170.203C94.2318 170.401 94.2654 170.603 94.3556 170.781L96.4173 174.868L100.193 172.403Z" fill="url(#paint24_linear_22_2352)"/>
<path d="M110.944 166.769C110.944 166.769 114.471 166.127 116.418 166.82C116.418 166.82 118.851 182.293 118.362 187.257L110.738 188.733C110.738 188.733 110.686 171.324 110.944 166.769Z" fill="url(#paint25_linear_22_2352)"/>
<path d="M141.908 194.127C141.908 194.127 117.026 195.3 106.938 194.505C106.453 194.468 105.985 194.304 105.583 194.03C105.181 193.757 104.857 193.382 104.644 192.945C102.52 188.594 96.1514 175.538 95.5942 174.292C95.5942 174.292 98.2498 172.114 100.199 171.828C100.199 171.828 109.315 182.16 109.652 187.392C109.652 187.392 131.04 181.453 133.145 181.526C135.251 181.6 141.687 184.546 141.687 184.546L141.908 194.127Z" fill="url(#paint26_linear_22_2352)"/>
<path d="M170.652 165.235L165.048 170.58C164.866 170.752 164.757 170.986 164.741 171.235C164.725 171.484 164.803 171.73 164.961 171.923C166.656 173.976 168.117 175.064 169.339 175.149C169.595 175.164 169.85 175.11 170.077 174.993C170.305 174.875 170.497 174.699 170.633 174.482L173.63 169.853L170.652 165.235Z" fill="url(#paint27_linear_22_2352)"/>
<path d="M181.621 191.931L184.976 190.662C185.414 190.495 185.889 190.446 186.352 190.521C186.815 190.595 187.251 190.79 187.615 191.085L191.933 194.587L181.984 194.531L181.621 191.931Z" fill="url(#paint28_linear_22_2352)"/>
<path d="M164.069 177.447C164.069 177.447 164.345 170.849 161.634 170.692C158.27 170.497 152.836 172.891 155.968 182.59C157.698 187.949 160.345 191.939 167.698 193.687C167.984 191.601 168.869 189.644 170.244 188.05C167.257 185.909 164.745 182.591 164.069 177.447Z" fill="url(#paint29_linear_22_2352)"/>
<path d="M179.216 188.053C178.599 188.64 178.221 189.018 178.221 189.018L175.804 182.892C174.684 178.786 172.254 175.158 168.885 172.56L166.538 170.749C164.232 168.97 160.513 169.544 158.128 171.215C152.833 174.928 144.966 181.16 142.279 183.304C141.996 183.529 141.656 183.672 141.297 183.717C140.937 183.761 140.572 183.706 140.243 183.556L139.803 183.355C139.707 183.312 139.602 183.294 139.498 183.304C139.394 183.315 139.294 183.352 139.209 183.413C139.124 183.474 139.056 183.557 139.013 183.653C138.97 183.748 138.953 183.853 138.964 183.958L140.001 194.317L158.075 194.275C160.242 194.295 166.521 194.128 167.537 192.222L169.245 188.131C173.131 191.503 178.133 193.832 180.818 194.522C180.944 194.53 181.068 194.49 181.165 194.408C179.483 192.676 179.202 189.87 179.216 188.053Z" fill="url(#paint30_linear_22_2352)"/>
<path d="M189.255 181.315C189.016 178.937 181.89 185.505 179.223 188.06C179.202 189.877 179.484 192.679 181.169 194.414C183.05 193.185 189.381 182.566 189.255 181.315Z" fill="url(#paint31_linear_22_2352)"/>
<path d="M169.899 188.066C169.846 188.064 169.795 188.047 169.752 188.016C166.32 185.55 164.432 182.202 163.812 177.482C163.811 177.467 163.811 177.452 163.812 177.437C163.885 175.677 163.635 171.073 161.626 170.956C160.643 170.902 159.66 171.069 158.75 171.445C158.718 171.461 158.683 171.471 158.647 171.472C158.611 171.474 158.575 171.469 158.542 171.456C158.508 171.444 158.477 171.424 158.451 171.399C158.425 171.375 158.404 171.345 158.39 171.312C158.376 171.278 158.369 171.243 158.37 171.207C158.37 171.171 158.377 171.135 158.392 171.103C158.406 171.07 158.427 171.04 158.454 171.016C158.48 170.991 158.511 170.972 158.545 170.96C159.529 170.552 160.593 170.37 161.657 170.429C164.535 170.596 164.359 176.927 164.341 177.435C164.944 181.99 166.762 185.217 170.06 187.588C170.088 187.608 170.112 187.634 170.131 187.663C170.149 187.693 170.161 187.726 170.167 187.76C170.173 187.794 170.171 187.829 170.163 187.863C170.155 187.896 170.141 187.928 170.12 187.956C170.095 187.991 170.062 188.019 170.023 188.038C169.985 188.058 169.942 188.067 169.899 188.066Z" fill="url(#paint32_linear_22_2352)"/>
<path d="M165.352 193.263C165.323 193.263 165.293 193.257 165.266 193.247C159.178 191.083 157.078 186.883 155.717 182.667C155.424 181.773 155.189 180.859 155.015 179.934C155.004 179.866 155.02 179.796 155.06 179.74C155.099 179.683 155.16 179.645 155.228 179.632C155.295 179.62 155.365 179.635 155.423 179.673C155.48 179.712 155.52 179.771 155.534 179.839C155.705 180.741 155.933 181.632 156.218 182.505C157.538 186.593 159.569 190.663 165.443 192.75C165.502 192.77 165.552 192.811 165.584 192.866C165.616 192.92 165.627 192.983 165.616 193.045C165.605 193.107 165.573 193.163 165.524 193.203C165.476 193.243 165.415 193.264 165.352 193.263Z" fill="url(#paint33_linear_22_2352)"/>
<path d="M182.95 194.503L182.963 191.943C182.963 191.943 175.778 192.037 170.238 188.05C168.863 189.644 167.979 191.601 167.692 193.687C171.411 194.571 176.332 194.876 182.95 194.503Z" fill="url(#paint34_linear_22_2352)"/>
<path d="M191.372 174.234L186.423 173.582C185.837 173.485 185.225 173.83 184.86 174.47L181.605 181.666C180.992 182.741 181.427 184.159 182.42 184.33L186.394 184.84C186.774 184.903 187.164 184.663 187.379 184.235L191.778 175.449C192.036 174.934 191.827 174.309 191.372 174.234Z" fill="url(#paint35_linear_22_2352)"/>
<path d="M190.33 178.365C190.33 178.365 188.817 176.337 187.529 176.245C186.242 176.152 186.536 178.938 187.485 181.021C188.434 183.103 189.827 180.375 190.33 178.365Z" fill="url(#paint36_linear_22_2352)"/>
<path d="M179.979 164.073C179.979 164.073 178.118 169.268 176.055 170.888C173.992 172.508 170.987 173.942 169.75 164.98L171.785 161.655C171.98 161.335 172.288 161.099 172.647 160.993C173.007 160.887 173.393 160.918 173.731 161.08C178.809 158.858 178.923 164.86 179.979 164.073Z" fill="url(#paint37_linear_22_2352)"/>
<path d="M186.607 160.93C185.698 161.752 180.635 156.545 179.11 155.612C178.207 155.061 176.987 155.564 176.142 156.065C175.848 156.24 175.517 156.342 175.176 156.364C174.835 156.386 174.494 156.326 174.18 156.19C173.803 156.026 173.28 155.819 172.554 155.567C170.001 154.677 169.458 160.561 169.458 160.561C169.458 160.561 169.258 164.609 169.458 164.985C169.659 165.36 170.409 164.722 171.302 162.511C172.195 160.3 177.46 162.111 178.909 163.963C180.358 165.815 181.361 165.214 183.161 164.989C184.962 164.765 182.962 164.017 185.224 163.542C187.487 163.067 187.516 160.109 186.607 160.93Z" fill="url(#paint38_linear_22_2352)"/>
<path d="M171.715 164.156C171.715 164.156 172.056 161.238 170.735 161.734C169.414 162.229 169.958 164.608 170.964 165.4L171.715 164.156Z" fill="url(#paint39_linear_22_2352)"/>
<path d="M170.242 186.575L170.096 186.315C171.402 185.55 171.879 180.837 171.883 180.79L172.176 180.819C172.157 181.02 171.679 185.732 170.242 186.575Z" fill="url(#paint40_linear_22_2352)"/>
<defs>
<linearGradient id="paint0_linear_22_2352" x1="108.422" y1="-27.0633" x2="200.39" y2="233.609" gradientUnits="userSpaceOnUse">
<stop stop-color="#DAE3FE"/>
<stop offset="1" stop-color="#E9EFFD"/>
</linearGradient>
<linearGradient id="paint1_linear_22_2352" x1="187.082" y1="121.442" x2="317.745" y2="-55.4162" gradientUnits="userSpaceOnUse">
<stop stop-color="#4042E2"/>
<stop offset="1" stop-color="#4F52FF"/>
</linearGradient>
<linearGradient id="paint2_linear_22_2352" x1="131725" y1="14212.4" x2="113378" y2="69757.4" gradientUnits="userSpaceOnUse">
<stop stop-color="#4042E2"/>
<stop offset="1" stop-color="#4F52FF"/>
</linearGradient>
<linearGradient id="paint3_linear_22_2352" x1="46413.7" y1="69113.2" x2="124205" y2="24779.1" gradientUnits="userSpaceOnUse">
<stop stop-color="#4042E2"/>
<stop offset="1" stop-color="#4F52FF"/>
</linearGradient>
<linearGradient id="paint4_linear_22_2352" x1="35873.7" y1="705.252" x2="20514.6" y2="30409.6" gradientUnits="userSpaceOnUse">
<stop stop-color="#4042E2"/>
<stop offset="1" stop-color="#4F52FF"/>
</linearGradient>
<linearGradient id="paint5_linear_22_2352" x1="3336.57" y1="1795.04" x2="3358.71" y2="1795.04" gradientUnits="userSpaceOnUse">
<stop stop-color="#DAE3FE"/>
<stop offset="1" stop-color="#E9EFFD"/>
</linearGradient>
<linearGradient id="paint6_linear_22_2352" x1="7021.66" y1="2374.53" x2="7125.57" y2="2374.53" gradientUnits="userSpaceOnUse">
<stop stop-color="#DAE3FE"/>
<stop offset="1" stop-color="#E9EFFD"/>
</linearGradient>
<linearGradient id="paint7_linear_22_2352" x1="1680.25" y1="3448.25" x2="1710.36" y2="3448.25" gradientUnits="userSpaceOnUse">
<stop stop-color="#DAE3FE"/>
<stop offset="1" stop-color="#E9EFFD"/>
</linearGradient>
<linearGradient id="paint8_linear_22_2352" x1="3578.57" y1="4575.46" x2="3716.81" y2="4575.46" gradientUnits="userSpaceOnUse">
<stop stop-color="#DAE3FE"/>
<stop offset="1" stop-color="#E9EFFD"/>
</linearGradient>
<linearGradient id="paint9_linear_22_2352" x1="1693.74" y1="1778.39" x2="1709.12" y2="1778.39" gradientUnits="userSpaceOnUse">
<stop stop-color="#DAE3FE"/>
<stop offset="1" stop-color="#E9EFFD"/>
</linearGradient>
<linearGradient id="paint10_linear_22_2352" x1="3292.63" y1="2288.34" x2="3354.08" y2="2288.34" gradientUnits="userSpaceOnUse">
<stop stop-color="#DAE3FE"/>
<stop offset="1" stop-color="#E9EFFD"/>
</linearGradient>
<linearGradient id="paint11_linear_22_2352" x1="818.366" y1="4240.96" x2="868.172" y2="4240.96" gradientUnits="userSpaceOnUse">
<stop stop-color="#DAE3FE"/>
<stop offset="1" stop-color="#E9EFFD"/>
</linearGradient>
<linearGradient id="paint12_linear_22_2352" x1="2225.01" y1="5911.69" x2="2550.3" y2="5911.69" gradientUnits="userSpaceOnUse">
<stop stop-color="#DAE3FE"/>
<stop offset="1" stop-color="#E9EFFD"/>
</linearGradient>
<linearGradient id="paint13_linear_22_2352" x1="5678.38" y1="4030.7" x2="5728.19" y2="4030.7" gradientUnits="userSpaceOnUse">
<stop stop-color="#DAE3FE"/>
<stop offset="1" stop-color="#E9EFFD"/>
</linearGradient>
<linearGradient id="paint14_linear_22_2352" x1="14241.4" y1="5613.48" x2="14566.3" y2="5613.48" gradientUnits="userSpaceOnUse">
<stop stop-color="#DAE3FE"/>
<stop offset="1" stop-color="#E9EFFD"/>
</linearGradient>
<linearGradient id="paint15_linear_22_2352" x1="2601.59" y1="2359.44" x2="2616.96" y2="2359.44" gradientUnits="userSpaceOnUse">
<stop stop-color="#DAE3FE"/>
<stop offset="1" stop-color="#E9EFFD"/>
</linearGradient>
<linearGradient id="paint16_linear_22_2352" x1="6002.05" y1="3239.54" x2="6090.65" y2="3239.54" gradientUnits="userSpaceOnUse">
<stop stop-color="#DAE3FE"/>
<stop offset="1" stop-color="#E9EFFD"/>
</linearGradient>
<linearGradient id="paint17_linear_22_2352" x1="882.373" y1="1773.52" x2="904.503" y2="1773.52" gradientUnits="userSpaceOnUse">
<stop stop-color="#DAE3FE"/>
<stop offset="1" stop-color="#E9EFFD"/>
</linearGradient>
<linearGradient id="paint18_linear_22_2352" x1="1924.04" y1="2345.72" x2="2028.1" y2="2345.72" gradientUnits="userSpaceOnUse">
<stop stop-color="#DAE3FE"/>
<stop offset="1" stop-color="#E9EFFD"/>
</linearGradient>
<linearGradient id="paint19_linear_22_2352" x1="113.134" y1="148.471" x2="122.042" y2="126.069" gradientUnits="userSpaceOnUse">
<stop stop-color="#09005D"/>
<stop offset="1" stop-color="#1A0F91"/>
</linearGradient>
<linearGradient id="paint20_linear_22_2352" x1="11520.7" y1="14318.7" x2="11755.1" y2="13445.5" gradientUnits="userSpaceOnUse">
<stop stop-color="#09005D"/>
<stop offset="1" stop-color="#1A0F91"/>
</linearGradient>
<linearGradient id="paint21_linear_22_2352" x1="112.733" y1="159.358" x2="115.861" y2="182.251" gradientUnits="userSpaceOnUse">
<stop stop-color="#FF928E"/>
<stop offset="1" stop-color="#FEB3B1"/>
</linearGradient>
<linearGradient id="paint22_linear_22_2352" x1="12178.7" y1="9793.27" x2="12176.5" y2="9384.62" gradientUnits="userSpaceOnUse">
<stop stop-color="#09005D"/>
<stop offset="1" stop-color="#1A0F91"/>
</linearGradient>
<linearGradient id="paint23_linear_22_2352" x1="12919" y1="7134.79" x2="13102.9" y2="6038.62" gradientUnits="userSpaceOnUse">
<stop stop-color="#09005D"/>
<stop offset="1" stop-color="#1A0F91"/>
</linearGradient>
<linearGradient id="paint24_linear_22_2352" x1="5161.45" y1="7902.26" x2="5315.15" y2="8887.98" gradientUnits="userSpaceOnUse">
<stop stop-color="#FF928E"/>
<stop offset="1" stop-color="#FEB3B1"/>
</linearGradient>
<linearGradient id="paint25_linear_22_2352" x1="8037.14" y1="27905.5" x2="4928.17" y2="29361.5" gradientUnits="userSpaceOnUse">
<stop stop-color="#09005D"/>
<stop offset="1" stop-color="#1A0F91"/>
</linearGradient>
<linearGradient id="paint26_linear_22_2352" x1="50423.6" y1="25085.4" x2="50058.5" y2="27479.3" gradientUnits="userSpaceOnUse">
<stop stop-color="#09005D"/>
<stop offset="1" stop-color="#1A0F91"/>
</linearGradient>
<linearGradient id="paint27_linear_22_2352" x1="12414.4" y1="12543.1" x2="11748.4" y2="13217.8" gradientUnits="userSpaceOnUse">
<stop stop-color="#FF928E"/>
<stop offset="1" stop-color="#FEB3B1"/>
</linearGradient>
<linearGradient id="paint28_linear_22_2352" x1="15824" y1="5681.71" x2="15754.8" y2="6052.43" gradientUnits="userSpaceOnUse">
<stop stop-color="#FF928E"/>
<stop offset="1" stop-color="#FEB3B1"/>
</linearGradient>
<linearGradient id="paint29_linear_22_2352" x1="170.033" y1="154.373" x2="138.033" y2="273.977" gradientUnits="userSpaceOnUse">
<stop stop-color="#FE7062"/>
<stop offset="1" stop-color="#FF928E"/>
</linearGradient>
<linearGradient id="paint30_linear_22_2352" x1="57261" y1="29118.2" x2="54043.9" y2="50310.4" gradientUnits="userSpaceOnUse">
<stop stop-color="#FE7062"/>
<stop offset="1" stop-color="#FF928E"/>
</linearGradient>
<linearGradient id="paint31_linear_22_2352" x1="15235.1" y1="16539.9" x2="11539.9" y2="27114.9" gradientUnits="userSpaceOnUse">
<stop stop-color="#FF928E"/>
<stop offset="1" stop-color="#FEB3B1"/>
</linearGradient>
<linearGradient id="paint32_linear_22_2352" x1="163.702" y1="135.709" x2="164.644" y2="210.589" gradientUnits="userSpaceOnUse">
<stop stop-color="#E1473D"/>
<stop offset="1" stop-color="#E9605A"/>
</linearGradient>
<linearGradient id="paint33_linear_22_2352" x1="13798" y1="14348.3" x2="13993.3" y2="21307.8" gradientUnits="userSpaceOnUse">
<stop stop-color="#E1473D"/>
<stop offset="1" stop-color="#E9605A"/>
</linearGradient>
<linearGradient id="paint34_linear_22_2352" x1="22365.9" y1="8843.03" x2="22245.2" y2="9436.93" gradientUnits="userSpaceOnUse">
<stop stop-color="#FF928E"/>
<stop offset="1" stop-color="#FEB3B1"/>
</linearGradient>
<linearGradient id="paint35_linear_22_2352" x1="88530.6" y1="24570" x2="88889" y2="24957.2" gradientUnits="userSpaceOnUse">
<stop stop-color="#09005D"/>
<stop offset="1" stop-color="#1A0F91"/>
</linearGradient>
<linearGradient id="paint36_linear_22_2352" x1="5851.33" y1="7376.52" x2="5773.16" y2="7404.29" gradientUnits="userSpaceOnUse">
<stop stop-color="#FF928E"/>
<stop offset="1" stop-color="#FEB3B1"/>
</linearGradient>
<linearGradient id="paint37_linear_22_2352" x1="14397" y1="13776.9" x2="14131.8" y2="14985.2" gradientUnits="userSpaceOnUse">
<stop stop-color="#FF928E"/>
<stop offset="1" stop-color="#FEB3B1"/>
</linearGradient>
<linearGradient id="paint38_linear_22_2352" x1="24824.8" y1="11467.7" x2="24938.4" y2="12633.3" gradientUnits="userSpaceOnUse">
<stop stop-color="#09005D"/>
<stop offset="1" stop-color="#1A0F91"/>
</linearGradient>
<linearGradient id="paint39_linear_22_2352" x1="2624.47" y1="4544.82" x2="2482.45" y2="4897.16" gradientUnits="userSpaceOnUse">
<stop stop-color="#FF928E"/>
<stop offset="1" stop-color="#FEB3B1"/>
</linearGradient>
<linearGradient id="paint40_linear_22_2352" x1="2997" y1="8035.13" x2="2880.22" y2="8198.26" gradientUnits="userSpaceOnUse">
<stop stop-color="#E1473D"/>
<stop offset="1" stop-color="#E9605A"/>
</linearGradient>
</defs>
</svg>
