<svg width="257" height="251" viewBox="0 0 257 251" fill="none" xmlns="http://www.w3.org/2000/svg">
<path d="M241.819 71.5896C248.477 10.6752 189.684 -10.4871 148.005 5.10973C105.987 20.8324 96.2458 -5.23131 37.1624 2.21585C-22.6629 9.75584 7.7092 104.086 7.7092 104.086C7.7092 104.086 17.2284 186.113 28.5035 223.923C39.72 261.528 147.087 247.923 173.205 246.801C199.174 245.685 221.738 247.838 244.332 206.544C266.889 165.334 235.183 132.302 241.819 71.5896Z" fill="#F4F7FA"/>
<g style="mix-blend-mode:multiply" opacity="0.3">
<path d="M152.354 49.3321L147.752 49.6445C147.232 47.6019 146.535 45.6091 145.669 43.6889L149.49 41.1146C149.738 40.9463 149.95 40.7305 150.114 40.4795C150.279 40.2285 150.392 39.9473 150.447 39.6521C150.503 39.357 150.5 39.0537 150.438 38.7598C150.377 38.4658 150.258 38.1871 150.088 37.9395L145.634 31.3573C145.294 30.8518 144.769 30.5013 144.173 30.3817C143.578 30.262 142.959 30.3829 142.451 30.7182L138.581 33.3122C137.11 31.7977 135.514 30.4121 133.808 29.1704L135.852 24.9617C136.114 24.4098 136.148 23.7762 135.946 23.1993C135.745 22.6225 135.324 22.1492 134.776 21.883L127.605 18.3393C127.336 18.2019 127.042 18.1195 126.74 18.0968C126.439 18.074 126.136 18.1115 125.849 18.2069C125.562 18.3023 125.296 18.4538 125.068 18.6527C124.839 18.8516 124.652 19.094 124.517 19.3658L122.463 23.5879C120.429 22.9968 118.347 22.5831 116.242 22.3516L115.887 17.6207C115.836 17.0051 115.547 16.434 115.082 16.0295C114.617 15.625 114.013 15.4192 113.399 15.4561L105.384 15.931C105.082 15.9461 104.785 16.0218 104.513 16.1537C104.24 16.2855 103.996 16.4708 103.795 16.6987C103.595 16.9266 103.442 17.1925 103.345 17.4806C103.249 17.7688 103.21 18.0735 103.233 18.3768L103.588 23.1255C101.525 23.6119 99.5086 24.2782 97.5612 25.117L94.858 21.1582C94.5065 20.6445 93.9694 20.2887 93.3609 20.1665C92.7524 20.0443 92.1204 20.1654 91.5993 20.5039L84.8918 24.9286C84.6368 25.0958 84.4179 25.3128 84.2479 25.5666C84.0779 25.8204 83.9605 26.106 83.9025 26.4062C83.8444 26.7065 83.8471 27.0155 83.9102 27.3147C83.9733 27.614 84.0956 27.8975 84.2698 28.1483L86.9819 32.108C85.4432 33.5695 84.035 35.1636 82.7733 36.8719L78.4332 34.7662C77.2584 34.1959 75.8454 34.6681 75.2785 35.8204L71.7239 43.0364C71.589 43.3138 71.5106 43.6155 71.4932 43.9238C71.4758 44.232 71.5199 44.5406 71.6228 44.8316C71.7256 45.1225 71.8852 45.3899 72.0923 45.6181C72.2993 45.8463 72.5496 46.0308 72.8285 46.1606L77.1366 48.2377C76.5455 50.2895 76.1393 52.3906 75.9227 54.5155L71.1534 54.8387C70.8463 54.8559 70.5457 54.9342 70.269 55.0689C69.9923 55.2037 69.7449 55.3923 69.5413 55.6237C69.3376 55.8552 69.1817 56.125 69.0826 56.4174C68.9835 56.7098 68.9431 57.0191 68.9638 57.3273L69.5716 65.368C69.6685 66.6534 70.8059 67.621 72.1113 67.5291L76.8425 67.1943C77.3681 69.2812 78.0789 71.3165 78.9664 73.2758L75.0741 75.8849C74.8183 76.0541 74.5988 76.2729 74.4285 76.5286C74.2582 76.7843 74.1407 77.0717 74.0827 77.3737C74.0247 77.6758 74.0275 77.9864 74.091 78.2874C74.1544 78.5883 74.2772 78.8735 74.452 79.126L79.0499 85.7779C79.4093 86.2897 79.9537 86.6399 80.5668 86.7537C81.18 86.8674 81.8131 86.7357 82.3308 86.3866L86.1919 83.7837C87.7098 85.3251 89.3586 86.7307 91.1195 87.9844L89.1093 92.1271C88.9755 92.4025 88.8978 92.702 88.8806 93.008C88.8635 93.314 88.9073 93.6204 89.0095 93.9092C89.1117 94.198 89.2703 94.4634 89.4758 94.6898C89.6814 94.9163 89.9299 95.0993 90.2068 95.2281L97.5106 98.6825C98.0706 98.9477 98.7119 98.9814 99.2964 98.7764C99.881 98.5714 100.362 98.1441 100.636 97.5864L102.628 93.4803C104.712 94.0566 106.843 94.447 108.995 94.647L109.338 99.1877C109.363 99.4921 109.447 99.7886 109.586 100.06C109.725 100.332 109.916 100.573 110.148 100.771C110.38 100.968 110.648 101.117 110.938 101.21C111.228 101.303 111.533 101.338 111.836 101.312L119.839 100.678C120.449 100.631 121.016 100.343 121.415 99.8777C121.815 99.4121 122.015 98.8065 121.971 98.1934L121.629 93.666C123.709 93.1392 125.738 92.4292 127.693 91.5442L130.249 95.2736C130.597 95.7769 131.13 96.1215 131.73 96.232C132.33 96.3426 132.949 96.2101 133.453 95.8636L140.015 91.3693C140.264 91.1995 140.477 90.9821 140.642 90.7295C140.807 90.4769 140.921 90.194 140.977 89.8971C141.033 89.6002 141.03 89.2952 140.969 88.9994C140.907 88.7037 140.788 88.423 140.618 88.1737L138.056 84.4246C139.572 82.9396 140.956 81.324 142.192 79.5965L146.287 81.5709C146.833 81.8348 147.462 81.8702 148.034 81.6694C148.607 81.4686 149.077 81.048 149.341 80.4998L152.759 73.3722C153.02 72.8244 153.055 72.1946 152.855 71.6211C152.655 71.0476 152.237 70.5772 151.692 70.3132L147.588 68.3217C148.151 66.2886 148.533 64.2092 148.729 62.1082L153.294 61.7859C153.592 61.7653 153.884 61.6855 154.151 61.5513C154.418 61.4171 154.656 61.2311 154.852 61.004C155.047 60.7769 155.196 60.5132 155.289 60.2281C155.383 59.943 155.419 59.6421 155.396 59.3428L154.801 51.461C154.754 50.8542 154.471 50.2904 154.013 49.8918C153.555 49.4933 152.959 49.2922 152.354 49.3321ZM110.867 35.1697C123.766 34.3467 134.949 44.0477 135.914 56.8328C136.879 69.6178 127.272 80.7551 114.383 81.7218C101.417 82.6912 90.0558 73.0026 89.0791 60.0766C88.1025 47.1505 97.8892 35.9981 110.867 35.1697Z" fill="#BFC8D6"/>
</g>
<path d="M134.062 205.234C120.176 186.457 126.304 157.416 137.3 152.469C143.019 149.896 147.688 154.905 153.246 151.418C159.404 147.555 156.717 139.495 161.879 125.203C164.545 117.819 169.382 104.428 178.749 102.043C188.037 99.6788 192.523 110.496 202.653 108.507C212.236 106.626 211.869 96.2395 224.581 90.641C225.763 90.1197 239.138 84.4221 246.554 90.6088C254.087 96.8956 252.809 113.229 245.408 121.494C238.683 129.007 228.879 127.653 227.864 132.968C226.744 138.823 238.28 142.381 237.704 148.507C236.871 157.36 212.16 156.384 207.645 169.4C204.99 177.052 212.344 180.825 211.111 191.132C209.519 204.441 195.313 214.504 184.436 218.376C168.672 223.991 146.098 221.509 134.062 205.234Z" fill="url(#paint0_linear_18_870)"/>
<g style="mix-blend-mode:soft-light">
<g style="mix-blend-mode:soft-light">
<path d="M139.504 220.35L138.876 219.961C153.876 195.525 169.38 173.34 184.956 154.021C197.42 138.563 209.959 124.895 222.223 113.396C243.123 93.8 256.169 87.2125 256.3 87.1482L256.627 87.8123C256.498 87.8766 243.519 94.4356 222.688 113.974C203.459 132.009 173.419 165.103 139.504 220.35Z" fill="white"/>
</g>
<g style="mix-blend-mode:soft-light">
<path d="M220.285 115.345C223.081 92.5378 235.569 77.1329 235.7 76.9802L236.269 77.4524C236.143 77.6042 223.786 92.852 221.018 115.435L220.285 115.345Z" fill="white"/>
</g>
<g style="mix-blend-mode:soft-light">
<path d="M182.668 156.745C177.869 132.182 179.186 116.238 181.138 107.188C183.265 97.3318 186.501 93.3605 186.637 93.1963L187.204 93.6712C187.171 93.7104 183.924 97.7148 181.842 107.427C179.919 116.4 178.626 132.217 183.392 156.602L182.668 156.745Z" fill="white"/>
</g>
<g style="mix-blend-mode:soft-light">
<path d="M152.089 199.526C134.302 159.576 140.918 134.642 140.987 134.395L141.698 134.595C141.681 134.657 139.984 141.125 140.626 152.598C141.19 162.701 143.755 178.991 152.762 199.222L152.089 199.526Z" fill="white"/>
</g>
<g style="mix-blend-mode:soft-light">
<path d="M195.203 153.145C192.626 152.8 190.07 152.306 187.549 151.664L187.727 150.946C204.486 155.223 220.978 152.205 231.86 148.919C243.658 145.357 251.579 140.729 251.657 140.682L252.031 141.321C251.951 141.369 243.955 146.042 232.073 149.629C222.768 152.44 209.383 155.056 195.203 153.145Z" fill="white"/>
</g>
<g style="mix-blend-mode:soft-light">
<path d="M161.924 192.453C160.557 192.269 159.178 192.032 157.786 191.743L157.936 191.017C175.587 194.701 191.395 189.37 201.549 184.251C212.559 178.699 219.468 172.201 219.537 172.135L220.043 172.67C219.974 172.736 212.986 179.31 201.879 184.91C192.421 189.683 178.099 194.633 161.924 192.453Z" fill="white"/>
</g>
</g>
<path d="M74.7538 176.342C51.7255 179.816 29.0971 160.721 29.9235 148.647C30.3536 142.368 36.9509 140.586 36.4995 134.019C36.0027 126.743 27.6592 125.333 17.5323 114.034C12.2999 108.195 2.81098 97.6096 5.12323 88.1844C7.41594 78.8395 19.0278 79.9553 22.0475 70.0374C24.9036 60.6586 15.6066 56.0973 16.6685 42.1956C16.768 40.9031 18.0548 26.3667 26.9768 22.7052C36.0409 18.9847 49.7909 27.8029 53.573 38.2538C57.0094 47.7486 51.211 55.801 55.3992 59.2018C60.0201 62.9509 68.5689 54.3977 73.6795 57.7906C81.065 62.6938 68.5822 84.1381 77.8907 94.2632C83.3648 100.217 90.1354 95.4709 98.6139 101.416C109.556 109.092 111.713 126.409 109.997 137.877C107.514 154.489 94.7137 173.33 74.7538 176.342Z" fill="url(#paint1_linear_18_870)"/>
<g style="mix-blend-mode:soft-light">
<g style="mix-blend-mode:soft-light">
<path d="M90.5926 178.629L89.9545 179.003C75.5461 154.211 63.3503 130.031 53.7076 107.137C45.9915 88.8163 39.883 71.2718 35.5517 54.9912C28.1698 27.2467 28.5208 12.5818 28.5252 12.4381L29.2628 12.4613C29.2628 12.605 28.9144 27.195 36.2831 54.852C43.0768 80.3801 58.0149 122.576 90.5926 178.629Z" fill="white"/>
</g>
<g style="mix-blend-mode:soft-light">
<path d="M36.3528 57.6263C17.6327 44.4154 9.97699 26.097 9.90234 25.914L10.5848 25.632C10.6595 25.8105 18.2405 43.9405 36.7767 57.0193L36.3528 57.6263Z" fill="white"/>
</g>
<g style="mix-blend-mode:soft-light">
<path d="M55.0239 110.446C31.1869 103.146 17.8013 94.4748 10.7694 88.488C3.11109 81.9656 1.14541 77.2284 1.06543 77.0294L1.74969 76.7509C1.76835 76.7982 3.75802 81.5603 11.3097 87.9747C18.2882 93.9017 31.5708 102.488 55.2398 109.737L55.0239 110.446Z" fill="white"/>
</g>
<g style="mix-blend-mode:soft-light">
<path d="M78.2191 157.678C34.7555 154.648 15.9642 137.053 15.7803 136.88L16.2904 136.344C16.3366 136.389 21.2206 140.935 31.6008 145.765C40.7423 150.017 56.2589 155.405 78.2697 156.943L78.2191 157.678Z" fill="white"/>
</g>
<g style="mix-blend-mode:soft-light">
<path d="M57.7589 97.6407C56.2431 99.7631 54.6065 101.796 52.8572 103.728L52.3115 103.229C63.9528 90.3872 69.0616 74.3495 71.2948 63.1578C73.7164 51.0252 73.376 41.8241 73.3725 41.7348L74.11 41.7045C74.11 41.7937 74.4575 51.0842 72.0191 63.3059C70.1076 72.8767 66.1087 85.9714 57.7589 97.6407Z" fill="white"/>
</g>
<g style="mix-blend-mode:soft-light">
<path d="M76.6339 145.632C75.8276 146.757 74.9706 147.869 74.063 148.966L73.4961 148.492C85.036 134.58 87.7907 118.06 88.0698 106.652C88.3728 94.2808 85.9139 85.0993 85.8891 85.0074L86.6 84.8119C86.6249 84.9012 89.1121 94.1916 88.8065 106.67C88.5479 117.298 86.1574 132.321 76.6339 145.632Z" fill="white"/>
</g>
</g>
<path d="M245.713 229.888L12.4927 227.863V233.854C12.4927 235.481 13.5093 236.863 14.8876 237.11L80.8347 248.908C81.6154 249.048 82.4109 249.085 83.2012 249.019L243.178 235.567C244.606 235.447 245.713 234.06 245.713 232.39V229.888Z" fill="#BFC8D6"/>
<path d="M159.887 220.286L11.6614 231.247C9.00879 231.443 6.85205 229.359 6.85205 226.592V115.715C6.85205 112.948 9.00879 110.704 11.6614 110.704L16.9044 113.739L159.887 110.704C162.073 110.704 163.839 112.732 163.839 115.234V215.465C163.844 217.967 162.073 220.125 159.887 220.286Z" fill="#BFC8D6"/>
<path d="M162.25 220.286L14.0183 231.247C11.3657 231.443 9.20898 229.359 9.20898 226.592V115.715C9.20898 112.948 11.3657 110.704 14.0183 110.704H162.25C164.436 110.704 166.203 112.732 166.203 115.234V215.465C166.203 217.967 164.436 220.125 162.25 220.286Z" fill="white"/>
<path d="M157.634 213.221L19.5721 222.741C17.4136 222.89 15.6621 221.179 15.6621 218.92V121.847C15.6621 119.587 17.4163 117.748 19.5721 117.741L157.634 117.143C159.437 117.135 160.894 118.797 160.894 120.855V209.272C160.894 211.327 159.437 213.096 157.634 213.221Z" fill="#D8DEE8"/>
<g style="mix-blend-mode:soft-light">
<g style="mix-blend-mode:soft-light">
<path d="M68.5382 126.849L31.2783 126.947L31.2729 123.378L68.5329 123.391L68.5382 126.849Z" fill="white"/>
</g>
<g style="mix-blend-mode:soft-light">
<path d="M86.0836 125.816L77.4762 125.831L77.4727 123.393L86.0792 123.396L86.0836 125.816Z" fill="white"/>
</g>
<g style="mix-blend-mode:soft-light">
<path d="M86.0885 129.178L77.482 129.219L77.4775 126.781L86.0849 126.758L86.0885 129.178Z" fill="white"/>
</g>
<g style="mix-blend-mode:soft-light">
<path d="M128.981 128.978L95.589 129.134L95.5854 126.734L128.978 126.648L128.981 128.978Z" fill="white"/>
</g>
<g style="mix-blend-mode:soft-light">
<path d="M134.462 132.175L101.402 132.425L101.398 130.037L134.459 129.856L134.462 132.175Z" fill="white"/>
</g>
<g style="mix-blend-mode:soft-light">
<path d="M134.468 135.396L101.407 135.743L101.404 133.355L134.464 133.077L134.468 135.396Z" fill="white"/>
</g>
<g style="mix-blend-mode:soft-light">
<path d="M134.472 138.618L101.413 139.06L101.409 136.673L134.469 136.299L134.472 138.618Z" fill="white"/>
</g>
<g style="mix-blend-mode:soft-light">
<path d="M86.0934 132.541L77.486 132.606L77.4824 130.168L86.0898 130.121L86.0934 132.541Z" fill="white"/>
</g>
<g style="mix-blend-mode:soft-light">
<path d="M86.0983 135.903L77.4909 135.994L77.4873 133.555L86.0947 133.482L86.0983 135.903Z" fill="white"/>
</g>
<g style="mix-blend-mode:soft-light">
<path d="M86.1041 139.265L77.4967 139.38L77.4932 136.942L86.1006 136.845L86.1041 139.265Z" fill="white"/>
</g>
<g style="mix-blend-mode:soft-light">
<path d="M86.109 142.627L77.5016 142.767L77.498 140.33L86.1046 140.207L86.109 142.627Z" fill="white"/>
</g>
<g style="mix-blend-mode:soft-light">
<path d="M109.173 142.252L87.987 142.597L87.9834 140.181L109.17 139.88L109.173 142.252Z" fill="white"/>
</g>
<g style="mix-blend-mode:soft-light">
<path d="M86.1149 145.99L77.5075 146.155L77.5039 143.716L86.1104 143.57L86.1149 145.99Z" fill="white"/>
</g>
<g style="mix-blend-mode:soft-light">
<path d="M86.1194 149.352L77.5128 149.542L77.5093 147.104L86.1158 146.932L86.1194 149.352Z" fill="white"/>
</g>
<g style="mix-blend-mode:soft-light">
<path d="M86.1246 152.714L77.5181 152.929L77.5137 150.491L86.1211 150.294L86.1246 152.714Z" fill="white"/>
</g>
<g style="mix-blend-mode:soft-light">
<path d="M119.104 145.357L95.6149 145.807L95.6113 143.408L119.1 143.006L119.104 145.357Z" fill="white"/>
</g>
<g style="mix-blend-mode:soft-light">
<path d="M131.312 148.354L101.427 149.013L101.424 146.626L131.308 146.028L131.312 148.354Z" fill="white"/>
</g>
<g style="mix-blend-mode:soft-light">
<path d="M131.317 151.585L101.433 152.331L101.43 149.943L131.314 149.259L131.317 151.585Z" fill="white"/>
</g>
<g style="mix-blend-mode:soft-light">
<path d="M86.1295 156.077L77.523 156.317L77.5186 153.879L86.126 153.657L86.1295 156.077Z" fill="white"/>
</g>
<g style="mix-blend-mode:soft-light">
<path d="M86.1349 159.438L77.5275 159.704L77.5239 157.265L86.1313 157.018L86.1349 159.438Z" fill="white"/>
</g>
<g style="mix-blend-mode:soft-light">
<path d="M86.1403 162.801L77.5329 163.091L77.5293 160.653L86.1358 160.381L86.1403 162.801Z" fill="white"/>
</g>
<g style="mix-blend-mode:soft-light">
<path d="M86.1452 166.163L77.5387 166.478L77.5352 164.041L86.1417 163.743L86.1452 166.163Z" fill="white"/>
</g>
<g style="mix-blend-mode:soft-light">
<path d="M86.1501 169.526L77.5436 169.866L77.54 167.427L86.1465 167.106L86.1501 169.526Z" fill="white"/>
</g>
<g style="mix-blend-mode:soft-light">
<path d="M86.1555 172.887L77.549 173.252L77.5454 170.815L86.1519 170.467L86.1555 172.887Z" fill="white"/>
</g>
<g style="mix-blend-mode:soft-light">
<path d="M86.1608 176.25L77.5542 176.64L77.5498 174.202L86.1572 173.83L86.1608 176.25Z" fill="white"/>
</g>
<g style="mix-blend-mode:soft-light">
<path d="M86.1666 179.612L77.5601 180.027L77.5557 177.59L86.1631 177.193L86.1666 179.612Z" fill="white"/>
</g>
<g style="mix-blend-mode:soft-light">
<path d="M86.1706 182.974L77.5641 183.414L77.5605 180.976L86.1671 180.554L86.1706 182.974Z" fill="white"/>
</g>
<g style="mix-blend-mode:soft-light">
<path d="M86.176 186.336L77.5695 186.801L77.5659 184.364L86.1724 183.917L86.176 186.336Z" fill="white"/>
</g>
<g style="mix-blend-mode:soft-light">
<path d="M86.1809 189.699L77.5743 190.189L77.5708 187.751L86.1773 187.279L86.1809 189.699Z" fill="white"/>
</g>
<g style="mix-blend-mode:soft-light">
<path d="M86.1872 193.062L77.5807 193.577L77.5771 191.139L86.1837 190.641L86.1872 193.062Z" fill="white"/>
</g>
<g style="mix-blend-mode:soft-light">
<path d="M86.1921 196.423L77.5856 196.963L77.582 194.525L86.1886 194.003L86.1921 196.423Z" fill="white"/>
</g>
<g style="mix-blend-mode:soft-light">
<path d="M86.197 199.786L77.5905 200.351L77.5869 197.913L86.1926 197.366L86.197 199.786Z" fill="white"/>
</g>
<g style="mix-blend-mode:soft-light">
<path d="M86.2023 203.148L77.5957 203.738L77.5913 201.3L86.1978 200.728L86.2023 203.148Z" fill="white"/>
</g>
<g style="mix-blend-mode:soft-light">
<path d="M86.2072 206.51L77.6007 207.125L77.5972 204.687L86.2037 204.09L86.2072 206.51Z" fill="white"/>
</g>
<g style="mix-blend-mode:soft-light">
<path d="M86.2126 209.872L77.6061 210.512L77.6025 208.075L86.2091 207.452L86.2126 209.872Z" fill="white"/>
</g>
<g style="mix-blend-mode:soft-light">
<path d="M86.218 213.235L77.6115 213.9L77.6079 211.462L86.2144 210.815L86.218 213.235Z" fill="white"/>
</g>
<g style="mix-blend-mode:soft-light">
<path d="M111.377 125.771L87.9025 125.813L87.8989 123.397L111.373 123.405L111.377 125.771Z" fill="white"/>
</g>
<g style="mix-blend-mode:soft-light">
<path d="M129.082 193.732L95.6925 195.827L95.689 193.427L129.078 191.401L129.082 193.732Z" fill="white"/>
</g>
<g style="mix-blend-mode:soft-light">
<path d="M134.562 196.61L101.504 198.781L101.5 196.393L134.558 194.292L134.562 196.61Z" fill="white"/>
</g>
<g style="mix-blend-mode:soft-light">
<path d="M134.567 199.832L101.509 202.098L101.506 199.711L134.563 197.513L134.567 199.832Z" fill="white"/>
</g>
<g style="mix-blend-mode:soft-light">
<path d="M148.816 202.035L116.615 204.337L116.612 201.981L148.813 199.746L148.816 202.035Z" fill="white"/>
</g>
<g style="mix-blend-mode:soft-light">
<path d="M148.822 205.216L116.621 207.61L116.618 205.255L148.819 202.927L148.822 205.216Z" fill="white"/>
</g>
<g style="mix-blend-mode:soft-light">
<path d="M148.826 208.397L116.625 210.885L116.622 208.528L148.822 206.107L148.826 208.397Z" fill="white"/>
</g>
<g style="mix-blend-mode:soft-light">
<path d="M111.479 191.548L88.007 192.953L88.0034 190.536L111.475 189.18L111.479 191.548Z" fill="white"/>
</g>
<g style="mix-blend-mode:soft-light">
<path d="M129.026 158.117L95.6354 159.146L95.6318 156.746L129.023 155.787L129.026 158.117Z" fill="white"/>
</g>
<g style="mix-blend-mode:soft-light">
<path d="M134.508 161.171L101.448 162.285L101.445 159.897L134.504 158.852L134.508 161.171Z" fill="white"/>
</g>
<g style="mix-blend-mode:soft-light">
<path d="M134.512 164.392L101.454 165.603L101.45 163.215L134.509 162.073L134.512 164.392Z" fill="white"/>
</g>
<g style="mix-blend-mode:soft-light">
<path d="M134.517 167.614L101.459 168.92L101.454 166.533L134.513 165.296L134.517 167.614Z" fill="white"/>
</g>
<g style="mix-blend-mode:soft-light">
<path d="M109.219 171.909L88.0342 172.808L88.0298 170.391L109.215 169.537L109.219 171.909Z" fill="white"/>
</g>
<g style="mix-blend-mode:soft-light">
<path d="M119.149 174.755L95.6613 175.819L95.6577 173.419L119.145 172.404L119.149 174.755Z" fill="white"/>
</g>
<g style="mix-blend-mode:soft-light">
<path d="M131.356 177.433L101.474 178.874L101.47 176.486L131.354 175.107L131.356 177.433Z" fill="white"/>
</g>
<g style="mix-blend-mode:soft-light">
<path d="M131.362 180.664L101.479 182.192L101.475 179.803L131.358 178.337L131.362 180.664Z" fill="white"/>
</g>
<g style="mix-blend-mode:soft-light">
<path d="M137.992 183.536L108.468 185.132L108.465 182.759L137.988 181.225L137.992 183.536Z" fill="white"/>
</g>
<g style="mix-blend-mode:soft-light">
<path d="M137.996 186.748L108.473 188.43L108.469 186.056L137.993 184.437L137.996 186.748Z" fill="white"/>
</g>
<g style="mix-blend-mode:soft-light">
<path d="M111.423 155.37L87.9497 156.026L87.9453 153.609L111.419 153.003L111.423 155.37Z" fill="white"/>
</g>
<g style="mix-blend-mode:soft-light">
<path d="M68.5462 132.253L47.2197 132.407L47.2144 128.885L68.5409 128.794L68.5462 132.253Z" fill="white"/>
</g>
<g style="mix-blend-mode:soft-light">
<path d="M41.7041 132.447L45.7207 132.418L45.7154 128.893L41.6987 128.91L41.7041 132.447Z" fill="white"/>
</g>
<g style="mix-blend-mode:soft-light">
<path d="M68.5546 137.225L47.228 137.47L47.2227 133.947L68.5492 133.766L68.5546 137.225Z" fill="white"/>
</g>
<g style="mix-blend-mode:soft-light">
<path d="M41.7114 137.532L45.7281 137.487L45.7227 133.961L41.7061 133.995L41.7114 137.532Z" fill="white"/>
</g>
<g style="mix-blend-mode:soft-light">
<path d="M68.5615 142.197L47.2358 142.532L47.2305 139.01L68.5561 138.738L68.5615 142.197Z" fill="white"/>
</g>
<g style="mix-blend-mode:soft-light">
<path d="M41.7202 142.618L45.7369 142.555L45.7315 139.029L41.7148 139.08L41.7202 142.618Z" fill="white"/>
</g>
<g style="mix-blend-mode:soft-light">
<path d="M68.6157 177.489L31.3593 179.192L31.354 175.623L68.6113 174.031L68.6157 177.489Z" fill="white"/>
</g>
<g style="mix-blend-mode:soft-light">
<path d="M68.6241 182.894L47.2993 183.966L47.2939 180.444L68.6187 179.435L68.6241 182.894Z" fill="white"/>
</g>
<g style="mix-blend-mode:soft-light">
<path d="M41.7837 184.243L45.7994 184.041L45.794 180.516L41.7783 180.706L41.7837 184.243Z" fill="white"/>
</g>
<g style="mix-blend-mode:soft-light">
<path d="M68.6309 187.866L47.3061 189.029L47.3008 185.506L68.6265 184.407L68.6309 187.866Z" fill="white"/>
</g>
<g style="mix-blend-mode:soft-light">
<path d="M41.792 189.329L45.8077 189.11L45.8024 185.584L41.7866 185.791L41.792 189.329Z" fill="white"/>
</g>
<g style="mix-blend-mode:soft-light">
<path d="M68.6398 192.837L47.3149 194.091L47.3096 190.568L68.6344 189.379L68.6398 192.837Z" fill="white"/>
</g>
<g style="mix-blend-mode:soft-light">
<path d="M41.7993 194.415L45.8159 194.178L45.8106 190.652L41.7939 190.876L41.7993 194.415Z" fill="white"/>
</g>
<g style="mix-blend-mode:soft-light">
<path d="M68.5692 147.203L31.311 147.946L31.3057 144.377L68.5639 143.744L68.5692 147.203Z" fill="white"/>
</g>
<g style="mix-blend-mode:soft-light">
<path d="M68.5771 152.607L47.2514 153.13L47.2461 149.609L68.5718 149.148L68.5771 152.607Z" fill="white"/>
</g>
<g style="mix-blend-mode:soft-light">
<path d="M41.7353 153.266L45.7519 153.167L45.7466 149.642L41.73 149.728L41.7353 153.266Z" fill="white"/>
</g>
<g style="mix-blend-mode:soft-light">
<path d="M68.5854 157.579L47.2597 158.192L47.2544 154.671L68.5801 154.12L68.5854 157.579Z" fill="white"/>
</g>
<g style="mix-blend-mode:soft-light">
<path d="M41.7436 158.351L45.7603 158.236L45.755 154.71L41.7383 154.813L41.7436 158.351Z" fill="white"/>
</g>
<g style="mix-blend-mode:soft-light">
<path d="M68.6001 167.587L47.2754 168.382L47.27 164.861L68.5948 164.129L68.6001 167.587Z" fill="white"/>
</g>
<g style="mix-blend-mode:soft-light">
<path d="M41.7597 168.588L45.7764 168.438L45.7702 164.913L41.7544 165.05L41.7597 168.588Z" fill="white"/>
</g>
<g style="mix-blend-mode:soft-light">
<path d="M68.608 172.56L47.2822 173.444L47.2769 169.923L68.6026 169.101L68.608 172.56Z" fill="white"/>
</g>
<g style="mix-blend-mode:soft-light">
<path d="M41.7666 173.674L45.7832 173.507L45.7779 169.981L41.7612 170.136L41.7666 173.674Z" fill="white"/>
</g>
<g style="mix-blend-mode:soft-light">
<path d="M68.5936 162.551L47.268 163.254L47.2627 159.733L68.5883 159.092L68.5936 162.551Z" fill="white"/>
</g>
<g style="mix-blend-mode:soft-light">
<path d="M41.7519 163.436L45.7687 163.304L45.7633 159.778L41.7466 159.899L41.7519 163.436Z" fill="white"/>
</g>
<g style="mix-blend-mode:soft-light">
<path d="M68.6475 197.807L31.3911 200.154L31.3857 196.585L68.6421 194.349L68.6475 197.807Z" fill="white"/>
</g>
<g style="mix-blend-mode:soft-light">
<path d="M68.6552 203.211L47.3314 204.653L47.3252 201.132L68.6499 199.753L68.6552 203.211Z" fill="white"/>
</g>
<g style="mix-blend-mode:soft-light">
<path d="M41.8159 205.026L45.8317 204.754L45.8264 201.228L41.8105 201.488L41.8159 205.026Z" fill="white"/>
</g>
<g style="mix-blend-mode:soft-light">
<path d="M68.6637 208.183L47.3388 209.715L47.3335 206.194L68.6584 204.725L68.6637 208.183Z" fill="white"/>
</g>
<g style="mix-blend-mode:soft-light">
<path d="M41.8237 210.112L45.8394 209.823L45.8341 206.297L41.8184 206.574L41.8237 210.112Z" fill="white"/>
</g>
<g style="mix-blend-mode:soft-light">
<path d="M68.671 213.155L47.3471 214.777L47.3418 211.256L68.6656 209.697L68.671 213.155Z" fill="white"/>
</g>
<g style="mix-blend-mode:soft-light">
<path d="M41.8305 215.197L45.8473 214.892L45.8419 211.366L41.8252 211.659L41.8305 215.197Z" fill="white"/>
</g>
<g style="mix-blend-mode:soft-light">
<path d="M73.1981 212.829L72.377 212.891L72.2393 123.391L73.0604 123.392L73.1981 212.829Z" fill="white"/>
</g>
</g>
<path d="M93.3751 113.736C93.3751 114.767 92.6118 115.604 91.6698 115.61C90.7278 115.616 89.9609 114.779 89.9609 113.746C89.9609 112.714 90.727 111.872 91.6698 111.872C92.6127 111.872 93.3751 112.706 93.3751 113.736Z" fill="white"/>
<g style="mix-blend-mode:soft-light" opacity="0.48">
<path d="M14.0183 231.247L161.499 220.342L162.249 220.286C163.252 220.212 164.164 219.714 164.859 218.959C154.247 218.376 147.655 214.592 143.403 210.684C134.863 202.834 136.345 195.092 127.136 189.931C115.65 183.493 106.619 191.65 97.8992 183.602C92.6153 178.722 95.2102 175.084 88.708 167.792C81.51 159.716 76.8179 162.43 69.5808 155.162C60.4278 145.968 65.0069 138.82 57.1238 132.221C47.562 124.216 37.2493 131.626 28.146 123.948C24.22 120.637 22.0659 115.825 20.9409 110.704H14.0183C11.3657 110.704 9.20898 112.947 9.20898 115.715V226.592C9.21076 229.359 11.3675 231.443 14.0183 231.247Z" fill="white"/>
</g>
<path d="M169.235 219.678L12.4927 231.216L80.8347 243.445C81.6155 243.584 82.4109 243.621 83.2012 243.555L245.713 229.89L171.728 219.76C170.902 219.645 170.067 219.618 169.235 219.678Z" fill="url(#paint2_linear_18_870)"/>
<path d="M35.3638 231.315L165.857 221.566L206.243 227.052L76.8741 237.473L35.3638 231.315Z" fill="#D8DEE8"/>
<path d="M184.68 45.1511L49.7171 40.6996C45.1921 40.5505 41.5078 44.1362 41.5078 48.71V180.836C41.5078 185.41 45.1921 188.959 49.7171 188.765L184.68 182.977C188.584 182.81 191.736 179.251 191.736 175.028V53.0303C191.736 48.8073 188.584 45.2796 184.68 45.1511Z" fill="url(#paint3_linear_18_870)"/>
<g style="mix-blend-mode:soft-light" opacity="0.74">
<path d="M49.7171 186.132C46.6388 186.26 44.1364 183.843 44.1364 180.734V48.7822C44.1304 48.0514 44.2718 47.327 44.5521 46.6527C44.8324 45.9783 45.2458 45.3679 45.7672 44.8584C46.2887 44.3488 46.9075 43.9506 47.5864 43.6878C48.2652 43.425 48.99 43.303 49.7171 43.3292L184.68 47.6021C187.339 47.686 189.489 50.0872 189.489 52.965V175.114C189.489 177.993 187.339 180.415 184.68 180.525L49.7171 186.132Z" fill="white"/>
</g>
<path d="M184.68 45.1511L49.7171 40.6996C45.1921 40.5505 41.5078 44.1362 41.5078 48.71V54.6504L191.736 58.519V53.0338C191.736 48.8073 188.584 45.2796 184.68 45.1511Z" fill="url(#paint4_linear_18_870)"/>
<path d="M56.1043 48.3306C56.1074 48.6798 56.0403 49.0261 55.907 49.3487C55.7736 49.6713 55.5767 49.9634 55.3282 50.2077C55.0796 50.4519 54.7845 50.6432 54.4605 50.7701C54.1366 50.897 53.7904 50.9568 53.4429 50.9459C52.729 50.9192 52.053 50.6164 51.5562 50.1007C51.0593 49.585 50.7802 48.8964 50.777 48.1788C50.7732 47.829 50.84 47.482 50.9734 47.1588C51.1069 46.8357 51.3041 46.543 51.5533 46.2986C51.8024 46.0541 52.0983 45.863 52.4231 45.7366C52.7479 45.6103 53.0948 45.5513 53.4429 45.5634C54.156 45.5913 54.8309 45.8946 55.3267 46.4102C55.8226 46.9257 56.1012 47.6137 56.1043 48.3306Z" fill="white"/>
<path d="M65.3969 48.6008C65.4009 48.9477 65.3351 49.2918 65.2034 49.6125C65.0718 49.9332 64.877 50.2238 64.6307 50.4671C64.3845 50.7103 64.0919 50.9011 63.7705 51.028C63.4491 51.1549 63.1054 51.2152 62.7602 51.2055C62.0505 51.1767 61.3793 50.8737 60.8867 50.3598C60.3941 49.8459 60.1181 49.1607 60.1164 48.4473C60.1124 48.0999 60.1784 47.7552 60.3105 47.4341C60.4426 47.1129 60.6381 46.822 60.8851 46.5787C61.1321 46.3354 61.4255 46.1449 61.7478 46.0186C62.0701 45.8922 62.4144 45.8327 62.7602 45.8435C63.4689 45.8728 64.139 46.176 64.6304 46.6898C65.1217 47.2037 65.3964 47.8884 65.3969 48.6008Z" fill="white"/>
<path d="M74.6 48.8695C74.6043 49.2136 74.5394 49.5551 74.4092 49.8734C74.279 50.1917 74.0863 50.4803 73.8424 50.722C73.5985 50.9637 73.3086 51.1535 72.99 51.28C72.6714 51.4065 72.3307 51.4671 71.9882 51.4581C70.5433 51.418 69.3694 50.1888 69.3694 48.7133C69.3649 48.3686 69.4299 48.0265 69.5605 47.7077C69.691 47.3888 69.8845 47.0998 70.1291 46.858C70.3738 46.6161 70.6646 46.4265 70.9841 46.3005C71.3036 46.1745 71.6451 46.1147 71.9882 46.1247C73.4314 46.1694 74.6 47.3985 74.6 48.8695Z" fill="white"/>
<path d="M122.364 71.1789L51.0776 69.8917V74.1023L122.364 75.2351V71.1789Z" fill="white"/>
<path d="M175.958 72.1466V76.0875L183.5 76.2071V72.2832L175.958 72.1466Z" fill="white"/>
<g style="mix-blend-mode:soft-light">
<g style="mix-blend-mode:soft-light">
<path d="M66.1477 84.4015L51.0771 84.2399V79.8981L66.1477 80.0927V84.4015Z" fill="white"/>
</g>
<g style="mix-blend-mode:soft-light">
<path d="M146.661 85.2618L75.769 84.504V80.2178L146.661 81.1336V85.2618Z" fill="white"/>
</g>
<g style="mix-blend-mode:soft-light">
<path d="M90.4617 91.9271L75.769 91.8263V87.54L90.4617 87.6739V91.9271Z" fill="white"/>
</g>
<g style="mix-blend-mode:soft-light">
<path d="M169.004 92.4689L99.8433 91.9922V87.7593L169.004 88.3895V92.4689Z" fill="white"/>
</g>
<g style="mix-blend-mode:soft-light">
<path d="M90.4617 99.1941L75.769 99.1486V94.8622L90.4617 94.9398V99.1941Z" fill="white"/>
</g>
<g style="mix-blend-mode:soft-light">
<path d="M169.004 99.4361L99.8433 99.2227V94.9897L169.004 95.3575V99.4361Z" fill="white"/>
</g>
<g style="mix-blend-mode:soft-light">
<path d="M66.1477 106.478L51.0771 106.488V102.147L66.1477 102.169V106.478Z" fill="white"/>
</g>
<g style="mix-blend-mode:soft-light">
<path d="M146.661 106.42L75.769 106.471V102.184L146.661 102.291V106.42Z" fill="white"/>
</g>
<g style="mix-blend-mode:soft-light">
<path d="M90.4617 113.726L75.769 113.793V109.506L90.4617 109.473V113.726Z" fill="white"/>
</g>
<g style="mix-blend-mode:soft-light">
<path d="M169.004 113.371L99.8433 113.684V109.451L169.004 109.292V113.371Z" fill="white"/>
</g>
<g style="mix-blend-mode:soft-light">
<path d="M90.4617 120.993L75.769 121.115V116.829L90.4617 116.739V120.993Z" fill="white"/>
</g>
<g style="mix-blend-mode:soft-light">
<path d="M169.004 120.339L99.8433 120.914V116.681L169.004 116.259V120.339Z" fill="white"/>
</g>
<g style="mix-blend-mode:soft-light">
<path d="M90.4617 128.258L75.769 128.437V124.15L90.4617 124.005V128.258Z" fill="white"/>
</g>
<g style="mix-blend-mode:soft-light">
<path d="M169.004 127.306L99.8433 128.145V123.912L169.004 123.227V127.306Z" fill="white"/>
</g>
<g style="mix-blend-mode:soft-light">
<path d="M114.395 135.144L100.07 135.372V131.139L114.395 130.943V135.144Z" fill="white"/>
</g>
<g style="mix-blend-mode:soft-light">
<path d="M179.737 134.103L123.543 134.998V130.818L179.737 130.048V134.103Z" fill="white"/>
</g>
<g style="mix-blend-mode:soft-light">
<path d="M66.1477 143.271L51.0771 143.569V139.227L66.1477 138.963V143.271Z" fill="white"/>
</g>
<g style="mix-blend-mode:soft-light">
<path d="M146.661 141.682L75.769 143.082V138.794L146.661 137.553V141.682Z" fill="white"/>
</g>
<g style="mix-blend-mode:soft-light">
<path d="M90.4617 150.057L75.769 150.404V146.116L90.4617 145.803V150.057Z" fill="white"/>
</g>
<g style="mix-blend-mode:soft-light">
<path d="M169.004 148.209L99.8433 149.837V145.604L169.004 144.13V148.209Z" fill="white"/>
</g>
<g style="mix-blend-mode:soft-light">
<path d="M90.4617 157.323L75.769 157.726V153.439L90.4617 153.07V157.323Z" fill="white"/>
</g>
<g style="mix-blend-mode:soft-light">
<path d="M169.004 155.176L99.8433 157.067V152.834L169.004 151.097V155.176Z" fill="white"/>
</g>
<g style="mix-blend-mode:soft-light">
<path d="M66.1477 165.347L51.0771 165.817V161.475L66.1477 161.039V165.347Z" fill="white"/>
</g>
<g style="mix-blend-mode:soft-light">
<path d="M146.661 162.84L75.769 165.048V160.761L146.661 158.711V162.84Z" fill="white"/>
</g>
<g style="mix-blend-mode:soft-light">
<path d="M90.4617 171.856L75.769 172.369V168.083L90.4617 167.603V171.856Z" fill="white"/>
</g>
<g style="mix-blend-mode:soft-light">
<path d="M169.004 169.111L99.8433 171.529V167.296L169.004 165.032V169.111Z" fill="white"/>
</g>
</g>
<g style="mix-blend-mode:soft-light" opacity="0.5">
<g style="mix-blend-mode:soft-light" opacity="0.5">
<path d="M132.22 95.9457C116.457 72.9053 89.1722 80.2355 71.912 54.7788C68.8018 50.188 66.6868 45.516 65.2383 41.2109L49.7181 40.6994C45.1931 40.5504 41.5088 44.136 41.5088 48.7098V180.836C41.5088 185.41 45.1931 188.959 49.7181 188.765L179.738 183.189C176.76 178.878 150.818 162.891 144.117 138.352C137.985 115.91 141.731 109.846 132.22 95.9457Z" fill="white"/>
</g>
</g>
<path d="M212.973 145.123C212.973 131.362 200.336 120.618 185.283 121.112C176.711 121.392 169.254 125.273 164.597 131.004V130.998L164.512 131.106C164.431 131.207 164.354 131.309 164.275 131.411C164.131 131.595 163.99 131.781 163.851 131.969C163.77 132.081 163.689 132.194 163.61 132.306C163.477 132.494 163.348 132.684 163.22 132.876C163.148 132.985 163.074 133.095 163.003 133.206C162.862 133.427 162.724 133.651 162.591 133.877C162.542 133.958 162.491 134.039 162.444 134.121C162.266 134.427 162.097 134.737 161.935 135.05C161.892 135.133 161.853 135.218 161.811 135.302C161.692 135.537 161.578 135.775 161.468 136.016C161.413 136.133 161.363 136.25 161.31 136.373C161.221 136.584 161.127 136.797 161.044 137.011C160.994 137.135 160.944 137.26 160.896 137.386C160.813 137.605 160.732 137.827 160.655 138.05C160.615 138.166 160.574 138.282 160.535 138.4C160.443 138.68 160.357 138.963 160.277 139.247C160.26 139.306 160.24 139.365 160.224 139.426C160.13 139.768 160.044 140.114 159.967 140.464C159.944 140.566 159.926 140.67 159.904 140.773C159.852 141.023 159.803 141.274 159.76 141.527C159.737 141.655 159.718 141.785 159.698 141.914C159.663 142.148 159.631 142.383 159.602 142.618C159.586 142.751 159.571 142.886 159.557 143.017C159.532 143.265 159.513 143.516 159.496 143.766C159.489 143.883 159.479 143.999 159.473 144.116C159.454 144.483 159.442 144.851 159.442 145.222C159.442 154.053 164.767 161.843 172.75 166.014C173.484 166.397 174.24 166.749 175.019 167.072C175.409 167.233 175.804 167.385 176.203 167.529C179.123 168.577 182.189 169.154 185.288 169.238C185.732 169.252 186.172 169.253 186.611 169.247C186.759 169.247 186.906 169.237 187.055 169.233C187.345 169.224 187.636 169.215 187.923 169.199C188.101 169.188 188.274 169.172 188.449 169.159C188.706 169.139 188.964 169.12 189.219 169.094C189.407 169.075 189.592 169.051 189.778 169.029C190.02 168.999 190.261 168.969 190.5 168.934C190.692 168.905 190.882 168.874 191.072 168.845C191.304 168.805 191.535 168.765 191.764 168.721C191.957 168.684 192.148 168.645 192.339 168.605C192.564 168.556 192.788 168.506 193.011 168.454C193.202 168.408 193.392 168.364 193.582 168.313C193.803 168.256 194.02 168.195 194.239 168.134C194.427 168.081 194.614 168.028 194.8 167.971C194.868 167.949 194.939 167.931 195.007 167.91L195.002 167.906C205.41 164.615 212.973 155.733 212.973 145.123Z" fill="url(#paint5_linear_18_870)"/>
<path d="M210.904 145.126C210.904 158.853 198.331 169.611 183.356 169.172C168.937 168.749 157.637 158.029 157.637 145.215C157.637 132.4 168.937 121.643 183.356 121.173C198.331 120.684 210.904 131.4 210.904 145.126Z" fill="url(#paint6_linear_18_870)"/>
<path d="M176.598 151.775L165.906 146.309V144.549L176.598 138.33V141.326L169.201 145.294L176.598 148.792V151.775Z" fill="white"/>
<path d="M187.971 135.904L181.89 154.363L178.836 154.332L184.869 135.944L187.971 135.904Z" fill="white"/>
<path d="M190.236 148.833L198.05 145.251L190.236 141.234V138.185L201.632 144.458V146.301L190.236 151.869V148.833Z" fill="white"/>
<g style="mix-blend-mode:multiply" opacity="0.3">
<path style="mix-blend-mode:multiply" opacity="0.3" d="M189.869 163.198C186.618 156.011 189.904 149.37 185.515 144.761C181.107 140.13 175.453 144.459 169.461 140.754C167.169 139.337 164.638 136.625 162.766 131.034C159.539 135.014 157.634 139.922 157.634 145.215C157.634 158.029 168.934 168.749 183.353 169.172C186.628 169.273 189.896 168.824 193.023 167.843C191.715 166.487 190.648 164.916 189.869 163.198Z" fill="url(#paint7_linear_18_870)"/>
</g>
<path d="M95.224 126.428C97.6882 123.786 90.8697 113.858 87.2164 109.508C84.0271 105.708 80.7489 101.801 76.7234 102.296C73.1884 102.731 69.7493 106.474 69.5431 110.062C68.9895 119.716 91.7219 130.184 95.224 126.428Z" fill="url(#paint8_linear_18_870)"/>
<path d="M65.6401 228.44C65.1763 228.819 65.091 229.764 65.0359 230.383C65.0101 230.659 64.9985 230.797 65.0288 230.894C65.2527 231.608 66.6283 231.681 68.7806 231.902C72.185 232.251 73.198 232.521 73.4637 232.012C73.7134 231.535 73.1083 230.754 73.0416 230.667C72.6755 230.205 72.2267 230.036 71.3585 229.75C69.7528 229.214 68.6677 228.928 68.3372 228.84C66.288 228.29 65.9449 228.191 65.6401 228.44Z" fill="url(#paint9_linear_18_870)"/>
<path d="M67.6641 225.316L68.0053 229.213C67.9084 229.401 66.755 229.965 65.8397 229.48L64.9644 225.651L67.6641 225.316Z" fill="url(#paint10_linear_18_870)"/>
<path d="M92.6363 227.94C92.0809 228.556 91.9538 229.692 92.4372 230.251C92.9207 230.809 93.6271 230.388 95.6532 230.449C97.8242 230.514 98.3902 231.029 99.8654 230.62C100.462 230.455 101.514 230.053 101.493 229.627C101.48 229.326 100.944 229.171 99.1545 228.568C96.6138 227.714 96.6254 227.667 96.086 227.577C94.7308 227.351 93.3747 227.126 92.6363 227.94Z" fill="url(#paint11_linear_18_870)"/>
<path d="M94.0267 224.383L95.1153 228.021C95.0335 228.216 93.9263 228.867 92.9772 228.455L91.3599 224.924L94.0267 224.383Z" fill="url(#paint12_linear_18_870)"/>
<path d="M84.3539 144.718C84.702 171.96 88.3009 199.061 95.0736 225.442L90.9067 226.569C87.3824 223.266 82.9374 218.073 80.7922 210.73C79.4592 206.173 79.9035 203.832 79.0602 198.227C77.7157 189.301 74.992 184.627 72.1777 177.429C69.6477 170.963 66.6583 161.472 65.0552 148.786L84.3539 144.718Z" fill="#26264F"/>
<path d="M71.8164 143.551C70.9656 159.099 70.2725 174.933 69.7369 191.054C69.3388 203.148 69.0426 215.088 68.8483 226.873L64.5926 227.401C62.6421 223.765 61.1495 219.899 60.1493 215.893C58.6386 209.792 58.9852 206.168 58.3205 199.843C57.5749 192.751 56.4926 191.205 54.574 182.259C50.6808 164.099 48.7347 155.019 53.0775 149.372C54.4949 147.538 58.915 142.938 71.8164 143.551Z" fill="#26264F"/>
<path d="M51.1381 104.476C55.757 103.17 60.5037 102.374 65.2942 102.1C73.8003 101.617 78.0534 101.376 81.0677 103.411C88.0285 108.11 82.6388 118.957 85.4887 145.843C85.8957 149.681 85.9863 153.549 86.2814 157.399C86.7692 163.774 86.8803 164.12 86.4387 164.765C83.6696 168.816 73.3391 162.707 58.1975 165.122C49.726 166.474 45.8835 169.585 43.5624 167.341C40.8556 164.723 43.1776 157.68 45.1762 151.617C47.4706 144.654 48.888 144.565 50.1899 139.326C51.5513 133.848 50.7231 131.025 50.516 122.389C50.375 116.411 50.5827 110.429 51.1381 104.476Z" fill="url(#paint13_linear_18_870)"/>
<path d="M71.7289 154.955C67.7709 154.645 65.2036 156.892 61.7876 155.14C57.1036 152.739 55.5982 145.266 55.8968 139.977C56.35 131.943 60.9185 129.823 60.1312 124.629C59.7046 121.82 57.7087 118.091 50.54 114.281C50.444 117.487 50.4627 120.221 50.516 122.392C50.7275 131.031 51.5513 133.852 50.1899 139.33C48.888 144.571 47.4706 144.661 45.1762 151.62C43.1776 157.683 40.8556 164.727 43.5624 167.345C45.8835 169.591 49.726 166.477 58.1975 165.126C71.2446 163.045 80.714 167.288 84.8569 165.911C79.8511 157.596 75.3101 155.233 71.7289 154.955Z" fill="url(#paint14_linear_18_870)"/>
<path d="M56.5365 105.027C53.7106 102.694 48.0268 105.335 46.5082 106.04C38.0358 109.977 30.4299 120.584 32.3147 131.794C32.5973 133.475 33.9072 141.338 40.5365 145.148C46.5179 148.587 54.5939 147.702 61.0642 142.833L63.7168 140.468C64.5865 139.524 65.4564 138.579 66.3267 137.635C64.2744 135.918 61.9137 134.611 59.3722 133.786C55.0694 132.391 51.9369 134.894 49.941 132.991C48.5636 131.678 48.56 129.358 48.9004 127.953C49.5864 125.12 52.072 124.324 54.1434 122.314C59.0229 117.59 59.9205 107.825 56.5365 105.027Z" fill="url(#paint15_linear_18_870)"/>
<path d="M97.1552 141.621L59.2705 141.053L69.3451 145.937L97.2521 144.103L97.1552 141.621Z" fill="url(#paint16_linear_18_870)"/>
<path d="M57.9341 142.065C57.9344 142.412 58.0411 142.751 58.2396 143.036C58.4381 143.321 58.7189 143.537 59.044 143.656L71.1491 148.423L71.2042 145.12L59.2706 141.055C59.1148 141.01 58.9507 141.002 58.7912 141.032C58.6318 141.061 58.4813 141.127 58.3517 141.225C58.2222 141.323 58.117 141.45 58.0445 141.596C57.972 141.741 57.9342 141.902 57.9341 142.065Z" fill="url(#paint17_linear_18_870)"/>
<path d="M63.7663 139.813C63.5343 139.761 64.8993 137.029 65.971 137.344C67.0427 137.659 72.2803 140.711 72.7611 141.967L73.2374 143.223C73.2374 143.223 70.9509 143.402 69.5326 142.924C68.1144 142.447 65.6573 140.237 63.7663 139.813Z" fill="url(#paint18_linear_18_870)"/>
<path d="M65.9302 92.7662C65.9527 94.7514 65.7765 96.7337 65.4042 98.6834C65.0994 100.26 64.8799 100.667 64.599 100.997C64.1769 101.495 63.5327 101.912 59.9238 102.812C57.9572 103.302 57.7022 103.288 57.6613 103.485C57.4498 104.441 62.8155 107.7 68.3509 106.914C71.7411 106.433 74.8265 104.491 74.6373 103.471C74.448 102.45 71.0595 102.995 70.05 101.137C69.348 99.8447 70.1389 98.0131 71.0658 96.4902C70.1647 94.7925 66.8313 94.4622 65.9302 92.7662Z" fill="url(#paint19_linear_18_870)"/>
<path d="M72.2247 93.7677C73.0244 92.6966 73.0742 90.8364 72.1527 89.6617C71.3591 88.6477 70.1088 88.5013 69.3632 88.412C67.1976 88.1603 64.4642 89.069 63.5133 91.0711C62.9508 92.2574 64.1692 94.7237 64.3593 95.1664C64.5762 95.6681 64.9672 95.8395 65.3297 96.2188C65.8318 96.7446 66.6182 97.5801 67.9014 98.9779C68.0225 98.4723 68.1873 97.9783 68.3937 97.5015C68.6611 96.8813 69.0067 96.2981 69.4219 95.7663C70.5487 94.3845 71.464 94.779 72.2247 93.7677Z" fill="#26264F"/>
<path d="M66.0687 97.8032C66.0687 97.8032 67.4905 100.15 70.3279 99.9643C72.8659 99.7982 73.2373 94.0811 71.6165 92.8671C71.0753 92.4628 69.992 92.295 69.1114 92.5422C68.5915 92.6886 68.4147 92.9064 67.5607 93.1287C66.7725 93.334 66.5495 93.2465 66.3113 93.4473C66.0136 93.699 65.7959 94.3158 66.2927 95.9877C65.8083 95.495 65.2263 95.3057 64.8157 95.5012C64.6747 95.5783 64.5576 95.6928 64.4772 95.8324C64.1226 96.4884 64.7162 97.3195 66.0687 97.8032Z" fill="url(#paint20_linear_18_870)"/>
<path d="M66.1966 93.1054C66.3193 93.1947 65.9451 93.6561 65.9167 94.3051C65.8625 95.5654 67.1324 97.0784 68.428 97.2069C69.194 97.2828 69.4055 96.8186 70.6709 96.6847C71.2884 96.6205 71.9123 96.6566 72.5184 96.7919C72.9165 98.1736 72.5415 99.5518 71.6217 100.191C70.6318 100.88 69.3664 100.459 68.8376 100.287C68.4822 100.17 67.3501 99.7981 66.7582 98.7538C66.1362 97.6657 66.7467 97.0096 66.0384 96.2741C65.683 95.9028 65.212 95.7386 64.7544 95.0245C64.6567 94.8697 64.5708 94.7077 64.4976 94.5398C65.1525 93.8418 66.0198 92.9724 66.1966 93.1054Z" fill="#26264F"/>
<path d="M70.2059 97.9362C70.2059 97.9362 70.7541 97.6492 71.7014 97.7027C71.7476 97.7027 71.7983 97.692 71.8045 97.6679C71.8258 97.5788 71.218 97.1732 70.6582 97.331C70.2609 97.4433 69.9517 97.8213 70.005 97.9175C70.0272 97.9576 70.1179 97.9523 70.2059 97.9362Z" fill="white"/>
<path d="M72.2093 121.928L69.5433 146.351C69.4545 147.194 70.6257 148.449 71.469 148.409L110.643 145.993C110.956 145.979 111.254 145.858 111.488 145.649C111.723 145.441 111.879 145.159 111.932 144.849L116.849 121.261C116.996 120.402 115.46 119.515 114.593 119.54L73.5378 120.7C73.206 120.709 72.8885 120.838 72.6443 121.064C72.4 121.29 72.2455 121.597 72.2093 121.928Z" fill="url(#paint21_linear_18_870)"/>
<path d="M73.1042 122.642L70.4329 147.066C70.4114 147.264 70.4329 147.465 70.4959 147.654C70.5588 147.843 70.6619 148.016 70.7978 148.161C70.9338 148.306 71.0995 148.42 71.2835 148.495C71.4675 148.57 71.6654 148.604 71.8636 148.594L111.534 146.708C111.846 146.693 112.144 146.572 112.378 146.364C112.612 146.156 112.769 145.873 112.822 145.564L116.875 121.867C116.91 121.666 116.899 121.46 116.844 121.263C116.79 121.066 116.692 120.884 116.559 120.73C116.426 120.575 116.26 120.453 116.074 120.371C115.888 120.288 115.686 120.249 115.483 120.254L74.4274 121.415C74.0966 121.425 73.7805 121.555 73.5374 121.78C73.2943 122.006 73.1404 122.312 73.1042 122.642Z" fill="url(#paint22_linear_18_870)"/>
<path style="mix-blend-mode:multiply" opacity="0.3" d="M96.3955 140.986C92.9298 139.51 94.1543 136.701 90.0639 133.194C84.6672 128.571 79.1674 130.576 77.2417 126.993C76.6427 125.877 76.3531 124.137 77.4008 121.33L74.4274 121.414C74.0964 121.424 73.7803 121.554 73.5372 121.78C73.294 122.005 73.1402 122.312 73.1042 122.642L70.4329 147.066C70.4114 147.264 70.4329 147.465 70.4959 147.654C70.5588 147.843 70.6619 148.016 70.7978 148.161C70.9338 148.307 71.0995 148.421 71.2835 148.495C71.4675 148.57 71.6654 148.604 71.8636 148.594L111.534 146.708C111.846 146.694 112.144 146.572 112.378 146.364C112.613 146.156 112.769 145.874 112.822 145.564L113.381 142.294C112.033 141.531 110.576 140.982 109.061 140.667C103.238 139.482 100.385 142.684 96.3955 140.986Z" fill="url(#paint23_linear_18_870)"/>
<path d="M114.033 143.292C114.048 143.247 114.053 143.198 114.046 143.151C114.04 143.103 114.022 143.058 113.995 143.018C113.969 142.978 113.933 142.945 113.891 142.922C113.849 142.898 113.803 142.885 113.755 142.883C112.917 142.84 110.972 142.822 109.898 143.482C108.504 144.34 106.699 145.906 108.219 146.696L109.641 147.434C109.705 147.468 109.779 147.478 109.849 147.463C110.353 147.351 112.473 146.879 112.705 146.761C112.912 146.654 113.725 144.244 114.033 143.292Z" fill="url(#paint24_linear_18_870)"/>
<path d="M232.631 63.0214C232.631 40.331 211.794 22.6169 186.975 23.4274C172.841 23.8889 160.544 30.289 152.865 39.7365V39.7284C152.818 39.7874 152.777 39.8481 152.726 39.907C152.593 40.073 152.466 40.2408 152.335 40.4077C152.098 40.713 151.865 41.0207 151.636 41.3307C151.503 41.5146 151.37 41.6994 151.238 41.885C151.02 42.1957 150.806 42.509 150.596 42.8249C150.476 43.0035 150.355 43.182 150.24 43.3677C150.007 43.7327 149.782 44.1032 149.561 44.4754C149.481 44.6093 149.397 44.7432 149.319 44.878C149.027 45.3826 148.748 45.8929 148.48 46.4088C148.409 46.5463 148.344 46.6864 148.275 46.8239C148.08 47.2113 147.89 47.6014 147.709 47.995C147.62 48.1887 147.535 48.3833 147.45 48.5779C147.296 48.9272 147.148 49.2783 147.006 49.6312C146.923 49.8365 146.841 50.0418 146.762 50.2489C146.624 50.6113 146.496 50.9764 146.365 51.3441C146.298 51.536 146.23 51.7271 146.167 51.9208C146.015 52.3823 145.874 52.8491 145.741 53.3177C145.714 53.4159 145.681 53.5114 145.652 53.6105C145.497 54.1752 145.356 54.7456 145.228 55.3217C145.191 55.4913 145.16 55.6626 145.124 55.8322C145.036 56.2446 144.957 56.6588 144.886 57.0757C144.85 57.2872 144.818 57.5005 144.785 57.7139C144.726 58.0995 144.673 58.4863 144.627 58.8743C144.601 59.0921 144.575 59.3099 144.553 59.5295C144.511 59.9401 144.479 60.3525 144.452 60.7658C144.439 60.9586 144.423 61.1496 144.413 61.3433C144.382 61.9476 144.364 62.5546 144.364 63.166C144.364 77.7274 153.144 90.5695 166.305 97.449C167.516 98.0809 168.763 98.6623 170.046 99.1932C170.689 99.4586 171.34 99.71 172.001 99.9474C176.816 101.674 181.871 102.626 186.981 102.766C187.713 102.788 188.439 102.79 189.163 102.781C189.407 102.781 189.648 102.763 189.892 102.756C190.371 102.742 190.849 102.728 191.324 102.7C191.615 102.683 191.902 102.657 192.191 102.635C192.615 102.603 193.039 102.57 193.46 102.527C193.769 102.496 194.075 102.457 194.382 102.419C194.78 102.371 195.182 102.321 195.573 102.263C195.888 102.217 196.201 102.165 196.515 102.113C196.897 102.049 197.278 101.983 197.658 101.909C197.975 101.85 198.291 101.786 198.605 101.717C198.976 101.638 199.345 101.555 199.712 101.468C200.028 101.393 200.341 101.317 200.654 101.235C201.017 101.146 201.377 101.042 201.737 100.939C202.047 100.85 202.359 100.761 202.662 100.671C202.775 100.637 202.891 100.607 203.004 100.571L202.997 100.563C220.161 95.1612 232.631 80.515 232.631 63.0214Z" fill="url(#paint25_linear_18_870)"/>
<path d="M229.221 63.0275C229.221 85.66 208.49 103.399 183.795 102.674C160.021 101.976 141.388 84.3014 141.388 63.173C141.388 42.0446 160.023 24.3073 183.795 23.5307C208.49 22.7238 229.221 40.3942 229.221 63.0275Z" fill="url(#paint26_linear_18_870)"/>
<path d="M166.433 84.0685C164.981 84.0435 163.719 83.8629 162.647 83.5267V77.9415C163.63 78.2256 164.646 78.383 165.668 78.4101C167.081 78.4262 168.093 77.9769 168.706 77.0623C169.318 76.1476 169.623 74.7084 169.62 72.7447V42.8793L176.143 42.7249V72.7447C176.143 76.4889 175.319 79.3292 173.671 81.2656C172.024 83.202 169.611 84.1363 166.433 84.0685Z" fill="white"/>
<path d="M207.962 71.0968C207.962 74.5822 206.718 77.313 204.23 79.2893C201.757 81.253 198.342 82.2016 193.985 82.135C190.009 82.0755 186.513 81.2667 183.499 79.7088V72.2831C185.978 73.4339 188.084 74.2498 189.817 74.7306C191.55 75.2115 193.143 75.4584 194.598 75.4715C196.343 75.487 197.685 75.1597 198.622 74.4896C199.56 73.8196 200.03 72.81 200.032 71.461C200.042 70.743 199.824 70.0405 199.41 69.4552C198.995 68.8685 198.388 68.3046 197.59 67.7637C196.791 67.2228 195.172 66.3626 192.731 65.1831C190.455 64.0965 188.753 63.0551 187.625 62.0589C186.514 61.0852 185.598 59.9061 184.929 58.5857C184.261 57.2623 183.927 55.7156 183.927 53.9459C183.927 50.608 185.03 47.9632 187.237 46.0113C189.455 44.0475 192.542 43.0189 196.499 42.9255C198.39 42.8729 200.28 43.0676 202.121 43.5048C204.053 43.983 205.944 44.6115 207.779 45.3847L205.158 51.7839C203.123 50.9722 201.444 50.4111 200.123 50.1004C198.852 49.7959 197.548 49.6502 196.242 49.6666C194.737 49.6916 193.584 50.0662 192.784 50.7904C191.984 51.5147 191.584 52.4477 191.586 53.5897C191.571 54.2408 191.738 54.883 192.07 55.4428C192.392 55.9683 192.907 56.4741 193.614 56.9603C194.321 57.4464 196.004 58.3245 198.663 59.5944C202.202 61.2868 204.638 62.9962 205.969 64.7225C207.3 66.4489 207.964 68.5736 207.962 71.0968Z" fill="white"/>
<g style="mix-blend-mode:multiply" opacity="0.2">
<path style="mix-blend-mode:multiply" opacity="0.2" d="M194.535 92.8287C189.176 80.9782 194.593 70.0284 187.358 62.4277C180.091 54.7931 170.769 61.9297 160.888 55.8223C157.11 53.4863 152.935 49.0161 149.85 39.7953C144.528 46.3579 141.388 54.4504 141.388 63.182C141.388 84.3104 160.021 101.985 183.795 102.683C189.194 102.851 194.582 102.11 199.738 100.492C197.58 98.2548 195.821 95.6629 194.535 92.8287Z" fill="url(#paint27_linear_18_870)"/>
</g>
<defs>
<linearGradient id="paint0_linear_18_870" x1="198.079" y1="154.374" x2="440.044" y2="156.851" gradientUnits="userSpaceOnUse">
<stop stop-color="#AA80F9"/>
<stop offset="1" stop-color="#6165D7"/>
</linearGradient>
<linearGradient id="paint1_linear_18_870" x1="65.7492" y1="99.4565" x2="271.552" y2="101.564" gradientUnits="userSpaceOnUse">
<stop stop-color="#FF9085"/>
<stop offset="1" stop-color="#FB6FBB"/>
</linearGradient>
<linearGradient id="paint2_linear_18_870" x1="12.4927" y1="231.616" x2="245.713" y2="231.616" gradientUnits="userSpaceOnUse">
<stop offset="0.49" stop-color="#EBEFF2"/>
<stop offset="1" stop-color="white"/>
</linearGradient>
<linearGradient id="paint3_linear_18_870" x1="166.99" y1="10.6994" x2="19.6748" y2="304.015" gradientUnits="userSpaceOnUse">
<stop stop-color="#E38DDD"/>
<stop offset="1" stop-color="#9571F6"/>
</linearGradient>
<linearGradient id="paint4_linear_18_870" x1="244240" y1="8419.72" x2="244882" y2="30064.9" gradientUnits="userSpaceOnUse">
<stop stop-color="#E38DDD"/>
<stop offset="1" stop-color="#9571F6"/>
</linearGradient>
<linearGradient id="paint5_linear_18_870" x1="150.678" y1="73.5275" x2="190.469" y2="153.023" gradientUnits="userSpaceOnUse">
<stop stop-color="#311944"/>
<stop offset="1" stop-color="#893976"/>
</linearGradient>
<linearGradient id="paint6_linear_18_870" x1="128813" y1="89586.2" x2="148335" y2="129744" gradientUnits="userSpaceOnUse">
<stop stop-color="#FF9085"/>
<stop offset="1" stop-color="#FB6FBB"/>
</linearGradient>
<linearGradient id="paint7_linear_18_870" x1="81434" y1="73230.4" x2="98149.4" y2="104344" gradientUnits="userSpaceOnUse">
<stop stop-color="#FF9085"/>
<stop offset="1" stop-color="#FB6FBB"/>
</linearGradient>
<linearGradient id="paint8_linear_18_870" x1="181815" y1="35824.7" x2="174213" y2="74108.7" gradientUnits="userSpaceOnUse">
<stop stop-color="#AA80F9"/>
<stop offset="1" stop-color="#6165D7"/>
</linearGradient>
<linearGradient id="paint9_linear_18_870" x1="73.9511" y1="229.857" x2="65.4689" y2="230.11" gradientUnits="userSpaceOnUse">
<stop stop-color="#444B8C"/>
<stop offset="1" stop-color="#26264F"/>
</linearGradient>
<linearGradient id="paint10_linear_18_870" x1="68.0053" y1="227.494" x2="64.9644" y2="227.494" gradientUnits="userSpaceOnUse">
<stop stop-color="#FFC444"/>
<stop offset="1" stop-color="#F36F56"/>
</linearGradient>
<linearGradient id="paint11_linear_18_870" x1="38228.4" y1="5187.37" x2="37317" y2="5442.57" gradientUnits="userSpaceOnUse">
<stop stop-color="#444B8C"/>
<stop offset="1" stop-color="#26264F"/>
</linearGradient>
<linearGradient id="paint12_linear_18_870" x1="-1903.4" y1="12801.2" x2="-1744.7" y2="12801.2" gradientUnits="userSpaceOnUse">
<stop stop-color="#FFC444"/>
<stop offset="1" stop-color="#F36F56"/>
</linearGradient>
<linearGradient id="paint13_linear_18_870" x1="303180" y1="93565.9" x2="273103" y2="190003" gradientUnits="userSpaceOnUse">
<stop stop-color="#AA80F9"/>
<stop offset="1" stop-color="#6165D7"/>
</linearGradient>
<linearGradient id="paint14_linear_18_870" x1="278808" y1="146336" x2="286851" y2="116169" gradientUnits="userSpaceOnUse">
<stop stop-color="#AA80F9"/>
<stop offset="1" stop-color="#6165D7"/>
</linearGradient>
<linearGradient id="paint15_linear_18_870" x1="226716" y1="58891.9" x2="209836" y2="123246" gradientUnits="userSpaceOnUse">
<stop stop-color="#AA80F9"/>
<stop offset="1" stop-color="#6165D7"/>
</linearGradient>
<linearGradient id="paint16_linear_18_870" x1="261433" y1="10962.7" x2="261397" y2="10161.8" gradientUnits="userSpaceOnUse">
<stop stop-color="#311944"/>
<stop offset="1" stop-color="#893976"/>
</linearGradient>
<linearGradient id="paint17_linear_18_870" x1="88070.4" y1="14989.8" x2="88149.7" y2="15971.6" gradientUnits="userSpaceOnUse">
<stop stop-color="#311944"/>
<stop offset="1" stop-color="#893976"/>
</linearGradient>
<linearGradient id="paint18_linear_18_870" x1="-2642.75" y1="12158.7" x2="-1627.79" y2="12158.7" gradientUnits="userSpaceOnUse">
<stop stop-color="#FFC444"/>
<stop offset="1" stop-color="#F36F56"/>
</linearGradient>
<linearGradient id="paint19_linear_18_870" x1="-3417.02" y1="22408.6" x2="-3462.45" y2="26165.3" gradientUnits="userSpaceOnUse">
<stop stop-color="#FFC444"/>
<stop offset="1" stop-color="#F36F56"/>
</linearGradient>
<linearGradient id="paint20_linear_18_870" x1="-1859.85" y1="11452.5" x2="-1759.36" y2="12514.7" gradientUnits="userSpaceOnUse">
<stop stop-color="#FFC444"/>
<stop offset="1" stop-color="#F36F56"/>
</linearGradient>
<linearGradient id="paint21_linear_18_870" x1="332900" y1="58311.6" x2="330664" y2="53106.5" gradientUnits="userSpaceOnUse">
<stop stop-color="#444B8C"/>
<stop offset="1" stop-color="#26264F"/>
</linearGradient>
<linearGradient id="paint22_linear_18_870" x1="317949" y1="63943.4" x2="322284" y2="49507.2" gradientUnits="userSpaceOnUse">
<stop stop-color="#311944"/>
<stop offset="1" stop-color="#893976"/>
</linearGradient>
<linearGradient id="paint23_linear_18_870" x1="289257" y1="53699.4" x2="310022" y2="53699.4" gradientUnits="userSpaceOnUse">
<stop stop-color="#311944"/>
<stop offset="1" stop-color="#893976"/>
</linearGradient>
<linearGradient id="paint24_linear_18_870" x1="-4661.17" y1="9718.08" x2="-4199.18" y2="9718.08" gradientUnits="userSpaceOnUse">
<stop stop-color="#FFC444"/>
<stop offset="1" stop-color="#F36F56"/>
</linearGradient>
<linearGradient id="paint25_linear_18_870" x1="169635" y1="-12951.4" x2="224041" y2="108444" gradientUnits="userSpaceOnUse">
<stop stop-color="#FFC444"/>
<stop offset="1" stop-color="#F36F56"/>
</linearGradient>
<linearGradient id="paint26_linear_18_870" x1="206661" y1="63597.7" x2="259736" y2="172777" gradientUnits="userSpaceOnUse">
<stop stop-color="#FFC444"/>
<stop offset="1" stop-color="#F36F56"/>
</linearGradient>
<linearGradient id="paint27_linear_18_870" x1="125930" y1="56065.9" x2="171378" y2="140658" gradientUnits="userSpaceOnUse">
<stop stop-color="#FFC444"/>
<stop offset="1" stop-color="#F36F56"/>
</linearGradient>
</defs>
</svg>
