<svg width="217" height="213" viewBox="0 0 217 213" fill="none" xmlns="http://www.w3.org/2000/svg">
<g clip-path="url(#clip0_18_1790)">
<path d="M187.166 174.853C174.215 188.423 157.027 198.374 136.408 202.392C88.9302 211.642 24.7548 197.542 10.3025 145.547C1.49455 113.858 7.66238 76.7929 25.7557 49.3351C45.6428 19.1547 81.5418 -1.21009 118.289 0.226457C154.241 1.63184 189.479 29.7418 204.373 61.0068C223.156 100.434 214.812 145.888 187.166 174.853Z" fill="url(#paint0_linear_18_1790)"/>
<g opacity="0.3">
<path opacity="0.3" d="M61.3668 22.2688C61.2795 22.3212 61.1827 22.356 61.0819 22.3712C60.9811 22.3864 60.8782 22.3818 60.7792 22.3575C60.6802 22.3332 60.587 22.2898 60.5049 22.2297C60.4228 22.1696 60.3535 22.094 60.3008 22.0073C59.87 21.2997 59.4017 20.5996 58.9088 19.927C58.7904 19.7641 58.7407 19.5617 58.7702 19.3629C58.7998 19.1642 58.9064 18.9847 59.0672 18.8629L59.0795 18.8537C59.1619 18.7941 59.2553 18.7511 59.3545 18.7274C59.4536 18.7036 59.5565 18.6996 59.6572 18.7154C59.758 18.7312 59.8546 18.7666 59.9415 18.8195C60.0284 18.8725 60.104 18.942 60.1638 19.024C60.6827 19.7316 61.1755 20.4681 61.6293 21.2138C61.7284 21.3768 61.7633 21.5705 61.7273 21.7575C61.6912 21.9446 61.5868 22.1118 61.4341 22.227C61.4127 22.2391 61.3905 22.2543 61.3668 22.2688ZM56.2841 16.8175C55.704 16.2178 55.0926 15.6379 54.4666 15.0921C54.39 15.0253 54.3274 14.9442 54.2823 14.8534C54.2372 14.7626 54.2106 14.6638 54.204 14.5628C54.1973 14.4618 54.2108 14.3604 54.2436 14.2646C54.2764 14.1687 54.3278 14.0802 54.3951 14.0041C54.4623 13.928 54.544 13.8657 54.6354 13.821C54.7268 13.7762 54.8263 13.7498 54.928 13.7432C55.0297 13.7366 55.1317 13.75 55.2283 13.7825C55.3248 13.8151 55.4139 13.8662 55.4905 13.933C56.1494 14.5069 56.7914 15.118 57.4036 15.7481C57.5464 15.8955 57.6243 16.0933 57.6203 16.2978C57.6163 16.5024 57.5306 16.6969 57.3822 16.8388C57.3598 16.8598 57.3363 16.8796 57.3118 16.8981C57.1601 17.0116 56.9719 17.0661 56.7826 17.0513C56.5932 17.0364 56.4159 16.9533 56.2841 16.8175ZM51.2166 12.6371C50.5187 12.181 49.7925 11.7523 49.0579 11.3586C48.965 11.3124 48.8823 11.248 48.8148 11.1695C48.7473 11.0909 48.6965 10.9997 48.6651 10.9012C48.6338 10.8027 48.6227 10.699 48.6325 10.5962C48.6423 10.4934 48.6728 10.3936 48.7221 10.3027C48.7715 10.2118 48.8387 10.1317 48.9198 10.0671C49.0009 10.0024 49.0942 9.95465 49.1943 9.92653C49.2943 9.8984 49.399 9.89051 49.5022 9.90333C49.6053 9.91614 49.7048 9.94939 49.7948 10.0011C50.5708 10.4161 51.336 10.8722 52.0684 11.3472C52.2393 11.4595 52.3587 11.6343 52.4005 11.8336C52.4424 12.0329 52.4033 12.2405 52.2918 12.4113C52.2429 12.485 52.1818 12.55 52.1112 12.6036C51.9838 12.7001 51.8294 12.7551 51.6693 12.7611C51.5091 12.767 51.351 12.7237 51.2166 12.6371ZM45.335 9.6872C44.5514 9.39837 43.7464 9.14071 42.9421 8.91953C42.8439 8.89258 42.7519 8.84667 42.6716 8.78443C42.5912 8.7222 42.524 8.64485 42.4737 8.5568C42.3722 8.37898 42.3459 8.16838 42.4007 7.97133C42.4555 7.77428 42.5869 7.60692 42.7659 7.50608C42.8545 7.45614 42.9522 7.42403 43.0534 7.4116C43.1545 7.39916 43.2571 7.40663 43.3553 7.43358C44.2025 7.66616 45.0503 7.93751 45.8745 8.24078C45.9757 8.27155 46.0694 8.32254 46.15 8.39059C46.2307 8.45864 46.2964 8.54233 46.3433 8.63653C46.3902 8.73073 46.4172 8.83345 46.4227 8.93839C46.4282 9.04333 46.412 9.14828 46.3752 9.2468C46.3384 9.34532 46.2817 9.43533 46.2087 9.51132C46.1356 9.5873 46.0476 9.64766 45.9502 9.68868C45.8528 9.72971 45.748 9.75053 45.6422 9.74989C45.5364 9.74924 45.4319 9.72714 45.335 9.68492V9.6872ZM38.9391 8.11232C38.1119 8.00439 37.2694 7.92915 36.4337 7.89114C36.2321 7.87614 36.0444 7.78365 35.9103 7.63332C35.7763 7.48299 35.7065 7.28667 35.7159 7.08608C35.7253 6.88549 35.813 6.69643 35.9605 6.55907C36.108 6.42171 36.3035 6.34687 36.5057 6.35047C37.3849 6.39151 38.2719 6.4698 39.1419 6.58381C39.243 6.59704 39.3404 6.6299 39.4287 6.68052C39.5169 6.73115 39.5943 6.79855 39.6563 6.87887C39.7183 6.95919 39.7638 7.05085 39.7902 7.14864C39.8166 7.24642 39.8233 7.34841 39.81 7.44878C39.7967 7.54914 39.7636 7.64592 39.7126 7.73358C39.6616 7.82124 39.5938 7.89808 39.5129 7.95969C39.4321 8.02131 39.3398 8.0665 39.2413 8.09269C39.1429 8.11888 39.0402 8.12555 38.9391 8.11232ZM32.3512 7.98387C31.5194 8.05988 30.6814 8.17237 29.8588 8.31831C29.6558 8.35429 29.4468 8.30872 29.2777 8.19162C29.1086 8.07452 28.9932 7.89549 28.957 7.6939C28.9207 7.49232 28.9666 7.28469 29.0845 7.11671C29.2024 6.94872 29.3827 6.83414 29.5856 6.79815C30.4511 6.64614 31.3334 6.52604 32.2089 6.44624C32.4141 6.42749 32.6185 6.49051 32.777 6.62143C32.9355 6.75236 33.0352 6.94046 33.0541 7.14437C33.0729 7.34827 33.0095 7.55127 32.8777 7.7087C32.7459 7.86614 32.5565 7.96512 32.3512 7.98387ZM8.11604 23.4895C7.93497 23.3921 7.8002 23.2274 7.74137 23.0314C7.68254 22.8354 7.70445 22.6243 7.80229 22.4443C8.22087 21.6767 8.67849 20.9173 9.16289 20.1869C9.21896 20.1024 9.29125 20.0296 9.37563 19.9728C9.46001 19.916 9.55483 19.8763 9.65466 19.8559C9.7545 19.8355 9.85741 19.8348 9.9575 19.854C10.0576 19.8731 10.1529 19.9116 10.238 19.9672C10.3232 20.0229 10.3964 20.0948 10.4536 20.1786C10.5108 20.2624 10.5508 20.3566 10.5713 20.4557C10.5918 20.5549 10.5925 20.6571 10.5733 20.7565C10.554 20.8559 10.5153 20.9506 10.4592 21.0352C10.0001 21.7284 9.5654 22.4497 9.16824 23.1786C9.11587 23.2753 9.04303 23.3595 8.95474 23.4256C8.83583 23.515 8.69354 23.5686 8.54483 23.5799C8.39612 23.5912 8.24727 23.5598 8.11604 23.4895ZM25.9017 9.30565C25.109 9.56331 24.3169 9.85822 23.5494 10.1828C23.4549 10.2262 23.3526 10.2502 23.2486 10.2536C23.1446 10.2569 23.041 10.2394 22.9439 10.2021C22.8468 10.1648 22.7583 10.1086 22.6836 10.0366C22.6088 9.96464 22.5494 9.87849 22.5089 9.78327C22.4684 9.68804 22.4476 9.5857 22.4477 9.48232C22.4478 9.37895 22.4689 9.27666 22.5097 9.18153C22.5504 9.08641 22.61 9.00039 22.6849 8.92861C22.7598 8.85683 22.8485 8.80075 22.9456 8.76371C23.7545 8.42244 24.5878 8.11156 25.4235 7.84022C25.5981 7.78321 25.7874 7.78964 25.9577 7.85833C26.128 7.92702 26.2682 8.05352 26.3534 8.2153C26.4385 8.37709 26.4631 8.56365 26.4227 8.74175C26.3823 8.91986 26.2796 9.07794 26.1328 9.18784C26.0632 9.24005 25.985 9.27991 25.9017 9.30565ZM11.8428 17.8786C11.6883 17.7434 11.5942 17.5528 11.5811 17.3487C11.568 17.1446 11.6371 16.9437 11.7731 16.7901C12.3539 16.1357 12.97 15.498 13.6051 14.8899C13.6772 14.8128 13.7643 14.7512 13.8613 14.7088C13.9582 14.6664 14.0628 14.6442 14.1687 14.6434C14.2746 14.6427 14.3796 14.6634 14.4771 14.7044C14.5746 14.7454 14.6627 14.8058 14.7358 14.8819C14.809 14.9579 14.8657 15.048 14.9025 15.1467C14.9394 15.2453 14.9555 15.3504 14.9499 15.4554C14.9444 15.5604 14.9172 15.6632 14.8702 15.7575C14.8232 15.8517 14.7572 15.9354 14.6764 16.0034C14.0727 16.5781 13.4865 17.1846 12.9355 17.8071C12.9007 17.8458 12.8622 17.8812 12.8207 17.9128C12.6785 18.0193 12.5037 18.0741 12.3256 18.0679C12.1476 18.0616 11.9771 17.9948 11.8428 17.8786ZM19.913 12.026C19.199 12.4531 18.4935 12.9168 17.8162 13.404C17.7343 13.4643 17.6412 13.5079 17.5422 13.5325C17.4433 13.557 17.3404 13.562 17.2396 13.5471C17.1387 13.5321 17.0418 13.4976 16.9543 13.4455C16.8669 13.3934 16.7907 13.3246 16.73 13.2432C16.6693 13.1618 16.6253 13.0694 16.6006 12.9711C16.5759 12.8728 16.5709 12.7707 16.5859 12.6705C16.6009 12.5703 16.6357 12.474 16.6882 12.3872C16.7407 12.3003 16.8099 12.2246 16.8918 12.1643L16.9056 12.1552C17.618 11.6421 18.3595 11.1542 19.1125 10.7042C19.2827 10.6043 19.4848 10.5726 19.6777 10.6155C19.8706 10.6585 20.0397 10.7729 20.1507 10.9354C20.2616 11.0979 20.306 11.2963 20.2747 11.4902C20.2435 11.684 20.139 11.8588 19.9826 11.9788C19.9603 11.9961 19.9371 12.0121 19.913 12.0267V12.026Z" fill="#91B3FA"/>
<path opacity="0.3" d="M6.80384 28.3988C6.93031 28.3041 7.02436 28.173 7.0732 28.0234C7.19717 27.6433 7.33109 27.2633 7.47113 26.8886C7.51051 26.7929 7.53013 26.6904 7.52883 26.5871C7.52753 26.4838 7.50532 26.3818 7.46353 26.2872C7.42175 26.1926 7.36123 26.1072 7.28559 26.0363C7.20995 25.9654 7.12072 25.9103 7.02321 25.8743C6.9257 25.8383 6.8219 25.8222 6.71798 25.8268C6.61406 25.8315 6.51215 25.8568 6.4183 25.9014C6.32444 25.946 6.24057 26.0088 6.17166 26.0862C6.10275 26.1636 6.05021 26.254 6.01717 26.3519C5.86948 26.7464 5.72867 27.1477 5.59858 27.5453C5.54711 27.7014 5.54722 27.8698 5.59891 28.0259C5.6506 28.182 5.75116 28.3176 5.88591 28.4129C6.02066 28.5082 6.18255 28.5583 6.34796 28.5557C6.51337 28.5532 6.67364 28.4982 6.80537 28.3988H6.80384Z" fill="#91B3FA"/>
</g>
<g opacity="0.3">
<path opacity="0.3" d="M8.84063 51.8191C8.98751 51.7083 9.08987 51.5491 9.12941 51.3702C9.16895 51.1912 9.14308 51.0041 9.05643 50.8424C8.86818 50.492 8.68452 50.131 8.51005 49.7707C8.46765 49.6766 8.4067 49.5919 8.3308 49.5217C8.2549 49.4514 8.16559 49.3969 8.06815 49.3615C7.9707 49.326 7.8671 49.3104 7.76345 49.3154C7.6598 49.3204 7.55821 49.3459 7.46468 49.3906C7.37116 49.4352 7.28758 49.498 7.2189 49.5753C7.15022 49.6526 7.09782 49.7427 7.06479 49.8404C7.03177 49.9381 7.0188 50.0414 7.02663 50.1442C7.03447 50.247 7.06296 50.3472 7.11042 50.4388C7.29485 50.8188 7.48846 51.1989 7.68589 51.5675C7.78282 51.748 7.94796 51.8829 8.14499 51.9425C8.34202 52.002 8.55481 51.9815 8.73656 51.8852C8.77307 51.8661 8.80789 51.844 8.84063 51.8191Z" fill="#91B3FA"/>
<path opacity="0.3" d="M52.5261 62.5711C52.3559 62.6797 52.1498 62.7181 51.9516 62.6781C51.7534 62.6382 51.5787 62.523 51.4647 62.357C51.3506 62.1911 51.3063 61.9875 51.341 61.7896C51.3757 61.5917 51.4868 61.4151 51.6506 61.2973C52.3248 60.8412 52.9898 60.3472 53.6349 59.8273C53.7952 59.7026 53.9985 59.6455 54.2008 59.6682C54.4031 59.6909 54.5884 59.7916 54.7167 59.9486C54.845 60.1057 54.9061 60.3065 54.8868 60.5078C54.8676 60.7092 54.7694 60.8949 54.6136 61.0251C54.3335 61.2501 54.0512 61.4698 53.7665 61.6841C53.3609 61.9897 52.9431 62.2884 52.5261 62.5711ZM56.6124 58.1969C56.4623 58.057 56.3743 57.8635 56.3677 57.6592C56.3611 57.4548 56.4365 57.2562 56.5772 57.107C57.1405 56.5103 57.6845 55.884 58.1934 55.2455C58.2566 55.1661 58.335 55.0999 58.424 55.0505C58.5129 55.0012 58.6109 54.9698 58.7121 54.958C58.8133 54.9463 58.9159 54.9544 59.0139 54.982C59.112 55.0097 59.2036 55.0562 59.2835 55.119C59.3634 55.1818 59.4302 55.2596 59.4798 55.348C59.5295 55.4363 59.5611 55.5336 59.573 55.6341C59.5848 55.7347 59.5766 55.8365 59.5488 55.9339C59.521 56.0313 59.4741 56.1223 59.4109 56.2017C58.8753 56.8751 58.3021 57.5341 57.7098 58.1619C57.6798 58.1939 57.647 58.2231 57.6118 58.2493C57.4661 58.358 57.2865 58.4123 57.1045 58.4027C56.9225 58.3931 56.7496 58.3203 56.6163 58.1969H56.6124ZM48.8774 64.6971C48.1045 65.0771 47.3041 65.4344 46.499 65.7513C46.3076 65.8267 46.0939 65.8235 45.9049 65.7424C45.7159 65.6613 45.5671 65.5089 45.4912 65.3188C45.4153 65.1287 45.4185 64.9165 45.5002 64.7287C45.5818 64.541 45.7352 64.3932 45.9266 64.3178C46.6919 64.0138 47.451 63.6801 48.1856 63.3168C48.3587 63.2306 48.5579 63.2119 48.7442 63.2642C48.9306 63.3164 49.0905 63.436 49.1925 63.5994C49.2946 63.7628 49.3315 63.9582 49.296 64.1472C49.2605 64.3362 49.1551 64.5053 49.0006 64.6211C48.9621 64.6503 48.9209 64.6758 48.8774 64.6971ZM60.7386 53.0079C60.5612 52.9042 60.4326 52.7349 60.3809 52.537C60.3292 52.3392 60.3588 52.1291 60.4631 51.9529C60.8802 51.249 61.272 50.5194 61.6271 49.7844C61.7161 49.6 61.8751 49.4583 62.0693 49.3905C62.2635 49.3226 62.4768 49.3342 62.6624 49.4226C62.848 49.511 62.9907 49.669 63.059 49.8618C63.1273 50.0547 63.1157 50.2666 63.0267 50.451C62.6525 51.2255 62.24 51.9939 61.8023 52.7312C61.7506 52.8176 61.6828 52.8934 61.6026 52.9547C61.4803 53.0474 61.333 53.1019 61.1795 53.1114C61.026 53.1208 60.873 53.0848 60.7401 53.0079H60.7386ZM42.4715 67.0267C41.6336 67.2312 40.7742 67.4022 39.9187 67.536C39.8155 67.5582 39.7087 67.5593 39.605 67.5391C39.5014 67.5189 39.4029 67.478 39.3157 67.4187C39.2286 67.3594 39.1545 67.283 39.0981 67.1943C39.0417 67.1056 39.0041 67.0063 38.9877 66.9027C38.9712 66.799 38.9763 66.6931 39.0025 66.5915C39.0287 66.4898 39.0756 66.3945 39.1402 66.3115C39.2048 66.2285 39.2858 66.1594 39.3782 66.1086C39.4706 66.0577 39.5725 66.0262 39.6777 66.0158C40.4903 65.8881 41.3061 65.7262 42.1019 65.5324C42.2009 65.5083 42.3037 65.5038 42.4045 65.5191C42.5052 65.5345 42.6019 65.5694 42.6891 65.6219C42.7762 65.6744 42.8521 65.7434 42.9124 65.825C42.9727 65.9066 43.0162 65.9992 43.0405 66.0975C43.0648 66.1958 43.0693 66.2979 43.0539 66.398C43.0384 66.4981 43.0032 66.5941 42.9504 66.6807C42.8976 66.7672 42.8281 66.8426 42.7459 66.9025C42.6638 66.9624 42.5705 67.0056 42.4715 67.0297V67.0267ZM35.7068 67.9046C34.8413 67.9221 33.9659 67.9046 33.105 67.8484C32.9039 67.8297 32.718 67.7339 32.5868 67.5813C32.4556 67.4287 32.3894 67.2314 32.4022 67.0312C32.4151 66.831 32.506 66.6436 32.6556 66.5088C32.8052 66.374 33.0018 66.3024 33.2037 66.3092C34.0233 66.3609 34.8551 66.3791 35.677 66.3632C35.7789 66.3611 35.8802 66.379 35.9751 66.4159C36.07 66.4527 36.1567 66.5078 36.2303 66.5779C36.3038 66.648 36.3627 66.7318 36.4036 66.8245C36.4445 66.9173 36.4666 67.0171 36.4686 67.1183C36.4707 67.2195 36.4527 67.3201 36.4156 67.4144C36.3785 67.5087 36.323 67.5948 36.2524 67.6678C36.1818 67.7409 36.0975 67.7993 36.0041 67.84C35.9107 67.8806 35.8103 67.9026 35.7084 67.9046H35.7068ZM28.9092 67.2965C28.0605 67.1263 27.2096 66.9165 26.3839 66.6786C26.1862 66.6215 26.0195 66.4888 25.9203 66.3097C25.8211 66.1305 25.7977 65.9195 25.8551 65.7232C25.9126 65.5268 26.0462 65.3612 26.2266 65.2627C26.4069 65.1642 26.6193 65.1409 26.817 65.198C27.6052 65.426 28.4141 65.6228 29.2206 65.7847C29.4166 65.8308 29.5869 65.9508 29.6956 66.1192C29.8043 66.2876 29.8428 66.4914 29.8031 66.6876C29.7634 66.8837 29.6486 67.0568 29.4828 67.1705C29.317 67.2841 29.1133 67.3293 28.9145 67.2965H28.9092ZM22.4046 65.2307C21.6142 64.8803 20.8298 64.4919 20.073 64.0769C19.9837 64.0279 19.9051 63.962 19.8415 63.8828C19.7779 63.8037 19.7306 63.7128 19.7024 63.6155C19.6741 63.5183 19.6655 63.4164 19.6769 63.3158C19.6882 63.2151 19.7195 63.1177 19.7688 63.0291C19.8181 62.9404 19.8845 62.8623 19.9641 62.7992C20.0438 62.736 20.1353 62.6891 20.2332 62.661C20.3312 62.633 20.4337 62.6244 20.535 62.6357C20.6363 62.647 20.7344 62.678 20.8237 62.727C21.5422 63.1214 22.2868 63.487 23.0383 63.823C23.2262 63.9064 23.3731 64.0606 23.4465 64.2516C23.52 64.4427 23.5141 64.6548 23.4301 64.8415C23.346 65.0282 23.1908 65.174 22.9985 65.247C22.8062 65.32 22.5926 65.3141 22.4046 65.2307ZM16.5176 61.7974C15.8289 61.2836 15.1479 60.7333 14.5005 60.1617C14.3466 60.0258 14.2534 59.8348 14.2414 59.6307C14.2293 59.4266 14.2994 59.2261 14.4362 59.0733C14.573 58.9205 14.7653 58.8279 14.9708 58.8159C15.1763 58.804 15.3782 58.8736 15.532 59.0094C16.1442 59.5521 16.7916 60.0735 17.4451 60.5623C17.6099 60.6848 17.719 60.8673 17.7485 61.0697C17.7779 61.272 17.7252 61.4777 17.602 61.6416C17.5582 61.699 17.5067 61.7501 17.4489 61.7936C17.3149 61.8939 17.1518 61.9484 16.9839 61.9491C16.8161 61.9498 16.6525 61.8966 16.5176 61.7974ZM11.5382 57.1609C11.1242 56.6813 10.7194 56.1827 10.336 55.6795C10.1968 55.4971 10.0605 55.3147 9.92586 55.13C9.86475 55.0485 9.82072 54.9556 9.79638 54.8569C9.77204 54.7582 9.76788 54.6556 9.78415 54.5552C9.80041 54.4549 9.83677 54.3588 9.89109 54.2727C9.9454 54.1865 10.0166 54.1121 10.1003 54.0537C10.1829 53.9943 10.2764 53.9516 10.3755 53.9281C10.4747 53.9046 10.5775 53.9007 10.6782 53.9168C10.7788 53.9328 10.8753 53.9684 10.9621 54.0215C11.0489 54.0746 11.1242 54.1442 11.1839 54.2263C11.3117 54.4011 11.441 54.5759 11.5734 54.7484C11.9377 55.2273 12.3226 55.7008 12.7167 56.1569C12.7831 56.2337 12.8337 56.3227 12.8654 56.419C12.8971 56.5152 12.9094 56.6167 12.9016 56.7177C12.8938 56.8186 12.866 56.9171 12.8198 57.0073C12.7736 57.0976 12.71 57.178 12.6325 57.2438L12.5958 57.2742C12.4381 57.3925 12.2409 57.4466 12.0444 57.4256C11.8479 57.4045 11.6669 57.3099 11.5382 57.1609Z" fill="#91B3FA"/>
<path opacity="0.3" d="M64.3284 46.9059C64.4562 46.8104 64.5507 46.6775 64.5985 46.5259C64.7271 46.1283 64.8495 45.7202 64.962 45.3135C65.0167 45.1164 64.9903 44.9057 64.8886 44.7279C64.787 44.5501 64.6183 44.4197 64.4198 44.3654C64.2213 44.311 64.0093 44.3372 63.8302 44.4382C63.6512 44.5392 63.5199 44.7067 63.4652 44.9039C63.3581 45.2907 63.2417 45.6776 63.1201 46.0554C63.0697 46.2115 63.0707 46.3794 63.123 46.5349C63.1753 46.6904 63.2761 46.8252 63.4108 46.9199C63.5456 47.0145 63.7072 47.0641 63.8722 47.0613C64.0372 47.0585 64.197 47.0035 64.3284 46.9044V46.9059Z" fill="#91B3FA"/>
</g>
<path d="M58.2501 35.1467C58.2529 35.0721 58.2323 34.9984 58.1912 34.9359C58.1501 34.8734 58.0904 34.8252 58.0205 34.7978L53.8981 33.2184C53.4964 31.1801 52.7629 29.2205 51.7264 27.4167L53.8017 23.5479C53.8371 23.4818 53.8509 23.4064 53.8412 23.3322C53.8314 23.2579 53.7987 23.1886 53.7474 23.1337L50.14 19.2808C50.0887 19.2259 50.0213 19.1882 49.9474 19.1731C49.8735 19.158 49.7966 19.1662 49.7276 19.1965L45.6925 20.972C43.9567 19.813 42.0422 18.9432 40.0243 18.3969L38.7372 14.2012C38.7154 14.1294 38.6714 14.0662 38.6116 14.0204C38.5518 13.9746 38.479 13.9485 38.4035 13.9459L33.1104 13.7604C33.0351 13.7575 32.9609 13.7779 32.8978 13.8188C32.8348 13.8596 32.786 13.9189 32.7584 13.9884L31.1682 18.0799C29.1161 18.4793 27.1432 19.2082 25.3271 20.2378L21.4328 18.1764C21.3662 18.1411 21.2901 18.1273 21.2152 18.137C21.1403 18.1467 21.0703 18.1793 21.015 18.2304L17.136 21.8134C17.0806 21.8644 17.0427 21.9313 17.0275 22.0048C17.0123 22.0782 17.0205 22.1545 17.051 22.2231L18.8386 26.231C17.6727 27.9552 16.7978 29.8568 16.2483 31.8609L12.0242 33.1424C11.952 33.1644 11.8885 33.208 11.8425 33.2674C11.7964 33.3268 11.7701 33.3989 11.767 33.4738L11.575 38.7312C11.5722 38.8059 11.5927 38.8796 11.6339 38.9422C11.675 39.0048 11.7346 39.0533 11.8045 39.0809L15.9246 40.6603C16.3264 42.6986 17.0602 44.6583 18.0971 46.462L16.021 50.33C15.9857 50.3962 15.9719 50.4717 15.9816 50.5461C15.9914 50.6204 16.0241 50.6899 16.0753 50.745L19.6827 54.5978C19.7341 54.6527 19.8015 54.6902 19.8755 54.7052C19.9494 54.7201 20.0262 54.7119 20.0952 54.6814L24.1326 52.9044C25.8688 54.062 27.7832 54.931 29.8007 55.4772L31.0878 59.6691C31.1099 59.7407 31.1539 59.8037 31.2137 59.8494C31.2735 59.895 31.3461 59.921 31.4215 59.9237L36.7147 60.1152C36.7899 60.1181 36.8641 60.0977 36.9272 60.0569C36.9903 60.016 37.039 59.9567 37.0667 59.8872L38.6568 55.7927C40.709 55.3936 42.682 54.6648 44.4979 53.6348L48.3922 55.6969C48.4589 55.7321 48.5351 55.7458 48.61 55.736C48.6849 55.7262 48.7548 55.6934 48.8101 55.6422L52.6891 52.0599C52.7443 52.0087 52.7822 51.9417 52.7974 51.8682C52.8127 51.7946 52.8045 51.7182 52.774 51.6495L50.9864 47.6424C52.1525 45.9182 53.0274 44.0166 53.5767 42.0125L57.8009 40.734C57.8731 40.7122 57.9367 40.6686 57.9828 40.6092C58.0289 40.5498 58.0552 40.4776 58.058 40.4026L58.2501 35.1467Z" fill="#91B3FA"/>
<path d="M37.4739 41.5732C36.266 42.2305 34.8486 42.397 33.5196 42.0376C32.1907 41.6782 31.0539 40.821 30.3482 39.6462C29.6425 38.4714 29.4229 37.0706 29.7357 35.7383C30.0485 34.4061 30.8692 33.2462 32.0252 32.5025C33.1813 31.7589 34.5826 31.4895 35.9345 31.751C37.2864 32.0125 38.4835 32.7845 39.2742 33.9047C40.0648 35.0248 40.3873 36.4059 40.1739 37.7574C39.9604 39.1088 39.2277 40.3255 38.1297 41.1514C37.9218 41.3078 37.7026 41.4487 37.4739 41.5732ZM30.9939 35.8027C30.7297 36.7032 30.788 37.6669 31.159 38.5295C31.5299 39.3921 32.1905 40.1002 33.0282 40.5332C33.8659 40.9663 34.8288 41.0974 35.7529 40.9044C36.6771 40.7113 37.5052 40.2059 38.0962 39.4743C38.6872 38.7428 39.0046 37.8303 38.9942 36.8924C38.9838 35.9544 38.6464 35.0491 38.0393 34.3306C37.4322 33.6121 36.5931 33.125 35.6649 32.9521C34.7367 32.7792 33.7769 32.9314 32.949 33.3826C32.7718 33.4791 32.602 33.5883 32.4409 33.7095C31.7438 34.2338 31.2361 34.9681 30.9939 35.8027Z" fill="#BDD0FB"/>
<path d="M42.6889 47.3057C43.0465 47.0365 43.3903 46.7496 43.7189 46.446C43.8209 46.3503 43.923 46.2525 44.025 46.1526C44.5221 45.6634 44.9792 45.1355 45.3917 44.574L45.4086 44.5511C45.4246 44.5291 45.4399 44.5071 45.456 44.4858L45.5463 44.3581C45.5715 44.325 45.5897 44.2872 45.5998 44.2469C45.6099 44.2067 45.6118 44.1649 45.6053 44.1239C45.5988 44.0829 45.584 44.0437 45.5619 44.0085C45.5397 43.9733 45.5107 43.9429 45.4764 43.9192C45.4422 43.8954 45.4035 43.8787 45.3627 43.8701C45.3218 43.8616 45.2796 43.8612 45.2386 43.8692C45.1976 43.8772 45.1587 43.8933 45.1241 43.9166C45.0896 43.9399 45.0601 43.9698 45.0374 44.0047C43.5768 46.0828 41.5102 47.6664 39.1159 48.5424C36.7215 49.4184 34.1145 49.5446 31.6457 48.9041C29.485 48.3428 27.5158 47.2152 25.9439 45.6393C24.372 44.0634 23.2552 42.0971 22.7102 39.9458C22.1652 37.7945 22.212 35.5373 22.8457 33.4102C23.4794 31.283 24.6768 29.364 26.3127 27.8538C31.3503 23.2013 39.2545 23.4879 43.937 28.4892C45.472 30.1295 46.5316 32.1519 47.0033 34.3418C47.022 34.4202 47.0709 34.4883 47.1395 34.5314C47.2081 34.5745 47.2909 34.5893 47.3703 34.5725C47.4497 34.5557 47.5193 34.5087 47.5643 34.4416C47.6092 34.3745 47.626 34.2926 47.6109 34.2133C47.2116 32.3506 46.4046 30.598 45.2471 29.0798C44.9798 28.7301 44.6946 28.3929 44.3915 28.0681C39.4756 22.8175 31.1743 22.5196 25.8895 27.4008C23.518 29.5921 22.0481 32.5786 21.7639 35.7834C21.4797 38.9882 22.4013 42.184 24.3506 44.7533C24.622 45.109 24.9111 45.451 25.2169 45.7779C27.423 48.1342 30.4302 49.5946 33.6573 49.8768C36.8844 50.1589 40.1022 49.2429 42.6889 47.3057Z" fill="#BDD0FB"/>
<g opacity="0.3">
<path opacity="0.3" d="M94.9036 22.5371C94.9861 22.4748 95.0461 22.3878 95.0747 22.2888C95.1032 22.1899 95.0988 22.0845 95.062 21.9883C94.9174 21.6083 94.7559 21.2282 94.5929 20.8626C94.5685 20.8034 94.5324 20.7497 94.4867 20.7046C94.441 20.6596 94.3866 20.6241 94.3268 20.6004C94.267 20.5767 94.2029 20.5652 94.1386 20.5665C94.0742 20.5679 94.0107 20.5821 93.952 20.6083C93.8932 20.6346 93.8404 20.6723 93.7967 20.7192C93.7529 20.7662 93.7191 20.8214 93.6973 20.8816C93.6755 20.9417 93.6661 21.0057 93.6697 21.0695C93.6733 21.1334 93.6898 21.1959 93.7182 21.2533C93.8774 21.6045 94.0281 21.9655 94.1659 22.3265C94.211 22.4446 94.3015 22.5401 94.4174 22.592C94.5333 22.6438 94.6653 22.6479 94.7842 22.6032C94.8269 22.5867 94.867 22.5644 94.9036 22.5371Z" fill="#91B3FA"/>
<path opacity="0.3" d="M93.2438 19.2733C93.1351 19.3389 93.0046 19.3589 92.8811 19.3289C92.7576 19.299 92.651 19.2216 92.5849 19.1137C92.2359 18.5443 91.8581 17.9928 91.4531 17.4613C91.3684 17.3493 91.282 17.2383 91.1937 17.1284C91.1545 17.0795 91.1254 17.0234 91.108 16.9633C91.0906 16.9032 91.0853 16.8403 91.0924 16.7782C91.0995 16.7161 91.1189 16.656 91.1494 16.6013C91.1799 16.5466 91.221 16.4984 91.2702 16.4595C91.3712 16.3849 91.497 16.3513 91.6221 16.3654C91.7471 16.3795 91.8621 16.4403 91.9437 16.5355C92.0355 16.6511 92.1265 16.7673 92.2153 16.8844C92.6402 17.4413 93.0361 18.0195 93.4014 18.6166C93.4632 18.7171 93.4853 18.8369 93.4632 18.9526C93.4411 19.0683 93.3766 19.1718 93.2821 19.2429C93.2713 19.2551 93.2576 19.2642 93.2438 19.2733ZM89.5706 15.3262C88.9918 14.7589 88.3784 14.2274 87.7341 13.7346C87.6334 13.6575 87.5677 13.5439 87.5514 13.4186C87.5351 13.2934 87.5696 13.1669 87.6472 13.0669C87.7248 12.9669 87.8393 12.9017 87.9654 12.8855C88.0914 12.8693 88.2188 12.9035 88.3195 12.9806C88.9937 13.4982 89.6352 14.0567 90.2402 14.6528C90.2849 14.6969 90.3203 14.7494 90.3445 14.8072C90.3687 14.865 90.3811 14.9269 90.3811 14.9895C90.3811 15.0521 90.3687 15.1141 90.3445 15.1718C90.3203 15.2296 90.2849 15.2821 90.2402 15.3262C90.2244 15.3428 90.2069 15.3578 90.1882 15.3711C90.0965 15.4378 89.984 15.4699 89.8707 15.4616C89.7574 15.4534 89.6508 15.4054 89.5699 15.3262H89.5706ZM85.7199 12.3802C85.0197 11.971 84.2946 11.6052 83.549 11.2849C83.4327 11.2342 83.3413 11.1399 83.295 11.0224C83.2486 10.905 83.251 10.7741 83.3016 10.6584C83.3523 10.5428 83.447 10.4518 83.5651 10.4053C83.6832 10.3589 83.815 10.3609 83.9316 10.4108C84.7127 10.7457 85.4723 11.1282 86.2059 11.5563C86.2623 11.5869 86.312 11.6285 86.3519 11.6785C86.3918 11.7286 86.4212 11.7861 86.4383 11.8477C86.4554 11.9093 86.4599 11.9736 86.4515 12.0369C86.443 12.1003 86.4219 12.1612 86.3892 12.2163C86.3566 12.2713 86.3132 12.3193 86.2615 12.3573C86.2099 12.3953 86.151 12.4227 86.0885 12.4377C86.026 12.4527 85.9611 12.4551 85.8977 12.4447C85.8342 12.4343 85.7735 12.4113 85.7192 12.3771L85.7199 12.3802ZM81.2571 10.464C80.478 10.2385 79.6858 10.0608 78.8848 9.93197C78.7632 9.90762 78.6558 9.83744 78.5852 9.73616C78.5146 9.63487 78.4862 9.51036 78.506 9.38873C78.5258 9.2671 78.5922 9.15782 78.6914 9.08381C78.7906 9.00979 78.9147 8.9768 79.0379 8.99175C79.8786 9.12793 80.7102 9.315 81.528 9.55193C81.5925 9.56567 81.6535 9.5925 81.7071 9.63072C81.7607 9.66894 81.8058 9.71774 81.8396 9.77406C81.8734 9.83039 81.8951 9.89303 81.9034 9.95807C81.9116 10.0231 81.9063 10.0891 81.8877 10.152C81.8692 10.2149 81.8377 10.2734 81.7954 10.3237C81.753 10.3739 81.7007 10.415 81.6417 10.4443C81.5826 10.4736 81.5181 10.4904 81.4522 10.4938C81.3863 10.4972 81.3204 10.4871 81.2586 10.464H81.2571ZM76.4598 9.68798C75.6483 9.65692 74.8356 9.67494 74.0263 9.74195C73.9025 9.74686 73.7815 9.70398 73.6888 9.62231C73.5961 9.54063 73.5388 9.42649 73.5289 9.30379C73.519 9.18109 73.5573 9.05935 73.6357 8.96406C73.7142 8.86877 73.8267 8.80733 73.9498 8.79261C74.798 8.72268 75.6498 8.70365 76.5003 8.7356C76.6267 8.74155 76.7457 8.79687 76.8312 8.88952C76.9168 8.98217 76.962 9.10464 76.9571 9.23026C76.9521 9.35588 76.8974 9.47447 76.8048 9.5602C76.7123 9.64593 76.5893 9.69186 76.4628 9.68798H76.4598ZM71.6188 10.0916C70.8247 10.2571 70.0416 10.4713 69.2741 10.7331C69.2146 10.7534 69.1516 10.7619 69.0888 10.758C69.0259 10.7541 68.9645 10.738 68.9079 10.7106C68.8514 10.6831 68.8008 10.6449 68.7591 10.598C68.7174 10.5511 68.6855 10.4966 68.665 10.4374C68.6446 10.3783 68.636 10.3157 68.6399 10.2533C68.6438 10.1909 68.6601 10.1299 68.6877 10.0737C68.7153 10.0175 68.7539 9.96727 68.801 9.92587C68.8482 9.88447 68.9031 9.85271 68.9627 9.8324C69.7674 9.55762 70.5886 9.33295 71.4214 9.15972C71.528 9.13774 71.6389 9.15241 71.736 9.2013C71.833 9.25019 71.9105 9.3304 71.9556 9.42878C72.0007 9.52716 72.0108 9.63785 71.9843 9.74268C71.9577 9.84752 71.896 9.94026 71.8094 10.0057C71.7534 10.048 71.6885 10.0774 71.6196 10.0916H71.6188ZM67.0274 11.6589C66.298 12.0134 65.5913 12.4124 64.9115 12.8537C64.805 12.9194 64.6768 12.9411 64.5544 12.9141C64.432 12.8871 64.3251 12.8135 64.2566 12.7092C64.1881 12.6049 64.1634 12.4781 64.1878 12.3559C64.2123 12.2338 64.2839 12.126 64.3873 12.0556C65.1005 11.5933 65.8416 11.175 66.6065 10.803C66.7134 10.752 66.8356 10.7421 66.9494 10.7753C67.0633 10.8085 67.1607 10.8823 67.2229 10.9827C67.2851 11.083 67.3077 11.2027 67.2863 11.3185C67.2649 11.4344 67.201 11.5384 67.107 11.6102C67.081 11.6293 67.053 11.6456 67.0236 11.6589H67.0274ZM60.5229 15.9913C60.4767 15.9488 60.4393 15.8978 60.413 15.841C60.3867 15.7842 60.3719 15.7228 60.3695 15.6603C60.3671 15.5979 60.3771 15.5355 60.3989 15.4769C60.4208 15.4183 60.454 15.3645 60.4968 15.3186C60.9997 14.7798 61.531 14.2678 62.0885 13.7848C62.1727 13.7088 62.2576 13.6389 62.3434 13.5667C62.4407 13.4852 62.5666 13.4455 62.6934 13.4563C62.8202 13.467 62.9375 13.5274 63.0194 13.624C63.1014 13.7207 63.1414 13.8458 63.1306 13.9717C63.1197 14.0976 63.059 14.2141 62.9617 14.2956C62.8806 14.3625 62.801 14.4309 62.7206 14.5016C62.1883 14.9624 61.6809 15.4511 61.2009 15.9655C61.1143 16.058 60.9943 16.1127 60.8672 16.1175C60.7401 16.1224 60.6163 16.077 60.5229 15.9913Z" fill="#91B3FA"/>
</g>
<g opacity="0.3">
<path opacity="0.3" d="M87.9675 45.8577C87.293 46.3507 86.5896 46.8033 85.8608 47.2129C85.8058 47.2451 85.745 47.2661 85.6818 47.2747C85.6185 47.2832 85.5543 47.2792 85.4926 47.2628C85.431 47.2464 85.3733 47.2179 85.3229 47.1791C85.2725 47.1402 85.2304 47.0918 85.199 47.0366C85.1677 46.9814 85.1477 46.9206 85.1404 46.8577C85.133 46.7947 85.1383 46.7309 85.156 46.6701C85.1737 46.6092 85.2035 46.5525 85.2436 46.5031C85.2837 46.4538 85.3332 46.413 85.3894 46.3829C86.0848 45.9928 86.7559 45.5613 87.3989 45.0908C87.5008 45.0235 87.6247 44.9974 87.7453 45.018C87.8659 45.0386 87.974 45.1042 88.0474 45.2015C88.1209 45.2987 88.154 45.4201 88.1402 45.5409C88.1263 45.6617 88.0664 45.7726 87.9728 45.8509L87.9675 45.8577ZM89.2156 44.2395C89.1725 44.194 89.1388 44.1405 89.1165 44.082C89.0942 44.0236 89.0837 43.9614 89.0856 43.8989C89.0875 43.8364 89.1018 43.775 89.1277 43.718C89.1535 43.661 89.1904 43.6096 89.2362 43.5668C89.8181 43.0224 90.3667 42.4439 90.8792 41.8346C90.9631 41.7471 91.0774 41.6945 91.1988 41.6874C91.3203 41.6804 91.4399 41.7195 91.5335 41.7968C91.6271 41.8741 91.6876 41.9838 91.7028 42.1037C91.718 42.2236 91.6867 42.3448 91.6154 42.4427C91.0784 43.0813 90.5034 43.6874 89.8936 44.2577C89.8806 44.2699 89.8676 44.2805 89.8538 44.2912C89.7597 44.3623 89.6425 44.3964 89.5247 44.3868C89.4069 44.3773 89.2968 44.3248 89.2156 44.2395ZM83.6003 48.3052C82.8266 48.622 82.0344 48.8923 81.228 49.1146C81.107 49.1437 80.9793 49.1248 80.872 49.0621C80.7647 48.9993 80.6861 48.8976 80.653 48.7784C80.6198 48.6592 80.6345 48.5318 80.6942 48.4232C80.7538 48.3146 80.8536 48.2333 80.9724 48.1965C81.7424 47.9844 82.4988 47.7265 83.2375 47.4242C83.3452 47.3807 83.4651 47.3775 83.575 47.4151C83.6849 47.4528 83.7772 47.5288 83.835 47.6291C83.8927 47.7293 83.9118 47.8469 83.8887 47.9601C83.8657 48.0733 83.8021 48.1743 83.7097 48.2443C83.6769 48.2691 83.6408 48.2893 83.6026 48.3044L83.6003 48.3052ZM92.4434 40.5759C92.3366 40.5074 92.2615 40.3996 92.2347 40.2762C92.2079 40.1528 92.2315 40.0239 92.3003 39.9177C92.7333 39.2506 93.1251 38.5579 93.4734 37.8434C93.5315 37.7343 93.63 37.6519 93.7481 37.6134C93.8662 37.575 93.9947 37.5836 94.1065 37.6373C94.2184 37.6911 94.3049 37.7859 94.3478 37.9018C94.3907 38.0176 94.3867 38.1455 94.3366 38.2584C93.9714 39.0078 93.5605 39.7343 93.106 40.4338C93.0759 40.4807 93.0375 40.5219 92.9928 40.5554C92.9145 40.6145 92.8197 40.6482 92.7213 40.6519C92.623 40.6556 92.5259 40.629 92.4434 40.5759ZM78.7731 49.63C77.9447 49.7528 77.1096 49.8256 76.2723 49.8481C76.2082 49.8517 76.1441 49.8425 76.0836 49.821C76.0232 49.7995 75.9677 49.7662 75.9205 49.7231C75.8732 49.6799 75.8352 49.6278 75.8086 49.5697C75.782 49.5117 75.7674 49.449 75.7656 49.3852C75.7639 49.3215 75.775 49.2581 75.7984 49.1987C75.8218 49.1393 75.857 49.0852 75.9018 49.0395C75.9466 48.9939 76.0002 48.9577 76.0594 48.9329C76.1185 48.9082 76.1821 48.8956 76.2463 48.8957C77.0447 48.8747 77.841 48.8051 78.6308 48.6875C78.7557 48.6707 78.8823 48.7034 78.9831 48.7785C79.084 48.8537 79.151 48.9652 79.1697 49.089C79.1884 49.2129 79.1573 49.339 79.0831 49.4403C79.0089 49.5415 78.8975 49.6096 78.7731 49.63ZM73.7631 49.7668C72.9293 49.689 72.1009 49.5621 71.2822 49.3867C71.158 49.3599 71.0496 49.2852 70.9809 49.179C70.9121 49.0728 70.8887 48.9439 70.9157 48.8205C70.9426 48.6971 71.0179 48.5894 71.1248 48.5212C71.2317 48.4529 71.3616 48.4296 71.4858 48.4564C72.267 48.6243 73.0576 48.7458 73.8534 48.8205C73.9776 48.8354 74.0909 48.8979 74.1694 48.9947C74.2478 49.0914 74.2851 49.2148 74.2734 49.3385C74.2616 49.4621 74.2017 49.5763 74.1064 49.6568C74.011 49.7372 73.8879 49.7775 73.7631 49.7691V49.7668ZM68.8656 48.708C68.0743 48.4339 67.3005 48.1123 66.5484 47.745C66.4391 47.6866 66.3568 47.5883 66.3189 47.4709C66.2809 47.3535 66.2903 47.226 66.345 47.1153C66.3996 47.0046 66.4954 46.9193 66.6121 46.8772C66.7288 46.8352 66.8574 46.8397 66.9709 46.8899C67.6881 47.2402 68.4261 47.5468 69.1809 47.8081C69.2406 47.8285 69.2956 47.8606 69.3428 47.9023C69.39 47.944 69.4284 47.9946 69.4558 48.0511C69.4831 48.1076 69.499 48.169 69.5024 48.2317C69.5058 48.2943 69.4966 48.357 69.4755 48.4161C69.4451 48.5048 69.3886 48.5824 69.3132 48.6388C69.25 48.6861 69.176 48.7171 69.0978 48.7292C69.0195 48.7413 68.9395 48.734 68.8648 48.708H68.8656Z" fill="#91B3FA"/>
<path opacity="0.3" d="M95.1347 36.1553C95.2111 36.0974 95.2682 36.0179 95.2985 35.9273C95.4309 35.5412 95.5518 35.1497 95.6589 34.7636C95.6785 34.7025 95.6854 34.6381 95.6793 34.5742C95.6732 34.5104 95.6542 34.4484 95.6234 34.392C95.5926 34.3356 95.5507 34.286 95.5001 34.2461C95.4496 34.2062 95.3914 34.1769 95.3292 34.1598C95.2669 34.1428 95.2018 34.1384 95.1378 34.1469C95.0738 34.1555 95.0122 34.1767 94.9567 34.2095C94.9012 34.2422 94.8529 34.2858 94.8147 34.3375C94.7765 34.3892 94.7492 34.4481 94.7345 34.5105C94.632 34.8792 94.5164 35.2523 94.3909 35.621C94.3577 35.7175 94.3567 35.8221 94.3879 35.9193C94.4191 36.0165 94.481 36.1011 94.5643 36.1608C94.6477 36.2204 94.7481 36.2518 94.8508 36.2504C94.9535 36.249 95.053 36.2149 95.1347 36.153V36.1553Z" fill="#91B3FA"/>
</g>
<path d="M91.2052 27.9739C91.2073 27.9239 91.1937 27.8745 91.1662 27.8326C91.1388 27.7906 91.0989 27.7582 91.0521 27.7398L88.2972 26.6818C88.0286 25.3176 87.5375 24.0062 86.8433 22.7993L88.2322 20.2105C88.256 20.1663 88.2653 20.1158 88.2589 20.066C88.2524 20.0163 88.2305 19.9698 88.1962 19.933L85.7819 17.3549C85.7476 17.3181 85.7026 17.293 85.6532 17.2829C85.6038 17.2728 85.5525 17.2783 85.5064 17.2986L82.8059 18.4866C81.6443 17.7118 80.3633 17.1303 79.0133 16.765L78.1524 13.9573C78.1376 13.9094 78.108 13.8673 78.068 13.8368C78.028 13.8063 77.9794 13.7889 77.929 13.7871L74.3867 13.6594C74.3364 13.6574 74.2867 13.6709 74.2445 13.6982C74.2023 13.7254 74.1696 13.7649 74.151 13.8114L73.0873 16.5477C71.714 16.8148 70.3937 17.3025 69.1784 17.9918L66.5766 16.6123C66.5319 16.5889 66.4809 16.5798 66.4307 16.5864C66.3806 16.5929 66.3337 16.6147 66.2965 16.6488L63.7008 19.046C63.664 19.0803 63.6387 19.1251 63.6286 19.1743C63.6185 19.2234 63.6239 19.2745 63.6442 19.3204L64.841 22.002C64.0584 23.1555 63.4704 24.4281 63.1001 25.7697L60.2741 26.6248C60.2257 26.6394 60.1832 26.6687 60.1523 26.7084C60.1215 26.7482 60.1038 26.7965 60.1019 26.8467L59.9733 30.3651C59.9713 30.415 59.9849 30.4642 60.0123 30.5061C60.0398 30.5479 60.0796 30.5802 60.1264 30.5984L62.8813 31.6557C63.15 33.0196 63.6411 34.3307 64.3352 35.5374L62.9463 38.1262C62.9225 38.1705 62.9132 38.2209 62.9196 38.2707C62.9261 38.3204 62.948 38.3669 62.9823 38.4037L65.3958 40.9819C65.4303 41.0186 65.4754 41.0437 65.5249 41.0538C65.5744 41.0639 65.6259 41.0584 65.6721 41.0381L68.3719 39.8501C69.5336 40.6251 70.8149 41.2066 72.1652 41.5717L73.0261 44.3794C73.0409 44.4274 73.0704 44.4696 73.1104 44.5002C73.1504 44.5308 73.199 44.5484 73.2495 44.5504L76.7918 44.6781C76.8421 44.68 76.8917 44.6664 76.9339 44.6392C76.9761 44.612 77.0088 44.5725 77.0275 44.5261L78.0912 41.7898C79.4644 41.5222 80.7846 41.0345 82.0001 40.3457L84.6019 41.7252C84.6466 41.7488 84.6976 41.758 84.7478 41.7515C84.798 41.7449 84.8449 41.723 84.882 41.6887L87.4769 39.2914C87.514 39.2573 87.5395 39.2125 87.5496 39.1633C87.5598 39.1141 87.5542 39.0629 87.5335 39.0171L86.3451 36.3347C87.1253 35.181 87.711 33.9087 88.0791 32.5678L90.9052 31.712C90.9536 31.6974 90.9962 31.6682 91.0271 31.6284C91.058 31.5886 91.0755 31.5402 91.0774 31.49L91.2052 27.9739Z" fill="#91B3FA"/>
<path d="M77.3344 32.3276C76.5129 32.7745 75.5489 32.8877 74.6451 32.6434C73.7412 32.399 72.968 31.8162 72.4878 31.0173C72.0077 30.2185 71.858 29.2658 72.0703 28.3597C72.2825 27.4535 72.8402 26.6643 73.6261 26.1581C74.412 25.6518 75.3649 25.4679 76.2845 25.6449C77.2041 25.822 78.0187 26.3462 78.5573 27.1075C79.0958 27.8687 79.3162 28.8077 79.1722 29.727C79.0282 30.6464 78.531 31.4745 77.7851 32.0372C77.6424 32.145 77.4917 32.2421 77.3344 32.3276ZM73.2503 30.4441C73.4188 30.7493 73.6462 31.0185 73.9194 31.2364C74.1927 31.4543 74.5065 31.6166 74.8429 31.714C75.1793 31.8114 75.5317 31.842 75.8801 31.8041C76.2284 31.7662 76.5658 31.6605 76.873 31.493C77.4933 31.155 77.953 30.586 78.151 29.9113C78.349 29.2366 78.269 28.5113 77.9286 27.8952C77.5883 27.2791 77.0154 26.8224 76.3361 26.6258C75.6568 26.4292 74.9267 26.5086 74.3064 26.8467C74.1921 26.9093 74.0824 26.98 73.9781 27.058C73.4688 27.4424 73.1153 27.9956 72.9818 28.617C72.8482 29.2383 72.9435 29.8866 73.2503 30.4441Z" fill="#BDD0FB"/>
<path d="M80.9623 36.3172C81.2041 36.1353 81.4385 35.9397 81.6656 35.7304C82.1159 35.3151 82.5225 34.8555 82.8792 34.3585L82.9267 34.2916C82.9848 34.2091 83.0151 34.1105 83.0133 34.0099C83.0115 33.9092 82.9777 33.8118 82.9167 33.7314C82.8859 33.6917 82.8493 33.6569 82.8081 33.628C82.7037 33.5561 82.575 33.5281 82.4499 33.5502C82.3249 33.5723 82.2138 33.6426 82.1408 33.7458C81.8121 34.2154 81.4337 34.6486 81.012 35.038L80.9424 35.1018C79.9544 35.9989 78.7557 36.6355 77.456 36.9534C76.7491 37.125 76.0223 37.2017 75.2949 37.1814H75.2765H75.2215C73.8946 37.1335 72.6002 36.7614 71.4528 36.098C70.3054 35.4345 69.3404 34.5002 68.6433 33.3779C67.9463 32.2555 67.5386 30.9798 67.4566 29.6636C67.3745 28.3474 67.6205 27.0314 68.1728 25.8322C68.7251 24.633 69.5666 23.5875 70.6228 22.7885C71.6791 21.9895 72.9174 21.4616 74.2281 21.2515C75.5388 21.0414 76.8815 21.1556 78.1371 21.584C79.3928 22.0124 80.5227 22.7417 81.4268 23.7075C81.6135 23.9066 81.7895 24.1157 81.9541 24.3308C82.668 25.267 83.1657 26.3478 83.4118 27.4965C83.4234 27.5592 83.4475 27.619 83.4827 27.6722C83.5179 27.7255 83.5635 27.7713 83.6168 27.8068C83.6702 27.8422 83.7301 27.8667 83.7931 27.8788C83.8561 27.8908 83.921 27.8902 83.9837 27.8769C84.0465 27.8636 84.106 27.838 84.1586 27.8015C84.2112 27.765 84.2559 27.7184 84.29 27.6644C84.3242 27.6104 84.3471 27.5502 84.3574 27.4873C84.3677 27.4244 84.3652 27.36 84.35 27.2981C83.9425 25.3996 82.9259 23.6837 81.4529 22.408C79.9799 21.1323 78.1299 20.3657 76.1808 20.2234C74.2317 20.081 72.2888 20.5706 70.6437 21.6186C68.9987 22.6665 67.7403 24.2163 67.0576 26.0352C66.3749 27.854 66.3048 29.8438 66.8577 31.7056C67.4106 33.5675 68.5568 35.2009 70.124 36.3606C71.6912 37.5202 73.595 38.1436 75.5493 38.137C77.5036 38.1304 79.403 37.4942 80.9623 36.324V36.3172Z" fill="#BDD0FB"/>
<path d="M91.3201 162.872L86.6338 194.99H140.996L133.916 162.872H91.3201Z" fill="url(#paint1_linear_18_1790)"/>
<path d="M3.31824e-07 60.034V155.63C-0.000278312 159.411 1.48638 163.043 4.14308 165.751C6.79977 168.459 10.4164 170.03 14.222 170.127C49.3756 171.028 172.325 173.211 205.789 172.721C208.557 172.68 211.203 171.579 213.173 169.648C215.144 167.717 216.288 165.104 216.367 162.356C217.013 140.148 218.061 86.7439 214.182 61.9494C213.788 59.419 212.515 57.1051 210.585 55.4079C208.655 53.7107 206.188 52.737 203.611 52.6552C174.157 51.7195 43.823 48.7476 10.3744 49.494C7.60131 49.5556 4.96277 50.6932 3.02373 52.6632C1.08469 54.6332 -0.000692851 57.279 3.31824e-07 60.034Z" fill="url(#paint2_linear_18_1790)"/>
<path d="M6.03857 59.5688V150.391C6.03854 152.599 6.91301 154.717 8.47297 156.289C10.0329 157.861 12.1531 158.761 14.3751 158.792L200.98 161.083C202.069 161.099 203.15 160.9 204.161 160.499C205.172 160.097 206.093 159.5 206.87 158.742C207.647 157.985 208.265 157.081 208.688 156.085C209.111 155.088 209.331 154.018 209.335 152.937L209.648 62.9253C209.654 61.3605 209.042 59.8558 207.943 58.7339C206.845 57.6121 205.348 56.9625 203.773 56.9245L12.7214 53.0907C11.8515 53.0696 10.9862 53.2216 10.1764 53.5376C9.36651 53.8537 8.62851 54.3275 8.00579 54.9312C7.38307 55.5348 6.88823 56.2561 6.55038 57.0526C6.21254 57.849 6.03852 58.7046 6.03857 59.5688Z" fill="#91B3FA"/>
<path d="M210.736 164.804L6.03415 161.34C6.00018 161.34 5.96665 161.332 5.93546 161.319C5.90427 161.306 5.87603 161.286 5.85237 161.262C5.82871 161.238 5.81008 161.209 5.79755 161.178C5.78501 161.147 5.77882 161.113 5.77933 161.079C5.78132 161.011 5.80996 160.947 5.85913 160.9C5.90831 160.852 5.97413 160.826 6.04257 160.826L210.744 164.291C210.778 164.291 210.812 164.298 210.843 164.311C210.874 164.324 210.903 164.343 210.926 164.368C210.95 164.392 210.969 164.42 210.982 164.451C210.995 164.483 211.001 164.516 211.001 164.55C211 164.584 210.993 164.617 210.98 164.648C210.967 164.679 210.947 164.707 210.923 164.731C210.899 164.755 210.87 164.773 210.839 164.786C210.807 164.798 210.774 164.805 210.74 164.804H210.736Z" fill="#91B3FA"/>
<path d="M110.407 169.036C109.935 169.036 109.473 168.897 109.08 168.636C108.687 168.376 108.381 168.005 108.2 167.572C108.019 167.138 107.971 166.661 108.063 166.2C108.155 165.74 108.383 165.317 108.717 164.985C109.051 164.653 109.477 164.427 109.94 164.336C110.404 164.244 110.884 164.291 111.321 164.47C111.757 164.65 112.13 164.954 112.393 165.344C112.656 165.735 112.796 166.194 112.796 166.663C112.795 167.292 112.543 167.895 112.096 168.34C111.648 168.785 111.041 169.035 110.407 169.036ZM110.407 164.804C110.037 164.804 109.676 164.913 109.368 165.118C109.06 165.322 108.82 165.612 108.679 165.952C108.537 166.291 108.5 166.665 108.572 167.025C108.645 167.386 108.823 167.717 109.084 167.977C109.346 168.237 109.679 168.414 110.042 168.486C110.405 168.557 110.782 168.52 111.123 168.38C111.465 168.239 111.757 168.001 111.963 167.695C112.169 167.39 112.278 167.03 112.278 166.663C112.278 166.17 112.08 165.698 111.73 165.349C111.379 165.001 110.903 164.805 110.407 164.804Z" fill="#91B3FA"/>
<path d="M152.706 203.531H73.1453C70.9835 203.531 69.3604 202.002 69.7783 200.36L70.7999 196.35C71.106 195.144 72.4421 194.258 74.0292 194.21L150.731 191.832C152.389 191.78 153.857 192.655 154.217 193.908L156.058 200.293C156.533 201.956 154.902 203.531 152.706 203.531Z" fill="url(#paint3_linear_18_1790)"/>
<path d="M115.973 195.295C115.939 195.295 115.905 195.289 115.874 195.276C115.842 195.264 115.814 195.245 115.79 195.221C115.765 195.198 115.746 195.169 115.733 195.138C115.72 195.107 115.713 195.074 115.712 195.04C115.712 195.006 115.719 194.973 115.731 194.942C115.744 194.91 115.763 194.882 115.787 194.858C115.811 194.834 115.839 194.815 115.87 194.802C115.902 194.788 115.935 194.782 115.969 194.781L119.26 194.733C119.328 194.734 119.393 194.761 119.442 194.808C119.491 194.855 119.52 194.919 119.522 194.987C119.523 195.02 119.517 195.054 119.504 195.085C119.492 195.117 119.473 195.145 119.449 195.17C119.426 195.194 119.397 195.213 119.366 195.226C119.335 195.24 119.301 195.247 119.267 195.247L115.977 195.295H115.973Z" fill="#91B3FA"/>
<path d="M72.7214 201.319C72.7076 201.32 72.6938 201.32 72.6801 201.319C72.6124 201.308 72.5517 201.271 72.5114 201.216C72.4711 201.16 72.4544 201.092 72.465 201.024L72.9341 198.107C73.0551 197.35 73.4417 196.659 74.0257 196.156C74.6097 195.654 75.3535 195.373 76.1259 195.363L110.987 194.856H110.992C111.06 194.856 111.126 194.884 111.175 194.932C111.223 194.98 111.25 195.045 111.25 195.113C111.25 195.181 111.223 195.247 111.175 195.295C111.126 195.343 111.06 195.37 110.992 195.37L76.1336 195.875C75.4828 195.883 74.8558 196.119 74.3638 196.542C73.8717 196.965 73.5463 197.548 73.4453 198.186L72.9762 201.103C72.9666 201.163 72.9356 201.218 72.8889 201.257C72.8422 201.297 72.7828 201.319 72.7214 201.319Z" fill="#91B3FA"/>
<g opacity="0.53">
<path opacity="0.53" d="M114.543 65.9169H109.635V151.901H114.543V65.9169Z" fill="white"/>
<path opacity="0.53" d="M122.745 65.9169H117.836V151.901H122.745V65.9169Z" fill="white"/>
<path opacity="0.53" d="M130.946 65.9169H126.038V151.901H130.946V65.9169Z" fill="white"/>
<path opacity="0.53" d="M139.147 65.9169H134.238V151.901H139.147V65.9169Z" fill="white"/>
<path opacity="0.53" d="M147.347 65.9169H142.439V151.901H147.347V65.9169Z" fill="white"/>
<path opacity="0.53" d="M155.548 65.9169H150.64V151.901H155.548V65.9169Z" fill="white"/>
<path opacity="0.53" d="M163.749 65.9169H158.841V151.901H163.749V65.9169Z" fill="white"/>
</g>
<path d="M114.543 106.903H109.635V151.901H114.543V106.903Z" fill="url(#paint4_linear_18_1790)"/>
<path d="M122.745 122.368H117.836V151.901H122.745V122.368Z" fill="url(#paint5_linear_18_1790)"/>
<path d="M130.946 84.1459H126.038V151.901H130.946V84.1459Z" fill="url(#paint6_linear_18_1790)"/>
<path d="M139.147 135.625H134.238V151.902H139.147V135.625Z" fill="url(#paint7_linear_18_1790)"/>
<path d="M147.347 93.2045H142.439V151.901H147.347V93.2045Z" fill="url(#paint8_linear_18_1790)"/>
<path d="M155.548 103.367H150.64V151.901H155.548V103.367Z" fill="url(#paint9_linear_18_1790)"/>
<path d="M163.749 114.414H158.841V151.901H163.749V114.414Z" fill="url(#paint10_linear_18_1790)"/>
<path opacity="0.57" d="M28.6851 61.988C26.327 61.9882 24.0218 62.6829 22.0612 63.9843C20.1005 65.2857 18.5724 67.1353 17.6701 69.2993C16.7678 71.4633 16.5317 73.8445 16.9919 76.1417C17.452 78.4389 18.5877 80.549 20.2552 82.2052C21.9227 83.8614 24.0472 84.9892 26.3601 85.4461C28.6729 85.903 31.0703 85.6684 33.2489 84.772C35.4275 83.8757 37.2896 82.3577 38.5998 80.4102C39.9099 78.4627 40.6091 76.1731 40.6091 73.8308C40.6091 72.2755 40.3007 70.7355 39.7015 69.2986C39.1022 67.8617 38.2239 66.5562 37.1166 65.4564C36.0094 64.3567 34.6949 63.4844 33.2482 62.8893C31.8015 62.2942 30.251 61.9879 28.6851 61.988ZM28.6851 80.578C27.3416 80.578 26.0282 80.1823 24.9111 79.4409C23.794 78.6995 22.9233 77.6458 22.4092 76.4129C21.8951 75.18 21.7605 73.8233 22.0226 72.5145C22.2847 71.2057 22.9317 70.0034 23.8817 69.0598C24.8318 68.1162 26.0422 67.4736 27.3599 67.2133C28.6776 66.9529 30.0435 67.0865 31.2847 67.5972C32.526 68.1079 33.5869 68.9727 34.3334 70.0823C35.0798 71.1918 35.4782 72.4963 35.4782 73.8308C35.4783 74.7169 35.3026 75.5943 34.9613 76.413C34.62 77.2316 34.1196 77.9755 33.4888 78.602C32.858 79.2286 32.1091 79.7256 31.2849 80.0646C30.4606 80.4037 29.5773 80.5781 28.6851 80.578Z" fill="white"/>
<path d="M47.4555 71.2261H12.0371V86.1138H47.4555V71.2261Z" fill="url(#paint11_linear_18_1790)"/>
<path opacity="0.57" d="M57.7533 61.988C55.3951 61.988 53.0899 62.6826 51.1291 63.9839C49.1684 65.2852 47.6401 67.1348 46.7377 69.2988C45.8352 71.4628 45.5991 73.844 46.0592 76.1412C46.5192 78.4385 47.6548 80.5487 49.3223 82.2049C50.9898 83.8612 53.1143 84.9891 55.4272 85.446C57.7401 85.903 60.1374 85.6685 62.3161 84.7721C64.4948 83.8758 66.3569 82.3578 67.6671 80.4103C68.9772 78.4628 69.6765 76.1731 69.6765 73.8308C69.6765 70.6899 68.4203 67.6777 66.1843 65.4567C63.9482 63.2358 60.9155 61.988 57.7533 61.988ZM57.7533 80.578C56.4097 80.578 55.0964 80.1823 53.9793 79.4409C52.8622 78.6995 51.9915 77.6458 51.4773 76.4129C50.9632 75.18 50.8287 73.8233 51.0908 72.5145C51.3529 71.2057 51.9999 70.0034 52.9499 69.0598C53.8999 68.1162 55.1103 67.4736 56.428 67.2133C57.7458 66.9529 59.1116 67.0865 60.3529 67.5972C61.5941 68.1079 62.6551 68.9727 63.4015 70.0823C64.1479 71.1918 64.5463 72.4963 64.5463 73.8308C64.5463 75.6203 63.8306 77.3365 62.5567 78.6018C61.2827 79.8672 59.5549 80.578 57.7533 80.578Z" fill="white"/>
<path d="M76.5209 65.4723H41.1025V86.1144H76.5209V65.4723Z" fill="url(#paint12_linear_18_1790)"/>
<path opacity="0.57" d="M86.8188 61.988C84.4606 61.988 82.1553 62.6826 80.1946 63.9839C78.2338 65.2852 76.7056 67.1348 75.8031 69.2988C74.9007 71.4628 74.6646 73.844 75.1246 76.1412C75.5847 78.4385 76.7203 80.5487 78.3878 82.2049C80.0552 83.8612 82.1798 84.9891 84.4926 85.446C86.8055 85.903 89.2029 85.6685 91.3816 84.7721C93.5603 83.8758 95.4224 82.3578 96.7326 80.4103C98.0427 78.4628 98.742 76.1731 98.742 73.8308C98.742 70.6899 97.4858 67.6777 95.2498 65.4567C93.0137 63.2358 89.981 61.988 86.8188 61.988ZM86.8188 80.578C85.4752 80.578 84.1619 80.1823 83.0447 79.4409C81.9276 78.6995 81.0569 77.6458 80.5428 76.4129C80.0286 75.18 79.8941 73.8233 80.1562 72.5145C80.4183 71.2057 81.0653 70.0034 82.0153 69.0598C82.9654 68.1162 84.1758 67.4736 85.4935 67.2133C86.8112 66.9529 88.1771 67.0865 89.4183 67.5972C90.6596 68.1079 91.7205 68.9727 92.467 70.0823C93.2134 71.1918 93.6118 72.4963 93.6118 73.8308C93.6118 75.6203 92.8961 77.3365 91.6222 78.6018C90.3482 79.8672 88.6204 80.578 86.8188 80.578Z" fill="white"/>
<path d="M105.587 78.6703H70.1689V86.1137H105.587V78.6703Z" fill="url(#paint13_linear_18_1790)"/>
<path opacity="0.44" d="M95.975 152.377L19.4907 151.807C18.7657 151.802 18.0722 151.512 17.5615 151.001C17.0507 150.49 16.7641 149.799 16.7642 149.079V110.048C16.7642 109.324 17.0536 108.63 17.5688 108.118C18.084 107.607 18.7828 107.319 19.5114 107.319H95.9956C96.3564 107.319 96.7136 107.39 97.0468 107.527C97.3801 107.664 97.6829 107.865 97.9379 108.118C98.193 108.372 98.3953 108.673 98.5332 109.004C98.6712 109.335 98.7422 109.689 98.7421 110.048V149.648C98.7423 150.008 98.6707 150.365 98.5315 150.697C98.3923 151.029 98.1882 151.331 97.9309 151.585C97.6737 151.839 97.3684 152.039 97.0327 152.175C96.697 152.311 96.3375 152.38 95.975 152.377Z" fill="white"/>
<path opacity="0.44" d="M84.1116 124.942L74.2767 114.614L60.1741 129.849L50.2259 119.184L40.89 129.662L33.7358 121.026L19.6309 135.611V146.158C19.6306 146.828 19.8971 147.471 20.372 147.946C20.847 148.421 21.4919 148.691 22.1661 148.695L93.3021 149.227C93.6393 149.23 93.9736 149.166 94.2858 149.04C94.598 148.913 94.882 148.727 95.1212 148.491C95.3605 148.255 95.5505 147.974 95.6801 147.665C95.8097 147.356 95.8764 147.024 95.8764 146.69V117.997L84.1116 124.942Z" fill="white"/>
<path d="M84.4305 124.655H84.1719V149.227H84.4305V124.655Z" fill="white"/>
<path d="M74.4056 114.614H74.147V149.085H74.4056V114.614Z" fill="white"/>
<path d="M60.3041 129.662H60.0454V148.979H60.3041V129.662Z" fill="white"/>
<path d="M50.6175 119.562H50.3589V148.979H50.6175V119.562Z" fill="white"/>
<path d="M41.0209 129.349H40.7622V148.979H41.0209V129.349Z" fill="white"/>
<path d="M34.0155 120.294H33.7568V148.791H34.0155V120.294Z" fill="white"/>
<path d="M35.8835 121.116C36.3403 120.021 35.8167 118.765 34.714 118.311C33.6113 117.858 32.3472 118.378 31.8905 119.473C31.4337 120.568 31.9574 121.824 33.06 122.278C34.1627 122.731 35.4268 122.211 35.8835 121.116Z" fill="url(#paint14_linear_18_1790)"/>
<path d="M42.3145 129.349C42.3147 129.629 42.2313 129.903 42.0748 130.135C41.9184 130.368 41.696 130.549 41.4358 130.657C41.1755 130.764 40.8891 130.792 40.6128 130.737C40.3365 130.683 40.0826 130.548 39.8834 130.35C39.6842 130.152 39.5486 129.9 39.4936 129.626C39.4387 129.351 39.467 129.067 39.5749 128.808C39.6827 128.55 39.8654 128.329 40.0997 128.174C40.334 128.018 40.6095 127.935 40.8912 127.935C41.2686 127.936 41.6305 128.085 41.8974 128.35C42.1643 128.615 42.3143 128.974 42.3145 129.349Z" fill="url(#paint15_linear_18_1790)"/>
<path d="M51.9117 119.563C51.9118 119.843 51.8284 120.117 51.672 120.349C51.5156 120.582 51.2932 120.763 51.0329 120.871C50.7727 120.978 50.4863 121.006 50.2099 120.951C49.9336 120.897 49.6798 120.762 49.4806 120.564C49.2814 120.366 49.1457 120.114 49.0908 119.84C49.0359 119.565 49.0641 119.281 49.172 119.022C49.2799 118.764 49.4626 118.543 49.6969 118.387C49.9312 118.232 50.2066 118.149 50.4884 118.149C50.8658 118.15 51.2277 118.299 51.4946 118.564C51.7615 118.829 51.9115 119.188 51.9117 119.563Z" fill="url(#paint16_linear_18_1790)"/>
<path d="M61.5982 129.662C61.5984 129.942 61.515 130.216 61.3586 130.448C61.2022 130.681 60.9798 130.863 60.7196 130.97C60.4594 131.077 60.173 131.105 59.8967 131.051C59.6204 130.996 59.3666 130.861 59.1674 130.664C58.9681 130.466 58.8324 130.214 58.7774 129.939C58.7224 129.665 58.7506 129.381 58.8583 129.122C58.9661 128.864 59.1486 128.643 59.3828 128.487C59.617 128.332 59.8924 128.249 60.1741 128.249C60.5517 128.249 60.9138 128.398 61.1808 128.663C61.4479 128.928 61.598 129.287 61.5982 129.662Z" fill="url(#paint17_linear_18_1790)"/>
<path d="M75.6998 114.614C75.7 114.893 75.6166 115.167 75.4601 115.4C75.3037 115.632 75.0813 115.814 74.821 115.921C74.5608 116.028 74.2744 116.056 73.998 116.002C73.7217 115.947 73.4679 115.812 73.2687 115.615C73.0695 115.417 72.9338 115.165 72.8789 114.89C72.824 114.616 72.8522 114.331 72.9601 114.073C73.068 113.814 73.2507 113.593 73.485 113.438C73.7193 113.283 73.9947 113.2 74.2765 113.2C74.6539 113.2 75.0158 113.349 75.2827 113.614C75.5496 113.879 75.6996 114.239 75.6998 114.614Z" fill="url(#paint18_linear_18_1790)"/>
<path d="M85.7247 124.656C85.7247 124.936 85.6412 125.209 85.4847 125.442C85.3281 125.674 85.1057 125.856 84.8454 125.963C84.5851 126.07 84.2988 126.098 84.0225 126.043C83.7462 125.988 83.4925 125.854 83.2933 125.656C83.0942 125.458 82.9586 125.206 82.9037 124.931C82.8489 124.657 82.8772 124.372 82.9851 124.114C83.093 123.855 83.2757 123.635 83.5099 123.479C83.7442 123.324 84.0197 123.241 84.3014 123.241C84.4883 123.241 84.6735 123.278 84.8462 123.349C85.019 123.42 85.1759 123.524 85.3081 123.656C85.4403 123.787 85.5451 123.943 85.6166 124.114C85.6881 124.286 85.7248 124.47 85.7247 124.656Z" fill="url(#paint19_linear_18_1790)"/>
<g opacity="0.48">
<path opacity="0.48" d="M38.8626 100.821H17.895C17.018 100.821 16.3071 101.313 16.3071 101.92C16.3071 102.526 17.018 103.018 17.895 103.018H38.8626C39.7403 103.018 40.4513 102.526 40.4513 101.92C40.4513 101.313 39.7419 100.821 38.8626 100.821Z" fill="white"/>
<path opacity="0.48" d="M38.8626 95.9568H17.895C17.018 95.9568 16.3071 96.4493 16.3071 97.0559C16.3071 97.6624 17.018 98.1542 17.895 98.1542H38.8626C39.7403 98.1542 40.4513 97.6624 40.4513 97.0559C40.4513 96.4493 39.7419 95.9568 38.8626 95.9568Z" fill="white"/>
<path opacity="0.48" d="M38.8626 91.093H17.895C17.018 91.093 16.3071 91.5848 16.3071 92.1913C16.3071 92.7979 17.018 93.2904 17.895 93.2904H38.8626C39.7403 93.2904 40.4513 92.7986 40.4513 92.1913C40.4513 91.584 39.7419 91.093 38.8626 91.093Z" fill="white"/>
</g>
<g opacity="0.48">
<path opacity="0.48" d="M68.0094 100.821H47.0418C46.1648 100.821 45.4531 101.313 45.4531 101.92C45.4531 102.526 46.1648 103.018 47.0418 103.018H68.0094C68.8863 103.018 69.598 102.526 69.598 101.92C69.598 101.313 68.8863 100.821 68.0094 100.821Z" fill="white"/>
<path opacity="0.48" d="M68.0094 95.9568H47.0418C46.1648 95.9568 45.4531 96.4493 45.4531 97.0559C45.4531 97.6624 46.1648 98.1542 47.0418 98.1542H68.0094C68.8863 98.1542 69.598 97.6624 69.598 97.0559C69.598 96.4493 68.8863 95.9568 68.0094 95.9568Z" fill="white"/>
<path opacity="0.48" d="M68.0094 91.093H47.0418C46.1648 91.093 45.4531 91.5848 45.4531 92.1913C45.4531 92.7979 46.1648 93.2904 47.0418 93.2904H68.0094C68.8863 93.2904 69.598 92.7986 69.598 92.1913C69.598 91.584 68.8863 91.093 68.0094 91.093Z" fill="white"/>
</g>
<g opacity="0.48">
<path opacity="0.48" d="M97.1544 100.821H76.1868C75.3091 100.821 74.5981 101.313 74.5981 101.92C74.5981 102.526 75.3091 103.018 76.1868 103.018H97.1544C98.0313 103.018 98.7422 102.526 98.7422 101.92C98.7422 101.313 98.0313 100.821 97.1544 100.821Z" fill="white"/>
<path opacity="0.48" d="M97.1544 95.9568H76.1868C75.3091 95.9568 74.5981 96.4493 74.5981 97.0559C74.5981 97.6624 75.3091 98.1542 76.1868 98.1542H97.1544C98.0313 98.1542 98.7422 97.6624 98.7422 97.0559C98.7422 96.4493 98.0313 95.9568 97.1544 95.9568Z" fill="white"/>
<path opacity="0.48" d="M97.1544 91.093H76.1868C75.3091 91.093 74.5981 91.5848 74.5981 92.1913C74.5981 92.7979 75.3091 93.2904 76.1868 93.2904H97.1544C98.0313 93.2904 98.7422 92.7986 98.7422 92.1913C98.7422 91.584 98.0313 91.093 97.1544 91.093Z" fill="white"/>
</g>
<path d="M192.723 112.206C196.512 108.443 196.512 102.341 192.723 98.5782C188.934 94.815 182.791 94.815 179.003 98.5782C175.214 102.341 175.214 108.443 179.003 112.206C182.791 115.969 188.934 115.969 192.723 112.206Z" fill="url(#paint20_linear_18_1790)"/>
<path d="M191.627 103.355C192.135 104.583 192.232 105.94 191.904 107.226C191.576 108.513 190.84 109.66 189.806 110.5C188.771 111.34 187.492 111.827 186.157 111.89C184.823 111.952 183.503 111.587 182.394 110.848C181.284 110.11 180.442 109.036 179.994 107.786C179.545 106.536 179.512 105.176 179.901 103.906C180.29 102.637 181.079 101.525 182.152 100.735C183.226 99.9445 184.526 99.5178 185.862 99.5177C185.968 99.5177 186.073 99.5177 186.177 99.5261V97.9573C186.072 97.9527 185.968 97.9504 185.862 97.9504C184.188 97.9515 182.558 98.4875 181.214 99.4792C179.869 100.471 178.882 101.866 178.397 103.458C177.912 105.05 177.955 106.755 178.52 108.32C179.085 109.886 180.143 111.23 181.536 112.153C182.929 113.076 184.584 113.529 186.256 113.446C187.929 113.364 189.53 112.749 190.824 111.693C192.117 110.636 193.035 109.195 193.44 107.581C193.846 105.967 193.718 104.267 193.076 102.731L191.627 103.355Z" fill="#91B3FA"/>
<path opacity="0.5" d="M193.836 119.107H178.027C177.55 119.107 177.092 119.295 176.755 119.63C176.418 119.965 176.229 120.42 176.229 120.893C176.229 121.367 176.418 121.821 176.755 122.156C177.092 122.491 177.55 122.68 178.027 122.68H193.836C194.313 122.68 194.77 122.491 195.108 122.156C195.445 121.821 195.634 121.367 195.634 120.893C195.634 120.42 195.445 119.965 195.108 119.63C194.77 119.295 194.313 119.107 193.836 119.107Z" fill="white"/>
<path d="M192.682 81.2348C196.471 77.4716 196.471 71.3702 192.682 67.607C188.893 63.8438 182.75 63.8438 178.962 67.607C175.173 71.3702 175.173 77.4716 178.962 81.2348C182.75 84.9979 188.893 84.9979 192.682 81.2348Z" fill="url(#paint21_linear_18_1790)"/>
<path d="M189.119 79.9731C188.301 80.4845 187.375 80.8001 186.414 80.8951C185.453 80.99 184.483 80.8617 183.58 80.5203C182.677 80.1788 181.867 79.6336 181.213 78.9276C180.558 78.2217 180.078 77.3743 179.81 76.4525C179.543 75.5307 179.494 74.5596 179.669 73.6159C179.844 72.6723 180.237 71.782 180.818 71.0153C181.399 70.2485 182.151 69.6264 183.015 69.198C183.879 68.7696 184.832 68.5467 185.798 68.5468C185.904 68.5468 186.009 68.5468 186.113 68.5551V66.9856C186.009 66.9856 185.904 66.9795 185.798 66.9795C184.591 66.9795 183.399 67.2577 182.318 67.7922C181.237 68.3267 180.295 69.103 179.567 70.0601C178.839 71.0171 178.344 72.1289 178.122 73.3079C177.899 74.487 177.955 75.7012 178.285 76.8552C178.615 78.0091 179.21 79.0714 180.023 79.9585C180.835 80.8456 181.844 81.5334 182.97 81.9678C184.096 82.4022 185.308 82.5713 186.51 82.4619C187.713 82.3526 188.874 81.9676 189.901 81.3374L189.119 79.9731Z" fill="#91B3FA"/>
<path opacity="0.5" d="M193.877 88.1385H178.068C177.591 88.1385 177.134 88.3267 176.797 88.6617C176.459 88.9967 176.27 89.451 176.27 89.9247C176.27 90.3985 176.459 90.8528 176.797 91.1877C177.134 91.5227 177.591 91.7109 178.068 91.7109H193.877C194.354 91.7109 194.812 91.5227 195.149 91.1877C195.486 90.8528 195.676 90.3985 195.676 89.9247C195.676 89.451 195.486 88.9967 195.149 88.6617C194.812 88.3267 194.354 88.1385 193.877 88.1385Z" fill="white"/>
<path opacity="0.91" d="M192.757 143.335C196.546 139.572 196.546 133.47 192.757 129.707C188.968 125.944 182.826 125.944 179.037 129.707C175.248 133.47 175.248 139.572 179.037 143.335C182.826 147.098 188.968 147.098 192.757 143.335Z" fill="white"/>
<path d="M191.18 140.001C190.576 140.883 189.752 141.596 188.789 142.069C187.826 142.542 186.756 142.759 185.683 142.7C184.611 142.642 183.571 142.308 182.667 141.733C181.762 141.157 181.022 140.359 180.52 139.416C180.017 138.473 179.769 137.417 179.798 136.35C179.828 135.283 180.135 134.242 180.689 133.328C181.243 132.414 182.026 131.657 182.961 131.132C183.896 130.607 184.952 130.331 186.027 130.331C186.132 130.331 186.237 130.331 186.341 130.339V128.77C186.237 128.766 186.132 128.763 186.027 128.763C184.682 128.763 183.361 129.108 182.19 129.765C181.019 130.421 180.038 131.366 179.343 132.51C178.648 133.653 178.261 134.955 178.221 136.29C178.181 137.624 178.489 138.947 179.114 140.129C179.74 141.311 180.662 142.313 181.791 143.038C182.921 143.762 184.22 144.184 185.562 144.264C186.904 144.344 188.244 144.078 189.453 143.492C190.661 142.907 191.697 142.021 192.459 140.921L191.18 140.001Z" fill="url(#paint22_linear_18_1790)"/>
<path opacity="0.5" d="M177.993 153.492H193.802C194.279 153.492 194.736 153.304 195.073 152.969C195.411 152.634 195.6 152.18 195.6 151.706C195.6 151.232 195.411 150.778 195.073 150.443C194.736 150.108 194.279 149.92 193.802 149.92H177.993C177.516 149.92 177.058 150.108 176.721 150.443C176.384 150.778 176.194 151.232 176.194 151.706C176.194 152.18 176.384 152.634 176.721 152.969C177.058 153.304 177.516 153.492 177.993 153.492Z" fill="white"/>
<path d="M189.244 206.007C189.244 206.007 189.663 208.363 189.868 210.691C189.886 210.907 189.86 211.125 189.792 211.331C189.723 211.537 189.613 211.727 189.469 211.889C189.324 212.052 189.148 212.184 188.951 212.277C188.753 212.37 188.539 212.422 188.321 212.431C185.197 212.56 178.513 212.811 176.115 212.705C176.031 212.701 175.95 212.676 175.878 212.634C175.806 212.593 175.745 212.534 175.701 212.464C175.656 212.394 175.628 212.315 175.62 212.232C175.613 212.15 175.625 212.066 175.656 211.989C175.768 211.71 175.983 211.485 176.258 211.359L187.298 206.32L189.244 206.007Z" fill="url(#paint23_linear_18_1790)"/>
<path d="M189.587 204.623L189.25 207.44C189.25 207.44 187.316 208.333 185.996 207.326L186.797 204.189L189.587 204.623Z" fill="url(#paint24_linear_18_1790)"/>
<path d="M189.334 151.681C189.479 152.416 190.114 188.378 186.244 204.494C186.212 204.621 186.227 204.755 186.287 204.872C186.346 204.989 186.445 205.081 186.567 205.131C187.574 205.517 188.639 205.732 189.719 205.767C189.929 205.774 190.135 205.711 190.306 205.589C190.476 205.466 190.601 205.291 190.66 205.091C191.766 201.352 197.067 182.618 197.759 164.722C198.531 144.724 197.759 164.038 197.759 164.038L197.305 151.676L189.334 151.681Z" fill="url(#paint25_linear_18_1790)"/>
<path d="M201.943 207.235C201.943 207.235 202.61 208.423 203.255 211.581C203.283 211.716 203.282 211.855 203.253 211.989C203.223 212.123 203.166 212.249 203.084 212.36C203.002 212.471 202.898 212.563 202.778 212.631C202.658 212.699 202.525 212.741 202.387 212.755C201.356 212.855 199.768 212.983 198.495 212.976C198.357 212.976 198.22 212.946 198.094 212.89C197.968 212.833 197.855 212.751 197.763 212.648C197.671 212.545 197.602 212.424 197.56 212.293C197.519 212.162 197.506 212.023 197.522 211.887C197.663 210.734 198.102 208.846 199.458 207.369L201.943 207.235Z" fill="url(#paint26_linear_18_1790)"/>
<path d="M202.529 203.613L201.743 207.869C201.743 207.869 200.966 208.443 199.429 208.027L199.804 203.445L202.529 203.613Z" fill="url(#paint27_linear_18_1790)"/>
<path d="M204.652 152.785C207.817 171.759 203.963 199.682 202.666 205.146C202.628 205.309 202.542 205.458 202.419 205.573C202.295 205.688 202.141 205.765 201.974 205.793C201.394 205.888 200.439 205.966 199.498 205.695C199.34 205.649 199.2 205.555 199.099 205.426C198.997 205.297 198.939 205.139 198.933 204.975C198.758 200.557 199.072 173.432 196.123 162.715C195.973 162.172 195.639 161.697 195.177 161.371L189.453 157.329L189.014 150.792L204.652 152.785Z" fill="url(#paint28_linear_18_1790)"/>
<path d="M184.483 116.832C193.972 116.68 204.436 119.306 204.436 119.306C207.262 135.694 204.93 154.595 204.93 154.595C197.584 156.508 189.301 153.425 189.301 153.425C188.077 146.576 182.387 127.299 182.387 127.299C177.752 126.728 173.934 125.399 170.79 123.644C173.188 120.883 174.318 117.369 174.809 115.292C178.163 116.328 181.557 116.88 184.483 116.832Z" fill="url(#paint29_linear_18_1790)"/>
<path d="M156.463 102.955C157.395 101.837 158.575 102.366 158.575 102.366C159.971 108.218 167.29 112.971 174.809 115.292C174.318 117.369 173.188 120.883 170.79 123.644C158.31 116.675 156.463 102.955 156.463 102.955Z" fill="url(#paint30_linear_18_1790)"/>
<path d="M156.689 103.239C156.592 103.543 157.72 104.015 158.385 102.756C158.408 102.153 158.778 99.564 158.415 99.0753C156.48 96.4568 152.73 93.1748 152.73 93.1748C152.097 93.7958 152.619 94.4061 152.619 94.4061L154.438 96.2873C154.055 96.9714 153.596 97.5468 153.375 98.3722C153.216 99.0029 153.307 99.67 153.629 100.236C153.949 100.807 154.385 101.549 154.796 102.131C155.578 103.231 156.689 103.239 156.689 103.239Z" fill="url(#paint31_linear_18_1790)"/>
<path d="M155.235 97.5088L156.893 98.9043L157.413 100.294L155.935 101.922C155.935 101.922 155.439 99.165 155.069 98.5683C154.7 97.9717 154.892 97.6828 155.235 97.5088Z" fill="url(#paint32_linear_18_1790)"/>
<path d="M200.797 128.43L204.436 119.309C204.436 119.309 213.296 125.288 214.753 132.87C213.078 132.992 210.032 133.425 207.05 134.922C206.395 131.338 200.797 128.43 200.797 128.43Z" fill="url(#paint33_linear_18_1790)"/>
<path d="M193.054 137.014C193.054 137.014 203.002 142.598 206.359 137.83C207.055 136.842 207.222 135.854 207.047 134.917C210.032 133.422 213.075 132.99 214.749 132.865C215.189 135.15 214.957 137.582 213.602 140.038C207.721 150.721 191.731 139.448 191.731 139.448L193.054 137.014Z" fill="url(#paint34_linear_18_1790)"/>
<path d="M194.249 144.079L188.82 125.246C188.79 125.142 188.729 125.049 188.646 124.978C188.563 124.908 188.461 124.864 188.352 124.851C187.368 124.737 184.518 124.417 181.227 124.14C177.263 123.807 172.656 123.538 169.908 123.767C169.818 123.774 169.731 123.803 169.655 123.851C169.578 123.9 169.515 123.966 169.47 124.044C169.425 124.122 169.401 124.21 169.398 124.3C169.396 124.39 169.415 124.479 169.455 124.56C171.02 127.704 177.454 140.49 180.676 144.679C180.729 144.748 180.796 144.803 180.874 144.841C180.952 144.879 181.037 144.898 181.124 144.897L193.72 144.781C193.806 144.78 193.89 144.76 193.966 144.722C194.043 144.683 194.109 144.628 194.16 144.56C194.211 144.492 194.246 144.413 194.261 144.33C194.277 144.246 194.273 144.16 194.249 144.079Z" fill="url(#paint35_linear_18_1790)"/>
<path d="M180.662 122.508L176.725 121.856C176.677 121.848 176.628 121.853 176.582 121.869C176.537 121.886 176.496 121.914 176.464 121.951C176.433 121.987 176.411 122.031 176.402 122.079C176.392 122.126 176.396 122.175 176.411 122.221L176.8 123.394C176.817 123.444 176.847 123.488 176.888 123.522C176.928 123.555 176.978 123.577 177.03 123.584L180.818 124.086C180.863 124.092 180.909 124.087 180.952 124.072C180.995 124.056 181.034 124.03 181.064 123.997C181.095 123.963 181.117 123.923 181.129 123.879C181.14 123.835 181.141 123.789 181.13 123.744L180.889 122.721C180.876 122.667 180.848 122.618 180.808 122.58C180.767 122.542 180.717 122.517 180.662 122.508Z" fill="url(#paint36_linear_18_1790)"/>
<path d="M183.612 125.818L183.287 124.14C183.271 124.058 183.229 123.983 183.167 123.927C183.105 123.871 183.026 123.836 182.943 123.827L174.993 123.026C174.931 123.02 174.868 123.028 174.81 123.051C174.752 123.074 174.7 123.11 174.659 123.157C174.618 123.203 174.589 123.259 174.574 123.319C174.559 123.38 174.559 123.442 174.573 123.503L175.079 125.593C175.099 125.674 175.144 125.747 175.209 125.801C175.274 125.854 175.355 125.885 175.439 125.889L183.208 126.278C183.267 126.281 183.326 126.27 183.381 126.247C183.435 126.224 183.484 126.189 183.523 126.145C183.561 126.101 183.59 126.048 183.605 125.992C183.62 125.935 183.623 125.876 183.612 125.818Z" fill="url(#paint37_linear_18_1790)"/>
<path d="M192.937 139.529C192.937 139.529 193.694 136.44 193.388 135.344C193.083 134.248 192.492 132.836 190.522 133.152C188.551 133.468 186.228 134.292 186.228 134.292C186.228 134.292 186.345 135.719 187.843 135.259L186.914 135.972C186.914 135.972 187.047 137.113 188.312 136.505L187.448 137.451C187.448 137.451 187.991 138.39 188.922 137.788C189.852 137.186 190.298 139.901 192.937 139.529Z" fill="url(#paint38_linear_18_1790)"/>
<path d="M194.091 109.184L197.109 117.853C197.135 117.923 197.135 118 197.109 118.069C197.082 118.139 197.032 118.197 196.966 118.233C196.144 118.685 193.179 119.99 189.607 117.741C189.422 117.627 189.266 117.473 189.148 117.292C189.03 117.11 188.954 116.905 188.925 116.691L187.948 109.188L194.091 109.184Z" fill="url(#paint39_linear_18_1790)"/>
<path d="M187.334 100.228C187.243 100.354 184.407 110.173 184.407 110.173L190.086 111.662L194.167 102.753C194.167 102.753 188.856 98.129 187.334 100.228Z" fill="url(#paint40_linear_18_1790)"/>
<path d="M191.911 103.412C191.979 103.52 192.022 103.643 192.035 103.77C192.049 103.898 192.032 104.026 191.987 104.147L190.235 108.935C190.209 109.007 190.173 109.076 190.127 109.138C189.875 109.483 188.979 110.515 187.946 109.543C187.063 108.715 186.24 107.966 185.471 107.74C185.364 107.709 185.251 107.7 185.141 107.713C185.03 107.725 184.923 107.759 184.825 107.813C184.728 107.867 184.642 107.94 184.574 108.027C184.505 108.114 184.454 108.214 184.424 108.321C184.162 109.243 183.67 111.115 183.468 112.839C183.445 113.047 183.502 113.257 183.627 113.426C183.752 113.595 183.936 113.711 184.144 113.751C185.278 113.971 187.505 114.336 189.399 114.234C189.552 114.226 189.699 114.177 189.826 114.092C189.952 114.007 190.053 113.889 190.118 113.752C190.7 112.52 192.347 109.071 192.963 108.169C193.535 107.333 194.895 107.343 195.518 107.398C195.635 107.409 195.752 107.395 195.863 107.358C195.974 107.321 196.076 107.262 196.163 107.184C196.691 106.711 197.561 105.618 196.312 104.296C196.163 104.135 196.084 103.922 196.091 103.704C196.098 103.486 196.191 103.279 196.349 103.127C196.932 102.563 197.497 101.607 196.547 100.41C195.586 99.2015 194.314 99.3216 193.486 99.5884C193.307 99.6494 193.112 99.6507 192.932 99.5921C192.752 99.5336 192.596 99.4183 192.487 99.2638C192.434 99.183 192.361 99.1173 192.274 99.0732C192.188 99.0291 192.091 99.0081 191.994 99.0123C191.886 99.0142 191.778 98.9946 191.677 98.9546C191.575 98.9147 191.483 98.8551 191.406 98.7795C191.328 98.7039 191.267 98.6137 191.224 98.5142C191.182 98.4146 191.16 98.3077 191.16 98.1997C191.16 97.4108 190.854 96.4455 189.504 96.0137C187.025 95.2217 185.448 97.5932 185.281 99.3725C185.113 101.152 187.848 101.859 189.463 101.754C190.648 101.673 191.528 102.805 191.911 103.412Z" fill="url(#paint41_linear_18_1790)"/>
<path d="M192.3 109.93C192.3 109.93 192.731 106.843 194.027 106.703C195.322 106.563 196.573 107.632 195.269 109.355C193.649 111.499 192.3 109.93 192.3 109.93Z" fill="url(#paint42_linear_18_1790)"/>
</g>
<defs>
<linearGradient id="paint0_linear_18_1790" x1="230.697" y1="236.094" x2="87.2774" y2="82.3855" gradientUnits="userSpaceOnUse">
<stop stop-color="#DAE3FE"/>
<stop offset="1" stop-color="#E9EFFD"/>
</linearGradient>
<linearGradient id="paint1_linear_18_1790" x1="122.703" y1="151.259" x2="102.464" y2="237.992" gradientUnits="userSpaceOnUse">
<stop stop-color="#09005D"/>
<stop offset="1" stop-color="#1A0F91"/>
</linearGradient>
<linearGradient id="paint2_linear_18_1790" x1="413959" y1="69220.7" x2="407684" y2="332343" gradientUnits="userSpaceOnUse">
<stop stop-color="#09005D"/>
<stop offset="1" stop-color="#1A0F91"/>
</linearGradient>
<linearGradient id="paint3_linear_18_1790" x1="164265" y1="27120.8" x2="164287" y2="36929" gradientUnits="userSpaceOnUse">
<stop stop-color="#09005D"/>
<stop offset="1" stop-color="#1A0F91"/>
</linearGradient>
<linearGradient id="paint4_linear_18_1790" x1="120.399" y1="113.293" x2="141.981" y2="70.8833" gradientUnits="userSpaceOnUse">
<stop stop-color="#4F52FF"/>
<stop offset="1" stop-color="#4042E2"/>
</linearGradient>
<linearGradient id="paint5_linear_18_1790" x1="8459.53" y1="45992.3" x2="14548.5" y2="44017.1" gradientUnits="userSpaceOnUse">
<stop stop-color="#4F52FF"/>
<stop offset="1" stop-color="#4042E2"/>
</linearGradient>
<linearGradient id="paint6_linear_18_1790" x1="8383.68" y1="104723" x2="14981.6" y2="103790" gradientUnits="userSpaceOnUse">
<stop stop-color="#4F52FF"/>
<stop offset="1" stop-color="#4042E2"/>
</linearGradient>
<linearGradient id="paint7_linear_18_1790" x1="9483.06" y1="27128.3" x2="14481.4" y2="24186.5" gradientUnits="userSpaceOnUse">
<stop stop-color="#4F52FF"/>
<stop offset="1" stop-color="#4042E2"/>
</linearGradient>
<linearGradient id="paint8_linear_18_1790" x1="9351.71" y1="96575.2" x2="15906.6" y2="95505.4" gradientUnits="userSpaceOnUse">
<stop stop-color="#4F52FF"/>
<stop offset="1" stop-color="#4042E2"/>
</linearGradient>
<linearGradient id="paint9_linear_18_1790" x1="9909.76" y1="82665.5" x2="16386.8" y2="81387.1" gradientUnits="userSpaceOnUse">
<stop stop-color="#4F52FF"/>
<stop offset="1" stop-color="#4042E2"/>
</linearGradient>
<linearGradient id="paint10_linear_18_1790" x1="10479.5" y1="66081.1" x2="16796.5" y2="64466.8" gradientUnits="userSpaceOnUse">
<stop stop-color="#4F52FF"/>
<stop offset="1" stop-color="#4042E2"/>
</linearGradient>
<linearGradient id="paint11_linear_18_1790" x1="80.1611" y1="4.45608" x2="14.8024" y2="101.979" gradientUnits="userSpaceOnUse">
<stop stop-color="#FF928E"/>
<stop offset="1" stop-color="#FE7062"/>
</linearGradient>
<linearGradient id="paint12_linear_18_1790" x1="45765.5" y1="4624.29" x2="32693.9" y2="37865.2" gradientUnits="userSpaceOnUse">
<stop stop-color="#FF928E"/>
<stop offset="1" stop-color="#FE7062"/>
</linearGradient>
<linearGradient id="paint13_linear_18_1790" x1="56464.4" y1="3235.58" x2="54540.6" y2="16802.8" gradientUnits="userSpaceOnUse">
<stop stop-color="#FF928E"/>
<stop offset="1" stop-color="#FE7062"/>
</linearGradient>
<linearGradient id="paint14_linear_18_1790" x1="35.6949" y1="114.867" x2="26.7369" y2="142.133" gradientUnits="userSpaceOnUse">
<stop stop-color="#FEBBBA"/>
<stop offset="1" stop-color="#FF928E"/>
</linearGradient>
<linearGradient id="paint15_linear_18_1790" x1="2850.86" y1="6090.54" x2="2631.23" y2="6759.06" gradientUnits="userSpaceOnUse">
<stop stop-color="#FEBBBA"/>
<stop offset="1" stop-color="#FF928E"/>
</linearGradient>
<linearGradient id="paint16_linear_18_1790" x1="3217.62" y1="5716.67" x2="2997.98" y2="6385.21" gradientUnits="userSpaceOnUse">
<stop stop-color="#FEBBBA"/>
<stop offset="1" stop-color="#FF928E"/>
</linearGradient>
<linearGradient id="paint17_linear_18_1790" x1="3587.83" y1="6102.6" x2="3368.2" y2="6771.13" gradientUnits="userSpaceOnUse">
<stop stop-color="#FEBBBA"/>
<stop offset="1" stop-color="#FF928E"/>
</linearGradient>
<linearGradient id="paint18_linear_18_1790" x1="4126.89" y1="5527.5" x2="3907.26" y2="6196.04" gradientUnits="userSpaceOnUse">
<stop stop-color="#FEBBBA"/>
<stop offset="1" stop-color="#FF928E"/>
</linearGradient>
<linearGradient id="paint19_linear_18_1790" x1="4510.05" y1="5911.32" x2="4290.42" y2="6579.86" gradientUnits="userSpaceOnUse">
<stop stop-color="#4F52FF"/>
<stop offset="1" stop-color="#4042E2"/>
</linearGradient>
<linearGradient id="paint20_linear_18_1790" x1="53325.4" y1="35548.8" x2="58245.4" y2="35548.8" gradientUnits="userSpaceOnUse">
<stop stop-color="#DAE3FE"/>
<stop offset="1" stop-color="#E9EFFD"/>
</linearGradient>
<linearGradient id="paint21_linear_18_1790" x1="53315.3" y1="27664.7" x2="58235" y2="27664.7" gradientUnits="userSpaceOnUse">
<stop stop-color="#DAE3FE"/>
<stop offset="1" stop-color="#E9EFFD"/>
</linearGradient>
<linearGradient id="paint22_linear_18_1790" x1="197.119" y1="126.065" x2="167.286" y2="154.57" gradientUnits="userSpaceOnUse">
<stop stop-color="#FDF53F"/>
<stop offset="1" stop-color="#D93C65"/>
</linearGradient>
<linearGradient id="paint23_linear_18_1790" x1="-5624.99" y1="21188" x2="-3022.61" y2="27189.3" gradientUnits="userSpaceOnUse">
<stop stop-color="#09005D"/>
<stop offset="1" stop-color="#1A0F91"/>
</linearGradient>
<linearGradient id="paint24_linear_18_1790" x1="-813.441" y1="11643.8" x2="-981.979" y2="11643.8" gradientUnits="userSpaceOnUse">
<stop stop-color="#FEBBBA"/>
<stop offset="1" stop-color="#FF928E"/>
</linearGradient>
<linearGradient id="paint25_linear_18_1790" x1="-1338.94" y1="151843" x2="-3181.5" y2="151843" gradientUnits="userSpaceOnUse">
<stop stop-color="#4F52FF"/>
<stop offset="1" stop-color="#4042E2"/>
</linearGradient>
<linearGradient id="paint26_linear_18_1790" x1="-1613.57" y1="17497" x2="1418.7" y2="20806.3" gradientUnits="userSpaceOnUse">
<stop stop-color="#09005D"/>
<stop offset="1" stop-color="#1A0F91"/>
</linearGradient>
<linearGradient id="paint27_linear_18_1790" x1="-193.041" y1="15165.3" x2="-318.651" y2="15165.3" gradientUnits="userSpaceOnUse">
<stop stop-color="#FEBBBA"/>
<stop offset="1" stop-color="#FF928E"/>
</linearGradient>
<linearGradient id="paint28_linear_18_1790" x1="-186.744" y1="154359" x2="-3900.06" y2="154359" gradientUnits="userSpaceOnUse">
<stop stop-color="#4F52FF"/>
<stop offset="1" stop-color="#4042E2"/>
</linearGradient>
<linearGradient id="paint29_linear_18_1790" x1="-902464" y1="-229886" x2="-863144" y2="-219102" gradientUnits="userSpaceOnUse">
<stop stop-color="#FF928E"/>
<stop offset="1" stop-color="#FE7062"/>
</linearGradient>
<linearGradient id="paint30_linear_18_1790" x1="-7616.15" y1="41601.1" x2="-12014.4" y2="41601.1" gradientUnits="userSpaceOnUse">
<stop stop-color="#FEBBBA"/>
<stop offset="1" stop-color="#FF928E"/>
</linearGradient>
<linearGradient id="paint31_linear_18_1790" x1="60214" y1="19856.6" x2="62390.2" y2="22785.7" gradientUnits="userSpaceOnUse">
<stop stop-color="#FEBBBA"/>
<stop offset="1" stop-color="#FF928E"/>
</linearGradient>
<linearGradient id="paint32_linear_18_1790" x1="-1647.39" y1="7938.56" x2="-1969.09" y2="7653.36" gradientUnits="userSpaceOnUse">
<stop stop-color="#FEBBBA"/>
<stop offset="1" stop-color="#FF928E"/>
</linearGradient>
<linearGradient id="paint33_linear_18_1790" x1="-358784" y1="-92068.6" x2="-343167" y2="-87706.1" gradientUnits="userSpaceOnUse">
<stop stop-color="#FF928E"/>
<stop offset="1" stop-color="#FE7062"/>
</linearGradient>
<linearGradient id="paint34_linear_18_1790" x1="2502.27" y1="26956.2" x2="-4542.57" y2="26956.2" gradientUnits="userSpaceOnUse">
<stop stop-color="#FEBBBA"/>
<stop offset="1" stop-color="#FF928E"/>
</linearGradient>
<linearGradient id="paint35_linear_18_1790" x1="-7125.17" y1="43886.5" x2="-10189.6" y2="58856" gradientUnits="userSpaceOnUse">
<stop stop-color="#09005D"/>
<stop offset="1" stop-color="#1A0F91"/>
</linearGradient>
<linearGradient id="paint36_linear_18_1790" x1="-1857.32" y1="4489.83" x2="-1818.34" y2="4852.67" gradientUnits="userSpaceOnUse">
<stop stop-color="#4F52FF"/>
<stop offset="1" stop-color="#4042E2"/>
</linearGradient>
<linearGradient id="paint37_linear_18_1790" x1="-3374.58" y1="6692.09" x2="-3354.23" y2="7031.88" gradientUnits="userSpaceOnUse">
<stop stop-color="#4F52FF"/>
<stop offset="1" stop-color="#4042E2"/>
</linearGradient>
<linearGradient id="paint38_linear_18_1790" x1="-1259.33" y1="14640.2" x2="-1942.99" y2="14640.2" gradientUnits="userSpaceOnUse">
<stop stop-color="#FEBBBA"/>
<stop offset="1" stop-color="#FF928E"/>
</linearGradient>
<linearGradient id="paint39_linear_18_1790" x1="-1156.82" y1="19333.3" x2="-2258.13" y2="19333.3" gradientUnits="userSpaceOnUse">
<stop stop-color="#FEBBBA"/>
<stop offset="1" stop-color="#FF928E"/>
</linearGradient>
<linearGradient id="paint40_linear_18_1790" x1="8231.92" y1="-3921.09" x2="8591.86" y2="-1148.56" gradientUnits="userSpaceOnUse">
<stop stop-color="#FEBBBA"/>
<stop offset="1" stop-color="#FF928E"/>
</linearGradient>
<linearGradient id="paint41_linear_18_1790" x1="12964.9" y1="-4793.4" x2="10946.4" y2="-6248.56" gradientUnits="userSpaceOnUse">
<stop stop-color="#09005D"/>
<stop offset="1" stop-color="#1A0F91"/>
</linearGradient>
<linearGradient id="paint42_linear_18_1790" x1="2956.18" y1="-100.273" x2="2834.46" y2="-731.268" gradientUnits="userSpaceOnUse">
<stop stop-color="#FEBBBA"/>
<stop offset="1" stop-color="#FF928E"/>
</linearGradient>
<clipPath id="clip0_18_1790">
<rect width="217" height="212.822" fill="white" transform="translate(0 0.155029)"/>
</clipPath>
</defs>
</svg>
